<svg width="387" height="411" viewBox="0 0 387 411" fill="none" xmlns="http://www.w3.org/2000/svg">
<path d="M13.0861 367.451C17.0004 370.217 21.1369 372.652 25.4531 374.733C76.655 400.665 123.162 414.122 181.248 410.385C226.162 407.507 276.12 400.401 317.162 381.224C336.834 372.031 365.666 355.591 361.62 329.325C356.207 294.235 304.322 298.375 278.485 298.603C236.567 298.972 200.465 304.534 158.599 299.481C118.661 294.673 39.2739 290.34 8.09381 323.202C-0.314309 332.062 -2.67906 346.52 3.41682 357.117C5.88543 361.199 9.17901 364.719 13.0861 367.451Z" fill="#CEB5A3"/>
<path d="M53.183 337.887C65.0769 351.643 81.21 362.082 97.9386 369.767C130.437 384.598 165.733 392.274 201.446 392.278C233.239 392.278 272.249 391.839 301.292 377.452C366.228 345.274 372.621 252.687 304.586 222.123C262.738 203.332 215.442 201.49 169.583 202.49C134.461 203.245 97.4832 206.087 68.3176 225.703C44.407 241.774 30.2357 270.636 34.8427 299.481C37.2083 313.762 43.5676 327.079 53.183 337.887Z" fill="#EA8623"/>
<path d="M334.924 322.5C322.312 332.764 306.389 337.957 290.799 342.642C248.04 355.45 203.687 366.153 159.177 362.837C130.116 360.626 101.844 352.538 73.8519 344.414C55.7219 339.151 46.9285 330.781 36.8738 314.113C31.3384 304.92 26.9241 294.287 28.6233 283.69C34.2987 248.406 118.187 279.795 142.711 281.637C203.975 286.261 265.579 280.417 324.887 264.355C329.196 263.197 333.645 261.951 338.077 262.758C344.278 263.916 348.902 268.969 351.39 274.9C352.052 276.441 352.557 278.046 352.896 279.689C356.417 295.603 347.554 312.219 334.924 322.5Z" fill="#E46D25"/>
<path d="M317.986 363.381C288.978 377.768 249.986 378.224 218.14 378.206C182.445 378.197 147.167 370.521 114.685 355.696C97.9562 348.011 81.8232 337.572 69.9117 323.816C60.3172 312.994 53.977 299.672 51.624 285.392C48.1206 263.039 55.7755 240.704 70.5598 224.299C69.8241 224.755 69.0708 225.194 68.3526 225.685C44.4421 241.757 30.2709 270.619 34.8779 299.463C37.2303 313.747 43.5774 327.07 53.183 337.887C65.077 351.643 81.2101 362.082 97.9387 369.767C130.437 384.598 165.734 392.274 201.446 392.278C233.239 392.278 272.25 391.839 301.293 377.452C311.369 372.481 320.471 365.736 328.163 357.538C324.9 359.703 321.5 361.654 317.986 363.381Z" fill="#E46D25"/>
<path d="M346.853 295.568C335.345 307.06 320.035 313.833 305.005 320.131C263.753 337.203 220.714 352.362 176.098 353.573C146.95 354.345 118.012 349.134 89.3546 343.905C62.5713 339.01 32.3371 330.518 27.1871 299.305C26.887 297.564 26.6881 295.806 26.5916 294.042C25.3304 273.724 38.7658 267.145 59.0329 268.987C90.0203 271.777 120.342 275.286 151.505 274.461C212.922 272.843 273.618 260.781 331 238.791C335.169 237.195 339.514 235.51 343.963 235.861C350.234 236.388 355.349 240.932 358.414 246.581C359.242 248.05 359.911 249.603 360.411 251.213C365.456 266.636 358.397 284.058 346.853 295.568Z" fill="#A93C24"/>
<path d="M316.9 310.552C275.648 327.623 232.609 342.782 187.976 343.993C158.845 344.748 129.907 339.554 101.25 334.308C74.4663 329.43 44.2321 320.921 39.0646 289.725C38.7786 287.982 38.5856 286.225 38.4865 284.462C37.9909 279.602 38.8139 274.698 40.8688 270.268C31.287 273.285 25.7692 280.672 26.5925 293.989C26.6891 295.754 26.8879 297.511 27.1881 299.253C32.3381 330.466 62.5722 338.958 89.3556 343.853C118.013 349.116 146.951 354.38 176.099 353.52C220.715 352.31 263.684 337.15 305.006 320.079C320.018 313.833 335.311 307.078 346.819 295.515C337.338 301.455 327.321 306.489 316.9 310.552Z" fill="#832E1A"/>
<path d="M206.21 334.817C201.41 334.817 201.41 342.291 206.21 342.291C211.01 342.291 211.027 334.817 206.21 334.817Z" fill="#EF5323"/>
<path d="M251.404 330.764C250.814 330.764 250.248 330.999 249.831 331.417C249.414 331.834 249.18 332.401 249.18 332.992C249.18 333.583 249.414 334.15 249.831 334.568C250.248 334.986 250.814 335.22 251.404 335.22C251.994 335.22 252.56 334.986 252.977 334.568C253.395 334.15 253.629 333.583 253.629 332.992C253.629 332.401 253.395 331.834 252.977 331.417C252.56 330.999 251.994 330.764 251.404 330.764Z" fill="#EF5323"/>
<path d="M257.57 312.605H257.185C256.745 312.741 256.361 313.015 256.088 313.386C255.815 313.757 255.667 314.205 255.667 314.666C255.667 315.127 255.815 315.576 256.088 315.947C256.361 316.318 256.745 316.591 257.185 316.728H257.57C257.895 316.81 258.235 316.817 258.563 316.749C258.891 316.681 259.2 316.54 259.466 316.336C259.732 316.132 259.949 315.87 260.1 315.57C260.251 315.271 260.332 314.941 260.338 314.605C260.312 314.281 260.216 313.966 260.056 313.683C259.897 313.4 259.678 313.155 259.415 312.965C259.152 312.775 258.851 312.644 258.532 312.582C258.214 312.52 257.886 312.527 257.57 312.605Z" fill="#EF5323"/>
<path d="M226.04 339.396C225.422 339.396 224.829 339.642 224.392 340.08C223.955 340.517 223.71 341.111 223.71 341.73C223.71 342.349 223.955 342.942 224.392 343.38C224.829 343.818 225.422 344.063 226.04 344.063C226.658 344.063 227.25 343.818 227.687 343.38C228.124 342.942 228.37 342.349 228.37 341.73C228.37 341.111 228.124 340.517 227.687 340.08C227.25 339.642 226.658 339.396 226.04 339.396Z" fill="#EF5323"/>
<path d="M140.102 334.904C139.478 334.303 138.646 333.967 137.781 333.967C136.915 333.967 136.083 334.303 135.46 334.904C135.072 335.263 134.746 335.684 134.496 336.15C134.163 336.76 134.037 337.462 134.136 338.15C134.236 338.838 134.555 339.475 135.047 339.965C135.539 340.456 136.176 340.773 136.863 340.87C137.55 340.967 138.25 340.837 138.858 340.501C139.326 340.264 139.748 339.943 140.102 339.554C140.698 338.927 141.031 338.095 141.031 337.229C141.031 336.364 140.698 335.531 140.102 334.904Z" fill="#EF5323"/>
<path d="M153.502 342.923C151.925 341.344 148.404 342.379 148.702 344.905C148.746 345.078 148.746 345.259 148.702 345.432C148.711 346.029 148.952 346.6 149.374 347.022C149.796 347.445 150.365 347.686 150.962 347.695C151.142 347.668 151.325 347.668 151.505 347.695C152.059 347.699 152.601 347.533 153.058 347.219C153.515 346.906 153.865 346.459 154.062 345.941C154.271 345.437 154.33 344.884 154.23 344.348C154.131 343.812 153.877 343.317 153.502 342.923Z" fill="#EF5323"/>
<path d="M120.535 342.344C120.175 342.149 119.765 342.064 119.357 342.097C118.949 342.13 118.559 342.281 118.235 342.532C117.911 342.782 117.666 343.122 117.53 343.509C117.394 343.896 117.373 344.314 117.47 344.713L117.575 345.028C117.635 345.255 117.741 345.466 117.884 345.651C118.028 345.836 118.207 345.991 118.411 346.105C118.615 346.22 118.84 346.292 119.072 346.318C119.305 346.344 119.54 346.323 119.764 346.256H120.045C120.455 346.149 120.823 345.922 121.103 345.603C121.383 345.284 121.56 344.888 121.613 344.467C121.666 344.045 121.591 343.618 121.399 343.24C121.207 342.861 120.906 342.549 120.535 342.344Z" fill="#EF5323"/>
<path d="M75.6915 333.062C75.7014 332.934 75.7014 332.805 75.6915 332.676C75.5201 332.127 75.1778 331.646 74.7146 331.305C74.2514 330.964 73.6915 330.78 73.1165 330.78C72.5415 330.78 71.9816 330.964 71.5184 331.305C71.0551 331.646 70.7129 332.127 70.5415 332.676C70.5315 332.805 70.5315 332.934 70.5415 333.062C70.4039 333.479 70.3669 333.922 70.4337 334.356C70.5005 334.789 70.669 335.201 70.9255 335.557C71.182 335.912 71.5192 336.202 71.9092 336.401C72.2993 336.601 72.731 336.705 73.169 336.705C73.6071 336.705 74.0389 336.601 74.4289 336.401C74.8189 336.202 75.156 335.912 75.4125 335.557C75.669 335.201 75.8376 334.789 75.9043 334.356C75.9711 333.922 75.9342 333.479 75.7966 333.062H75.6915Z" fill="#EF5323"/>
<path d="M272.021 317.921C271.394 317.921 270.792 318.17 270.349 318.615C269.905 319.059 269.656 319.661 269.656 320.289C269.656 320.918 269.905 321.52 270.349 321.964C270.792 322.408 271.394 322.658 272.021 322.658C272.648 322.658 273.25 322.408 273.693 321.964C274.137 321.52 274.386 320.918 274.386 320.289C274.386 319.661 274.137 319.059 273.693 318.615C273.25 318.17 272.648 317.921 272.021 317.921Z" fill="#EF5323"/>
<path d="M327.515 300.586C326.711 300.586 325.94 300.906 325.372 301.475C324.804 302.044 324.484 302.816 324.484 303.621C324.484 304.426 324.804 305.198 325.372 305.768C325.94 306.337 326.711 306.657 327.515 306.657C328.319 306.657 329.089 306.337 329.658 305.768C330.226 305.198 330.545 304.426 330.545 303.621C330.545 302.816 330.226 302.044 329.658 301.475C329.089 300.906 328.319 300.586 327.515 300.586Z" fill="#EF5323"/>
<path d="M335.398 292.27C334.91 292.27 334.442 292.464 334.097 292.809C333.752 293.155 333.559 293.623 333.559 294.112C333.559 294.6 333.752 295.069 334.097 295.414C334.442 295.76 334.91 295.954 335.398 295.954C335.886 295.954 336.353 295.76 336.698 295.414C337.043 295.069 337.237 294.6 337.237 294.112C337.237 293.623 337.043 293.155 336.698 292.809C336.353 292.464 335.886 292.27 335.398 292.27Z" fill="#EF5323"/>
<path d="M343.368 289.497C343.021 289.536 342.701 289.702 342.468 289.962C342.235 290.223 342.106 290.56 342.106 290.91C342.106 291.259 342.235 291.597 342.468 291.857C342.701 292.118 343.021 292.283 343.368 292.322C343.715 292.283 344.035 292.118 344.268 291.857C344.501 291.597 344.629 291.259 344.629 290.91C344.629 290.56 344.501 290.223 344.268 289.962C344.035 289.702 343.715 289.536 343.368 289.497Z" fill="#EF5323"/>
<path d="M300.557 315.219C300.055 315.219 299.574 315.418 299.219 315.774C298.864 316.129 298.665 316.611 298.665 317.114C298.665 317.616 298.864 318.098 299.219 318.454C299.574 318.809 300.055 319.009 300.557 319.009C301.059 319.009 301.54 318.809 301.895 318.454C302.249 318.098 302.449 317.616 302.449 317.114C302.449 316.611 302.249 316.129 301.895 315.774C301.54 315.418 301.059 315.219 300.557 315.219Z" fill="#EF5323"/>
<path d="M81.9103 249.81C74.7634 255.074 64.6913 252.354 56.6685 248.564C48.6458 244.774 40.1851 239.967 31.4967 241.739C22.8259 270.636 19.9705 306.955 35.9285 333.94C39.2391 339.642 49.872 358.942 55.5649 360.696C62.2564 362.872 68.1246 356.187 73.0819 351.239C81.0696 343.309 91.0017 337.905 101.599 333.694C113.003 329.22 125.177 326.22 136.476 323.079L222.308 299.253C243.329 293.428 264.612 287.55 286.403 287.55C310.103 287.55 331.947 293.27 353.808 302.534C360.026 305.165 367.926 307.797 372.901 303.253C376.51 299.919 376.597 294.34 376.212 289.445C374.092 262.565 367.594 239.002 349.779 218.562C346.276 214.561 342.65 210.438 337.762 208.421C331.264 205.719 323.854 207.245 316.987 208.807C290.975 214.719 267.432 224.018 241.857 231.177C189.832 245.722 128.926 260.144 75.2014 249.459H77.1809" fill="#FCB837"/>
<path d="M99.357 334.852C84.9231 342.256 70.2789 349.783 55.337 338.361C44.2663 329.904 32.565 313.64 28.8865 300.2C26.364 290.866 25.8736 281.128 25.3831 271.478C17.0451 286.76 27.7655 320.184 35.8933 333.957C39.239 339.642 49.8718 358.942 55.5647 360.696C62.2562 362.872 68.1244 356.187 73.0817 351.239C80.6613 344.076 89.5951 338.505 99.357 334.852Z" fill="#D99728"/>
<path d="M350.602 267.127C354.135 263.754 357 259.741 359.045 255.301C360.73 250.748 361.504 245.907 361.322 241.055C361.43 239.22 361.099 237.385 360.359 235.703C359.965 234.875 359.318 234.193 358.512 233.758C357.706 233.323 356.782 233.156 355.874 233.282C354.969 233.564 354.138 234.043 353.44 234.686C335.985 248.517 317.001 260.291 296.86 269.776C293.699 271.028 290.773 272.808 288.207 275.04C286.938 276.169 285.989 277.614 285.457 279.229C284.925 280.843 284.828 282.57 285.176 284.234C287.874 293.41 311.697 289.006 318.16 287.164C330.524 283.411 341.702 276.507 350.602 267.127Z" fill="#ECA423"/>
<path d="M54.917 304.341C68.2299 315.324 87.9364 318.605 104.525 320.728C114.592 322.295 124.859 322.022 134.829 319.921C138.473 319.061 160.737 311.394 159.633 306.025C160.632 310.92 167.095 311.92 172.088 311.833C177.08 311.745 182.598 311.499 186.276 308.218C179.094 298.621 170.932 288.339 159.23 285.725C155.846 285.097 152.407 284.809 148.965 284.865C135.565 284.672 121.954 285.111 108.589 284.374C96.1869 283.69 83.5747 279.356 71.0326 279.356C65.9877 279.356 53.1653 279.444 50.4327 275.426C48.1771 276.379 45.7514 276.863 43.3033 276.847C41.2538 284.199 44.0915 292.234 48.8561 298.2C50.6551 300.455 52.6867 302.513 54.917 304.341Z" fill="#D99728"/>
<path d="M369.591 281.742C369.135 277.251 368.68 272.373 365.79 268.794C365.546 268.533 365.228 268.352 364.879 268.277C364.53 268.201 364.166 268.235 363.837 268.372C363.507 268.509 363.227 268.745 363.035 269.046C362.842 269.347 362.746 269.7 362.759 270.057C362.987 275.567 365.895 280.742 366.263 286.374C366.42 288.462 366.946 293.112 365.492 294.814C362.409 298.446 356.944 296.779 353.335 295.059C352.319 294.586 351.443 296.007 352.442 296.603C357.697 299.726 366.035 302.92 369.013 295.007C370.572 291.112 370.011 285.901 369.591 281.742Z" fill="#FFECCC"/>
<path d="M361.866 255.021C361.146 255.024 360.443 255.241 359.846 255.644C359.249 256.048 358.785 256.619 358.512 257.286C358.239 257.953 358.169 258.686 358.312 259.393C358.454 260.1 358.803 260.748 359.313 261.257C359.823 261.766 360.473 262.111 361.179 262.251C361.885 262.39 362.617 262.317 363.282 262.04C363.946 261.764 364.514 261.296 364.914 260.696C365.314 260.096 365.527 259.391 365.527 258.67C365.504 257.706 365.111 256.789 364.429 256.109C363.746 255.428 362.828 255.039 361.866 255.021Z" fill="#FFECCC"/>
<path d="M97.5877 323.711C90.2656 323.711 82.1903 328.413 76.0944 332.185C69.9985 335.957 63.0969 340.958 59.2782 347.415C58.8403 348.169 59.7512 349.169 60.5044 348.643C66.6353 344.66 71.8554 339.572 78.3191 335.993C84.7828 332.413 92.3327 331.15 98.6388 327.641C99.0274 327.401 99.3285 327.043 99.4972 326.618C99.6659 326.193 99.6932 325.725 99.5751 325.284C99.4571 324.842 99.1999 324.45 98.8418 324.167C98.4837 323.884 98.0439 323.724 97.5877 323.711Z" fill="#FFECCC"/>
<path d="M109.429 321.009C108.883 321.02 108.356 321.208 107.925 321.544C107.495 321.881 107.186 322.349 107.044 322.877C106.901 323.405 106.934 323.965 107.137 324.473C107.34 324.981 107.702 325.409 108.168 325.693L108.483 325.921C108.764 326.099 109.089 326.194 109.421 326.194C109.752 326.194 110.077 326.099 110.358 325.921L110.691 325.693C111.145 325.402 111.496 324.973 111.69 324.468C111.885 323.964 111.914 323.41 111.774 322.888C111.633 322.366 111.33 321.902 110.909 321.564C110.487 321.226 109.969 321.032 109.429 321.009Z" fill="#FFECCC"/>
<path d="M48.0152 284.444C64.7614 309.569 89.18 311.324 111.444 310.412C120.202 310.043 129.136 309.517 137.597 305.516C143.377 302.797 153.099 298.235 156.865 289.831C168.006 264.864 139.559 257.179 131.729 253.565C113.717 245.094 93.9477 241.051 74.0629 241.774C59.2436 242.406 24.1397 248.617 48.0152 284.444Z" fill="#F0562A"/>
<path d="M48.0155 268.811C64.7616 293.954 89.1803 295.691 111.444 294.779C124.792 294.235 138.788 292.866 150.139 280.918C153.195 277.909 155.281 274.053 156.13 269.847C157.125 263.777 155.913 257.552 152.714 252.301C150.148 248.561 146.668 245.541 142.607 243.529C120.571 231.036 97.2555 225.176 74.0456 226.159C59.2438 226.773 24.1399 232.984 48.0155 268.811Z" fill="#F26E48"/>
<path d="M92.5258 291.691C106.579 295.758 121.428 296.216 135.705 293.024C136.21 292.955 136.678 292.72 137.036 292.357C137.912 291.269 136.476 289.831 135.285 289.217C120.783 281.957 105.249 276.986 89.2326 274.479C81.0158 273.187 72.7108 272.542 64.3936 272.549C62.3091 272.549 56.3709 271.794 56.5811 275.444C56.7213 277.777 63.9908 280.304 65.9001 281.269C74.4067 285.622 83.3261 289.113 92.5258 291.691Z" fill="#EB5929"/>
<path d="M156.515 294.726C175.311 318.377 199.782 318.061 221.906 315.289C230.559 314.201 239.422 312.921 247.55 308.271C253.068 305.078 262.387 299.709 265.418 291.024C274.439 265.215 245.431 259.934 237.391 257.004C218.734 250.067 198.693 247.697 178.937 250.091C164.187 251.916 129.714 261.039 156.515 294.726Z" fill="#F0562A"/>
<path d="M155.201 279.163C173.996 302.797 198.467 302.498 220.591 299.709C233.834 298.042 247.655 295.515 257.99 282.655C260.78 279.401 262.537 275.388 263.035 271.128C263.515 264.992 261.788 258.887 258.165 253.916C255.292 250.397 251.564 247.678 247.339 246.02C224.34 235.493 200.622 231.545 177.57 234.458C162.89 236.318 128.417 245.459 155.201 279.163Z" fill="#F26E48"/>
<path d="M215.932 296.972C228.615 294.256 241.04 290.446 253.068 285.585C255.942 284.585 258.626 283.101 261.003 281.198C262.187 280.239 263.131 279.016 263.76 277.628C264.39 276.239 264.687 274.722 264.629 273.198C260.781 273.066 256.932 273.42 253.173 274.251C236.03 277.327 218.956 280.836 201.953 284.778C197.714 285.737 193.475 286.737 189.236 287.778C186.363 288.462 179.321 288.831 177.289 291.006C171.596 297.095 185.102 299.112 188.238 299.428C197.54 300.044 206.882 299.216 215.932 296.972Z" fill="#EB5929"/>
<path d="M277.241 283.058C304.83 295.34 326.376 283.655 344.699 270.917C351.881 265.934 359.15 260.688 364.16 252.775C367.663 247.371 373.339 238.283 372.008 229.177C368.066 202.122 339.917 210.912 331.386 212.07C311.643 214.594 292.789 221.813 276.4 233.124C264.226 241.546 237.915 265.636 277.241 283.058Z" fill="#F0562A"/>
<path d="M268.833 269.864C296.423 282.146 317.968 270.461 336.274 257.723C347.309 250.161 358.38 241.388 361.673 225.264C362.632 221.082 362.328 216.709 360.797 212.702C358.389 207.046 354.04 202.44 348.535 199.718C344.369 197.936 339.814 197.259 335.31 197.753C310.016 199.034 287.209 206.526 268.133 219.878C255.871 228.352 229.561 252.442 268.833 269.864Z" fill="#F26E48"/>
<path d="M293.129 271.759C311.242 265.636 327.533 255.091 342.772 243.546C347.477 240.239 351.734 236.334 355.437 231.931C359.147 227.501 361.214 221.922 361.288 216.14C361.288 213.842 360.167 211.017 357.872 210.877C356.491 210.965 355.201 211.596 354.281 212.631C340.898 224.106 325.395 232.686 310.261 241.581C302.483 246.143 294.723 250.81 287.349 256.038C284.336 258.161 268.571 268.004 269.394 271.935C270.585 277.812 290.257 272.742 293.129 271.759Z" fill="#EB5929"/>
<path d="M346.853 237.651C335.345 249.143 320.035 255.916 305.005 262.215C263.753 279.304 220.714 294.463 176.098 295.673C146.95 296.428 118.012 291.252 89.3546 286.006C62.5713 281.041 32.3546 272.549 27.1871 241.388C26.887 239.647 26.6881 237.889 26.5916 236.125C25.3304 215.807 38.7658 209.228 59.0329 211.07C90.0203 213.86 120.342 217.386 151.505 216.544C212.922 214.926 273.618 202.865 331 180.874C335.169 179.278 339.514 177.594 343.963 177.944C350.234 178.471 355.349 183.015 358.414 188.665C359.242 190.134 359.911 191.686 360.411 193.297C365.456 208.719 358.397 226.141 346.853 237.651Z" fill="#A93C24"/>
<path d="M316.9 252.635C275.648 269.706 232.609 284.865 187.976 286.076C158.845 286.83 129.907 281.654 101.25 276.408C74.4663 271.513 44.2321 263.021 39.0646 231.808C38.7786 230.065 38.5856 228.308 38.4865 226.545C37.9926 221.685 38.8155 216.782 40.8688 212.351C31.287 215.368 25.7692 222.755 26.5925 236.072C26.6891 237.836 26.8879 239.594 27.1881 241.335C32.3381 272.548 62.5722 281.04 89.3556 285.936C118.013 291.199 146.951 296.357 176.099 295.603C220.715 294.392 263.684 279.233 305.006 262.144C320.018 255.916 335.311 249.161 346.819 237.686C337.335 243.595 327.318 248.6 316.9 252.635Z" fill="#832E1A"/>
<path d="M206.21 276.9C201.41 276.9 201.41 284.374 206.21 284.374C211.01 284.374 211.027 276.9 206.21 276.9Z" fill="#EF5323"/>
<path d="M251.403 272.847C250.845 272.896 250.326 273.153 249.948 273.567C249.569 273.981 249.359 274.522 249.359 275.084C249.359 275.645 249.569 276.186 249.948 276.6C250.326 277.014 250.845 277.271 251.403 277.321C251.962 277.271 252.481 277.014 252.859 276.6C253.238 276.186 253.448 275.645 253.448 275.084C253.448 274.522 253.238 273.981 252.859 273.567C252.481 273.153 251.962 272.896 251.403 272.847Z" fill="#EF5323"/>
<path d="M257.57 254.705H257.185C256.745 254.841 256.361 255.115 256.088 255.486C255.815 255.857 255.667 256.306 255.667 256.767C255.667 257.227 255.815 257.676 256.088 258.047C256.361 258.418 256.745 258.692 257.185 258.828H257.57C257.895 258.918 258.237 258.931 258.568 258.867C258.899 258.803 259.211 258.663 259.479 258.459C259.747 258.254 259.965 257.99 260.115 257.688C260.264 257.385 260.342 257.052 260.342 256.714C260.342 256.376 260.264 256.043 260.115 255.74C259.965 255.438 259.747 255.174 259.479 254.969C259.211 254.764 258.899 254.625 258.568 254.561C258.237 254.496 257.895 254.51 257.57 254.6V254.705Z" fill="#EF5323"/>
<path d="M226.04 281.497C225.459 281.547 224.919 281.814 224.525 282.244C224.131 282.675 223.912 283.238 223.912 283.821C223.912 284.405 224.131 284.968 224.525 285.398C224.919 285.829 225.459 286.096 226.04 286.146C226.621 286.096 227.161 285.829 227.555 285.398C227.949 284.968 228.168 284.405 228.168 283.821C228.168 283.238 227.949 282.675 227.555 282.244C227.161 281.814 226.621 281.547 226.04 281.497Z" fill="#EF5323"/>
<path d="M140.102 276.988C139.478 276.386 138.646 276.05 137.781 276.05C136.915 276.05 136.083 276.386 135.459 276.988C135.071 277.346 134.746 277.767 134.496 278.233C134.17 278.844 134.049 279.544 134.151 280.229C134.252 280.914 134.571 281.548 135.06 282.037C135.549 282.527 136.182 282.846 136.866 282.948C137.55 283.05 138.248 282.928 138.858 282.602C139.323 282.352 139.743 282.026 140.102 281.637C140.698 281.01 141.031 280.178 141.031 279.312C141.031 278.447 140.698 277.614 140.102 276.988Z" fill="#EF5323"/>
<path d="M153.502 285.006C151.925 283.427 148.404 284.462 148.702 286.988C148.746 287.161 148.746 287.342 148.702 287.515C148.711 288.112 148.952 288.683 149.374 289.105C149.796 289.528 150.365 289.769 150.962 289.778C151.141 289.743 151.325 289.743 151.505 289.778C152.058 289.777 152.597 289.609 153.054 289.296C153.51 288.983 153.861 288.54 154.062 288.024C154.271 287.52 154.33 286.967 154.23 286.431C154.131 285.895 153.877 285.4 153.502 285.006Z" fill="#EF5323"/>
<path d="M120.535 284.427C120.175 284.232 119.765 284.147 119.357 284.18C118.949 284.213 118.559 284.364 118.235 284.615C117.911 284.866 117.666 285.205 117.53 285.592C117.394 285.979 117.373 286.397 117.47 286.796L117.575 287.111C117.635 287.338 117.741 287.55 117.884 287.735C118.028 287.919 118.207 288.074 118.411 288.188C118.615 288.303 118.84 288.375 119.072 288.401C119.305 288.427 119.54 288.406 119.764 288.34L120.045 288.252C120.431 288.13 120.775 287.901 121.035 287.589C121.295 287.278 121.461 286.899 121.512 286.497C121.564 286.094 121.499 285.685 121.326 285.319C121.153 284.952 120.879 284.642 120.535 284.427Z" fill="#EF5323"/>
<path d="M75.6915 275.145C75.6996 275.017 75.6996 274.888 75.6915 274.759C75.5201 274.21 75.1778 273.729 74.7146 273.388C74.2514 273.047 73.6915 272.863 73.1165 272.863C72.5415 272.863 71.9816 273.047 71.5184 273.388C71.0551 273.729 70.7129 274.21 70.5415 274.759C70.5334 274.888 70.5334 275.017 70.5415 275.145C70.4039 275.562 70.3669 276.005 70.4337 276.439C70.5005 276.872 70.669 277.284 70.9255 277.64C71.182 277.995 71.5192 278.285 71.9092 278.484C72.2993 278.684 72.731 278.788 73.169 278.788C73.6071 278.788 74.0389 278.684 74.4289 278.484C74.8189 278.285 75.156 277.995 75.4125 277.64C75.669 277.284 75.8376 276.872 75.9043 276.439C75.9711 276.005 75.9342 275.562 75.7966 275.145H75.6915Z" fill="#EF5323"/>
<path d="M272.021 260.021C271.431 260.072 270.882 260.343 270.482 260.78C270.081 261.217 269.859 261.788 269.859 262.381C269.859 262.974 270.081 263.545 270.482 263.982C270.882 264.419 271.431 264.69 272.021 264.741C272.611 264.69 273.16 264.419 273.56 263.982C273.96 263.545 274.182 262.974 274.182 262.381C274.182 261.788 273.96 261.217 273.56 260.78C273.16 260.343 272.611 260.072 272.021 260.021Z" fill="#EF5323"/>
<path d="M327.515 242.669C326.711 242.669 325.94 242.989 325.372 243.558C324.804 244.127 324.484 244.899 324.484 245.704C324.484 246.509 324.804 247.281 325.372 247.851C325.94 248.42 326.711 248.74 327.515 248.74C328.319 248.74 329.089 248.42 329.658 247.851C330.226 247.281 330.545 246.509 330.545 245.704C330.545 244.899 330.226 244.127 329.658 243.558C329.089 242.989 328.319 242.669 327.515 242.669Z" fill="#EF5323"/>
<path d="M335.398 234.37C334.91 234.37 334.442 234.564 334.097 234.91C333.752 235.255 333.559 235.724 333.559 236.212C333.559 236.701 333.752 237.17 334.097 237.515C334.442 237.861 334.91 238.055 335.398 238.055C335.886 238.055 336.353 237.861 336.698 237.515C337.043 237.17 337.237 236.701 337.237 236.212C337.237 235.724 337.043 235.255 336.698 234.91C336.353 234.564 335.886 234.37 335.398 234.37Z" fill="#EF5323"/>
<path d="M343.368 231.58C343.021 231.619 342.701 231.785 342.468 232.045C342.235 232.306 342.106 232.643 342.106 232.993C342.106 233.342 342.235 233.68 342.468 233.94C342.701 234.201 343.021 234.366 343.368 234.405C343.715 234.366 344.035 234.201 344.268 233.94C344.501 233.68 344.629 233.342 344.629 232.993C344.629 232.643 344.501 232.306 344.268 232.045C344.035 231.785 343.715 231.619 343.368 231.58Z" fill="#EF5323"/>
<path d="M300.557 257.302C300.055 257.302 299.574 257.502 299.219 257.857C298.864 258.212 298.665 258.694 298.665 259.197C298.665 259.699 298.864 260.181 299.219 260.537C299.574 260.892 300.055 261.092 300.557 261.092C301.059 261.092 301.54 260.892 301.895 260.537C302.249 260.181 302.449 259.699 302.449 259.197C302.449 258.694 302.249 258.212 301.895 257.857C301.54 257.502 301.059 257.302 300.557 257.302Z" fill="#EF5323"/>
<path d="M342.737 205.911C344.797 207.013 346.479 208.709 347.563 210.781C348.647 212.853 349.084 215.203 348.816 217.526C347.677 224.369 340.951 229.159 334.101 230.299C327.252 231.44 320.316 229.756 313.589 228.071C315.096 241.95 304.375 256.038 290.589 258.302C276.804 260.565 262.195 250.599 259.199 236.949C258.849 245.143 248.689 251.091 241.332 247.336C250.301 255.319 240.421 271.689 228.457 272.461C216.493 273.233 206.123 264.846 197.084 256.933C203.653 269.496 190.533 285.971 176.432 285.216C162.856 284.444 152.206 271.531 150.454 257.986C150.769 264.671 144.113 270.776 137.211 270.899C129.819 270.987 123.198 265.636 119.607 259.161C123.706 271.601 112.267 286.409 99.1822 285.479C86.0971 284.55 76.708 268.443 82.401 256.635C75.114 268.829 60.4347 278.11 46.8767 273.9C34.3696 270.022 28.8869 251.091 37.873 242.809C35.2741 244.419 32.3993 245.532 29.3948 246.09C28.1336 225.773 41.6567 219.193 61.8362 221.036C92.8411 223.825 123.145 227.352 154.308 226.51C215.725 224.899 276.421 212.844 333.804 190.858C337.973 189.261 342.334 187.559 346.784 187.928C353.055 188.454 358.17 192.998 361.235 198.648C360.775 199.71 360.101 200.665 359.256 201.455C354.929 205.525 348.816 206.297 342.737 205.911Z" fill="#832E1A"/>
<path d="M361.673 177.383C369.012 176.628 372.025 189.138 366.35 194.367C362.023 198.385 355.839 199.086 349.831 198.788C351.896 199.879 353.583 201.571 354.668 203.642C355.753 205.712 356.186 208.064 355.91 210.386C354.771 217.211 348.044 222.018 341.213 223.159C334.381 224.299 327.41 222.597 320.701 220.913C322.172 234.809 311.469 248.88 297.701 251.143C283.933 253.407 269.306 243.441 266.311 229.791C265.96 238.002 255.713 243.967 248.443 240.195C257.394 248.161 247.497 264.53 235.533 265.302C223.569 266.074 213.199 257.688 204.178 249.792C210.729 262.337 197.644 278.847 183.526 278.058C170.073 277.321 159.51 264.688 157.601 251.284C157.601 257.793 151.049 263.653 144.323 263.741C136.913 263.846 130.309 258.477 126.718 252.003C130.817 264.478 119.361 279.268 106.294 278.321C93.226 277.374 83.8194 261.32 89.4948 249.477C82.2078 261.758 67.5287 270.97 53.9706 266.741C41.481 262.881 35.9982 243.932 44.9318 235.686C30.9183 244.459 8.56673 237.44 4.11744 221.246C-1.45294 200.841 14.1897 193.893 29.6221 192.56C34.1491 192.136 38.7057 192.136 43.2327 192.56C70.2846 195.363 97.5175 195.985 124.669 194.419C178.41 191.224 231.26 179.184 281.095 158.785C302.641 149.872 324.729 139.239 347.554 137.432C352.518 137.041 357.508 137.105 362.461 137.625C373.724 138.853 386.687 145.293 386.985 156.609C387.528 168.663 373.689 175.646 361.673 177.383Z" fill="#00A74F"/>
<path d="M201.674 259.934C188.045 259.179 177.43 246.248 175.696 232.668C176.029 239.388 169.355 245.511 162.453 245.617C155.044 245.617 148.44 240.353 144.936 233.879C148.16 243.739 141.661 254.933 132.342 258.881C135.635 261.937 139.939 263.668 144.428 263.741C151.33 263.653 157.986 257.512 157.671 250.792C159.423 264.39 169.933 277.303 183.631 278.058C194.141 278.637 204.214 269.531 205.808 259.635C204.445 259.889 203.058 259.989 201.674 259.934Z" fill="#00934B"/>
<path d="M124.424 260.267C111.356 259.407 101.95 243.248 107.625 231.422C100.338 243.704 85.6765 252.915 72.1184 248.687C59.5238 244.774 54.0585 225.65 63.36 217.456C49.3464 226.422 26.7846 219.527 22.3178 203.192C21.4574 200.207 21.0848 197.102 21.2143 193.998C9.1977 197.016 -0.313995 204.701 4.22288 221.316C8.68969 237.651 31.1814 244.546 45.265 235.581C36.016 243.774 41.4813 262.916 54.0234 266.829C67.5815 271.04 82.2607 261.758 89.5478 249.547C83.8548 261.372 93.2788 277.619 106.346 278.391C116.611 279.075 125.843 270.092 127.367 260.179C126.389 260.28 125.406 260.309 124.424 260.267Z" fill="#00934B"/>
<path d="M222.325 231.668C227.038 240.686 221.572 251.705 212.901 256.916C219.75 261.986 227.283 265.846 235.586 265.32C244.607 264.723 252.455 255.249 251.894 247.213C240.683 247.108 230.874 239.177 222.325 231.668Z" fill="#00934B"/>
<path d="M338.901 202.789C339.214 206.467 338.791 210.171 337.657 213.684C336.523 217.197 334.701 220.448 332.297 223.246C335.289 223.676 338.326 223.676 341.318 223.246C348.15 222.088 354.876 217.299 356.032 210.456C356.291 208.768 356.122 207.043 355.542 205.438C349.902 205.304 344.305 204.413 338.901 202.789Z" fill="#00934B"/>
<path d="M315.831 233.002C302.08 235.265 287.436 225.317 284.441 211.667C284.091 219.878 273.931 225.826 266.574 222.071C270.673 225.703 270.795 231.089 268.623 235.967C273.983 246.266 286.14 253.038 297.736 251.143C307.721 249.512 316.094 241.616 319.37 232.124C318.214 232.505 317.031 232.798 315.831 233.002Z" fill="#00934B"/>
<path d="M346.976 175.4C339.812 187.682 325.605 193.63 312.188 198.209C261.816 215.518 209.131 225.135 155.902 226.738C122.339 227.791 69.0527 231.563 41.2884 207.666C36.3821 203.538 32.416 198.405 29.6572 192.612C34.1842 192.188 38.7408 192.188 43.2678 192.612C70.3197 195.415 97.5527 196.037 124.704 194.472C178.437 191.256 231.274 179.199 281.095 158.785C302.641 149.872 324.73 139.239 347.554 137.432C352.406 150.153 353.65 164.013 346.976 175.4Z" fill="#00934B"/>
<path d="M314.378 191.875C327.761 187.261 341.984 181.348 349.131 169.066C358.03 153.855 352.862 134.134 343.876 118.957C312.731 65.9352 244.433 46.6353 183.141 49.6005C135.845 51.9165 85.1689 65.9352 53.5159 103.552C31.6548 129.607 12.6489 174.962 43.3035 201.332C71.0678 225.211 124.372 221.439 157.934 220.404C211.216 218.814 263.955 209.196 314.378 191.875Z" fill="#EA8623"/>
<path d="M192.915 202.929C159.335 203.982 106.048 207.736 78.2839 183.857C47.6118 157.539 66.6176 112.132 88.4787 86.0771C96.1402 77.0051 105.025 69.0451 114.877 62.426C91.4041 70.9004 69.9459 84.0418 53.5675 103.517C31.7064 129.572 12.7007 174.927 43.3553 201.297C71.1196 225.176 124.423 221.404 157.986 220.369C211.248 218.785 263.969 209.179 314.377 191.875C324.764 188.366 335.625 183.892 343.315 176.383C294.72 192.444 244.063 201.385 192.915 202.929Z" fill="#E46D25"/>
<path d="M305.392 224.825C304.165 230.703 301.888 237.195 295.337 238.634C287.367 240.388 280.798 234.967 278.048 227.913C277.973 227.717 277.827 227.556 277.639 227.462C277.452 227.368 277.236 227.347 277.034 227.405C276.832 227.462 276.659 227.592 276.548 227.771C276.438 227.949 276.398 228.163 276.436 228.37C279.344 249.652 312.626 246.652 313.011 225.861C313.064 221.58 306.302 220.474 305.392 224.825Z" fill="#00AC4F"/>
<path d="M368.084 142.275C365.071 142.117 363.127 146.45 365.527 148.468C368.697 151.153 377.789 153.732 373.514 159.171C369.486 164.277 362.864 163.627 357.644 166.329C357.192 166.564 356.833 166.945 356.627 167.41C356.42 167.876 356.377 168.398 356.505 168.891C356.327 169.185 356.244 169.527 356.269 169.87C356.295 170.213 356.426 170.539 356.646 170.803C359.147 173.43 361.158 176.484 362.584 179.822C361.913 179.992 361.323 180.393 360.917 180.954C360.511 181.515 360.313 182.201 360.359 182.892C361.112 192.735 348.325 191.191 341.984 190.928C339.812 190.84 339.777 193.735 341.511 194.437C343.515 195.281 345.59 195.945 347.712 196.419C347.364 197.142 347.301 197.969 347.537 198.735C347.737 199.439 348.16 200.058 348.741 200.501C349.321 200.943 350.03 201.186 350.76 201.192C359.711 201.402 368.435 195.384 369.696 186.156C370.041 183.665 369.862 181.13 369.171 178.713C368.48 176.295 367.293 174.05 365.684 172.119C372.586 171.26 380.048 165.996 382.29 160.539C386.004 151.556 376.755 142.748 368.084 142.275Z" fill="#00AC4F"/>
<path d="M352.511 204.122C351.127 200.876 346.976 203.069 346.661 205.719C345.995 211.105 345.242 216.86 339.163 218.772C333.558 220.527 328.968 216.86 324.887 213.614C324.598 213.343 324.23 213.171 323.836 213.125C323.443 213.078 323.045 213.159 322.701 213.355C322.356 213.551 322.084 213.852 321.922 214.214C321.761 214.576 321.72 214.981 321.804 215.369C321.804 215.474 321.804 215.561 321.804 215.667C321.149 216.044 320.627 216.618 320.313 217.307C319.999 217.996 319.908 218.766 320.052 219.509C322.4 232.352 312.8 240.107 302.238 244.406C300.486 245.143 299.715 248.459 302.238 248.862C316.444 251.143 326.761 236.44 327.322 223.334C329.552 224.611 332.024 225.407 334.579 225.67C337.134 225.932 339.716 225.657 342.159 224.86C350.234 222.088 355.945 212.175 352.511 204.122Z" fill="#00AC4F"/>
<path d="M152.871 87.621C152.031 85.5682 148.983 83.8839 147.213 86.1297C144.341 89.744 144.884 94.762 146.145 98.9553C146.267 99.3551 146.501 99.7112 146.82 99.9809C147.139 100.251 147.529 100.423 147.943 100.476C148.357 100.53 148.778 100.463 149.155 100.284C149.532 100.104 149.849 99.8196 150.069 99.4641C152.101 96.306 154.413 91.3933 152.871 87.621Z" fill="#FDCB85"/>
<path d="M226.354 111.185C224.568 109.338 223.483 106.923 223.289 104.359C223.271 103.808 223.059 103.28 222.689 102.87C222.32 102.461 221.818 102.195 221.271 102.122C220.725 102.048 220.17 102.171 219.706 102.468C219.241 102.765 218.897 103.218 218.735 103.745C217.997 105.838 217.891 108.103 218.429 110.256C218.968 112.409 220.129 114.355 221.765 115.852C222.402 116.346 223.198 116.59 224.002 116.536C224.806 116.482 225.563 116.134 226.129 115.559C226.694 114.984 227.029 114.221 227.071 113.415C227.113 112.609 226.858 111.815 226.354 111.185Z" fill="#FDCB85"/>
<path d="M106.592 157.329C104.192 157.715 103.088 160.381 102.405 162.487C101.948 164.325 101.9 166.242 102.265 168.101C102.398 168.576 102.683 168.993 103.075 169.291C103.467 169.589 103.945 169.75 104.437 169.751C104.925 169.736 105.397 169.57 105.786 169.274C106.176 168.978 106.463 168.568 106.609 168.101C107.119 166.934 107.785 165.842 108.589 164.855C109.849 163.754 110.655 162.221 110.848 160.557C110.838 160.042 110.712 159.536 110.479 159.078C110.246 158.619 109.912 158.219 109.502 157.908C109.092 157.597 108.617 157.384 108.113 157.283C107.609 157.183 107.089 157.198 106.592 157.329Z" fill="#FDCB85"/>
<path d="M302.448 115.676C301.375 115.188 300.428 114.46 299.681 113.547C298.934 112.634 298.406 111.562 298.138 110.413C298.13 109.957 297.96 109.519 297.658 109.178C297.356 108.837 296.943 108.615 296.492 108.553C296.039 108.481 295.576 108.579 295.191 108.828C294.806 109.077 294.527 109.461 294.407 109.904C294.143 110.963 294.093 112.065 294.262 113.144C294.43 114.223 294.813 115.257 295.388 116.185C296.569 118.121 298.453 119.523 300.643 120.098C301.211 120.258 301.817 120.203 302.347 119.944C302.876 119.685 303.292 119.24 303.515 118.693C303.738 118.147 303.753 117.537 303.556 116.981C303.359 116.424 302.964 115.96 302.448 115.676Z" fill="#FDCB85"/>
<path d="M270.585 157.346C268.191 155.064 266.058 152.522 264.227 149.767C263.989 149.381 263.633 149.083 263.212 148.916C262.791 148.75 262.328 148.724 261.891 148.842C261.454 148.96 261.067 149.217 260.787 149.573C260.507 149.929 260.35 150.366 260.338 150.819C260.158 153.055 260.489 155.302 261.306 157.391C262.122 159.479 263.403 161.354 265.05 162.873C268.834 166.049 274.089 161.066 270.585 157.346Z" fill="#FDCB85"/>
<path d="M190.357 159.311C189.429 157.364 185.873 158.223 186.153 160.434C186.766 165.154 186.942 172.049 191.636 174.47C191.781 174.556 191.941 174.612 192.108 174.635C192.274 174.658 192.444 174.648 192.606 174.606C192.769 174.564 192.922 174.49 193.056 174.388C193.19 174.287 193.303 174.159 193.388 174.014C195.945 169.452 192.442 163.61 190.357 159.311Z" fill="#FDCB85"/>
<path d="M75.4114 116.957C75.1869 116.2 74.6783 115.559 73.9924 115.17C73.3064 114.781 72.4965 114.673 71.7328 114.869C68.5272 115.378 66.8982 119.852 65.8998 122.519C65.1816 124.396 63.7977 129.309 67.2836 129.537C70.2089 129.677 71.1898 126.624 72.5386 124.519C73.94 122.08 75.9545 119.94 75.4114 116.957Z" fill="#FDCB85"/>
<path d="M198.398 168.382C198.212 168.085 197.953 167.84 197.647 167.67C197.341 167.5 196.996 167.411 196.646 167.411C196.296 167.411 195.951 167.5 195.645 167.67C195.338 167.84 195.08 168.085 194.894 168.382C194.001 170.365 194.684 174.856 191.969 175.699C188.238 176.874 187.782 169.575 187.292 167.505C187.157 167.189 186.933 166.919 186.646 166.729C186.36 166.539 186.024 166.438 185.68 166.438C185.337 166.438 185.001 166.539 184.714 166.729C184.428 166.919 184.203 167.189 184.069 167.505C183.621 169.029 183.486 170.627 183.672 172.205C183.859 173.782 184.363 175.305 185.155 176.681C185.862 177.895 186.891 178.888 188.128 179.551C189.365 180.214 190.761 180.52 192.162 180.436C193.407 180.267 194.589 179.779 195.592 179.02C196.595 178.261 197.387 177.256 197.89 176.102C198.765 173.944 199.711 170.558 198.398 168.382Z" fill="#E46D25"/>
<path d="M111.076 166.242C110.706 165.893 110.237 165.67 109.734 165.604C109.231 165.538 108.72 165.632 108.273 165.873C106.837 166.557 106.802 168.207 105.681 169.189C105.275 169.563 104.78 169.827 104.243 169.956C103.707 170.085 103.147 170.075 102.615 169.926C100.268 169.031 100.864 165.277 101.372 163.452C101.438 163.195 101.436 162.925 101.366 162.668C101.297 162.412 101.161 162.179 100.974 161.991C100.786 161.803 100.553 161.667 100.297 161.597C100.041 161.527 99.7716 161.526 99.5149 161.592C93.5066 163.662 95.2932 172.277 100.093 174.698C101.413 175.32 102.87 175.59 104.325 175.483C105.779 175.375 107.181 174.893 108.396 174.084C110.691 172.575 113.633 168.751 111.076 166.242Z" fill="#E46D25"/>
<path d="M72.8369 123.835C71.2078 125.94 70.4546 128.94 67.5818 129.888C66.9805 130.057 66.3508 130.098 65.7325 130.01C65.1142 129.922 64.521 129.707 63.9905 129.377C63.4601 129.047 63.004 128.61 62.6512 128.094C62.2984 127.577 62.0567 126.993 61.9414 126.379C61.8813 126.187 61.7675 126.017 61.6138 125.888C61.4601 125.758 61.2727 125.676 61.0738 125.65C60.8749 125.624 60.6728 125.656 60.4913 125.742C60.3098 125.827 60.1565 125.963 60.0496 126.133C58.2979 130.361 61.8013 134.344 66.0929 134.695C71.0502 135.116 76.2352 130.361 76.7432 125.536C76.7401 125.085 76.6061 124.644 76.3575 124.267C76.1089 123.89 75.7564 123.593 75.3427 123.413C74.9291 123.233 74.4722 123.177 74.0274 123.251C73.5825 123.326 73.169 123.529 72.8369 123.835Z" fill="#E46D25"/>
<path d="M152.555 98.0957C151.417 100.956 148.474 102.938 145.549 100.657C142.991 98.5694 143.674 94.5515 143.342 91.6566C143.323 91.356 143.201 91.0714 142.996 90.8512C142.791 90.6311 142.515 90.4891 142.217 90.4498C141.919 90.4104 141.617 90.476 141.362 90.6353C141.107 90.7946 140.915 91.0378 140.819 91.3232C138.892 96.2359 139.716 102.728 145.041 105.026C149.56 106.974 155.674 104.359 156.392 99.1835C156.43 98.7137 156.304 98.2452 156.035 97.858C155.767 97.4708 155.373 97.189 154.92 97.0606C154.467 96.9322 153.984 96.9652 153.553 97.1539C153.121 97.3427 152.769 97.6756 152.555 98.0957Z" fill="#E46D25"/>
<path d="M231.347 111.43C231.186 110.936 230.879 110.503 230.465 110.19C230.052 109.876 229.553 109.697 229.035 109.676C226.845 109.43 226.687 111.886 226.828 113.378C226.93 114.152 226.859 114.94 226.619 115.683C226.38 116.427 225.978 117.108 225.444 117.676C222.834 120.203 218.997 116.694 219.786 113.641C219.845 113.397 219.823 113.141 219.724 112.911C219.625 112.68 219.454 112.488 219.237 112.364C219.019 112.239 218.768 112.188 218.519 112.219C218.271 112.25 218.039 112.361 217.859 112.536C213.69 116.676 218.437 123.238 223.482 123.343C229.105 123.431 233.221 116.483 231.347 111.43Z" fill="#E46D25"/>
<path d="M273.598 153.486C273.245 153.393 272.875 153.381 272.517 153.453C272.159 153.524 271.821 153.676 271.531 153.898C271.24 154.12 271.004 154.405 270.84 154.732C270.676 155.059 270.589 155.419 270.585 155.785C270.918 158.329 272.88 162.031 270.147 163.996C267.099 166.224 263.631 162.557 262.159 160.136C262.042 159.939 261.87 159.78 261.663 159.68C261.457 159.58 261.226 159.542 260.999 159.572C260.772 159.602 260.558 159.698 260.384 159.848C260.211 159.998 260.085 160.196 260.022 160.417C257.675 167.101 267.169 171.277 272.284 168.61C277.399 165.943 280.377 155.89 273.598 153.486Z" fill="#E46D25"/>
<path d="M307.125 112.816C306.796 112.731 306.453 112.722 306.12 112.789C305.788 112.857 305.475 112.999 305.205 113.205C304.935 113.411 304.715 113.676 304.562 113.979C304.409 114.283 304.327 114.617 304.322 114.957C304.322 116.115 304.953 117.045 304.743 118.185C304.629 118.703 304.4 119.188 304.072 119.604C303.745 120.021 303.327 120.357 302.851 120.589C299.855 121.905 297.053 118.606 295.389 116.606C294.338 115.325 292.551 116.729 292.831 118.097C293.917 123.361 300.469 127.73 305.601 124.887C309.122 122.922 312.958 114.448 307.125 112.816Z" fill="#E46D25"/>
<path d="M361.288 243.932C359.035 248.353 356.11 252.395 352.617 255.916C348.922 259.214 344.922 262.151 340.67 264.688C339.672 265.373 340.267 267.215 341.546 266.776C351.268 263.478 359.326 254.354 364.073 245.564C365.071 243.722 362.234 242.072 361.288 243.932Z" fill="#FFECCC"/>
<path d="M248.549 299.726C243.294 301.481 238.529 304.727 232.994 306.236C226.885 307.641 220.641 308.376 214.373 308.429C213.147 308.429 212.762 310.376 214.075 310.657C225.059 313.026 241.735 310.359 249.81 301.884C250.668 301.042 249.827 299.288 248.549 299.726Z" fill="#FFECCC"/>
<path d="M256.572 293.796C256.107 293.796 255.661 293.981 255.333 294.31C255.004 294.639 254.82 295.085 254.82 295.551C254.82 296.016 255.004 296.462 255.333 296.791C255.661 297.12 256.107 297.305 256.572 297.305C257.036 297.305 257.482 297.12 257.81 296.791C258.139 296.462 258.323 296.016 258.323 295.551C258.323 295.085 258.139 294.639 257.81 294.31C257.482 293.981 257.036 293.796 256.572 293.796Z" fill="#FFECCC"/>
<path d="M129.976 298.674C124.721 298.06 119.694 300.288 114.597 301.358C108.135 302.67 101.462 302.52 95.0651 300.92C94.9058 300.868 94.7328 300.878 94.5806 300.948C94.4284 301.018 94.3081 301.143 94.244 301.298C94.1799 301.453 94.1766 301.627 94.2346 301.784C94.2926 301.942 94.4078 302.072 94.5572 302.148C99.1816 305.376 104.945 305.446 110.322 304.815C116.751 304.043 124.336 302.709 130.239 299.902C130.975 299.586 130.554 298.726 129.976 298.674Z" fill="#FFECCC"/>
<path d="M85.8861 2.77216C85.6759 4.52669 85.8861 5.29869 87.3925 5.38642C89.5822 5.49169 90.423 4.66706 90.5982 2.22826C90.7208 0.596548 89.8099 0.0350906 88.4786 0C86.2364 0 86.0963 1.77208 85.8861 2.77216ZM88.4786 1.22817C89.2844 1.22817 89.407 1.7019 89.2669 2.33353C89.0917 3.22834 88.7063 4.29861 87.8655 4.42142C87.0247 4.54424 87.3926 3.29853 87.0072 2.80726C86.9927 2.61427 87.0183 2.42038 87.0822 2.23774C87.1461 2.0551 87.2469 1.88766 87.3785 1.74596C87.5101 1.60426 87.6696 1.49134 87.8468 1.41431C88.0241 1.33728 88.2153 1.29782 88.4086 1.29836L88.4786 1.22817Z" fill="#2A292A"/>
</svg>
