<svg height="512pt" viewBox="-98 0 512 512" width="512pt" xmlns="http://www.w3.org/2000/svg"><path d="m141.175781 7.851562c6.167969-.210937 12.449219-.320312 18.824219-.320312 83.167969 0 150.589844 18.539062 150.589844 41.410156v346.351563h-37.648438v-346.351563c0-21.117187-57.480468-38.542968-131.765625-41.089844zm0 0" fill="#fff"/><path d="m7.53125 395.292969v-346.351563c0-22.871094 67.417969-41.410156 150.585938-41.410156 83.167968 0 150.589843 18.539062 150.589843 41.410156v346.351563" fill="#fff"/><path d="m176.941406 7.851562c-6.167968-.210937-12.449218-.320312-18.824218-.320312-83.167969 0-150.585938 18.539062-150.585938 41.410156v346.351563h37.644531v-346.351563c0-21.117187 57.480469-38.542968 131.765625-41.089844zm0 0" fill="#e5ecec"/><path d="m137.410156 7.851562c6.167969-.210937 12.449219-.320312 18.824219-.320312 83.167969 0 150.589844 18.539062 150.589844 41.410156v346.351563h-37.648438v-346.351563c0-21.117187-57.480469-38.542968-131.765625-41.089844zm0 0" fill="#e5ecec"/><path d="m7.53125 463.058594v-69.648438c0-22.871094 67.417969-41.410156 150.585938-41.410156 83.167968 0 150.589843 18.539062 150.589843 41.410156v69.648438" fill="#ff6969"/><path d="m7.53125 463.058594v-69.648438c0-22.871094 67.417969-41.410156 150.585938-41.410156 83.167968 0 150.589843 18.539062 150.589843 41.410156v69.648438" fill="#ff6969"/><path d="m7.53125 457.410156v-33.878906c0-22.875 67.417969-41.414062 150.585938-41.414062 83.167968 0 150.589843 18.539062 150.589843 41.414062v30.117188" fill="#ff9c43"/><path d="m308.707031 463.058594c0-22.871094-67.421875-41.410156-150.589843-41.410156-83.167969 0-150.585938 18.539062-150.585938 41.410156s67.417969 41.410156 150.585938 41.410156c83.167968 0 150.589843-18.539062 150.589843-41.410156zm0 0" fill="#b8bfc5"/><path d="m279.601562 438.589844c-27.402343 10.269531-71.609374 16.941406-121.484374 16.941406s-94.078126-6.671875-121.484376-16.941406c-18.292968 6.855468-29.101562 15.3125-29.101562 24.46875 0 22.871094 67.417969 41.410156 150.585938 41.410156 83.167968 0 150.589843-18.539062 150.589843-41.410156 0-9.15625-10.8125-17.613282-29.105469-24.46875zm0 0" fill="#88888d"/><path d="m239.597656 398.230469c-4.722656-.859375-9.6875-1.648438-14.75-2.351563l2.070313-14.917968c5.269531.734374 10.441406 1.558593 15.367187 2.453124zm0 0" fill="#fff"/><path d="m37.648438 60.234375h15.058593v112.941406h-15.058593zm0 0"/><path d="m263.53125 60.234375h15.058594v112.941406h-15.058594zm0 0"/><path d="m90.351562 143.058594h15.058594v15.058594h-15.058594zm0 0"/><path d="m210.824219 143.058594h15.058593v15.058594h-15.058593zm0 0"/><path d="m150.589844 90.351562h15.058594v15.058594h-15.058594zm0 0"/><path d="m266.597656 12.398438c-29.074218-7.996094-67.601562-12.398438-108.480468-12.398438-40.878907 0-79.402344 4.402344-108.476563 12.398438-32.9375 9.058593-49.640625 21.351562-49.640625 36.542968v414.117188c0 15.191406 16.703125 27.484375 49.640625 36.542968 29.074219 7.996094 67.597656 12.398438 108.476563 12.398438 40.878906 0 79.40625-4.402344 108.480468-12.398438 32.9375-9.058593 49.636719-21.351562 49.636719-36.542968v-414.117188c0-15.191406-16.699219-27.484375-49.636719-36.542968zm-251.539062 36.542968c0-3.375 5.15625-10.015625 22.589844-16.808594v13.042969h15.058593v-17.996093c.308594-.085938.609375-.175782.925781-.261719 10.933594-3.007813 23.324219-5.472657 36.71875-7.371094v108.453125h15.058594v-110.296875c14.3125-1.492187 29.507813-2.378906 45.179688-2.59375v60.183594h15.058594v-60.183594c15.667968.214844 30.863281 1.101563 45.175781 2.59375v110.296875h15.058593v-108.453125c13.394532 1.898437 25.785157 4.363281 36.71875 7.371094.316407.085937.617188.175781.929688.261719v17.996093h15.058594v-13.042969c17.429687 6.792969 22.585937 13.433594 22.585937 16.808594v322.113282c-8.207031-5.363282-19.738281-10.105469-34.578125-14.1875-29.074218-7.992188-67.601562-12.398438-108.480468-12.398438-40.878907 0-79.402344 4.40625-108.476563 12.398438-14.84375 4.082031-26.375 8.824218-34.582031 14.1875zm143.058594 448c-93.925782 0-143.058594-22.058594-143.058594-33.882812 0-11.824219 49.132812-33.882813 143.058594-33.882813 93.925781 0 143.058593 22.058594 143.058593 33.882813 0 11.824218-49.132812 33.882812-143.058593 33.882812zm143.058593-56.238281c-8.207031-5.367187-19.738281-10.105469-34.578125-14.1875-29.074218-7.996094-67.601562-12.398437-108.480468-12.398437-40.878907 0-79.402344 4.402343-108.476563 12.398437-14.84375 4.082031-26.375 8.824219-34.582031 14.1875v-15.292969c0-4.238281 8.125-13.648437 38.574218-22.019531 27.808594-7.648437 64.917969-11.859375 104.484376-11.859375 17.882812 0 35.355468.863281 51.9375 2.566406l1.539062-14.980468c-17.089844-1.757813-35.082031-2.648438-53.476562-2.648438-40.878907 0-79.402344 4.40625-108.476563 12.398438-14.84375 4.082031-26.375 8.824218-34.582031 14.1875v-9.644532c0-11.824218 49.132812-33.878906 143.058594-33.878906 93.925781 0 143.058593 22.054688 143.058593 33.878906v9.742188c-11.6875-7.675782-28.382812-12.992188-43.449219-16.539063l-3.453124 14.65625c32.226562 7.585938 46.902343 17.832031 46.902343 24.144531zm0 0"/></svg>