<svg width="100" height="120" viewBox="0 0 100 120" fill="none" xmlns="http://www.w3.org/2000/svg">
<path d="M53.9803 77.9099H8.18506V18.9141C8.18506 11.4387 14.0924 5.37854 21.3794 5.37854H40.786C48.0729 5.37854 53.9803 11.4387 53.9803 18.9141V77.9099Z" fill="#965028"/>
<path d="M65.1673 119.605H52.4717V107.516H75.9296V108.564C75.9299 114.662 71.1112 119.605 65.1673 119.605Z" fill="#9EC8A2"/>
<path d="M39.8288 26.0454H20.7033C16.4146 26.0454 12.938 25.1805 12.938 20.785V7.95883C12.938 3.56327 16.4146 0 20.7033 0H39.8288C44.1175 0 47.5941 3.56327 47.5941 7.95883V20.785C47.5941 25.1808 44.1175 26.0454 39.8288 26.0454Z" fill="#965028"/>
<path d="M15.2912 27.6475V13.9055C15.2912 9.19611 19.0159 5.37854 23.611 5.37854H20.0208C15.4259 5.37854 11.7009 9.19611 11.7009 13.9055V27.6475C11.7009 32.3569 15.4257 33.2833 20.0208 33.2833H23.611C19.0162 33.2833 15.2912 32.3569 15.2912 27.6475Z" fill="#965028"/>
<path d="M48.6061 67.1602H13.7447C6.154 67.1602 0.000488281 73.467 0.000488281 81.2467V117.66C13.7447 120 27.6067 120 45.5193 120C51.3497 120 56.9931 119.183 62.3503 117.66V81.247C62.3503 73.467 56.1968 67.1602 48.6061 67.1602Z" fill="#9EC8A2"/>
<path d="M31.1783 74.8695H31.1722C27.5802 74.8695 24.6682 71.8822 24.6682 68.1973V53.2626H37.6823V68.1973C37.6823 71.8822 34.7703 74.8695 31.1783 74.8695Z" fill="#FF965A"/>
<path d="M30.9924 62.1295C20.7895 62.1295 12.5186 53.6524 12.5186 43.1955V27.5475C12.5186 21.4614 17.3325 16.5275 23.2708 16.5275H49.3926L49.6491 43.0083C49.6489 53.5684 41.2961 62.1295 30.9924 62.1295Z" fill="#FFBE82"/>
<path d="M16.1454 45.9915V44.1524C16.1236 43.7734 16.1088 43.3925 16.1088 43.008V19.3301C13.9063 21.3481 12.5186 24.2812 12.5186 27.5472V43.0078C12.5186 48.6181 14.876 53.664 18.631 57.1617C18.8518 57.3676 19.0776 57.5679 19.308 57.7626C19.7686 58.1524 20.2479 58.5197 20.7442 58.8634C20.9653 59.0165 21.1908 59.1633 21.4188 59.3069C18.1569 55.8642 16.1454 51.1697 16.1454 45.9915Z" fill="#FF965A"/>
<path d="M48.8335 40.6603H48.8315V29.4061H48.8335C51.2246 29.4061 53.163 31.3946 53.163 33.8476V36.2191C53.1628 38.6718 51.2244 40.6603 48.8335 40.6603Z" fill="#FF965A"/>
<path d="M11.6991 40.6603H11.7011V29.4061H11.6991C9.308 29.4061 7.36963 31.3946 7.36963 33.8476V36.2191C7.36963 38.6718 9.308 40.6603 11.6991 40.6603Z" fill="#FF965A"/>
<path d="M23.9142 37.7691C23.0646 37.7691 22.3755 37.063 22.3755 36.1921V31.879C22.3755 31.0081 23.0643 30.302 23.9142 30.302C24.7639 30.302 25.453 31.0081 25.453 31.879V36.1921C25.4527 37.063 24.7639 37.7691 23.9142 37.7691Z" fill="#373C41"/>
<path d="M36.4799 37.7691C35.6302 37.7691 34.9412 37.063 34.9412 36.1921V31.879C34.9412 31.0081 35.63 30.302 36.4799 30.302C37.3296 30.302 38.0187 31.0081 38.0187 31.879V36.1921C38.0184 37.063 37.3296 37.7691 36.4799 37.7691Z" fill="#373C41"/>
<path d="M25.9412 29.5136H21.454C20.6044 29.5136 19.9153 28.8074 19.9153 27.9365C19.9153 27.0656 20.6041 26.3595 21.454 26.3595H25.9412C26.7908 26.3595 27.4799 27.0656 27.4799 27.9365C27.4797 28.8077 26.7908 29.5136 25.9412 29.5136Z" fill="#965028"/>
<path d="M38.7634 29.5136H34.2763C33.4266 29.5136 32.7375 28.8074 32.7375 27.9365C32.7375 27.0656 33.4264 26.3595 34.2763 26.3595H38.7634C39.6131 26.3595 40.3022 27.0656 40.3022 27.9365C40.3022 28.8077 39.6133 29.5136 38.7634 29.5136Z" fill="#965028"/>
<path d="M26.6201 46.02C26.6201 48.5984 28.6596 50.6886 31.1751 50.6886C33.6907 50.6886 35.7301 48.5984 35.7301 46.02H26.6201Z" fill="white"/>
<path d="M27.8644 40.4713C27.482 41.8528 28.177 43.3574 29.5065 43.811C29.774 43.9024 30.06 43.9518 30.3576 43.9518C30.6549 43.9518 30.9412 43.9024 31.2088 43.811C32.5382 43.3574 33.2332 41.8528 32.8508 40.4713L30.9852 33.7335C30.8057 33.0854 29.9095 33.0854 29.7303 33.7335L27.8644 40.4713Z" fill="#FF965A"/>
<path d="M45.6342 83.735V67.1602H39.4839L31.0856 94.282L31.0259 118.275C35.6788 119.401 40.5303 120 45.5189 120C47.8694 120 50.1883 119.863 52.4717 119.605V95.0694C48.4186 92.9898 45.6342 88.697 45.6342 83.735Z" fill="#433F43"/>
<path d="M31.3809 74.8696L37.375 80.5003L43.2698 67.1603L37.6736 64.007L31.3809 74.8696Z" fill="white"/>
<path d="M0 81.2471V99.9908C1.61375 101.729 3.32366 103.372 5.11669 104.917V81.2474C5.11669 73.4674 11.2702 67.1605 18.8609 67.1605H13.7442C6.15375 67.1603 0 73.4671 0 81.2471Z" fill="#9EC8A2"/>
<path d="M16.7224 83.735C16.7224 88.6969 13.9381 92.9898 9.88477 95.0694V118.351C17.5 120.351 24.5 119.5 31.2708 118.351V94.282L22.8727 67.1602H16.7224V83.735Z" fill="#554E56"/>
<path d="M16.7224 83.735C16.7224 88.697 13.9381 92.9898 9.88477 95.0694V117.5C11.5388 118.67 14.2365 117.994 16 119L15.0135 95.0694C19.0668 92.9898 21.8512 88.697 21.8512 83.735V67.1602H16.7224V83.735Z" fill="#433F43"/>
<path d="M31.1749 74.8696L25.1808 80.5003L19.0715 67.1603L24.668 64.007L31.1749 74.8696Z" fill="white"/>
<path d="M31.1753 118.312C32.4229 118.611 33.6854 118.869 34.9605 119.09V93.9105H31.1753V118.312Z" fill="#554E56"/>
<path d="M32.3205 99.0109H32.3183C31.6363 99.0109 31.0837 98.4437 31.0837 97.7444C31.0837 97.0448 31.6366 96.4779 32.3183 96.4779H32.3205C33.0024 96.4779 33.555 97.045 33.555 97.7444C33.5553 98.4437 33.0024 99.0109 32.3205 99.0109Z" fill="#433F43"/>
<path d="M32.3205 105.319H32.3183C31.6363 105.319 31.0837 104.752 31.0837 104.052C31.0837 103.353 31.6366 102.786 32.3183 102.786H32.3205C33.0024 102.786 33.555 103.353 33.555 104.052C33.5553 104.752 33.0024 105.319 32.3205 105.319Z" fill="#433F43"/>
<path d="M32.3205 111.627H32.3183C31.6363 111.627 31.0837 111.06 31.0837 110.36C31.0837 109.661 31.6366 109.094 32.3183 109.094H32.3205C33.0024 109.094 33.555 109.661 33.555 110.36C33.5553 111.06 33.0024 111.627 32.3205 111.627Z" fill="#433F43"/>
<path d="M32.3205 117.935H32.3183C31.6363 117.935 31.0837 117.367 31.0837 116.668C31.0837 115.968 31.6366 115.402 32.3183 115.402H32.3205C33.0024 115.402 33.555 115.969 33.555 116.668C33.5553 117.368 33.0024 117.935 32.3205 117.935Z" fill="#433F43"/>
<path d="M11.7022 37.2178H11.7009V18.6686H14.1754V34.6806C14.1757 36.0818 13.0683 37.2178 11.7022 37.2178Z" fill="#965028"/>
<path d="M48.8299 37.2179H48.8312V15.7775H46.3567V34.6807C46.3567 36.0819 47.4638 37.2179 48.8299 37.2179Z" fill="#965028"/>
<path d="M81.3153 110.802H75.9301C74.6554 110.802 73.6221 109.743 73.6221 108.437C73.6221 107.13 74.6554 106.071 75.9301 106.071H81.3153C82.5899 106.071 83.6233 107.13 83.6233 108.437C83.6233 109.743 82.5899 110.802 81.3153 110.802Z" fill="#FFBE82"/>
<path d="M93.8509 108.042H38.3742C34.9782 108.042 32.2253 105.218 32.2253 101.734H100C99.9998 105.218 97.2469 108.042 93.8509 108.042Z" fill="#A56941"/>
<path d="M43.2523 101.734H32.2253C32.2253 105.218 34.9809 108.042 38.3798 108.042H49.4068C46.0077 108.042 43.2523 105.218 43.2523 101.734Z" fill="#965028"/>
<path d="M60.9282 113.167C59.8661 113.167 59.0049 112.285 59.0049 111.196V105.677C59.0049 104.588 59.8661 103.705 60.9282 103.705C61.9904 103.705 62.8516 104.588 62.8516 105.677V111.196C62.8514 112.285 61.9904 113.167 60.9282 113.167Z" fill="#FFBE82"/>
<path d="M64.7746 113.562C63.4999 113.562 62.4666 112.503 62.4666 111.196V105.677C62.4666 104.37 63.4999 103.311 64.7746 103.311C66.0492 103.311 67.0825 104.37 67.0825 105.677V111.196C67.0825 112.503 66.0494 113.562 64.7746 113.562Z" fill="#FFBE82"/>
<path d="M69.1344 113.562C67.8598 113.562 66.8264 112.503 66.8264 111.196V105.677C66.8264 104.37 67.8598 103.311 69.1344 103.311C70.409 103.311 71.4424 104.37 71.4424 105.677V111.196C71.4424 112.503 70.4093 113.562 69.1344 113.562Z" fill="#FFBE82"/>
<path d="M73.4938 113.562C72.2192 113.562 71.1858 112.503 71.1858 111.196V105.677C71.1858 104.37 72.2192 103.311 73.4938 103.311C74.7684 103.311 75.8018 104.37 75.8018 105.677V111.196C75.8018 112.503 74.7686 113.562 73.4938 113.562Z" fill="#FFBE82"/>
<path d="M11.2365 42.816C12.1762 42.816 12.938 42.0352 12.938 41.0722C12.938 40.1091 12.1762 39.3284 11.2365 39.3284C10.2967 39.3284 9.53491 40.1091 9.53491 41.0722C9.53491 42.0352 10.2967 42.816 11.2365 42.816Z" fill="white"/>
<path d="M49.0878 42.816C50.0275 42.816 50.7893 42.0352 50.7893 41.0722C50.7893 40.1091 50.0275 39.3284 49.0878 39.3284C48.148 39.3284 47.3862 40.1091 47.3862 41.0722C47.3862 42.0352 48.148 42.816 49.0878 42.816Z" fill="white"/>
<path d="M29.5801 24.9732H11.7009V15.3029H39.0066C39.0066 20.6437 34.7863 24.9732 29.5801 24.9732Z" fill="#965028"/>
<path d="M38.6724 16.5271C42.8932 16.5271 46.3572 20.2304 46.3572 24.5563L46.5712 16.3079L38.6724 16.5271Z" fill="#965028"/>
<path d="M70.3274 95.2555H84.7169V99.7358H70.3274V95.2555Z" fill="#FFEBB4"/>
<path d="M70.3274 95.2555H76.9791V99.7358H70.3274V95.2555Z" fill="#5F5C54"/>
<path d="M82.3879 97.0755H72.6562C68.0449 97.0755 64.3066 93.2405 64.3066 88.5099V76.978C64.3066 76.0478 65.0417 75.2937 65.9484 75.2937H89.0955C90.0022 75.2937 90.7373 76.0478 90.7373 76.978V88.5099C90.7373 93.2405 86.9993 97.0755 82.3879 97.0755Z" fill="#CECDC3"/>
<path d="M68.6256 88.5139V75.2937H65.9492C65.042 75.2937 64.3066 76.0475 64.3066 76.9772V88.5139C64.3066 93.2422 68.0466 97.0755 72.6599 97.0755H76.9788C72.3656 97.0755 68.6256 93.2422 68.6256 88.5139Z" fill="#92908B"/>
<path d="M64.7529 97.746H90.2911V101.589H64.7529V97.746Z" fill="#5F5C54"/>
<path d="M64.7529 97.746H73.5846V101.589H64.7529V97.746Z" fill="#5F5C54"/>
<path d="M91.0808 99.7415H63.9647C61.8159 99.7415 60.074 97.9546 60.074 95.7501H94.9718C94.9716 97.9546 93.2297 99.7415 91.0808 99.7415Z" fill="#CECDC3"/>
<path d="M66.6205 95.7501H60.073C60.073 97.9546 61.8166 99.7415 63.9674 99.7415H70.5149C68.3643 99.7415 66.6205 97.9546 66.6205 95.7501Z" fill="#5F5C54"/>
<path d="M90.9702 91.2515C87.2398 91.2515 84.2048 88.1411 84.2048 84.3177C84.2048 80.4941 87.2398 77.3837 90.9702 77.3837C94.7006 77.3837 97.7356 80.4941 97.7356 84.3177C97.7356 88.1411 94.7006 91.2515 90.9702 91.2515ZM90.9702 80.7123C89.0306 80.7123 87.4528 82.3297 87.4528 84.3177C87.4528 86.3055 89.0306 87.9229 90.9702 87.9229C92.9098 87.9229 94.4876 86.3055 94.4876 84.3177C94.4874 82.3297 92.9096 80.7123 90.9702 80.7123Z" fill="#CECDC3"/>
<path d="M80.7419 29.4061C80.7419 29.4061 68.726 38.4952 72.6087 48.11C76.4913 57.7248 82.0782 62.1325 77.5218 69.415C77.5218 69.415 84.1309 63.8203 82.3679 56.4056C80.6049 48.9912 76.9788 39.2538 80.7419 29.4061Z" fill="#DAD9CD"/>
</svg>
