<svg width="60" height="60" viewBox="0 0 60 60" fill="none" xmlns="http://www.w3.org/2000/svg">
<path d="M53.4375 11.25V2.8125L23.4375 7.5V11.25H53.4375Z" fill="#FC91AD"/>
<path d="M23.4375 7.5H57.1875V57.1875H23.4375V7.5Z" fill="#FEDAE4"/>
<path d="M23.4375 36.5625C24.9908 36.5625 26.25 35.3033 26.25 33.75C26.25 32.1967 24.9908 30.9375 23.4375 30.9375C21.8842 30.9375 20.625 32.1967 20.625 33.75C20.625 35.3033 21.8842 36.5625 23.4375 36.5625Z" fill="#7CA540"/>
<path d="M4.6875 53.4375C4.6875 48.4647 6.66294 43.6956 10.1792 40.1792C13.6956 36.6629 18.4647 34.6875 23.4375 34.6875C28.4103 34.6875 33.1794 36.6629 36.6958 40.1792C40.2121 43.6956 42.1875 48.4647 42.1875 53.4375H4.6875Z" fill="#88BF40"/>
<path d="M43.125 57.1875H3.75L2.8125 53.4375H44.0625L43.125 57.1875Z" fill="#7CA540"/>
<path d="M2.84084 57.4153C2.89163 57.618 3.0087 57.798 3.17346 57.9266C3.33822 58.0552 3.54122 58.125 3.75022 58.125H43.1252C43.3342 58.125 43.5372 58.0552 43.702 57.9266C43.8667 57.798 43.9838 57.618 44.0346 57.4153L44.9721 53.6653C45.0067 53.5271 45.0094 53.3828 44.9799 53.2434C44.9504 53.1039 44.8895 52.9731 44.8018 52.8607C44.7141 52.7484 44.602 52.6575 44.4739 52.595C44.3459 52.5325 44.2052 52.5 44.0627 52.5H43.0774C42.8643 48.0945 41.1789 43.888 38.2911 40.5542C35.4034 37.2203 31.4803 34.9521 27.1502 34.1128C27.1615 33.9909 27.1877 33.8719 27.1877 33.75C27.1877 32.7554 26.7926 31.8016 26.0894 31.0984C25.3861 30.3951 24.4323 30 23.4377 30C22.4432 30 21.4893 30.3951 20.7861 31.0984C20.0828 31.8016 19.6877 32.7554 19.6877 33.75C19.6877 33.8719 19.714 33.9909 19.7252 34.1128C15.3952 34.9521 11.4721 37.2203 8.5843 40.5542C5.6965 43.888 4.0111 48.0945 3.79803 52.5H2.81272C2.67021 52.5 2.52958 52.5325 2.40152 52.595C2.27346 52.6575 2.16133 52.7484 2.07366 52.8607C1.98598 52.9731 1.92508 53.1039 1.89557 53.2434C1.86606 53.3828 1.86872 53.5271 1.90334 53.6653L2.84084 57.4153ZM42.393 56.25H4.48241L4.01366 54.375H42.8618L42.393 56.25ZM21.5627 33.75C21.5627 33.2527 21.7603 32.7758 22.1119 32.4242C22.4635 32.0725 22.9404 31.875 23.4377 31.875C23.935 31.875 24.4119 32.0725 24.7635 32.4242C25.1152 32.7758 25.3127 33.2527 25.3127 33.75C25.3127 33.7819 25.3043 33.8128 25.3033 33.8437C24.6883 33.7856 24.0677 33.75 23.4377 33.75C22.8077 33.75 22.1871 33.7866 21.5721 33.8437C21.5712 33.8128 21.5627 33.7819 21.5627 33.75ZM23.4377 35.625C27.9951 35.6325 32.3764 37.3859 35.6807 40.5247C38.9849 43.6635 40.961 47.949 41.2024 52.5H5.67303C5.91448 47.949 7.8905 43.6635 11.1948 40.5247C14.499 37.3859 18.8803 35.6325 23.4377 35.625Z" fill="black"/>
<path d="M9.63257 45.4687L11.2554 46.4062C12.7951 43.7461 15.1625 41.6625 17.9965 40.473C20.8306 39.2834 23.9758 39.0532 26.9529 39.8174L27.4216 38.0024C24.048 37.1355 20.4833 37.3959 17.2715 38.7439C14.0596 40.092 11.3769 42.4536 9.63257 45.4687Z" fill="black"/>
<path d="M8.00244 49.4531L9.81744 49.9219C9.97149 49.3238 10.165 48.7365 10.3968 48.1641L8.65869 47.4609C8.39654 48.1099 8.17732 48.7754 8.00244 49.4531Z" fill="black"/>
<path d="M57.1875 6.56243H54.375V2.81243C54.375 2.67712 54.3457 2.54341 54.2891 2.42049C54.2325 2.29757 54.15 2.18835 54.0472 2.10035C53.9444 2.01234 53.8238 1.94763 53.6936 1.91067C53.5635 1.8737 53.4268 1.86534 53.2931 1.88618L23.2931 6.57368V6.5915C23.0741 6.62291 22.8736 6.73187 22.728 6.89857C22.5825 7.06527 22.5016 7.27865 22.5 7.49993V28.1249H24.375V8.43743H56.25V56.2499H45.9375V58.1249H57.1875C57.4361 58.1249 57.6746 58.0262 57.8504 57.8503C58.0262 57.6745 58.125 57.4361 58.125 57.1874V7.49993C58.125 7.25129 58.0262 7.01284 57.8504 6.83702C57.6746 6.66121 57.4361 6.56243 57.1875 6.56243ZM52.5 6.56243H35.5097L52.5 3.90743V6.56243Z" fill="black"/>
<path d="M31.6949 18.5418L29.0427 15.8906L27.717 17.2162L30.3692 19.8675C31.1332 20.6314 32.1375 21.108 33.2124 21.2166C34.2872 21.3253 35.3666 21.0593 36.268 20.4637L38.9867 23.1825L30.3692 31.8L31.6949 33.1256L40.3124 24.5081L48.9299 33.1256L50.2555 31.8L41.638 23.1825L43.0311 21.7893C43.9327 22.3841 45.0119 22.6495 46.0866 22.5409C47.1612 22.4323 48.1655 21.9562 48.9299 21.1931L50.2555 19.8675C50.7032 19.4351 51.0603 18.9178 51.306 18.3459C51.5516 17.774 51.6809 17.1589 51.6863 16.5365C51.6917 15.9141 51.5731 15.2969 51.3375 14.7208C51.1018 14.1447 50.7537 13.6214 50.3136 13.1812C49.8735 12.7411 49.3501 12.3931 48.774 12.1574C48.1979 11.9217 47.5807 11.8031 46.9583 11.8085C46.3359 11.8139 45.7208 11.9432 45.1489 12.1889C44.577 12.4345 44.0598 12.7916 43.6274 13.2393L42.3017 14.565C41.5378 15.3289 41.0612 16.3332 40.9526 17.4081C40.8439 18.483 41.1099 19.5624 41.7055 20.4637L40.3124 21.8568L37.5936 19.1381C38.1892 18.2368 38.4552 17.1573 38.3465 16.0825C38.2379 15.0076 37.7613 14.0033 36.9974 13.2393L34.3461 10.5872L33.0205 11.9128L35.6717 14.565C36.0788 14.9761 36.3492 15.5028 36.446 16.0732C36.5428 16.6436 36.4613 17.23 36.2127 17.7525L31.6949 13.2347L30.3692 14.5603L34.887 19.0781C34.3645 19.3284 33.7774 19.4112 33.2061 19.3152C32.6347 19.2192 32.1069 18.9491 31.6949 18.5418ZM43.6274 15.8906L44.953 14.565C45.4834 14.0527 46.1939 13.7692 46.9313 13.7756C47.6687 13.782 48.3741 14.0778 48.8956 14.5992C49.4171 15.1207 49.7128 15.8261 49.7192 16.5635C49.7257 17.301 49.4422 18.0114 48.9299 18.5418L47.6042 19.8675C47.3448 20.1361 47.0344 20.3504 46.6913 20.4978C46.3482 20.6452 45.9791 20.7227 45.6057 20.726C45.2322 20.7292 44.8619 20.6581 44.5162 20.5167C44.1706 20.3752 43.8566 20.1664 43.5925 19.9023C43.3284 19.6383 43.1196 19.3242 42.9782 18.9786C42.8368 18.6329 42.7656 18.2626 42.7688 17.8892C42.7721 17.5157 42.8497 17.1467 42.9971 16.8035C43.1445 16.4604 43.3587 16.15 43.6274 15.8906Z" fill="black"/>
<path d="M51.5625 35.625H53.4375V37.5H51.5625V35.625Z" fill="black"/>
<path d="M51.5625 39.375H53.4375V41.25H51.5625V39.375Z" fill="black"/>
<path d="M51.5625 43.125H53.4375V45H51.5625V43.125Z" fill="black"/>
<path d="M37.5 35.625H49.6875V37.5H37.5V35.625Z" fill="black"/>
<path d="M41.25 39.375H49.6875V41.25H41.25V39.375Z" fill="black"/>
<path d="M44.0625 43.125H49.6875V45H44.0625V43.125Z" fill="black"/>
<path d="M18.75 9.375H20.625V26.25H18.75V9.375Z" fill="black"/>
</svg>
