<svg width="70" height="70" viewBox="0 0 70 70" fill="none" xmlns="http://www.w3.org/2000/svg">
<path d="M35 0C15.7637 0 0 15.7637 0 35C0 54.2363 15.7637 70 35 70C54.2363 70 70 54.2363 70 35C70 15.7637 54.2363 0 35 0Z" fill="#77DD00"/>
<path d="M70 35C70 54.2363 54.2363 70 35 70V0C54.2363 0 70 15.7637 70 35Z" fill="#66BB00"/>
<path d="M55.2223 30.5591V38.6881H39.0445V54.9462H30.9556V38.6881H14.7778V30.5591H30.9556V14.301H39.0445V30.5591H55.2223Z" fill="#E7E7E7"/>
<path d="M55.2222 30.5591V38.6881H39.0444V54.9462H35V14.301H39.0444V30.5591H55.2222Z" fill="#D3D3D8"/>
</svg>
