<svg width="75" height="77" viewBox="0 0 75 77" fill="none" xmlns="http://www.w3.org/2000/svg">
<path d="M30.4688 22.4551H25.7812V12.8301C25.7813 12.434 25.8767 12.044 26.0588 11.6947C26.241 11.3455 26.5043 11.0478 26.8254 10.8281L37.3723 3.60938L39.9715 7.61338L30.4688 14.1175V22.4551Z" fill="#F9E109"/>
<path d="M39.9727 7.61589L30.4688 14.1128V22.4504H25.7812V12.8254C25.7813 12.4301 25.8766 12.0409 26.0586 11.6924C26.2405 11.344 26.5035 11.0471 26.8242 10.8282L28.0078 10.0101C28.9516 10.3301 29.9559 10.4152 30.938 10.2583C31.9201 10.1014 32.8518 9.70707 33.6562 9.10776L38.5664 5.43823L39.9727 7.61589Z" fill="#FCBC04"/>
<path d="M41.0156 73.3906H15.2344L10.5469 31.2812H45.7031L41.0156 73.3906Z" fill="#F8664F"/>
<path d="M12.8906 26.4688H43.3594C43.981 26.4688 44.5771 26.7223 45.0167 27.1735C45.4562 27.6248 45.7031 28.2368 45.7031 28.875V31.2812H10.5469V28.875C10.5469 28.2368 10.7938 27.6248 11.2333 27.1735C11.6729 26.7223 12.269 26.4688 12.8906 26.4688Z" fill="#84D2F4"/>
<path d="M18.75 21.6562H37.5C38.1216 21.6562 38.7177 21.9098 39.1573 22.361C39.5968 22.8123 39.8438 23.4243 39.8438 24.0625V26.4688H16.4062V24.0625C16.4062 23.4243 16.6532 22.8123 17.0927 22.361C17.5323 21.9098 18.1284 21.6562 18.75 21.6562Z" fill="#84D2F4"/>
<path d="M45.3047 34.8906H18.75C25.5056 41.8257 34.4551 46.0506 43.9805 46.8016L41.0156 73.3906H15.2344L10.5469 31.2812H45.7031L45.3047 34.8906Z" fill="#CC5144"/>
<path d="M45.7031 28.875V31.2812H10.5469V28.875C10.5487 28.2374 10.7963 27.6265 11.2354 27.1756C11.6745 26.7248 12.2696 26.4707 12.8906 26.4688C12.8925 27.1063 13.14 27.7173 13.5791 28.1681C14.0183 28.619 14.6133 28.8731 15.2344 28.875H45.7031Z" fill="#57B7EB"/>
<path d="M39.8438 24.0625V26.4688H16.4062V24.0625C16.4081 23.4249 16.6556 22.814 17.0948 22.3631C17.5339 21.9123 18.129 21.6582 18.75 21.6562C18.7519 22.2938 18.9994 22.9048 19.4385 23.3556C19.8777 23.8065 20.4727 24.0606 21.0938 24.0625H39.8438Z" fill="#57B7EB"/>
<path d="M52.7344 27.6718L50.3906 57.75L49.2188 70.9843L55.0781 72.1875L58.5938 28.875L55.0781 26.95L52.7344 27.6718Z" fill="#E59730"/>
<path d="M45.7031 33.6875L48.0469 62.5625H55.0781L52.7344 32.4844L49.2188 28.875L45.7031 33.6875Z" fill="#FCBC04"/>
<path d="M55.0781 62.5625H48.0469L45.7031 33.6875L47.0859 31.7986L49.2188 49.3281H50.3906L51.668 41.6762L52.7344 40.9062L53.4492 41.6401L55.0781 62.5625Z" fill="#E59730"/>
<path d="M43.3594 37.2968L39.8871 36.072L38.6719 39.7031L44.5312 58.9531L50.0004 56.5468L43.3594 37.2968Z" fill="#F9E109"/>
<path d="M50.0039 56.5468L44.5312 58.953L38.6719 39.703L39.8672 36.1538L42.0117 42.771C43.2628 46.634 45.5643 50.0489 48.6445 52.6126L50.0039 56.5468Z" fill="#FCBC04"/>
<path d="M64.4529 28.875L59.6729 51.7344H64.4529L67.9686 34.8906L64.4529 28.875Z" fill="#F9E109"/>
<path d="M64.2748 40.0941L66.1498 31.7709L64.4529 28.875L59.6729 51.7344H64.4529L66.0502 44.0837C65.3686 43.7112 64.8254 43.1186 64.5045 42.3976C64.1836 41.6765 64.1029 40.867 64.2748 40.0941Z" fill="#FCBC04"/>
<path d="M31.6406 36.0938L39.8438 58.9531L44.5312 57.75L36.3281 36.0938H31.6406Z" fill="#F9E109"/>
<path d="M31.6406 36.0938L39.8438 58.9531L42.1875 58.3516L33.818 36.0938H31.6406Z" fill="#FCBC04"/>
<path d="M57.4219 32.4844L53.9062 61.3594L58.5938 60.1562L63.2812 34.8906L57.4219 32.4844Z" fill="#F9E109"/>
<path d="M60.6094 49.292L58.5937 60.1562L53.9062 61.3594L57.4219 32.4844L59.6953 33.4228L58.7578 46.9339C58.7213 47.4939 58.8915 48.0476 59.2346 48.4845C59.5777 48.9215 60.0686 49.2098 60.6094 49.292Z" fill="#FCBC04"/>
<path d="M56.25 62.5625H51.5625L52.7344 40.9062L57.4219 42.1094L56.25 62.5625Z" fill="#F9E109"/>
<path d="M54.7641 51.2134L55.0289 41.4958L52.7344 40.9062L51.5625 62.5625H56.25L56.7105 54.5328C56.1123 54.2268 55.6114 53.7519 55.2667 53.164C54.9219 52.5761 54.7476 51.8995 54.7641 51.2134Z" fill="#FCBC04"/>
<path d="M62.1094 46.9219C62.1094 51.5732 57.3879 55.3438 51.5625 55.3438C45.7371 55.3438 41.0156 51.5732 41.0156 46.9219H35.1562L38.6719 73.3906H64.4531L67.9688 46.9219H62.1094Z" fill="#84D2F4"/>
<path d="M65.0977 68.5781L64.4531 73.3906H38.6719L35.1562 46.9219H41.0156C41.036 47.94 41.2622 48.9426 41.6798 49.8663C42.0973 50.79 42.6972 51.6146 43.4414 52.2878C44.1271 56.8267 46.3719 60.9639 49.7699 63.9516C53.1679 66.9394 57.4949 68.5804 61.9688 68.5781H65.0977Z" fill="#57B7EB"/>
<path d="M51.5625 68.5781C53.5041 68.5781 55.0781 66.9622 55.0781 64.9688C55.0781 62.9753 53.5041 61.3594 51.5625 61.3594C49.6209 61.3594 48.0469 62.9753 48.0469 64.9688C48.0469 66.9622 49.6209 68.5781 51.5625 68.5781Z" fill="#F9E109"/>
<path d="M54.4805 66.9779C54.0604 67.6197 53.4508 68.106 52.7412 68.3652C52.0317 68.6245 51.2599 68.6429 50.5394 68.4179C49.8189 68.1929 49.1878 67.7363 48.7391 67.1153C48.2904 66.4944 48.0477 65.7419 48.0469 64.9687C48.0445 64.2321 48.2657 63.513 48.6797 62.9114C50.3456 64.6311 52.314 66.0109 54.4805 66.9779Z" fill="#FCBC04"/>
<path d="M35.1562 61.3594H14.0625C12.8193 61.3594 11.627 60.8523 10.7479 59.9498C9.86886 59.0473 9.375 57.8232 9.375 56.5469C9.375 55.2705 9.86886 54.0464 10.7479 53.1439C11.627 52.2414 12.8193 51.7344 14.0625 51.7344H35.1562C36.3995 51.7344 37.5917 52.2414 38.4708 53.1439C39.3499 54.0464 39.8438 55.2705 39.8438 56.5469C39.8438 57.8232 39.3499 59.0473 38.4708 59.9498C37.5917 60.8523 36.3995 61.3594 35.1562 61.3594Z" fill="#F89C8D"/>
<path d="M37.5003 58.9531C38.1638 58.9525 38.8194 58.8048 39.4221 58.52C39.1959 59.0541 38.8739 59.5397 38.4729 59.9517C37.5913 60.8512 36.3995 61.3571 35.1565 61.3594H14.0628C13.1351 61.3601 12.2281 61.0783 11.4566 60.5495C10.6851 60.0208 10.0837 59.2689 9.72861 58.3891C9.37352 57.5092 9.28068 56.541 9.46186 55.607C9.64303 54.6729 10.0901 53.8151 10.7464 53.142C11.1477 52.7304 11.6207 52.3998 12.1409 52.1675C12.7437 51.8827 13.3992 51.735 14.0628 51.7344H35.1565C36.2959 51.7361 37.3957 52.1638 38.2503 52.9375C38.8338 53.4549 39.2777 54.1179 39.5393 54.8625C39.3248 55.2598 39.0106 55.5909 38.6294 55.8215C38.2482 56.0521 37.8138 56.1738 37.3714 56.1739C36.9855 56.1738 36.6047 56.0833 36.2581 55.9092C35.9168 55.7313 35.5393 55.6385 35.1565 55.6385C34.7737 55.6385 34.3963 55.7313 34.055 55.9092L31.5706 57.1845C31.2293 57.3625 30.8518 57.4552 30.469 57.4552C30.0862 57.4552 29.7088 57.3625 29.3675 57.1845L26.8831 55.9092C26.5418 55.7313 26.1643 55.6385 25.7815 55.6385C25.3987 55.6385 25.0213 55.7313 24.68 55.9092L22.1956 57.1845C21.8543 57.3625 21.4768 57.4552 21.094 57.4552C20.7112 57.4552 20.3338 57.3625 19.9925 57.1845L17.5081 55.9092C17.1668 55.7313 16.7893 55.6385 16.4065 55.6385C16.0237 55.6385 15.6463 55.7313 15.305 55.9092L13.4182 56.8837C13.2004 56.991 12.9727 57.0756 12.7386 57.1364C13.1766 57.704 13.7341 58.1624 14.3694 58.477C15.0047 58.7917 15.7012 58.9544 16.4065 58.9531H37.5003Z" fill="#F8664F"/>
<path d="M7.03125 66.1719H42.1875V68.5781C42.1875 69.8545 41.6936 71.0786 40.8146 71.9811C39.9355 72.8836 38.7432 73.3906 37.5 73.3906H11.7188C10.4755 73.3906 9.28326 72.8836 8.40419 71.9811C7.52511 71.0786 7.03125 69.8545 7.03125 68.5781V66.1719Z" fill="#FCBC04"/>
<path d="M27.8906 66.1719L26.9531 67.375L26.0156 66.1719H27.8906Z" fill="#E59730"/>
<path d="M27.8906 66.1719L26.9531 67.375L26.0156 66.1719H27.8906Z" fill="#E59730"/>
<path d="M37.5 66.1719H11.7188C11.0971 66.1719 10.501 65.9184 10.0615 65.4671C9.62193 65.0158 9.375 64.4038 9.375 63.7656C9.375 63.1274 9.62193 62.5154 10.0615 62.0641C10.501 61.6129 11.0971 61.3594 11.7188 61.3594H37.5C38.1216 61.3594 38.7177 61.6129 39.1573 62.0641C39.5968 62.5154 39.8438 63.1274 39.8438 63.7656C39.8438 64.4038 39.5968 65.0158 39.1573 65.4671C38.7177 65.9184 38.1216 66.1719 37.5 66.1719Z" fill="#CC5144"/>
<path d="M28.125 67.375L23.4375 61.3594H32.8125L28.125 67.375Z" fill="#F7F754"/>
<path d="M27.723 62.6491L26.7187 61.3594H23.4375L28.125 67.375L30.7793 63.969C30.2032 64.0268 29.6221 63.9365 29.0885 63.7061C28.5549 63.4756 28.0856 63.1124 27.723 62.6491Z" fill="#F9E109"/>
<path d="M8.20313 51.7344C8.20296 52.4574 8.39903 53.1662 8.76934 53.7812C9.13965 54.3962 9.66956 54.8932 10.2996 55.2162L11.1949 55.6758C11.7213 55.9464 12.3019 56.0873 12.8906 56.0873C13.4793 56.0873 14.0599 55.9464 14.5863 55.6758L16.4719 54.7133C16.8154 54.5371 17.1941 54.4454 17.5781 54.4454C17.9621 54.4454 18.3409 54.5371 18.6844 54.7133L21.1594 55.9838C21.5029 56.16 21.8816 56.2518 22.2656 56.2518C22.6496 56.2518 23.0284 56.16 23.3719 55.9838L25.8469 54.7133C26.1904 54.5371 26.5691 54.4454 26.9531 54.4454C27.3371 54.4454 27.7159 54.5371 28.0594 54.7133L30.5344 55.9838C30.8779 56.16 31.2566 56.2518 31.6406 56.2518C32.0246 56.2518 32.4034 56.16 32.7469 55.9838L35.2219 54.7133C35.5654 54.5371 35.9441 54.4454 36.3281 54.4454C36.7121 54.4454 37.0909 54.5371 37.4344 54.7133C37.812 54.907 38.2315 54.9983 38.6532 54.9786C39.0748 54.9589 39.4846 54.8288 39.8435 54.6007C40.2023 54.3726 40.4984 54.0541 40.7036 53.6753C40.9088 53.2966 41.0162 52.8703 41.0156 52.437V51.7344H8.20313Z" fill="#C4F236"/>
<path d="M30.4688 39.7031H18.75C15.642 39.7031 12.6613 40.9707 10.4636 43.227C8.2659 45.4833 7.03125 48.5435 7.03125 51.7344H42.1875C42.1875 48.5435 40.9529 45.4833 38.7552 43.227C36.5575 40.9707 33.5768 39.7031 30.4688 39.7031Z" fill="#FCBC04"/>
<path d="M42.1875 51.7343H7.03125C7.03232 49.1063 7.8715 46.5509 9.42053 44.4587C10.9696 42.3665 13.1432 40.8525 15.6094 40.1482C16.2184 42.4389 17.544 44.4605 19.382 45.9019C21.2199 47.3432 23.4684 48.1243 25.7812 48.1249H41.6484C42.0076 49.2925 42.1894 50.5099 42.1875 51.7343Z" fill="#E59730"/>
<path d="M42.1875 68.5781C42.1875 69.8545 41.6936 71.0786 40.8146 71.9811C39.9355 72.8836 38.7432 73.3906 37.5 73.3906H11.7188C10.4755 73.3906 9.28326 72.8836 8.40419 71.9811C7.52511 71.0786 7.03125 69.8545 7.03125 68.5781V66.1719H9.52734C9.78553 67.2051 10.3714 68.1207 11.1926 68.7743C12.0138 69.4278 13.0235 69.7821 14.0625 69.7812H38.6719C39.9405 69.7864 41.1756 69.3637 42.1875 68.5781Z" fill="#E59730"/>
<path d="M41.0156 51.7344V52.4322C41.0207 52.6027 41.001 52.773 40.957 52.9375H10.1953C10.5342 53.3915 10.9716 53.7582 11.4727 54.0083L12.3633 54.4775C12.892 54.7446 13.4733 54.8835 14.0625 54.8835C14.6517 54.8835 15.2331 54.7446 15.7617 54.4775L17.6485 53.503C17.9898 53.325 18.3672 53.2323 18.75 53.2323C19.1328 53.2323 19.5103 53.325 19.8516 53.503L22.336 54.7783C22.6773 54.9562 23.0547 55.049 23.4375 55.049C23.8203 55.049 24.1978 54.9562 24.5391 54.7783L27.0235 53.503C27.3648 53.325 27.7422 53.2323 28.125 53.2323C28.5078 53.2323 28.8853 53.325 29.2266 53.503L31.7109 54.7783C32.0523 54.9562 32.4297 55.049 32.8125 55.049C33.1953 55.049 33.5727 54.9562 33.9141 54.7783L36.3984 53.503C36.7398 53.325 37.1172 53.2323 37.5 53.2323C37.8828 53.2323 38.2602 53.325 38.6016 53.503C38.9396 53.6767 39.312 53.7682 39.69 53.7703C40.0681 53.7723 40.4414 53.685 40.7813 53.515C40.5801 53.9499 40.2631 54.3174 39.867 54.575C39.4709 54.8326 39.0119 54.9698 38.543 54.9708C38.1571 54.9707 37.7763 54.8802 37.4297 54.7061C37.0884 54.5281 36.711 54.4354 36.3281 54.4354C35.9453 54.4354 35.5679 54.5281 35.2266 54.7061L32.7422 55.9814C32.4009 56.1594 32.0235 56.2521 31.6406 56.2521C31.2578 56.2521 30.8804 56.1594 30.5391 55.9814L28.0547 54.7061C27.7134 54.5281 27.336 54.4354 26.9531 54.4354C26.5703 54.4354 26.1929 54.5281 25.8516 54.7061L23.3672 55.9814C23.0259 56.1594 22.6485 56.2521 22.2656 56.2521C21.8828 56.2521 21.5054 56.1594 21.1641 55.9814L18.6797 54.7061C18.3384 54.5281 17.961 54.4354 17.5781 54.4354C17.1953 54.4354 16.8179 54.5281 16.4766 54.7061L14.5899 55.6806C14.0612 55.9477 13.4799 56.0866 12.8906 56.0866C12.3014 56.0866 11.7201 55.9477 11.1914 55.6806L10.3008 55.2114C9.66918 54.8915 9.1377 54.3961 8.76686 53.7814C8.39601 53.1667 8.2007 52.4574 8.20315 51.7344H41.0156Z" fill="#A1D51C"/>
<path d="M26.9531 45.7188C27.6003 45.7188 28.125 45.1801 28.125 44.5156C28.125 43.8512 27.6003 43.3125 26.9531 43.3125C26.3059 43.3125 25.7812 43.8512 25.7812 44.5156C25.7812 45.1801 26.3059 45.7188 26.9531 45.7188Z" fill="#F9E109"/>
<path d="M22.2656 44.5156C22.9128 44.5156 23.4375 43.977 23.4375 43.3125C23.4375 42.648 22.9128 42.1094 22.2656 42.1094C21.6184 42.1094 21.0938 42.648 21.0938 43.3125C21.0938 43.977 21.6184 44.5156 22.2656 44.5156Z" fill="#F9E109"/>
<path d="M18.75 46.9219C19.3972 46.9219 19.9219 46.3832 19.9219 45.7188C19.9219 45.0543 19.3972 44.5156 18.75 44.5156C18.1028 44.5156 17.5781 45.0543 17.5781 45.7188C17.5781 46.3832 18.1028 46.9219 18.75 46.9219Z" fill="#F9E109"/>
<path d="M36.3281 46.9219C36.9753 46.9219 37.5 46.3832 37.5 45.7188C37.5 45.0543 36.9753 44.5156 36.3281 44.5156C35.6809 44.5156 35.1562 45.0543 35.1562 45.7188C35.1562 46.3832 35.6809 46.9219 36.3281 46.9219Z" fill="#F9E109"/>
<path d="M14.0625 45.7188C14.7097 45.7188 15.2344 45.1801 15.2344 44.5156C15.2344 43.8512 14.7097 43.3125 14.0625 43.3125C13.4153 43.3125 12.8906 43.8512 12.8906 44.5156C12.8906 45.1801 13.4153 45.7188 14.0625 45.7188Z" fill="#FCBC04"/>
<path d="M31.6406 44.5156C32.2878 44.5156 32.8125 43.977 32.8125 43.3125C32.8125 42.648 32.2878 42.1094 31.6406 42.1094C30.9934 42.1094 30.4688 42.648 30.4688 43.3125C30.4688 43.977 30.9934 44.5156 31.6406 44.5156Z" fill="#F9E109"/>
<path d="M19.8164 46.2241C19.7052 46.4747 19.5137 46.6785 19.2739 46.8016C19.034 46.9246 18.7602 46.9595 18.4983 46.9004C18.2364 46.8413 18.0022 46.6917 17.8347 46.4767C17.6673 46.2616 17.5767 45.9941 17.5781 45.7188C17.58 45.5222 17.6279 45.3288 17.7176 45.1551C17.8073 44.9813 17.9363 44.8322 18.0938 44.7202H18.1055C18.6199 45.2849 19.1937 45.7893 19.8164 46.2241Z" fill="#FCBC04"/>
</svg>
