<?xml version="1.0"?>
<svg xmlns="http://www.w3.org/2000/svg" id="Fill_out_line" data-name="Fill out line" viewBox="0 0 512 512" width="512" height="512"><path d="M80,152l33.89626-61.01326A21.36013,21.36013,0,0,1,132.56838,80h0a21.36012,21.36012,0,0,0,17.77271-9.51167l4.29766-6.44649A18.05939,18.05939,0,0,1,169.66509,56h0a18.05936,18.05936,0,0,0,11.28161-3.95738l0,0A94.63505,94.63505,0,0,1,259.8936,33.40577l58.43421,12.52162A12.236,12.236,0,0,1,328,57.89176v0a12.236,12.236,0,0,1-13.96642,12.113L287.691,66.24157a25.15031,25.15031,0,0,0-24.48312,10.94665v0a12.99411,12.99411,0,0,1-18.01959,3.60392h0a15.85027,15.85027,0,0,0-21.98037,4.39607v0a15.85026,15.85026,0,0,0,1.98038,20l0,0a20.947,20.947,0,0,1,0,29.6235l-4.51815,4.51815a23.84436,23.84436,0,0,1-11.07742,6.27193h0a12.55624,12.55624,0,0,0-4.48841,22.22634l0,0a18.89628,18.89628,0,0,1,6.58882,21.09254v0A18.89627,18.89627,0,0,0,216.258,208.258l0,0A53.74657,53.74657,0,0,1,232,246.26256V256H112Z" style="fill:#eedc9a"/><circle cx="136" cy="176" r="16" style="fill:#e44b4d"/><path d="M419.97616,409.32009,288,336l0,0A71.55414,71.55414,0,0,1,224,336l0,0,64-48,147.34822,95.77634a14.91517,14.91517,0,0,1,4.28157,20.779v0A14.91517,14.91517,0,0,1,419.97616,409.32009Z" style="fill:#ad7d4d"/><path d="M288,288,80,152l-6.71086,11.18477a123.15676,123.15676,0,0,0,45.43125,170.81865l.0002.00011a123.15676,123.15676,0,0,0,154.78645-28.612Z" style="fill:#c4d4e0"/><circle cx="176" cy="120" r="16" style="fill:#e44b4d"/><circle cx="208" cy="40" r="16" style="fill:#e44b4d"/><circle cx="288" cy="40" r="16" style="fill:#e44b4d"/><rect x="112" y="456" width="128" height="32" style="fill:#2f4054"/><path d="M192,448c0-8.83656-16-40-16-40s-16,31.16344-16,40a16,16,0,0,0,32,0Z" style="fill:#e88604"/><path d="M152,448a15.99663,15.99663,0,0,1-16.76532,15.98217C126.62613,463.58162,120,456.169,120,447.5511V416l.80429.80429a113.83133,113.83133,0,0,0,23.27279,17.37941A15.989,15.989,0,0,1,152,448Z" style="fill:#e88604"/><path d="M200,448a15.99663,15.99663,0,0,0,16.76532,15.98217C225.37387,463.58162,232,456.169,232,447.5511V416l-.80429.80429a113.83133,113.83133,0,0,1-23.27279,17.37941A15.989,15.989,0,0,0,200,448Z" style="fill:#e88604"/><path d="M80.00035,455.99979h0A8.00054,8.00054,0,0,0,72,464.00033V488H40V463.9995a39.99988,39.99988,0,0,1,39.99988-39.99988h.00005A16.00007,16.00007,0,0,1,96,439.99969v0A16.00007,16.00007,0,0,1,80.00035,455.99979Z" style="fill:#2f4054"/><path d="M271.99806,455.99889h0A8.003,8.003,0,0,1,280,464.00192V488h32V464.00006a40.00174,40.00174,0,0,0-39.99829-40.00174h0A16.00027,16.00027,0,0,0,256,439.99859v0A16.00027,16.00027,0,0,0,271.99806,455.99889Z" style="fill:#2f4054"/><circle cx="140" cy="452" r="12" style="fill:#eebe33"/><circle cx="176" cy="452" r="12" style="fill:#eebe33"/><circle cx="212" cy="452" r="12" style="fill:#eebe33"/><path d="M496,256v72l-45.27,12.93994a25.3875,25.3875,0,0,0-15.72,13.04,25.401,25.401,0,0,1-8.61,9.76L415.71,370.85986l-6.84,4.56006a15.02487,15.02487,0,0,1-2.38,13.27l-6.77,9.02a16.00841,16.00841,0,0,1-19.42993,4.97l-63.18-28.72a16.00412,16.00412,0,0,1-8.54993-19.62988l3.49-10.47022A13.15376,13.15376,0,0,1,313.29,326.7l4.52-4.52A89.299,89.299,0,0,1,380.97,296h.64a91.27477,91.27477,0,0,0,35.24-7.02C444.38,277.51,496,256,496,256Z" style="fill:#f4ceaf"/><path d="M406.49,388.68994l-6.77,9.02a16.00841,16.00841,0,0,1-19.42993,4.97l-63.18-28.72a16.02481,16.02481,0,0,1-8.54993-19.62988l3.49-10.47022,1.35-4.05981,27.85-6.8L368,344l5.76,3.83984L393.53,361.01l9.28,6.18994A15.02064,15.02064,0,0,1,406.49,388.68994Z" style="fill:#f4ceaf"/><path d="M408,336l-19.1004,9.5502A24.852,24.852,0,0,1,364,344l0,0a24.852,24.852,0,0,0-24.89959-1.55019l-10.62325,5.31163a13.14967,13.14967,0,0,1-15.17892-2.4632l0,0a13.15546,13.15546,0,0,1-.00409-18.60052l4.51772-4.5217A89.28773,89.28773,0,0,1,380.97222,296h.64215q3.11385,0,6.20071-.20647Z" style="fill:#f4ceaf"/><path d="M448.52734,333.24316a33.43942,33.43942,0,0,0-20.67089,17.15528,17.39208,17.39208,0,0,1-5.897,6.68066l-10.55835,7.03906a22.86757,22.86757,0,0,0-4.157-3.57031l-13.051-8.70068,17.38452-8.6919-7.15528-14.31054-19.10156,9.5498a16.88107,16.88107,0,0,1-16.88281-1.05078,32.919,32.919,0,0,0-32.915-2.04883l-10.62354,5.31153a5.15372,5.15372,0,0,1-5.94629-8.25489l4.51807-4.52148A80.748,80.748,0,0,1,380.97217,304h.64209a99.08373,99.08373,0,0,0,38.31347-7.63379c20.958-8.73437,55.88038-23.28613,71.35645-29.73437l-6.15332-14.76954c-15.477,6.44825-50.40039,21-71.35791,29.73536A83.17,83.17,0,0,1,381.61426,288h-.64209a96.6028,96.6028,0,0,0-53.59033,16.05786l-35.00367-22.75293-.00024-.00024L240,247.05762v-.79785a61.7569,61.7569,0,0,0-18.0835-43.65723,10.89144,10.89144,0,0,1-2.64111-11.14063,26.88881,26.88881,0,0,0-9.36621-30.02539,4.35223,4.35223,0,0,1-1.8291-3.58691,4.504,4.504,0,0,1,3.44971-4.48828,31.85682,31.85682,0,0,0,14.79736-8.375l4.51953-4.51953a28.95467,28.95467,0,0,0,.00049-40.93262,7.85242,7.85242,0,0,1,9.90674-12.08691A21.0045,21.0045,0,0,0,269.86768,81.626a17.22733,17.22733,0,0,1,16.69189-7.46582l26.2666,3.749a19.78156,19.78156,0,0,0,2.96387.2207,20.2364,20.2364,0,0,0,4.21435-40.02343L311.72,36.3335a23.99,23.99,0,0,0-43.84131-9.39112l-6.31225-1.35449a103.16675,103.16675,0,0,0-35.46369-1.31836,23.98388,23.98388,0,0,0-42.10254,15.72315c-2.7951,1.822-5.49225,3.752-8.0285,5.78564a10.27489,10.27489,0,0,1-2.9917,1.65723A9.91505,9.91505,0,0,1,169.66992,48a26.01821,26.01821,0,0,0-21.686,11.60254l-4.3003,6.45019A13.37231,13.37231,0,0,1,132.56982,72a29.35759,29.35759,0,0,0-25.66308,15.10449L73.06927,148.002,66.4292,159.06836A131.14986,131.14986,0,0,0,178.811,357.70117a131.65393,131.65393,0,0,0,51.38409-10.45141A79.18281,79.18281,0,0,0,256,351.5498a79.98276,79.98276,0,0,0,31.67969-6.57617l13.15185,7.30664a23.93638,23.93638,0,0,0,12.97119,28.96387l63.18018,28.7168a23.73733,23.73733,0,0,0,9.84082,2.124,24.34258,24.34258,0,0,0,13.84863-4.3396l15.42871,8.572a22.91393,22.91393,0,0,0,33.562-24.66894,22.73676,22.73676,0,0,0-9.95313-14.5752l-9.56787-6.21972.69287-.46192a33.4119,33.4119,0,0,0,11.332-12.83691,17.39868,17.39868,0,0,1,10.75635-8.92676l37.48193-10.709-4.3955-15.38477ZM320,57.88965a4.23014,4.23014,0,0,1-4.21,4.24023,3.95,3.95,0,0,1-.62988-.0498L301.12671,60.0769a24.17818,24.17818,0,0,0,7.61084-8.01855l7.91431,1.6936A4.25576,4.25576,0,0,1,320,57.88965ZM288,32a8,8,0,1,1-8,8A8.00917,8.00917,0,0,1,288,32Zm-80,0a8,8,0,1,1-8,8A8.00917,8.00917,0,0,1,208,32ZM120.896,94.87012A13.353,13.353,0,0,1,132.56982,88a29.3711,29.3711,0,0,0,24.42627-13.07227l4.29834-6.44726A10.04953,10.04953,0,0,1,169.66992,64a25.87465,25.87465,0,0,0,8.62207-1.47168,26.254,26.254,0,0,0,7.6626-4.24707c1.202-.96387,2.45325-1.89185,3.72589-2.80078A23.986,23.986,0,0,0,232,40c0-.10059-.00641-.19971-.00763-.2998a87.03163,87.03163,0,0,1,26.21906,1.53222l5.91943,1.27051a24.00694,24.00694,0,0,0,10.00989,17.07251,33.21654,33.21654,0,0,0-17.587,13.17749,4.98988,4.98988,0,0,1-4.16357,2.2168,4.89923,4.89923,0,0,1-2.7627-.83594,23.85253,23.85253,0,0,0-30.09424,36.71387,12.9546,12.9546,0,0,1-.00049,18.30566l-4.519,4.51953a15.8572,15.8572,0,0,1-7.37353,4.168,20.58374,20.58374,0,0,0-15.56006,20.00879,20.3411,20.3411,0,0,0,8.21826,16.37891,10.88976,10.88976,0,0,1,3.79834,12.17382A26.891,26.891,0,0,0,210.603,213.917a45.4159,45.4159,0,0,1,9.91357,14.83887,46.07442,46.07442,0,0,1,2.26007,7.04028l-68.233-44.61377A23.97989,23.97989,0,1,0,114.635,165.08813L90.60876,149.37866Zm20.02612,87.40576L128.26355,173.999a7.99207,7.99207,0,1,1,12.65857,8.27686ZM122.62891,327.02246a115.15595,115.15595,0,0,1-42.48-159.72168l2.43261-4.05469L224,255.71191V256h.44055L276.103,289.7793l-8.74219,10.49121A115.1888,115.1888,0,0,1,122.62891,327.02246Zm161.79052,1.82324A63.81139,63.81139,0,0,1,256,335.5498c-1.32275,0-2.63818-.05542-3.94989-.136a130.94141,130.94141,0,0,0,27.60272-24.90112l9.94434-11.9336,24.58044,15.97778q-1.023.96753-2.02478,1.9646l-4.51855,4.52149a21.05054,21.05054,0,0,0-6.10108,13.32373l-9.648-5.35986A7.99907,7.99907,0,0,0,284.41943,328.8457Zm99.18506,66.54981-63.18066-28.71778a7.984,7.984,0,0,1-4.2793-9.81347l.21839-.65528a21.05116,21.05116,0,0,0,15.69177-1.292l10.62451-5.31152a16.88114,16.88114,0,0,1,16.88281,1.05078,32.74149,32.74149,0,0,0,11.04846,4.69824l27.75818,18.50586a7.00054,7.00054,0,0,1,1.71826,10.02442l-6.77246,9.02832A8.04656,8.04656,0,0,1,383.60449,395.39551Zm50.38867-.51172a6.91033,6.91033,0,0,1-10.12793,7.44336l-12.43054-6.906,1.452-1.93579a23.08875,23.08875,0,0,0,4.50879-11.83472l13.59765,8.8396A6.85159,6.85159,0,0,1,433.99316,394.88379Z"/><path d="M176,144a24,24,0,1,0-24-24A24.02718,24.02718,0,0,0,176,144Zm0-32a8,8,0,1,1-8,8A8.00917,8.00917,0,0,1,176,112Z"/><path d="M320,464a48.05709,48.05709,0,0,0-47.99756-48.002h-.00293A24.002,24.002,0,0,0,272,464.002V480H248V456a8.00008,8.00008,0,0,0-8-8h-.01074c.00262-.1499.01074-.29858.01074-.44922V416a8,8,0,0,0-13.65869-5.65527l-.80225.80273c-5.67871,5.67871-12.561,10.80469-21.65918,16.13281a23.9498,23.9498,0,0,0-7.35675,6.73658A298.77363,298.77363,0,0,0,183.1167,404.3457a8.00015,8.00015,0,0,0-14.2334,0,298.7814,298.7814,0,0,0-13.40649,29.67139,23.95005,23.95005,0,0,0-7.35718-6.73682c-9.09766-5.32812-15.98-10.4541-21.65674-16.13086l-.8042-.80468A8,8,0,0,0,112,416v31.55078c0,.15064.00812.29932.01074.44922H112a8.00008,8.00008,0,0,0-8,8v24H80.00018l.00031-16A24,24,0,0,0,80,416a48.05385,48.05385,0,0,0-48,47.999V480H16v16H336V480H320Zm-48.001-16.001a8.00049,8.00049,0,0,1,.00147-16.001h.001A32.03865,32.03865,0,0,1,304,464v16H288V464.002A16.0201,16.0201,0,0,0,271.999,447.999Zm-60.03369-6.91211c4.42237-2.58984,8.40381-5.1582,12.03467-7.77343v14.2373a8.32454,8.32454,0,0,1-7.60693,8.44043,8.00363,8.00363,0,0,1-4.42774-14.9043Zm-35.96484-14.69726c4.46142,9.81738,7.9458,18.75586,7.99951,21.61523a8,8,0,0,1-16,.002C168.05225,445.15234,171.53809,436.21094,176.00049,426.38965ZM128,433.31348c3.63086,2.61523,7.61182,5.18359,12.03418,7.77343a8.00235,8.00235,0,0,1-4.42773,14.9043A8.32449,8.32449,0,0,1,128,447.55078Zm-8,32.4873a23.62012,23.62012,0,0,0,14.86279,6.17285q.58082.02784,1.15772.02735a23.785,23.785,0,0,0,16.55029-6.63672c.45728-.43653.88971-.895,1.30859-1.36426h4.25135a23.9569,23.9569,0,0,0,35.73852,0h4.25135c.41888.46924.85131.92773,1.30859,1.36426a23.785,23.785,0,0,0,16.55029,6.63672q.57642,0,1.15723-.02735A23.621,23.621,0,0,0,232,465.80078V480H120ZM48,463.999A32.03551,32.03551,0,0,1,80,432a8,8,0,0,1,.00049,16A16.01843,16.01843,0,0,0,64,464v16H48Z"/></svg>
