<svg height="511pt" viewBox="1 -31 511.99999 511" width="511pt" xmlns="http://www.w3.org/2000/svg"><path d="m477.867188 400.609375v-2.242187c0-9.425782-7.640626-17.066407-17.066407-17.066407h-409.601562c-9.425781 0-17.066407 7.640625-17.066407 17.066407v2.242187c-.253906 7.308594-4.003906 14.050781-10.078124 18.117187-4.390626 3.214844-6.988282 8.332032-6.988282 13.773438v17.066406h477.867188v-17.066406c0-5.441406-2.597656-10.558594-6.988282-13.773438-6.074218-4.066406-9.824218-10.808593-10.078124-18.117187zm0 0" fill="#744630"/><path d="m51.199219 347.167969h409.601562v34.132812h-409.601562zm0 0" fill="#ea9d2d"/><path d="m273.066406 347.167969v-42.667969h-34.132812v42.667969h-187.734375v17.066406h409.601562v-17.066406zm0 0" fill="#da922a"/><path d="m258.132812 111.433594c-4.710937 0-8.53125-3.820313-8.53125-8.535156v-42.664063c0-4.714844 3.820313-8.535156 8.53125-8.535156 4.714844 0 8.535157 3.820312 8.535157 8.535156v42.664063c0 4.714843-3.820313 8.535156-8.535157 8.535156zm0 0" fill="#d18d28"/><path d="m476.441406 284.234375c-9.171875-6.75-15.429687-16.742187-17.5-27.9375-10.769531-64.652344-66.972656-128-134.675781-128h-136.53125c-67.703125 0-123.90625 63.347656-134.675781 128-2.070313 11.195313-8.328125 21.1875-17.5 27.9375-6.285156 4.839844-9.964844 12.328125-9.957032 20.265625v8.53125h460.796876v-8.53125c.007812-7.9375-3.671876-15.425781-9.957032-20.265625zm0 0" fill="#ea9d2d"/><path d="m204.800781 287.433594c4.710938 0 8.53125-3.820313 8.53125-8.535156 0-4.710938-3.820312-8.53125-8.53125-8.53125l-156.9375-.164063c-3.15625 5.429687-7.335937 10.191406-12.304687 14.03125-1.011719.835937-1.957032 1.753906-2.824219 2.738281.457031.132813.925781.226563 1.398437.28125zm0 0" fill="#fbb540"/><path d="m256 287.433594h-17.066406c-4.714844 0-8.535156-3.820313-8.535156-8.535156 0-4.710938 3.820312-8.53125 8.535156-8.53125h17.066406c4.710938 0 8.535156 3.820312 8.535156 8.53125 0 4.714843-3.824218 8.535156-8.535156 8.535156zm0 0" fill="#fbb540"/><path d="m307.199219 287.433594h-17.066407c-4.710937 0-8.53125-3.820313-8.53125-8.535156 0-4.710938 3.820313-8.53125 8.53125-8.53125h17.066407c4.714843 0 8.535156 3.820312 8.535156 8.53125 0 4.714843-3.820313 8.535156-8.535156 8.535156zm0 0" fill="#fbb540"/><g fill="#6fbbc6"><path d="m460.800781 167.964844c-4.714843 0-8.535156-3.820313-8.53125-8.535156 0-2.261719.898438-4.429688 2.496094-6.03125l8.535156-8.53125c3.390625-3.273438 8.792969-3.179688 12.066407.210937 3.191406 3.304687 3.191406 8.546875 0 11.855469l-8.535157 8.53125c-1.597656 1.601562-3.769531 2.5-6.03125 2.5zm0 0"/><path d="m503.464844 210.632812h-17.066406c-4.710938 0-8.53125-3.820312-8.53125-8.53125 0-4.714843 3.820312-8.535156 8.53125-8.535156h17.066406c4.714844 0 8.535156 3.820313 8.535156 8.535156 0 4.710938-3.820312 8.53125-8.535156 8.53125zm0 0"/><path d="m93.867188 133.832031c-3.25.019531-6.226563-1.8125-7.679688-4.71875l-8.535156-17.066406c-2.105469-4.21875-.394532-9.34375 3.824218-11.453125 4.21875-2.105469 9.34375-.394531 11.453126 3.824219l8.53125 17.066406c2.105468 4.214844.398437 9.339844-3.816407 11.449219-1.175781.585937-2.46875.894531-3.777343.898437zm0 0"/><path d="m418.132812 133.832031c-4.710937 0-8.53125-3.824219-8.527343-8.535156 0-1.324219.308593-2.628906.898437-3.8125l8.535156-17.066406c2.105469-4.21875 7.230469-5.929688 11.449219-3.824219 4.21875 2.109375 5.929688 7.234375 3.824219 11.453125l-8.535156 17.066406c-1.445313 2.898438-4.40625 4.726563-7.644532 4.71875zm0 0"/><path d="m51.199219 167.964844c-2.261719 0-4.433594-.898438-6.03125-2.5l-8.535157-8.53125c-3.273437-3.390625-3.179687-8.792969.210938-12.066406 3.308594-3.195313 8.550781-3.195313 11.855469 0l8.535156 8.53125c3.332031 3.335937 3.328125 8.738281-.003906 12.070312-1.597657 1.597656-3.769531 2.496094-6.03125 2.496094zm0 0"/><path d="m25.601562 210.632812h-17.066406c-4.714844 0-8.535156-3.820312-8.535156-8.53125 0-4.714843 3.820312-8.535156 8.535156-8.535156h17.066406c4.710938 0 8.53125 3.820313 8.53125 8.535156 0 4.710938-3.820312 8.53125-8.53125 8.53125zm0 0"/></g><path d="m232.535156 94.367188h51.199219c9.425781 0 17.066406 7.640624 17.066406 17.066406 0 9.425781-7.640625 17.066406-17.066406 17.066406h-51.199219c-9.425781 0-17.070312-7.640625-17.070312-17.066406 0-9.425782 7.644531-17.066406 17.070312-17.066406zm0 0" fill="#da922a"/><path d="m292.265625 34.632812c0 18.851563-15.28125 34.132813-34.132813 34.132813-18.851562 0-34.132812-15.28125-34.132812-34.132813 0-18.851562 15.28125-34.132812 34.132812-34.132812 18.851563 0 34.132813 15.28125 34.132813 34.132812zm0 0" fill="#ea9d2d"/></svg>