<svg xmlns="http://www.w3.org/2000/svg" xmlns:xlink="http://www.w3.org/1999/xlink" viewBox="0 0 187.16 188.57"><defs><style>.cls-1{fill:none;}.cls-2{isolation:isolate;}.cls-3{fill:#2189ed;}.cls-4{fill:url(#linear-gradient);}.cls-5{fill:url(#linear-gradient-2);}.cls-6{fill:url(#linear-gradient-3);}.cls-7{fill:#b6c6de;}.cls-8{fill:url(#linear-gradient-4);}.cls-9{fill:url(#linear-gradient-5);}.cls-10{fill:#fff;}.cls-11{fill:url(#linear-gradient-6);}.cls-12{clip-path:url(#clip-path);}.cls-13{fill:#4d4c6d;}.cls-14{fill:#2eb7ff;}.cls-15{fill:#323147;}.cls-16{fill:url(#linear-gradient-7);}.cls-17{fill:#fea04c;}.cls-18{fill:url(#linear-gradient-8);}.cls-19{fill:#8c423c;}.cls-20{fill:url(#linear-gradient-9);}.cls-21{fill:url(#linear-gradient-10);}.cls-22{fill:#7a3029;}.cls-23{fill:url(#linear-gradient-11);}.cls-24{fill:#ba5850;}.cls-25{fill:#d16158;}.cls-26{fill:#bf453b;}.cls-27{fill:#dbc2bf;}.cls-27,.cls-49{mix-blend-mode:multiply;}.cls-28{fill:#ff9126;}.cls-29{fill:url(#linear-gradient-12);}.cls-30{fill:#ffa242;}.cls-31{fill:#ff8042;}.cls-32{fill:url(#linear-gradient-13);}.cls-33{fill:url(#linear-gradient-14);}.cls-34{fill:#ef8b46;}.cls-35{fill:#f99e37;}.cls-36{fill:url(#linear-gradient-15);}.cls-37{fill:url(#linear-gradient-16);}.cls-38{fill:url(#linear-gradient-17);}.cls-39{fill:url(#linear-gradient-18);}.cls-40{fill:url(#linear-gradient-19);}.cls-41{fill:url(#linear-gradient-20);}.cls-42{fill:url(#linear-gradient-21);}.cls-43{fill:url(#linear-gradient-22);}.cls-44{fill:url(#linear-gradient-23);}.cls-45{fill:url(#linear-gradient-24);}.cls-46{fill:url(#linear-gradient-25);}.cls-47{fill:url(#linear-gradient-26);}.cls-48{fill:url(#linear-gradient-27);}.cls-49{fill:#f5d2b2;}.cls-50{fill:url(#linear-gradient-28);}.cls-51{fill:url(#linear-gradient-29);}.cls-52{fill:url(#linear-gradient-30);}.cls-53{fill:#f09252;}.cls-54{fill:url(#linear-gradient-31);}.cls-55{fill:url(#linear-gradient-32);}.cls-56{fill:url(#linear-gradient-33);}.cls-57{fill:url(#linear-gradient-34);}.cls-58{fill:url(#linear-gradient-35);}</style><linearGradient id="linear-gradient" x1="81.53" y1="83.81" x2="144.33" y2="83.81" gradientUnits="userSpaceOnUse"><stop offset="0" stop-color="#30cbff"/><stop offset="1" stop-color="#298dff"/></linearGradient><linearGradient id="linear-gradient-2" x1="127.51" y1="40.45" x2="60.09" y2="50.76" gradientUnits="userSpaceOnUse"><stop offset="0" stop-color="#eff4fb"/><stop offset="1" stop-color="#dae3f0"/></linearGradient><linearGradient id="linear-gradient-3" x1="137.03" y1="43.77" x2="71.17" y2="37.93" gradientUnits="userSpaceOnUse"><stop offset="0" stop-color="#dae3f0"/><stop offset="1" stop-color="#c5d0e0"/></linearGradient><linearGradient id="linear-gradient-4" x1="80.93" y1="32.97" x2="147.38" y2="50.97" xlink:href="#linear-gradient-2"/><linearGradient id="linear-gradient-5" x1="75.83" y1="54.7" x2="149.98" y2="54.7" gradientUnits="userSpaceOnUse"><stop offset="0" stop-color="#c5d4eb"/><stop offset="0.49" stop-color="#eef2fa"/><stop offset="1" stop-color="#ccd7e8"/></linearGradient><linearGradient id="linear-gradient-6" x1="107.85" y1="42.95" x2="117.95" y2="42.95" xlink:href="#linear-gradient-3"/><clipPath id="clip-path" transform="translate(0 -2.87)"><path class="cls-1" d="M117,41.45l9.08-38.14L118.86,0l-9,40.82a5.71,5.71,0,0,0-.61.29,2.65,2.65,0,0,0-1.44,1.82,2.68,2.68,0,0,0,1.46,1.83,7.91,7.91,0,0,0,7.2,0A2.65,2.65,0,0,0,118,43,2.43,2.43,0,0,0,117,41.45Z"/></clipPath><linearGradient id="linear-gradient-7" x1="12.75" y1="174.13" x2="151.76" y2="127.8" gradientUnits="userSpaceOnUse"><stop offset="0" stop-color="#ffbc70"/><stop offset="1" stop-color="#fe8529"/></linearGradient><linearGradient id="linear-gradient-8" x1="36.63" y1="167.85" x2="131.88" y2="114.85" gradientUnits="userSpaceOnUse"><stop offset="0" stop-color="#96df78"/><stop offset="1" stop-color="#49af6e"/></linearGradient><linearGradient id="linear-gradient-9" x1="10219.46" y1="142.21" x2="10219.47" y2="142.21" gradientTransform="matrix(-1, 0, 0, 1, 10345.48, 0)" gradientUnits="userSpaceOnUse"><stop offset="0" stop-color="#7d2b23"/><stop offset="1" stop-color="#61221b"/></linearGradient><linearGradient id="linear-gradient-10" x1="10322.1" y1="134.19" x2="10322.34" y2="134.21" xlink:href="#linear-gradient-9"/><linearGradient id="linear-gradient-11" x1="10215.9" y1="148.33" x2="10219.44" y2="148.62" xlink:href="#linear-gradient-9"/><linearGradient id="linear-gradient-12" x1="20.31" y1="137.17" x2="131.58" y2="137.17" gradientUnits="userSpaceOnUse"><stop offset="0" stop-color="#ffe642"/><stop offset="0.64" stop-color="#ffbc42"/><stop offset="1" stop-color="#ffaa42"/></linearGradient><linearGradient id="linear-gradient-13" x1="42.04" y1="122.51" x2="77.9" y2="122.51" gradientUnits="userSpaceOnUse"><stop offset="0.01" stop-color="#de2514"/><stop offset="1" stop-color="#c32638"/></linearGradient><linearGradient id="linear-gradient-14" x1="42.05" y1="115.71" x2="77.9" y2="115.71" gradientUnits="userSpaceOnUse"><stop offset="0" stop-color="#ff6924"/><stop offset="1" stop-color="#d65132"/></linearGradient><linearGradient id="linear-gradient-15" x1="47.49" y1="100.73" x2="95.87" y2="131.74" gradientUnits="userSpaceOnUse"><stop offset="0" stop-color="#d41540"/><stop offset="0.03" stop-color="#d2153f"/><stop offset="0.67" stop-color="#a30c2e"/><stop offset="0.99" stop-color="#910827"/></linearGradient><linearGradient id="linear-gradient-16" x1="42.56" y1="108.43" x2="90.93" y2="139.43" xlink:href="#linear-gradient-15"/><linearGradient id="linear-gradient-17" x1="42.9" y1="107.9" x2="91.27" y2="138.91" xlink:href="#linear-gradient-15"/><linearGradient id="linear-gradient-18" x1="77.91" y1="127.73" x2="113.77" y2="127.73" xlink:href="#linear-gradient-13"/><linearGradient id="linear-gradient-19" x1="77.92" y1="120.93" x2="113.77" y2="120.93" xlink:href="#linear-gradient-14"/><linearGradient id="linear-gradient-20" x1="83.36" y1="105.95" x2="131.74" y2="136.96" xlink:href="#linear-gradient-15"/><linearGradient id="linear-gradient-21" x1="78.43" y1="113.65" x2="126.8" y2="144.65" xlink:href="#linear-gradient-15"/><linearGradient id="linear-gradient-22" x1="78.77" y1="113.12" x2="127.14" y2="144.13" xlink:href="#linear-gradient-15"/><linearGradient id="linear-gradient-23" x1="53.14" y1="143.76" x2="89.01" y2="143.76" xlink:href="#linear-gradient-13"/><linearGradient id="linear-gradient-24" x1="53.15" y1="136.96" x2="89.01" y2="136.96" xlink:href="#linear-gradient-14"/><linearGradient id="linear-gradient-25" x1="58.59" y1="121.98" x2="106.97" y2="152.99" xlink:href="#linear-gradient-15"/><linearGradient id="linear-gradient-26" x1="53.66" y1="129.68" x2="102.04" y2="160.68" xlink:href="#linear-gradient-15"/><linearGradient id="linear-gradient-27" x1="54" y1="129.15" x2="102.38" y2="160.16" xlink:href="#linear-gradient-15"/><linearGradient id="linear-gradient-28" x1="21.12" y1="66.01" x2="79.01" y2="138.28" gradientUnits="userSpaceOnUse"><stop offset="0" stop-color="#ffe181"/><stop offset="1" stop-color="#fea146"/></linearGradient><linearGradient id="linear-gradient-29" x1="7.85" y1="132.97" x2="133.21" y2="103.11" xlink:href="#linear-gradient-28"/><linearGradient id="linear-gradient-30" x1="135.63" y1="138.71" x2="174.73" y2="143.88" xlink:href="#linear-gradient-28"/><linearGradient id="linear-gradient-31" x1="130.52" y1="109.7" x2="187.16" y2="109.7" gradientUnits="userSpaceOnUse"><stop offset="0" stop-color="#fff0bf"/><stop offset="1" stop-color="#febf82"/></linearGradient><linearGradient id="linear-gradient-32" x1="130.84" y1="125" x2="197.66" y2="124.74" xlink:href="#linear-gradient-28"/><linearGradient id="linear-gradient-33" x1="153.67" y1="91.43" x2="162.3" y2="114.62" gradientUnits="userSpaceOnUse"><stop offset="0" stop-color="#ffb8ce"/><stop offset="1" stop-color="#ff80a8"/></linearGradient><linearGradient id="linear-gradient-34" x1="153.46" y1="77.16" x2="161.48" y2="100.61" xlink:href="#linear-gradient-33"/><linearGradient id="linear-gradient-35" x1="155.54" y1="67.28" x2="161.2" y2="91.86" xlink:href="#linear-gradient-33"/></defs><g class="cls-2"><g id="Capa_2" data-name="Capa 2"><g id="OBJECTS"><path class="cls-3" d="M91.89,108.05c-.29-1.08-.59-2.15-.87-3.22.68,2.52,2.66,5,5.94,6.93,8.54,5.14,22.67,5.28,31.57.32,3.68-2.06,5.89-4.66,6.61-7.38-.28,1.08-.57,2.15-.85,3.23-.69,2.6-2.81,5.11-6.35,7.08-8.56,4.77-22.14,4.63-30.34-.3C94.44,112.8,92.54,110.47,91.89,108.05Z" transform="translate(0 -2.87)"/><path class="cls-4" d="M89.67,104Q85.6,77.73,81.53,51.41c.61,4,3.49,7.88,8.65,11,12,7.25,32,7.45,44.57.45,5.74-3.21,8.94-7.36,9.58-11.62q-3.93,26.34-7.85,52.68c-.47,3.17-2.86,6.27-7.14,8.65-9.37,5.23-24.24,5.07-33.22-.33C92.27,109.91,90.13,107,89.67,104Z" transform="translate(0 -2.87)"/><path class="cls-5" d="M134.7,30.53c-11.55-7-30.67-7.15-42.71-.44S79.55,47.88,91.1,54.83s30.68,7.15,42.72.44S146.25,37.48,134.7,30.53Z" transform="translate(0 -2.87)"/><path class="cls-6" d="M136.27,28.59c-12.38-7.45-32.89-7.66-45.8-.46s-13.33,19.08-1,26.53,32.9,7.66,45.81.46S148.66,36.05,136.27,28.59Zm-2.45,26.68c-12,6.71-31.17,6.52-42.72-.44S80,36.81,92,30.09s31.16-6.52,42.71.44S145.86,48.55,133.82,55.27Z" transform="translate(0 -2.87)"/><path class="cls-7" d="M82.36,59,80,56.38a26.85,26.85,0,0,0,6.14,4.94c14.18,8.53,37.64,8.77,52.42.53a27.84,27.84,0,0,0,7.28-5.65l-2.33,2.61a25.44,25.44,0,0,1-6.76,5.25c-13.73,7.66-35.53,7.44-48.7-.49A24.93,24.93,0,0,1,82.36,59Z" transform="translate(0 -2.87)"/><path class="cls-8" d="M139.65,26.71c-14.18-8.53-37.64-8.77-52.42-.53S72,48,86.15,56.54s37.64,8.77,52.41.53S153.82,35.24,139.65,26.71Zm-4.32,28.41c-12.91,7.2-33.42,7-45.81-.46s-12-19.33,1-26.53,33.42-7,45.8.46S148.24,47.92,135.33,55.12Z" transform="translate(0 -2.87)"/><path class="cls-9" d="M75.84,46.51c0-1.59,0-3.18,0-4.78,0,5.34,3.44,10.67,10.32,14.81,14.17,8.53,37.64,8.77,52.41.53,7.61-4.24,11.42-9.9,11.41-15.55,0,1.59,0,3.19,0,4.78,0,5.65-3.8,11.31-11.4,15.55-14.78,8.24-38.24,8-52.42-.53C79.28,57.18,75.86,51.85,75.84,46.51Z" transform="translate(0 -2.87)"/><path class="cls-10" d="M116.49,40.59a7.91,7.91,0,0,0-7.2,0c-2,1.15-2,3,0,4.16a7.91,7.91,0,0,0,7.2,0C118.5,43.61,118.49,41.74,116.49,40.59Z" transform="translate(0 -2.87)"/><path class="cls-11" d="M116.49,41.13a7.94,7.94,0,0,0-7.2,0,2.67,2.67,0,0,0-1.44,1.81,2.71,2.71,0,0,0,1.46,1.82,7.91,7.91,0,0,0,7.2,0A2.66,2.66,0,0,0,118,43,2.68,2.68,0,0,0,116.49,41.13Z" transform="translate(0 -2.87)"/><g class="cls-12"><path class="cls-13" d="M125.24,4.73,112.7,59.11c0,.2-.33.35-.84.41a9.28,9.28,0,0,1-4.37-.88c-.69-.35-1-.69-.95-1L119.08,3.31c-.06.26.26.6,1,.95a9.27,9.27,0,0,0,4.36.88C124.91,5.08,125.19,4.93,125.24,4.73Z" transform="translate(0 -2.87)"/><path class="cls-14" d="M108.9,59.17a8.53,8.53,0,0,0,3,.35h.07a4.79,4.79,0,0,0,1.18-2.19l.68-3C113.36,56.18,112,57.53,108.9,59.17Z" transform="translate(0 -2.87)"/><path class="cls-14" d="M109.59,52.18c-1.22.61-2,1-2.19,1.79l-.69,3c.19-.78,1.09-1.23,2-1.67,3.69-1.85,5.55-3.14,6.17-5.45l.68-2.95C115,49.09,113,50.5,109.59,52.18Z" transform="translate(0 -2.87)"/><path class="cls-14" d="M111.32,44.66c-1.21.61-1.95,1-2.19,1.79l-.68,2.95c.19-.78,1.13-1.26,2-1.67,3.69-1.85,5.56-3.14,6.17-5.45l.68-3C116.74,41.56,114.68,43,111.32,44.66Z" transform="translate(0 -2.87)"/><path class="cls-14" d="M113.05,37.14c-1.21.61-1.94,1-2.19,1.79l-.67,3c.18-.79,1.12-1.26,2-1.67,3.69-1.85,5.55-3.14,6.17-5.46L119,31.8C118.47,34,116.42,35.46,113.05,37.14Z" transform="translate(0 -2.87)"/><path class="cls-14" d="M114.79,29.62c-1.22.61-2,1-2.19,1.79l-.68,2.95c.19-.79,1.09-1.24,2-1.68,3.69-1.84,5.56-3.13,6.17-5.45l.68-2.95C120.21,26.52,118.16,27.94,114.79,29.62Z" transform="translate(0 -2.87)"/><path class="cls-14" d="M116.52,22.09c-1.21.61-1.94,1-2.19,1.79h0l-.69,3c.19-.79,1.09-1.24,2-1.67,3.7-1.85,5.56-3.14,6.17-5.46l.68-2.95C121.94,19,119.89,20.41,116.52,22.09Z" transform="translate(0 -2.87)"/><path class="cls-14" d="M118.26,14.58c-1.22.61-2,1-2.19,1.79l-.68,2.94c.18-.78,1.13-1.26,2-1.67,3.69-1.85,5.55-3.13,6.17-5.45l.68-2.95C123.67,11.48,121.62,12.89,118.26,14.58Z" transform="translate(0 -2.87)"/><path class="cls-14" d="M119.27,10c3.94-2,5.39-3.26,6-5.28-.06.19-.33.33-.84.39a5.44,5.44,0,0,1-1.07,0A23.07,23.07,0,0,1,120,7.05c-1.21.61-1.95,1-2.19,1.79l-.68,2.95C117.35,11,118.12,10.6,119.27,10Z" transform="translate(0 -2.87)"/><path class="cls-14" d="M119.08,3.31l-.22,1a1.37,1.37,0,0,1,.33-.61A.44.44,0,0,1,119.08,3.31Z" transform="translate(0 -2.87)"/><path class="cls-15" d="M124.28,3.77a9.09,9.09,0,0,0-4.36-.87c-1.17.13-1.13.74.11,1.36a9.27,9.27,0,0,0,4.36.88C125.57,5,125.52,4.4,124.28,3.77Z" transform="translate(0 -2.87)"/></g><g class="cls-2"><path class="cls-16" d="M132.3,154.83c0-.23,0-.48,0-.73v-3c0-.23,0-.44,0-.64v-.55a22.21,22.21,0,0,0-.89-6.81,24.41,24.41,0,0,0-2.75-6c-.78-1.18-1.94-2.68-2.84-3.77a28.16,28.16,0,0,0-2.15-2.22c-1.36-1.26-3.31-2.76-4.79-3.87-.8-.6-2-1.27-2.8-1.81a64.57,64.57,0,0,0-14.53-6.33c-1.39-.42-4.3-1.25-8.1-2s-7-1.08-8.44-1.24a98.86,98.86,0,0,0-17.29-.17A87.64,87.64,0,0,0,51,118.59a76.12,76.12,0,0,0-7.79,2.62,61.74,61.74,0,0,0-7.17,3.4,46.3,46.3,0,0,0-10.12,7.52c-.52.54-1.22,1.25-1.67,1.83-.87,1.11-2,2.62-2.74,3.8a24.4,24.4,0,0,0-1.38,2.63c-.23.49-.48,1.16-.68,1.67a22.8,22.8,0,0,0-1.11,4.52,33.58,33.58,0,0,0-.18,5.56v.75c0,3.25,0,3.25,0,3.8s.09,1.29.15,1.84a29,29,0,0,0,.75,3.66,22.83,22.83,0,0,0,.9,2.56c.2.53.54,1.21.77,1.72a26.84,26.84,0,0,0,1.5,2.67,34.06,34.06,0,0,0,5.43,6.53,46.29,46.29,0,0,0,7.88,5.92,59.6,59.6,0,0,0,6.93,3.55,69,69,0,0,0,7.44,2.71,77.87,77.87,0,0,0,7.84,1.94c3.57.7,6.3,1,8.11,1.19.63.07,4,.41,8.26.45,2.82,0,5.62-.07,8.33-.28a83.64,83.64,0,0,0,16.08-2.8,69.42,69.42,0,0,0,7.59-2.55,62.9,62.9,0,0,0,7.13-3.38c1.27-.69,2.89-1.74,4.1-2.54.76-.5,1.71-1.24,2.44-1.78a42.24,42.24,0,0,0,3.69-3.25,35.73,35.73,0,0,0,3.84-4.54,31.1,31.1,0,0,0,2.54-4.3c.23-.51.55-1.2.75-1.73a24.24,24.24,0,0,0,.89-2.65c.25-1.07.54-2.5.68-3.59.1-.75.11-1.77.14-2.53Z" transform="translate(0 -2.87)"/><path class="cls-17" d="M115.06,125.61c-21.13-12.72-56.11-13.07-78.13-.8s-22.74,32.54-1.61,45.26,56.1,13.07,78.12.79S136.18,138.32,115.06,125.61Z" transform="translate(0 -2.87)"/></g><path class="cls-18" d="M133,146.33c0-1.07-2.64-2.08-2.83-3.14s.41-2.17,0-3.22a23,23,0,0,0-1.49-3.09c-.54-1,1.6-2.68.88-3.67a32.6,32.6,0,0,0-2.6-3c-.88-.94-2.68-1.71-3.73-2.6a3.62,3.62,0,0,0-.61-.42,16.48,16.48,0,0,0-1.68-.79,14.59,14.59,0,0,1-1.68-.78,3.17,3.17,0,0,1-.36-.23c-1.18-.82-2.41-1.67-3.74-2.43s-4-.65-5.4-1.32-2.74-1.35-4.28-1.94a3,3,0,0,1-.51-.25,7.13,7.13,0,0,1-1.28-1,7,7,0,0,0-1.27-1,3.23,3.23,0,0,0-.73-.32c-1.64-.5-4-.12-5.7-.53s-3.89.23-5.66-.07-3.07-1.33-4.89-1.54-3.32-1.77-5.16-1.87-3.8,1-5.66,1-4-1.76-5.81-1.65-3.17,2.34-5,2.55-4.81-2-6.58-1.67-2.08,3.11-3.8,3.52-4.07,0-5.71.49-4.65-.13-6.19.48-1.69,2.42-3.13,3.11-.18,2.93-1.49,3.7-3.36,1-4.52,1.78a31.54,31.54,0,0,0-2.73,2.68c-1,.9-6.06.41-6.92,1.35s1.36,2.79.66,3.78A22.41,22.41,0,0,0,22,137.25a19.21,19.21,0,0,0-.86,3.09,18.3,18.3,0,0,0-.41,3.1,19,19,0,0,0-.29,3.1c0,1.07-1.74,2.13-1.54,3.2s-3.43,2.57-3.05,3.62,2.29,2,2.83,3.08a1.36,1.36,0,0,0,.57.5,11.15,11.15,0,0,0,1.91.76,11.09,11.09,0,0,1,1.92.77,1.55,1.55,0,0,1,.51.41,2.91,2.91,0,0,0,1,.79c.3.18.63.34,1,.5s.66.33,1,.5a3.44,3.44,0,0,1,.86.64c.88.94-2.31,3.32-1.15,4.3a9.44,9.44,0,0,0,3.55.35,8.9,8.9,0,0,1,3.66.4c1.18.81-1.33,3.6,0,4.37s6.8-1.2,8.3-.49c.63.36.58,1.24.53,2.12s-.1,1.75.67,2.18c1.55.59,5.4-1.13,7-.63a2.8,2.8,0,0,1,.43.19,4.29,4.29,0,0,1,1.26,1.35,4.06,4.06,0,0,0,1.24,1.33,2.27,2.27,0,0,0,.58.23c1.72.41,3.07,1.65,4.83,2s4.47-1.5,6.29-1.3,3.63-.5,5.47-.4,3.39.35,5.25.35,3.79,1.92,5.63,1.82,3.15-1.93,5-2.14,4,.77,5.81.46,4.51.71,6.22.3,2.16-2.49,3.78-3,5,.53,6.56-.07,3-1.48,4.45-2.17,2.69-1.65,4-2.42,1.13-2.38,2.28-3.21-.86-2.91.15-3.8,3.4-1.15,4.26-2.09,3.07-1.47,3.77-2.46-2.2-2.6-1.68-3.63a19.53,19.53,0,0,0,1.23-2.9c.34-1.06,6.9-1.56,7.07-2.62S133,147.41,133,146.33Z" transform="translate(0 -2.87)"/><g class="cls-2"><path class="cls-1" d="M23.25,132.33l0,11c0,.61,1.19,1.3,1.19,1.91l0-11C24.44,133.63,23.26,132.94,23.25,132.33Z" transform="translate(0 -2.87)"/><path class="cls-19" d="M23.27,136.91l0-4.58h0s0,.07,0,.11a.28.28,0,0,0,0,.12,1,1,0,0,0,.09.17,2.93,2.93,0,0,0,.28.36l.34.38a2.68,2.68,0,0,1,.28.35.76.76,0,0,1,.09.18.56.56,0,0,1,0,.12s0,.06,0,.09v3.63a.85.85,0,0,1,.28.46v.1l0,3.87s0,.05,0,.07c.27.66,1.47,1.18,1.85,1.83s.07,1.39.54,2a18.21,18.21,0,0,0,1.35,1.89c.56.62.57,1.39,1.23,2s1.42,1.16,2.16,1.72,2.35.78,3.18,1.31,1.73,1,2.62,1.48,1.43,1.17,2.39,1.62,1.69,1.08,2.71,1.49,2.84.27,3.93.64,2.18.68,3.32,1,2,.91,3.17,1.19,2.34.6,3.56.84,2.4.56,3.66.75,2.69-.05,4,.08,2.47.47,3.76.56,2.6,0,3.91.07,2.57-.21,3.89-.23,2.57.11,3.88.05,2.66.16,4,0,2.8.22,4.08.05a3.21,3.21,0,0,0,1.13-.38c.2-.1.39-.21.57-.32l.57-.32a3.45,3.45,0,0,1,1-.37c1.23-.21,3,.23,4.16,0a3.63,3.63,0,0,0,.91-.33l.68-.41c.24-.14.47-.29.71-.42a4.17,4.17,0,0,1,.75-.29c1.16-.3,2.49-.43,3.63-.78s2.88-.21,4-.6,2.16-.82,3.18-1.25l.47-.22a10.57,10.57,0,0,0,1-.62c.36-.22.73-.45,1.11-.65,1.05-.54.93-1.53,1.81-2a8.06,8.06,0,0,1,1.61-.57,8,8,0,0,0,1.52-.5c.32-.2.45-.27.6-.35s.62-.29,1-.43.65-.28,1-.44a3.46,3.46,0,0,0,.57-.35c.74-.56,1.06-1.28,1.72-1.86s.64-1.36,1.21-2,1.27-1.18,1.76-1.81a20.49,20.49,0,0,0,1.34-1.89,1.3,1.3,0,0,0,.16-.48v-.92a1.55,1.55,0,0,1,.12-.64c.31-.67,1.15-1.24,1.36-1.9s.93-1.3,1-2,.71-1.35.73-2,.3-1.24.3-1.85l0,11.05c0,.61-.28,1.24-.3,1.85s-.62,1.35-.74,2-.83,1.31-1,2-1,1.24-1.36,1.91a1.15,1.15,0,0,0-.1.33v1a1.41,1.41,0,0,1-.17.74,21.19,21.19,0,0,1-1.34,1.9c-.49.63-1.18,1.2-1.76,1.81s-.55,1.37-1.21,2-1,1.3-1.72,1.86a3.56,3.56,0,0,1-.58.35c-.29.16-.62.29-.94.43s-.66.29-1,.44c-.14.08-.28.15-.6.35a7.64,7.64,0,0,1-1.51.5,8.82,8.82,0,0,0-1.62.56c-.87.49-.76,1.48-1.8,2-.39.2-.75.43-1.11.65s-.68.43-1,.61l-.47.22c-1,.43-2.12.87-3.19,1.26s-2.85.25-4,.6-2.46.48-3.62.78a3.54,3.54,0,0,0-.75.29c-.25.13-.48.28-.71.42s-.45.28-.69.41a3.09,3.09,0,0,1-.9.32c-1.21.27-2.93-.17-4.16,0a3.45,3.45,0,0,0-1,.37l-.57.32-.57.32a3.34,3.34,0,0,1-1.14.38c-1.27.17-2.79-.16-4.07,0s-2.66-.11-4,0-2.58-.07-3.88,0-2.58.26-3.88.23-2.61,0-3.91-.07-2.48-.43-3.77-.56-2.72.1-4-.08-2.42-.52-3.65-.76-2.37-.55-3.56-.83-2-.87-3.17-1.19-2.23-.63-3.32-1-2.9-.22-3.93-.64-1.75-1-2.71-1.49-1.49-1.12-2.4-1.62-1.8-1-2.62-1.48-2.44-.76-3.17-1.31-1.51-1.14-2.17-1.72-.66-1.37-1.22-2a16.83,16.83,0,0,1-1.35-1.89c-.47-.63-.18-1.38-.55-2s-1.57-1.17-1.84-1.83a14.59,14.59,0,0,1-.57-2,.76.76,0,0,1,0-.21v-2.53c-.55-.43-1.3-.86-1.3-1.3l0-11.05C22.88,136.51,23.05,136.71,23.27,136.91Z" transform="translate(0 -2.87)"/><path class="cls-20" d="M126,142.28v-.1s0,0,0,0v.13Z" transform="translate(0 -2.87)"/><path class="cls-21" d="M23.25,132.34v3.74h0l0-3.74Z" transform="translate(0 -2.87)"/><path class="cls-22" d="M22.92,146.53c0,.44.75.87,1.3,1.3v2.54a.75.75,0,0,0,0,.2,14.59,14.59,0,0,0,.57,2c.27.66,1.46,1.18,1.84,1.83s.08,1.39.55,2a17.9,17.9,0,0,0,1.35,1.9c.56.61.57,1.38,1.22,2S31.21,161.45,32,162s2.34.78,3.17,1.31,1.73,1,2.62,1.48,1.43,1.17,2.4,1.62,1.69,1.08,2.71,1.49,2.83.27,3.93.64,2.18.68,3.32,1,2,.91,3.17,1.19,2.34.6,3.56.83,2.39.57,3.65.76,2.7-.05,4,.08,2.47.47,3.77.56,2.59,0,3.91.07,2.56-.22,3.88-.23,2.58.11,3.88.05,2.66.16,4,0,2.8.22,4.07.05a3.34,3.34,0,0,0,1.14-.38l.57-.32.57-.32a3.45,3.45,0,0,1,1-.37c1.23-.21,3,.22,4.16,0a3.42,3.42,0,0,0,.9-.33c.24-.13.47-.27.69-.41s.46-.29.71-.42a3.54,3.54,0,0,1,.75-.29c1.16-.3,2.49-.43,3.62-.78s2.88-.21,4-.6,2.16-.83,3.19-1.25l.47-.22c.36-.19.7-.41,1-.62s.72-.45,1.11-.65c1-.53.93-1.53,1.8-2a8.15,8.15,0,0,1,1.62-.57,7.64,7.64,0,0,0,1.51-.5c.32-.2.46-.27.6-.35.3-.15.63-.29,1-.43s.65-.28.94-.44a3,3,0,0,0,.58-.35c.74-.56,1.06-1.28,1.72-1.86s.63-1.36,1.21-2,1.27-1.18,1.76-1.81a21.07,21.07,0,0,0,1.34-1.89,1.34,1.34,0,0,0,.17-.72v.8a1.41,1.41,0,0,1-.17.74,21.19,21.19,0,0,1-1.34,1.9c-.49.63-1.18,1.2-1.76,1.81s-.55,1.37-1.21,2-1,1.3-1.72,1.86a3.56,3.56,0,0,1-.58.35c-.29.16-.62.29-.94.43s-.66.29-1,.44c-.14.08-.28.15-.6.35a7.64,7.64,0,0,1-1.51.5,8.82,8.82,0,0,0-1.62.56c-.87.49-.76,1.48-1.8,2-.39.2-.75.43-1.11.65s-.68.43-1,.61l-.47.22c-1,.43-2.12.87-3.19,1.26s-2.85.25-4,.6-2.46.48-3.62.78a3.54,3.54,0,0,0-.75.29c-.25.13-.48.28-.71.42s-.45.28-.69.41a3.09,3.09,0,0,1-.9.32c-1.21.27-2.93-.17-4.16,0a3.45,3.45,0,0,0-1,.37l-.57.32-.57.32a3.34,3.34,0,0,1-1.14.38c-1.27.17-2.79-.16-4.07,0s-2.66-.11-4,0-2.58-.07-3.88,0-2.58.26-3.88.23-2.61,0-3.91-.07-2.48-.43-3.77-.56-2.72.1-4-.08-2.42-.52-3.65-.76-2.37-.55-3.56-.83-2-.87-3.17-1.19-2.23-.63-3.32-1-2.9-.22-3.93-.64-1.75-1-2.71-1.49-1.49-1.12-2.4-1.62-1.8-1-2.62-1.48-2.44-.76-3.17-1.31-1.51-1.14-2.17-1.72-.66-1.37-1.22-2a16.83,16.83,0,0,1-1.35-1.89c-.47-.63-.18-1.38-.55-2s-1.57-1.17-1.84-1.83a14.59,14.59,0,0,1-.57-2,.76.76,0,0,1,0-.21v-2.53c-.55-.43-1.3-.86-1.3-1.3l0-11.05v0Z" transform="translate(0 -2.87)"/><path class="cls-23" d="M126.07,152.09a1.39,1.39,0,0,1,.1-.33c.31-.67,1.14-1.23,1.36-1.9s.93-1.3,1-2,.72-1.35.74-2,.29-1.22.29-1.82v.8c0,.61-.28,1.24-.3,1.85s-.62,1.35-.74,2-.83,1.31-1,2-1,1.24-1.36,1.91a1.19,1.19,0,0,0-.1.32Z" transform="translate(0 -2.87)"/><path class="cls-24" d="M124.56,146.28c-.49.63-1.18,1.19-1.76,1.8s-.55,1.38-1.21,2-1,1.3-1.72,1.86a3.56,3.56,0,0,1-.58.35c-.29.15-.62.29-.94.43s-.66.29-1,.44c-.14.08-.28.15-.6.35a7.64,7.64,0,0,1-1.51.5,8.82,8.82,0,0,0-1.62.56c-.87.49-.76,1.48-1.8,2-.39.2-.75.43-1.11.65s-.68.42-1,.61l-.47.22c-1,.43-2.12.87-3.19,1.26s-2.85.25-4,.6-2.46.48-3.62.78a3.54,3.54,0,0,0-.75.29c-.25.13-.48.28-.71.42a7.76,7.76,0,0,1-.69.4,3.1,3.1,0,0,1-.9.33c-1.21.26-2.93-.17-4.16,0a3.45,3.45,0,0,0-1,.37l-.57.32-.57.32a3.34,3.34,0,0,1-1.14.38c-1.27.17-2.79-.16-4.07-.05s-2.66-.11-4,0-2.58-.07-3.88-.05-2.58.26-3.88.23-2.61,0-3.91-.07-2.48-.43-3.77-.56-2.72.1-4-.08-2.42-.52-3.65-.76-2.37-.55-3.56-.83-2-.86-3.17-1.19-2.23-.63-3.32-1-2.9-.22-3.93-.64-1.75-1-2.71-1.49-1.49-1.13-2.4-1.62-1.8-1-2.62-1.48-2.44-.76-3.17-1.31-1.51-1.14-2.17-1.73-.66-1.36-1.22-2A16.83,16.83,0,0,1,27.21,147c-.47-.63-.18-1.38-.55-2s-1.57-1.17-1.84-1.83a14.59,14.59,0,0,1-.57-2,.76.76,0,0,1,0-.21v-2.53c-.55-.43-1.3-.86-1.3-1.3v-.65a1.35,1.35,0,0,0,.35.44l0-4.58h0s0,.07,0,.11a.28.28,0,0,0,0,.12,1,1,0,0,0,.09.17,2.93,2.93,0,0,0,.28.36l.34.38a2.68,2.68,0,0,1,.28.35.76.76,0,0,1,.09.18.56.56,0,0,1,0,.12s0,.06,0,.09v3.63a.85.85,0,0,1,.28.46v.1l0,3.87s0,.05,0,.07c.27.66,1.47,1.18,1.85,1.83s.07,1.39.54,2a18.21,18.21,0,0,0,1.35,1.89c.56.62.57,1.39,1.23,2s1.42,1.16,2.16,1.72,2.35.78,3.18,1.31,1.73,1,2.62,1.48,1.43,1.17,2.39,1.62,1.69,1.08,2.71,1.49,2.84.27,3.93.64,2.18.68,3.32,1,2,.91,3.17,1.19,2.34.6,3.56.84,2.4.56,3.66.75,2.69-.05,4,.08,2.47.47,3.76.56,2.6,0,3.91.07,2.57-.21,3.89-.23,2.57.11,3.88.05,2.66.16,4,0,2.8.22,4.08.05a3.21,3.21,0,0,0,1.13-.38c.2-.1.39-.21.57-.32l.57-.32a3.45,3.45,0,0,1,1-.37c1.23-.21,3,.23,4.16,0a3.63,3.63,0,0,0,.91-.33l.68-.41c.24-.14.47-.29.71-.42a4.17,4.17,0,0,1,.75-.29c1.16-.3,2.49-.43,3.63-.78s2.88-.21,4-.6,2.16-.82,3.18-1.25l.47-.22a10.57,10.57,0,0,0,1-.62c.36-.22.73-.45,1.11-.65,1.05-.54.93-1.53,1.81-2a8.06,8.06,0,0,1,1.61-.57,8,8,0,0,0,1.52-.5c.32-.2.45-.27.6-.35s.62-.29,1-.43.65-.28,1-.44a3.46,3.46,0,0,0,.57-.35c.74-.56,1.06-1.28,1.72-1.86s.64-1.36,1.21-2,1.27-1.18,1.76-1.81a20.49,20.49,0,0,0,1.34-1.89,1.3,1.3,0,0,0,.16-.48v-.92a1.55,1.55,0,0,1,.12-.64c.31-.67,1.15-1.24,1.36-1.9s.93-1.3,1-2,.71-1.35.73-2,.3-1.24.3-1.85v1.14c-.06.51-.25,1-.26,1.52,0,.67-.62,1.35-.74,2s-.83,1.31-1,2-1,1.24-1.36,1.91a1.19,1.19,0,0,0-.1.32v1a1.39,1.39,0,0,1-.17.74A21.19,21.19,0,0,1,124.56,146.28Z" transform="translate(0 -2.87)"/><path class="cls-25" d="M43,114.71a1.74,1.74,0,0,0-.85,1.07,1.67,1.67,0,0,1-.76,1c-1,.48-2.89.43-3.81.9s-1.11,1.33-1.93,1.86-1.55,1.07-2.3,1.63a1.28,1.28,0,0,1-.26.16,8.69,8.69,0,0,1-1.37.48,7.39,7.39,0,0,0-1.36.48,1.33,1.33,0,0,0-.33.21c-.66.59.42,1.66-.15,2.26a1.34,1.34,0,0,1-.37.26,8.33,8.33,0,0,1-1.24.46A7.61,7.61,0,0,0,27,126a1.15,1.15,0,0,0-.4.29,21.9,21.9,0,0,0-1.22,2,19.83,19.83,0,0,0-.78,2c-.31.66-1.14,1.3-1.35,2s1.28,1.46,1.17,2.13-1.53,1.31-1.55,2,1.77,1.32,1.85,2-.7,1.37-.52,2a13.26,13.26,0,0,0,.56,2c.27.66,1.47,1.18,1.85,1.83s.07,1.39.54,2a18.21,18.21,0,0,0,1.35,1.89c.56.62.57,1.39,1.23,2s1.42,1.16,2.16,1.72,2.35.78,3.18,1.31,1.73,1,2.62,1.48,1.43,1.17,2.39,1.62,1.69,1.08,2.71,1.49,2.84.27,3.93.64,2.18.68,3.32,1,2,.91,3.17,1.19,2.34.6,3.56.84,2.4.56,3.66.75,2.69-.05,4,.08,2.47.47,3.76.56,2.6,0,3.91.07,2.57-.21,3.89-.23,2.57.11,3.88.05,2.66.16,4,0,2.8.22,4.08.05a3.21,3.21,0,0,0,1.13-.38c.2-.1.39-.21.57-.32l.57-.32a3.45,3.45,0,0,1,1-.37c1.23-.21,3,.23,4.16,0a3.63,3.63,0,0,0,.91-.33l.68-.41c.24-.14.47-.29.71-.42a4.17,4.17,0,0,1,.75-.29c1.16-.3,2.49-.43,3.63-.78s2.88-.21,4-.6,2.16-.82,3.18-1.25l.47-.22a10.57,10.57,0,0,0,1-.62c.36-.22.73-.45,1.11-.65,1.05-.54.93-1.53,1.81-2a8.06,8.06,0,0,1,1.61-.57,8,8,0,0,0,1.52-.5c.32-.2.45-.27.6-.35s.62-.29,1-.43.65-.28,1-.44a3.46,3.46,0,0,0,.57-.35c.74-.56,1.06-1.28,1.72-1.86s.64-1.36,1.21-2,1.27-1.18,1.76-1.81a20.49,20.49,0,0,0,1.34-1.89c.39-.65,0-1.39.27-2s1.15-1.24,1.36-1.9.93-1.3,1-2,.71-1.35.73-2a13.39,13.39,0,0,0,.29-2.07c-.08-.67-.67-1.35-.85-2s-1.74-1.21-2-1.87.5-1.45.12-2.1-1.73-1.11-2.2-1.74.32-1.54-.24-2.15-2.7-.79-3.36-1.37-.42-1.44-1.16-2-1.45-1.13-2.27-1.66-2.36-.71-3.26-1.2-1.61-1-2.56-1.51-1.4-1.23-2.43-1.64-1.9-1-3-1.36-2.34-.65-3.48-1-2.84-.11-4-.39-2.1-.89-3.33-1.12-2.33-.72-3.59-.9-2.68-.1-4-.23-2.61-.2-3.9-.28-2.56-.58-3.87-.61-2.68,0-4,.06-2.58.52-3.89.58-2.6.12-3.89.24-2.54.3-3.82.46-2.34.6-3.6.81-2.94-.22-4.16,0a2.48,2.48,0,0,0-.63.23,5.69,5.69,0,0,0-.86.59,4.68,4.68,0,0,1-.86.59,2.25,2.25,0,0,1-.53.21c-1.17.3-3.11-.13-4.25.22a1.78,1.78,0,0,0-.4.17,4.09,4.09,0,0,0-.93.69,5,5,0,0,1-.93.69l-.31.14C46.08,114.54,44,114.28,43,114.71Z" transform="translate(0 -2.87)"/><path class="cls-26" d="M72.34,160.12c.47,0,1-.05,1.55-.1s1.31-.12,2-.13h.32l1.53,0c.42,0,.85,0,1.28,0l.61,0,.69,0c.5,0,1,0,1.49.06s.76,0,1.14,0l.51,0c.3,0,.61,0,.93,0,.5,0,1,0,1.53.07s.73.05,1.09.05a2.55,2.55,0,0,0,.39,0h0s0,0,0-.05a3.07,3.07,0,0,0,.36-.2c.3-.17.54-.31.78-.43a6.75,6.75,0,0,1,2-.69,7.68,7.68,0,0,1,1.39-.11c.46,0,.94,0,1.43.06.32,0,.65.05,1,.05h.26a4,4,0,0,0,.55-.32c.31-.19.61-.38.94-.55a6.47,6.47,0,0,1,1.42-.54c.63-.17,1.26-.28,1.88-.39s1.17-.22,1.61-.35a12.32,12.32,0,0,1,2.61-.42,9.22,9.22,0,0,0,1.22-.14c.89-.32,1.91-.73,3-1.19l.24-.11c.29-.15.54-.31.8-.47s.71-.45,1.11-.66a.59.59,0,0,1,0-.08,4.82,4.82,0,0,1,1.93-2,11.3,11.3,0,0,1,2.33-.85c.28-.08.67-.18.84-.25l.63-.35c.36-.18.74-.35,1.12-.52s.55-.23.78-.35l.15-.09a3.39,3.39,0,0,0,.42-.48,8.53,8.53,0,0,1,1-1.12,1.54,1.54,0,0,0,.08-.19,5.18,5.18,0,0,1,1.07-1.71c.24-.26.51-.51.77-.77a8.62,8.62,0,0,0,.81-.83c.39-.49.7-.92,1-1.32a4.14,4.14,0,0,1,.34-2.11,6.2,6.2,0,0,1,1.08-1.52c.07-.09.15-.17.22-.25a6.32,6.32,0,0,1,.77-1.39c0-.09.12-.17.17-.26a6.1,6.1,0,0,1,.55-1.42c0-.09.09-.17.12-.26a9,9,0,0,1,.2-1.18c0-.11.06-.21.08-.32l-.15-.27c-.12-.23-.26-.5-.39-.8l-.12-.08a5,5,0,0,1-2-2.1,3.46,3.46,0,0,1-.2-1.93,5.84,5.84,0,0,1-1.58-1.37,3.4,3.4,0,0,1-.65-1.87,6.35,6.35,0,0,1-2.56-1.24,4.47,4.47,0,0,1-1.28-2.07l-.16-.13c-.56-.42-1.08-.82-1.63-1.17-.08,0-.53-.17-.84-.26a10.27,10.27,0,0,1-2.22-.83c-.44-.24-.82-.48-1.2-.73a13.13,13.13,0,0,0-1.2-.7,7.61,7.61,0,0,1-1.8-1.21,4.6,4.6,0,0,0-.44-.35c-.58-.23-1.08-.49-1.53-.71a10.91,10.91,0,0,0-1.3-.59c-.59-.2-1.27-.38-2-.57l-1.36-.36a7.91,7.91,0,0,0-1.24-.09,12.85,12.85,0,0,1-2.62-.26,14,14,0,0,1-2-.69,6.31,6.31,0,0,0-1.14-.4c-.72-.14-1.37-.33-1.94-.5a11.9,11.9,0,0,0-1.51-.38,17.49,17.49,0,0,0-1.76-.1c-.67,0-1.36,0-2.07-.11-.89-.09-1.81-.15-2.8-.2l-1-.06a15.24,15.24,0,0,1-2.31-.38,9.57,9.57,0,0,0-1.42-.23h-.67l-1.78,0-1.41,0a8.22,8.22,0,0,0-1.4.22,13.81,13.81,0,0,1-2.36.36l-.64,0c-1.09.05-2.11.1-3.11.19-.84.08-1.66.18-2.53.3l-1.18.16a11.64,11.64,0,0,0-1.52.34c-.57.15-1.21.32-1.94.45a8.64,8.64,0,0,1-1.4.11c-.45,0-.92,0-1.4-.07-.32,0-.64,0-1,0h-.17l-.28.22a8.83,8.83,0,0,1-1.36.91,6,6,0,0,1-1.2.46,8.23,8.23,0,0,1-2,.22l-1,0h-1l-.22.2A7.52,7.52,0,0,1,49,116.37a6.4,6.4,0,0,1-.7.3,10.47,10.47,0,0,1-3,.45l-.46,0a4.13,4.13,0,0,1-1.92,2,9.94,9.94,0,0,1-3,.78l-.79.13a1.73,1.73,0,0,0-.15.2,6.59,6.59,0,0,1-1.58,1.5c-.72.46-1.36.93-2.13,1.51a5.8,5.8,0,0,1-.71.44,9.06,9.06,0,0,1-1.51.57,3.14,3.14,0,0,1-.87,2.25,4.33,4.33,0,0,1-1.18.86,10.51,10.51,0,0,1-1.75.66l-.45.14-.36.63-.42.71a3.82,3.82,0,0,0-.2.57,8.13,8.13,0,0,1-.44,1.18,5.17,5.17,0,0,1-.63,1,3.12,3.12,0,0,1,.65,2.44,3.23,3.23,0,0,1-.62,1.42,3.25,3.25,0,0,1,.94,1.9,3.87,3.87,0,0,1-.46,2.21.31.31,0,0,1,0,.08c.07.3.13.56.21.8l.18.13a6,6,0,0,1,1.62,1.67,4.69,4.69,0,0,1,.56,2V145l.37.56a7.79,7.79,0,0,0,.6.84,5.84,5.84,0,0,1,1,1.63,1.6,1.6,0,0,0,.1.23c.53.46,1.17,1,1.8,1.43.16.07.54.19.79.27a9.64,9.64,0,0,1,2.28,1c.49.31,1,.62,1.66.94l.79.44a10,10,0,0,1,1.49,1,4,4,0,0,0,.72.5,16.77,16.77,0,0,1,1.48.83,6.4,6.4,0,0,0,1.06.58,8.33,8.33,0,0,0,1.09.13,10.92,10.92,0,0,1,2.67.46c.88.3,1.77.55,2.71.83l.47.13a14.25,14.25,0,0,1,1.87.71,6.84,6.84,0,0,0,1.14.44l1.17.29c.77.19,1.51.37,2.25.51l1.55.34c.69.15,1.33.3,2,.4a6.09,6.09,0,0,0,.69,0h.81l1,0a10.33,10.33,0,0,1,1.3.06c.72.07,1.39.19,2,.3a14,14,0,0,0,1.66.25c.66,0,1.38,0,2.15,0l1.61,0Z" transform="translate(0 -2.87)"/></g><path class="cls-27" d="M32.69,150.46c-.57.29-1.07.53-1.54.75l.76.58a2.51,2.51,0,0,0,.54.29c.45-.26,1-.57,1.61-.92,1.15-.64,2-1.08,2.77-1.42,1,.53,2,1.08,4.05,2.12,1.14.6,2,1,2.73,1.35-.68.38-1.52.84-2.73,1.47l-1.78.89a5.17,5.17,0,0,0,1,.63l.32.17c.44-.31,1-.66,1.65-1.06a26.42,26.42,0,0,1,2.85-1.52c1.27.56,2.42,1,4.73,2.23,1.19.62,2,1.07,2.72,1.44-.72.42-1.6.9-3,1.61l-.1.05.75.22a7.67,7.67,0,0,1,1,.37c1.15-.66,2-1.12,2.67-1.5,1,.57,2.06,1.13,4.18,2.23,1,.49,1.66.87,2.26,1.2l-.59.33c.28.05.56.11.85.15a23.8,23.8,0,0,0,3.17,0l-.6-.3c1.06-.58,2.09-1.14,4.28-2.27l2.55-1.33c1.17.62,2.18,1.17,4.53,2.39l2.26,1.18-1.58.81c.3,0,.61,0,.92,0,.62,0,1.23,0,1.85,0l.16-.09.17.1c.57,0,1.13,0,1.7,0a14.09,14.09,0,0,1,1.59,0c-.67-.38-1.2-.7-1.8-1.06,1-.57,2-1.14,4.1-2.23l2.19-1.15c1.39.71,2.36,1.22,4.83,2.64l.78.44a34.82,34.82,0,0,0,3.82,0,3.63,3.63,0,0,0,.91-.33l.68-.41c.24-.14.47-.29.71-.42a4.17,4.17,0,0,1,.75-.29c.41-.11.85-.19,1.29-.27l.65-.34,2-1c.31.24.6.45.89.66a13.5,13.5,0,0,0,2.79-.39l.26-.1c-.74-.41-1.41-.71-2.24-1.09,1.2-.66,2.19-1.21,4.6-2.46l1.82-.94a22.41,22.41,0,0,0,2.1,1.19c.34-.49.49-1,1.07-1.35a1.73,1.73,0,0,1,.24-.1c-.53-.22-1.06-.42-1.66-.65l4.82-2.51,1.5-.76c.64.33,1.21.59,1.85.86a14.57,14.57,0,0,1,1.17-1.34h0l-1-.47,1.71-.75a2.56,2.56,0,0,1,.46-.73c.58-.61,1.27-1.18,1.76-1.81l.26-.34-.66.35c-2.62,1.35-3.68,1.83-5.11,2.53l-1.63-.82c-2.5-1.3-3.54-1.81-4.86-2.48,1.47-.71,2.5-1.19,5.16-2.56l1.24-.65c1.29.63,2.33,1.14,4.68,2.46l1.45.81c.28-.39.55-.77.79-1.16l-.77-.38a38.91,38.91,0,0,1-4.43-2.62l5.44-2.81c.68-.36,1.23-.65,1.7-.92l.85.48c.13-.36.33-.73.48-1.09a.57.57,0,0,0-.13-.08l.2-.13a1.27,1.27,0,0,0,.09-.42c0-.51.22-1,.28-1.55-.82.4-1.49.7-2.3,1.09-.47-.26-1-.55-1.67-.89-2.6-1.35-3.62-1.84-5-2.54,1.54-.82,2.45-1.32,5.25-2.77l1-.51a1.14,1.14,0,0,0,0-.89c-.37-.64-1.73-1.11-2.2-1.74a.85.85,0,0,1-.15-.58c-1.75-.88-2.73-1.32-3.82-1.82l1.38-.66a3.08,3.08,0,0,1-1-.46,1.71,1.71,0,0,1-.21-.26l-1.57.72c-.68-.33-1.48-.73-2.53-1.27-2.34-1.22-3.45-1.71-4.71-2.29l3-1.48a3.53,3.53,0,0,1-.65-.28l-.63-.37c-1.15.5-2,.83-3.27,1.38-.64-.31-1.4-.69-2.36-1.19-1.89-1-2.88-1.54-3.78-2.07,1.2-.67,1.92-1.12,3.16-1.8a9.06,9.06,0,0,0-1.1-.46c-.14,0-.31-.09-.46-.13-1.17.57-2,.93-3.15,1.5-.71-.4-1.56-.86-2.82-1.52-1.86-1-3-1.47-4-1.92l.39-.21a6.39,6.39,0,0,0-.81-.21c-1.23-.24-2.33-.72-3.59-.9-.41-.06-.83-.09-1.26-.11.92.49,1.62.87,2.19,1.2l-1.33.69c-2.94,1.52-3.85,2-5.57,2.85-.75-.35-1.64-.78-2.85-1.41-1.68-.87-2.65-1.41-3.49-1.89,1.33-.66,2.2-1.07,3.86-1.92-.83-.12-1.65-.33-2.47-.45-1.17.56-2,.91-3.07,1.41-.65-.36-1.44-.78-2.54-1.36-.76.1-1.51.29-2.27.42l.23.12c1.36.7,2.26,1.18,3,1.58l-1.48.76c-2.72,1.4-3.55,2-4.94,2.78-.76-.44-1.67-1-3.16-1.73s-2.66-1.33-3.57-1.75l1.94-1-.55.07c-1.26.17-2.34.6-3.6.81a6.76,6.76,0,0,1-1.63,0L60,111l-1.46.77c-2.53,1.31-3.65,1.77-5,2.41l-3.37-1.74h0a2.71,2.71,0,0,0-.41.09,1.78,1.78,0,0,0-.4.17,4.09,4.09,0,0,0-.93.69c1.49.77,2.51,1.23,3.41,1.6-.55.27-1.18.58-1.94,1-2.62,1.35-3.67,1.83-5.11,2.53-.74-.44-1.64-1-3.07-1.69l-.12-.06a.64.64,0,0,1-.16.11,8,8,0,0,1-2.12.49l.66.35,3.14,1.62c-.51.26-1.09.55-1.79.92-2.15,1.11-3.12,1.7-4.11,2.3-.83-.41-1.81-.9-3.3-1.67l-.52.38a1.28,1.28,0,0,1-.26.16,4.9,4.9,0,0,1-.75.29c1.53.8,2.47,1.32,3.25,1.77-.62.34-1.37.75-2.39,1.28-2.26,1.17-3.37,1.68-4.57,2.23-.51-.24-1.09-.52-1.78-.87a1.69,1.69,0,0,0-.24.2,7.9,7.9,0,0,0-.53.8l1.12.55c-.56.26-1.2.58-2,1-.24.54-.35,1.11-.6,1.64a1.37,1.37,0,0,1-.13.2l1.53-.78c1.13-.59,2-1,2.7-1.34.94.45,2,1,3.73,1.86C34,131,35,131.52,35.77,132c-.64.37-1.44.8-2.56,1.39-2,1-3.13,1.54-4.21,2l-3.3-1.74c-1-.5-1.75-.87-2.42-1.17.18.59,1.26,1.25,1.16,1.83a.6.6,0,0,1-.08.19l3.09,1.59c-.77.36-1.68.8-2.95,1.46l-.23.12a1.18,1.18,0,0,1,.47.63,3.44,3.44,0,0,1-.45,1.38l2.2-1.12c1.26-.66,2.08-1.14,2.74-1.56l3.39,1.75c1.31.68,2.19,1.16,2.91,1.56-.69.39-1.54.85-2.77,1.49-1.88,1-2.93,1.51-3.89,2-.7-.42-1.57-.91-2.9-1.6l-1.49-.77a6.17,6.17,0,0,0,.3.92c.27.66,1.47,1.18,1.85,1.83a1.46,1.46,0,0,1,.16.44l.23.11a1.24,1.24,0,0,1-.2.1,2.59,2.59,0,0,0,.35,1.37c0,.07.09.14.14.2l1.41-.84c1,.46,2,1,3.82,1.92L35.43,149C34.74,149.38,33.9,149.83,32.69,150.46Zm4.2-17.83c.88.51,1.87,1.07,3.72,2,1.2.63,2.08,1.06,2.83,1.41-.69.33-1.5.72-2.54,1.27-2.06,1.07-3,1.64-4,2.21L34,138.06c-1.7-.88-2.69-1.41-3.56-1.88a30.87,30.87,0,0,1,3.82-2.28C35.35,133.34,36.18,133,36.89,132.63Zm62.33,6.54,2.13,1.1-2.08,1.09c-2.59,1.34-3.49,1.9-4.79,2.65-.64-.31-1.38-.68-2.33-1.18-2.25-1.16-3.36-1.67-4.56-2.22a50.89,50.89,0,0,1,4.81-2.81c.68-.36,1.26-.65,1.77-.9A49,49,0,0,1,99.22,139.17Zm-7.17-5c-2.38-1.24-3.36-1.79-4.53-2.45,1.46-.67,2.55-1.13,5.16-2.48.66-.34,1.2-.62,1.7-.86a37.8,37.8,0,0,0,4.15,2.44c1,.54,1.84.93,2.54,1.24l-1.46.77c-2.64,1.37-3.75,1.81-5.26,2.49C93.72,135.05,93,134.68,92.05,134.2Zm-6,5.7c-.69-.33-1.51-.74-2.59-1.29-2.41-1.26-3.33-1.84-4.48-2.53l5-2.6,1.57-.8c1.24.64,2.29,1.16,4.71,2.42.89.46,1.62.81,2.25,1.1l-1.66.84A45.09,45.09,0,0,0,86.08,139.9ZM83,133c-2.58,1.34-3.5,1.89-4.8,2.63-.67-.39-1.51-.85-2.73-1.49A46,46,0,0,0,71,132c1.38-.79,2.25-1.34,4.93-2.73.77-.4,1.42-.72,2-1a26.09,26.09,0,0,0,4,2.43l2.66,1.38Zm2,7.61c-.54.31-1.17.67-2,1.09-2.46,1.27-3.51,1.79-4.81,2.43-.7-.35-1.54-.77-2.67-1.36-2.13-1.1-3.22-1.62-4.33-2.14a31.42,31.42,0,0,1,4.45-2.74l2.06-1.07,4.68,2.4C83.5,139.76,84.31,140.2,85,140.56Zm-15.25-.67c-.73-.36-1.6-.79-2.81-1.42-2-1.06-3.05-1.63-4-2.19,1.32-.67,2.35-1.19,4.86-2.49l2.16-1.15c1,.56,2,1.14,4,2.2l2.88,1.49-2,1.08C72.2,138.74,71.13,139.22,69.73,139.89ZM66.26,133c-2.47,1.27-3.38,1.86-4.56,2.56-.73-.41-1.62-.89-3-1.59-1.72-.89-2.73-1.42-3.61-1.89,1.25-.64,2.29-1.16,4.71-2.41.86-.45,1.51-.82,2-1.14a38.73,38.73,0,0,1,3.9,1.79c1.27.66,2.13,1.13,2.83,1.53C68,132.19,67.2,132.55,66.26,133Zm2.43,7.35c-.67.33-1.47.73-2.51,1.28-2.45,1.26-3.53,1.77-4.83,2.4l-2.66-1.36a39.29,39.29,0,0,1-3.78-2.2c1.11-.63,2.1-1.2,4.41-2.39L62,136.76l4.1,2.14C67.26,139.52,68.05,140,68.69,140.39Zm-15-.66c-.69-.43-1.55-.93-2.91-1.63-1.9-1-3-1.49-4-1.95A45.43,45.43,0,0,0,51.4,134c1.08-.56,1.88-1,2.56-1.32.94.43,2,.93,3.71,1.82,1.4.72,2.33,1.2,3.1,1.61-.65.37-1.45.81-2.58,1.4C56,138.69,54.87,139.2,53.7,139.73ZM45,135.36c-.77-.36-1.67-.8-2.92-1.45-1.77-.91-2.76-1.46-3.63-1.95,1.26-.53,2.44-1,4.71-2.17,1-.5,1.68-.9,2.27-1.25.9.43,1.93.93,3.58,1.79,1.34.69,2.28,1.15,3.07,1.52-.64.35-1.41.76-2.44,1.29C47.36,134.32,46.22,134.81,45,135.36Zm1.86-7.71A36.73,36.73,0,0,1,51,125.18c.7-.36,1.28-.65,1.81-.9,1,.49,2,1,4,2,1.25.65,2.18,1.08,3,1.42l-1.93,1c-2.39,1.24-3.36,1.8-4.54,2.45l-2.94-1.53C48.62,128.72,47.67,128.16,46.85,127.65Zm7.43-4c1.67-.73,2.81-1.12,5.6-2.57l2-1c.8.49,1.74,1,3.41,1.91,1.31.68,2.25,1.12,3.05,1.48-.53.29-1.16.63-2,1-2.79,1.45-3.8,1.9-5.4,2.68l-2.86-1.49Zm15.36.33c1.19.5,2.35,1,4.5,2.1a28.13,28.13,0,0,1,3.08,1.81l-2.08,1.07a60.06,60.06,0,0,1-5.56,2.52c-.81-.35-1.75-.79-3-1.46l-3.8-2a32.33,32.33,0,0,1,4.8-3C68.37,124.56,69.05,124.23,69.64,124Zm1.57-.71c1.45-.62,2.61-1.06,5.14-2.37l1.44-.77c1,.49,2.08,1,4,2,1.47.77,2.48,1.23,3.36,1.61l-1.64.85c-2.61,1.35-3.59,1.87-5,2.59-.83-.41-1.8-.89-3.29-1.66C73.16,124.41,72.19,123.83,71.21,123.24Zm15.42,1.1c1,.44,2.15.94,4,1.9,1.08.56,1.85,1,2.47,1.36-.5.28-1.09.59-1.82,1-2.57,1.34-3.55,1.86-4.88,2.57-.67-.36-1.47-.79-2.6-1.37-2.11-1.1-3.2-1.62-4.29-2.15a46.72,46.72,0,0,0,5.35-2.37Zm1.24-.63c1.64-.84,2.57-1.3,5.44-2.79l1.32-.68c1,.47,2,1,3.86,2l2.18,1.13-1.36.7c-2.88,1.5-3.61,2.06-5.14,3-.68-.32-1.49-.72-2.53-1.25C89.78,124.77,88.78,124.22,87.87,123.71ZM101.28,125l1.34-.7,4.3,2.21c.94.49,1.69.86,2.33,1.16l-1.41.72c-2.75,1.43-3.64,2-5.08,2.77-.61-.35-1.36-.76-2.37-1.28-2.24-1.16-3.39-1.65-4.61-2.19C97.43,126.92,98.45,126.49,101.28,125Zm9.42,3.34c1.36.6,2.5,1.07,5,2.35l2,1c-.5.24-1.06.51-1.72.86-2.91,1.51-3.77,2-5.42,2.87l-2.09-1.06c-2.34-1.21-3.27-1.8-4.37-2.46,1.49-.85,2.32-1.39,5.12-2.84Zm-1.27,7.72-1.77.92-4.8,2.49c-.56-.31-1.23-.66-2.08-1.11-2.41-1.24-3.54-1.72-4.87-2.31,1.46-.67,2.56-1.13,5.16-2.47l1.57-.83A50.11,50.11,0,0,1,107.4,135C108.25,135.4,108.89,135.76,109.43,136.08Zm-6.49,5,4.72,2.43c.85.44,1.51.8,2.06,1.11-.54.3-1.19.65-2,1.08-2.48,1.29-3.65,1.74-5.06,2.34-.51-.28-1.12-.59-1.86-1-2.31-1.2-3.42-1.7-4.65-2.27,1.27-.73,2.2-1.29,4.76-2.62C101.73,141.74,102.38,141.39,102.94,141.08ZM100.59,149l-1.72.86c-2.28,1.18-3.21,1.78-4.26,2.43-.52-.29-1.15-.63-1.93-1-2.29-1.19-3.4-1.7-4.62-2.26,1.22-.6,2.3-1.12,4.65-2.33l1.73-.92c1.09.62,2.07,1.19,4.34,2.36C99.47,148.44,100.06,148.73,100.59,149Zm-14-.68c-.69-.33-1.5-.74-2.57-1.3-2.3-1.19-3.39-1.7-4.6-2.28,1.38-.6,2.53-1.06,5-2.33.79-.4,1.41-.74,1.93-1,1,.59,2,1.16,4.21,2.28,1,.52,1.74.91,2.35,1.25-.5.28-1.09.59-1.82,1C88.74,147.06,87.78,147.63,86.63,148.29Zm-1.6.89-2.1,1.11a43.06,43.06,0,0,1-5,2.24c-.63-.31-1.36-.69-2.31-1.18L71,149c1.21-.66,2.21-1.21,4.62-2.46.82-.42,1.49-.75,2.07-1,1.27.58,2.38,1.08,4.74,2.31C83.57,148.39,84.37,148.82,85,149.18Zm-15.21-.82c-.69-.35-1.51-.77-2.63-1.36-2.06-1.06-3.13-1.59-4.19-2.11,1.32-.62,2.42-1.11,4.86-2.37.93-.48,1.61-.87,2.18-1.21a29.36,29.36,0,0,0,3.78,2.27c1.13.58,2,1,2.67,1.34-.56.28-1.21.61-2,1Zm-1.16.61c-.68.34-1.48.76-2.58,1.33-2.35,1.22-3.44,1.73-4.68,2.33-.73-.32-1.57-.72-2.65-1.28-2-1.06-3-1.62-4-2.18,1.15-.64,2.13-1.2,4.48-2.42,1-.52,1.78-.9,2.43-1.22,1.14.48,2.29,1,4.37,2.06C67.16,148.17,68,148.6,68.66,149ZM53,148.19l-2.44-1.3c-1.84-.95-2.83-1.51-3.71-2,1-.6,2-1.17,4.24-2.3l2.39-1.27c.87.55,1.82,1.14,3.74,2.14,1.13.58,2,1,2.7,1.32-.63.31-1.37.69-2.31,1.18C55.33,147.12,54.22,147.63,53,148.19Zm-7.83-4.29c-.69-.39-1.54-.85-2.77-1.49l-4.14-2.15,4.19-2.14c1.09-.57,1.93-1,2.65-1.29,1.07.48,2.18,1,4.17,2,1.33.68,2.19,1.18,2.88,1.6-.7.33-1.53.74-2.63,1.31C47.41,142.87,46.3,143.38,45.18,143.9ZM40.4,126.08c1.43.74,2.39,1.21,3.21,1.61-.64.3-1.38.67-2.33,1.16-2.21,1.15-3.17,1.73-4.19,2.35-.79-.43-1.73-.95-3.25-1.73-1.69-.88-2.74-1.38-3.65-1.82,1.2-.53,2.34-1,4.57-2.18l2.32-1.2C37.87,124.73,38.82,125.26,40.4,126.08ZM45,120.22l3.4,1.76,3.44,1.77-1.78.93c-2.18,1.13-3.33,1.62-4.51,2.15-.75-.46-1.66-1-3.15-1.75s-2.59-1.32-3.45-1.75l4.27-2.19C43.88,120.77,44.46,120.48,45,120.22Zm8.83-4.49c.93.38,2,.84,3.51,1.64s2.41,1.3,3.16,1.75c-.61.3-1.31.66-2.2,1.12-2.78,1.44-3.65,2-5.14,2.79l-3.38-1.75c-1.57-.82-2.51-1.35-3.29-1.81,1.51-.75,2.51-1.23,5.23-2.64Zm14.47-.55c-.43.23-.9.49-1.47.78-2.49,1.29-3.55,1.79-4.88,2.44-.84-.41-1.83-.89-3.33-1.67L55.21,115c1.29-.7,2.27-1.24,4.79-2.54l1.49-.78c.86.43,1.87.93,3.47,1.76S67.46,114.74,68.27,115.18Zm5,2.66c1.14.59,2,1,2.68,1.36l-1.42.73c-2.47,1.28-3.38,1.86-4.56,2.56-.69-.39-1.54-.86-2.78-1.51-1.66-.85-2.69-1.36-3.59-1.79,1.32-.63,2.39-1.13,4.85-2.4l1.42-.75C70.67,116.49,71.65,117,73.25,117.84ZM84.46,115l-1.37.71c-2.86,1.48-3.86,1.91-5.52,2.72-.71-.35-1.55-.78-2.69-1.37-1.63-.85-2.58-1.39-3.37-1.86,1.52-.82,2.41-1.33,5.21-2.78l1.42-.74c.86.46,1.85,1,3.53,1.86ZM90,117.89c1.46.76,2.42,1.24,3.23,1.65l-1.29.68L86.57,123c-.77-.43-1.7-.93-3.16-1.69-2-1-3.07-1.56-4.11-2.06,1.48-.89,2.23-1.46,5.07-2.93.49-.26.94-.48,1.35-.68C86.78,116.21,87.81,116.76,90,117.89Zm11.1-2.76-1.1.57c-2.78,1.44-3.57,2-5,2.85-.8-.39-1.75-.86-3.15-1.58-2.12-1.1-3.25-1.6-4.39-2.11a57.86,57.86,0,0,0,5.9-2.61l1.18-.62c.87.52,1.84,1.09,3.68,2C99.44,114.32,100.34,114.77,101.09,115.13Zm8,4-1.26.63c-2.75,1.43-3.75,1.89-5.29,2.65l-2.15-1.15c-1.86-1-2.93-1.48-3.91-2,1.53-.78,2.49-1.27,5.25-2.7l1.13-.6c1,.47,2,1,3.91,2C107.72,118.42,108.45,118.79,109.09,119.1Zm8.77,4.34-1.42.73c-2.91,1.5-3.9,1.92-5.64,2.75-.64-.31-1.38-.68-2.33-1.17-2.21-1.15-3.17-1.74-4.19-2.35,1.5-.86,2.31-1.4,5.14-2.86l1.29-.67c1.25.58,2.36,1.08,4.69,2.29Zm1.36,7.63L117.1,130c-2.44-1.27-3.55-1.76-4.87-2.38,1.7-.82,2.7-1.24,5.59-2.74l1.39-.71c1.17.63,2.19,1.17,4.54,2.39,1,.54,1.81,1,2.43,1.32l-1.27.67A58.21,58.21,0,0,1,119.22,131.07Zm-2,7.55c-2.58-1.34-3.7-1.8-5.14-2.46,1.64-.84,2.56-1.3,5.44-2.79l1.7-.89c1.4.68,2.46,1.16,5,2.5l1.67.87-1.81.92c-2.78,1.44-3.71,1.94-5.23,2.74C118.37,139.25,117.84,139,117.18,138.62Zm-6.25,5.29-2-1c-2.48-1.28-3.4-1.86-4.6-2.55,1.27-.73,2.18-1.29,4.74-2.61l1.62-.84a34.1,34.1,0,0,0,4.51,2.76c.67.35,1.24.63,1.74.88l-1.22.64A52.36,52.36,0,0,0,110.93,143.91Zm-2,7.6c-2.48-1.29-3.43-1.85-4.66-2.55,1.3-.69,2.29-1.22,4.82-2.54.77-.39,1.39-.72,1.94-1,1.18.74,2,1.34,4.46,2.69l1.55.84-1.54.79c-2.58,1.33-3.6,1.84-5,2.54C110.09,152.07,109.57,151.82,109,151.51Zm-8.19,4.22c-2.6-1.35-3.48-1.92-4.77-2.67,1.29-.56,2.44-1,4.78-2.25l1.82-.95a36.46,36.46,0,0,1,5,2.36c.57.31,1,.58,1.45.83l-2,1a37,37,0,0,0-4.41,2.61C102.15,156.42,101.53,156.11,100.79,155.73Zm-13.35,1.69c1.2-.66,2.18-1.21,4.59-2.45.89-.47,1.6-.82,2.22-1.11a27.12,27.12,0,0,1,5.36,2.5c.72.44,1.29.82,1.76,1.14-.56.34-1.24.71-2.15,1.18A43,43,0,0,1,94,161c-.53-.23-1.11-.5-1.78-.85C89.63,158.76,88.76,158.19,87.44,157.42Zm-3.29-1.8c-2.37-1.23-3.45-1.73-4.7-2.33,1.26-.62,2.33-1.13,4.73-2.37l2.08-1.06c1.12.62,2.11,1.19,4.43,2.39.84.43,1.55.77,2.17,1-.54.3-1.18.65-2,1.08-2.36,1.23-3.36,1.78-4.52,2.42C85.75,156.47,85.06,156.09,84.15,155.62Zm-12.6,1.73c1-.54,2-1.09,4.09-2.15,1-.51,1.73-.89,2.37-1.21,1.15.66,2.1,1.24,4.49,2.47.93.49,1.65.86,2.27,1.17l-2.2,1.16-4.14,2.13c-.59-.33-1.3-.71-2.23-1.2C73.83,158.49,72.77,158,71.55,157.35Zm-1.76-.89-2.06-1.06A39.28,39.28,0,0,0,63,153.3c1.08-.62,2.05-1.2,4.31-2.37l2.51-1.32c1.14.62,2.15,1.18,4.47,2.38.89.46,1.57.82,2.14,1.14-.7.3-1.5.68-2.53,1.21C71.9,155.4,70.83,155.94,69.79,156.46ZM54.9,157.6c1.07-.55,2.14-1.08,4.28-2.19,1.07-.56,1.85-1,2.5-1.34,1.11.54,2.2,1.07,4.36,2.19l2,1.07-2.6,1.33c-2.18,1.13-3.15,1.72-4.17,2.32l-2.2-1.14C57,158.73,55.94,158.17,54.9,157.6Zm-8.21-4.52a34.38,34.38,0,0,0,4.3-1.89l2.41-1.27c1,.5,2.11,1,4.1,2.06,1.07.56,1.88,1,2.55,1.3-.67.33-1.47.74-2.53,1.29-2.1,1.09-3.08,1.67-4.06,2.25-.68-.37-1.49-.8-2.63-1.39C48.64,154.29,47.69,153.7,46.69,153.08Zm-8-4.13A41.45,41.45,0,0,0,42.9,147l2.44-1.29c.87.49,1.85,1,3.63,2L51.43,149c-.66.32-1.43.7-2.44,1.22-1.86,1-2.84,1.54-3.72,2.06-.63-.36-1.4-.79-2.47-1.34C40.88,149.9,39.75,149.4,38.69,149ZM34,146.76c-1.93-1-2.89-1.59-3.77-2.14A43.08,43.08,0,0,1,34,142.45L36.77,141c1,.56,2,1.13,4,2.2,1.2.62,2,1.07,2.73,1.46-.7.33-1.53.74-2.62,1.31-2,1.06-3,1.62-4,2.18C36.11,147.83,35.21,147.4,34,146.76Z" transform="translate(0 -2.87)"/><path class="cls-28" d="M111.31,145.46a9.55,9.55,0,0,1,6.7-.75s3.95-2.42,6.57-4.26c4-2.8,7-1.67,7-1.67s-.74-10.27-6.56-13.9-17.09-10.14-27.35-16c-8.64-3.06-30.3-4.11-39.56-.62-3.45,1.3-12.75,7.41-12.75,7.41,2.33,1.39,2.33,3.6,0,5a9.52,9.52,0,0,1-8.59,0s-7.26,4-9.52,5.54a19,19,0,0,0-6.91,10.08,7.91,7.91,0,0,1,.23,1.25A13.11,13.11,0,0,1,26,138.8c3.35,1.93,11.91,6.59,11.91,6.59a9.7,9.7,0,0,1,7.37.56c1.75,1,2.46,2.21,1,3a5.23,5.23,0,0,1,0,1.25l19.9,11.49c2.83,1.64,10.6,9.55,11.55,9,3.39-1.82,7.27-6.85,9.77-8.3L110,149.35c0-.4.08-1.06,0-1.25C109.54,146.94,109.75,146.37,111.31,145.46Z" transform="translate(0 -2.87)"/><path class="cls-29" d="M111.31,144.21a9.55,9.55,0,0,1,6.7-.75s3.95-2.42,6.57-4.26c4-2.8,7-1.67,7-1.67s-.74-10.27-6.56-13.9-17.09-10.14-27.35-16c-8.64-3.06-30.3-4.11-39.56-.62-3.45,1.3-12.75,7.41-12.75,7.41,2.33,1.39,2.33,3.6,0,5a9.52,9.52,0,0,1-8.59,0s-7.26,4-9.52,5.54c-5.48,3.83-6.91,11.33-6.91,11.33s3.57,0,5.71,1.25c3.35,1.93,11.91,6.59,11.91,6.59a9.7,9.7,0,0,1,7.37.56c2,1.16,2.32,2.91,1,4.26l19.9,11.49c2.83,1.64,10.6,9.55,11.55,9,3.39-1.82,7.27-6.85,9.77-8.3L110,148.1C109.08,146.81,109.5,145.26,111.31,144.21Z" transform="translate(0 -2.87)"/><path class="cls-30" d="M83.13,134a9.57,9.57,0,0,0-8.66,0c-2.38,1.39-2.37,3.64,0,5a9.57,9.57,0,0,0,8.66,0C85.54,137.65,85.53,135.41,83.13,134Z" transform="translate(0 -2.87)"/><path class="cls-31" d="M75.3,134.94a9.55,9.55,0,0,1,8.65,0,4.64,4.64,0,0,1,.65.45A4,4,0,0,0,83.13,134a9.57,9.57,0,0,0-8.66,0c-2.14,1.25-2.34,3.19-.61,4.58C73.12,137.35,73.59,135.93,75.3,134.94Z" transform="translate(0 -2.87)"/><path class="cls-30" d="M91.68,118.49a6.19,6.19,0,0,0-5.59,0c-1.54.89-1.53,2.35,0,3.24a6.12,6.12,0,0,0,5.59,0C93.24,120.83,93.23,119.39,91.68,118.49Z" transform="translate(0 -2.87)"/><path class="cls-31" d="M86.62,119.08a6.19,6.19,0,0,1,5.59,0,2.81,2.81,0,0,1,.42.29,2.56,2.56,0,0,0-.95-.88,6.19,6.19,0,0,0-5.59,0c-1.39.8-1.52,2.06-.4,3C85.21,120.64,85.52,119.72,86.62,119.08Z" transform="translate(0 -2.87)"/><path class="cls-30" d="M65.41,112.36a7,7,0,0,0-6.36,0c-1.76,1-1.74,2.67,0,3.69a7,7,0,0,0,6.36,0C67.18,115,67.18,113.37,65.41,112.36Z" transform="translate(0 -2.87)"/><path class="cls-31" d="M59.65,113A7,7,0,0,1,66,113a4.33,4.33,0,0,1,.47.33,2.85,2.85,0,0,0-1.08-1,7,7,0,0,0-6.36,0c-1.58.92-1.72,2.35-.46,3.37C58.05,114.8,58.4,113.76,59.65,113Z" transform="translate(0 -2.87)"/><path class="cls-30" d="M122.13,129.89a9.54,9.54,0,0,0-8.66,0c-2.38,1.39-2.37,3.64,0,5a9.51,9.51,0,0,0,8.66,0C124.54,133.51,124.53,131.27,122.13,129.89Z" transform="translate(0 -2.87)"/><path class="cls-31" d="M114.3,130.8a9.55,9.55,0,0,1,8.65,0,5.68,5.68,0,0,1,.65.45,3.91,3.91,0,0,0-1.47-1.36,9.54,9.54,0,0,0-8.66,0c-2.14,1.25-2.34,3.19-.61,4.58C112.12,133.22,112.59,131.79,114.3,130.8Z" transform="translate(0 -2.87)"/><path class="cls-30" d="M41,128.23a6.57,6.57,0,0,0-6,0c-1.64,1-1.63,2.5,0,3.45a6.57,6.57,0,0,0,5.95,0C42.69,130.73,42.68,129.19,41,128.23Z" transform="translate(0 -2.87)"/><path class="cls-31" d="M35.65,128.86a6.52,6.52,0,0,1,5.94,0,3.2,3.2,0,0,1,.45.3,2.81,2.81,0,0,0-1-.94,6.57,6.57,0,0,0-6,0c-1.47.86-1.61,2.19-.42,3.15C34.15,130.52,34.48,129.54,35.65,128.86Z" transform="translate(0 -2.87)"/><path class="cls-30" d="M77.78,162.08a6.58,6.58,0,0,0-4.15-4.26c-1.82-.5-2.92.58-2.45,2.42a6.53,6.53,0,0,0,4.15,4.26C77.15,165,78.25,163.93,77.78,162.08Z" transform="translate(0 -2.87)"/><path class="cls-31" d="M73.57,158.67a6.51,6.51,0,0,1,4.15,4.26,3.51,3.51,0,0,1,.1.53,2.72,2.72,0,0,0,0-1.38,6.58,6.58,0,0,0-4.15-4.26c-1.64-.45-2.69.38-2.54,1.89C71.34,158.76,72.27,158.31,73.57,158.67Z" transform="translate(0 -2.87)"/><path class="cls-32" d="M77.9,115.76c0,1.09,0,2.18,0,3.27,0,2.64-1.74,5.27-5.2,7.29-7,4.05-18.33,4.05-25.36,0-3.53-2-5.3-4.72-5.29-7.4h0c0-1.08,0-2.17,0-3.26,0,2.68,1.76,5.36,5.29,7.4,7,4,18.38,4,25.35,0C76.16,121,77.9,118.41,77.9,115.76Z" transform="translate(0 -2.87)"/><path class="cls-33" d="M72.61,108.37c7,4.06,7.06,10.63.08,14.69s-18.33,4-25.35,0-7.06-10.63-.08-14.69S65.59,104.32,72.61,108.37Z" transform="translate(0 -2.87)"/><path class="cls-34" d="M51,112l.05,0,.78.56c.26.18.33.42.16.52a1.21,1.21,0,0,1-.9-.07l-1-.42-.09,0c-.25-.15-.26-.37,0-.52l.09,0A1,1,0,0,1,51,112Z" transform="translate(0 -2.87)"/><g class="cls-2"><path class="cls-34" d="M65.74,109.76c.18.11.24.26.13.42l-.5.65a.85.85,0,0,1-.72.32l-.14-.05a.38.38,0,0,1-.17-.45l.18-.71c.06-.23.43-.36.82-.3l.11,0A.89.89,0,0,1,65.74,109.76Z" transform="translate(0 -2.87)"/><path class="cls-34" d="M50.71,115.56a.22.22,0,0,1,.1.09c0,.14-.21.32-.59.4l-1.16.26a1,1,0,0,1-.68-.08.45.45,0,0,1-.18-.18l0-.07c-.1-.23.15-.44.55-.46l1.23-.08A1.41,1.41,0,0,1,50.71,115.56Z" transform="translate(0 -2.87)"/><path class="cls-34" d="M51.62,116.81h0c.15.11.06.34-.21.51l-.84.53a1,1,0,0,1-.93,0l0,0-.08,0c-.26-.18-.2-.43.15-.55l1-.39A1.26,1.26,0,0,1,51.62,116.81Z" transform="translate(0 -2.87)"/><path class="cls-34" d="M58.12,120.56c.16.1.14.33-.07.52l-.66.61a1,1,0,0,1-1,.08l-.09,0-.05,0c-.27-.16-.26-.39,0-.54l.91-.48a1.16,1.16,0,0,1,.88-.13Z" transform="translate(0 -2.87)"/><path class="cls-34" d="M62.87,121a.88.88,0,0,1,.25.22l.47.66c.16.22,0,.45-.42.51l-.12,0a1,1,0,0,1-.62-.09.38.38,0,0,1-.19-.23l-.16-.71a.38.38,0,0,1,.32-.48A.73.73,0,0,1,62.87,121Z" transform="translate(0 -2.87)"/><path class="cls-34" d="M62.64,109.54a.33.33,0,0,1,.19.25l.06.71a.45.45,0,0,1-.41.47.65.65,0,0,1-.4-.09.72.72,0,0,1-.26-.26l-.38-.69c-.12-.22.11-.44.51-.48h.12A.93.93,0,0,1,62.64,109.54Z" transform="translate(0 -2.87)"/><path class="cls-34" d="M68.44,110.85c.28.17.26.42-.06.56l-1,.44a1.17,1.17,0,0,1-.9.07c-.17-.1-.11-.33.13-.52l.75-.56a.94.94,0,0,1,1,0Z" transform="translate(0 -2.87)"/><path class="cls-34" d="M70.24,112.36a.4.4,0,0,1,.17.17l0,.06c.11.23-.12.44-.52.48l-1.22.11a1.44,1.44,0,0,1-.77-.1.15.15,0,0,1-.08-.08c-.07-.14.17-.32.54-.42l1.13-.29A.94.94,0,0,1,70.24,112.36Z" transform="translate(0 -2.87)"/><path class="cls-34" d="M60.29,121.09a.4.4,0,0,1,.19.43l-.12.71c0,.23-.4.38-.79.32h-.13a1,1,0,0,1-.31-.1c-.17-.1-.23-.25-.14-.4l.44-.67a.81.81,0,0,1,.7-.34A.44.44,0,0,1,60.29,121.09Z" transform="translate(0 -2.87)"/><path class="cls-35" d="M71.06,109.28c6.16,3.55,6.19,9.32.08,12.87s-16.08,3.56-22.24,0-6.19-9.32-.07-12.88S64.9,105.72,71.06,109.28Zm-5.64,3.27.46.26c.86.5,1.47.91,1.11,1.43s-1.7.74-2.55.73a11.25,11.25,0,0,0-1.48.16,1.16,1.16,0,0,1,.18.58l9.51,1.48c.35,0,1.38,0,1.54-.58.4-2.18-.7-4.44-3.28-6.21l-.13-.09-.13-.09-.13-.08,0,0-.09-.06,0,0-.09-.06,0,0-.13-.08-.15-.08,0,0a.31.31,0,0,0-.1,0l0,0-.11,0,0,0-.13-.07a22.08,22.08,0,0,0-11.28-2c-1,.1-1.14.72-1,.93l2.57,5.47A5.48,5.48,0,0,1,61,114a2.41,2.41,0,0,0,.28-.86,1.43,1.43,0,0,1,1.26-1.48,3.21,3.21,0,0,1,2.45.64l.45.26m-14.91,8.22,6.9-4a1.54,1.54,0,0,1-.52-.68,9.29,9.29,0,0,0-1.42.28,4.16,4.16,0,0,1-2.84.11l-.15-.08c-.7-.41-.33-1,0-1.83s.6-1.54,1.72-1.63a2.94,2.94,0,0,1,1.71.4,3.24,3.24,0,0,1,.67.51,3.77,3.77,0,0,0,.84.59l.15.09.14-.1a4.12,4.12,0,0,1,.64-.28l-2.57-5.51a.86.86,0,0,0-.34-.3,1.87,1.87,0,0,0-1.28-.2,17.39,17.39,0,0,0-4.11,1.59l-.25.14-.22.13-.23.14-.22.15-.22.15c-4.24,3-4.32,7.24-.33,10.28l.13.07a2.1,2.1,0,0,0,1.76,0m19.37.94.25-.14.24-.15a9.45,9.45,0,0,0,2.8-2.49c.2-.33,0-.61-.35-.78a1.56,1.56,0,0,0-.52-.2l-9.46-1.47a2.21,2.21,0,0,1-.62.53l-.16.07.15.09a5.69,5.69,0,0,0,1,.49,4.58,4.58,0,0,1,.89.38c.45.26.78.6.69,1-.15.65-1.34.78-2.8,1s-2.46.44-3.16,0l-.13-.08c-.7-.52-.27-1.23.17-1.65a2.61,2.61,0,0,0,.49-.82,4.37,4.37,0,0,1-.95-.22l-6.94,4a.56.56,0,0,0,0,1,22.94,22.94,0,0,0,17.64-.25l.25-.12.25-.13.25-.14" transform="translate(0 -2.87)"/><path class="cls-34" d="M50.85,114.06c.14.09.22.19.19.27s-.45.22-.85.19L49,114.43a.86.86,0,0,1-.39-.11c-.16-.09-.22-.22-.16-.36l0-.07a.78.78,0,0,1,.87-.24l1.15.27A1.21,1.21,0,0,1,50.85,114.06Z" transform="translate(0 -2.87)"/><path class="cls-34" d="M70.64,114.16a.28.28,0,0,1,.17.33l0,.07c-.06.23-.43.36-.82.29l-1.19-.21a1.47,1.47,0,0,1-.45-.16c-.12-.07-.19-.15-.17-.23s.4-.24.81-.23l1.24,0A.81.81,0,0,1,70.64,114.16Z" transform="translate(0 -2.87)"/></g><path class="cls-34" d="M68.24,119.47c.16.09.23.24.13.38l0,.07a.83.83,0,0,1-.9.2l-1.1-.33a1.58,1.58,0,0,1-.29-.12c-.18-.1-.27-.23-.22-.32a1.12,1.12,0,0,1,.88-.14l1.21.15A1,1,0,0,1,68.24,119.47Z" transform="translate(0 -2.87)"/><path class="cls-34" d="M66.41,120.92c.26.15.27.38,0,.54l-.1.05a1,1,0,0,1-.87,0l-.08-.05-.74-.58c-.24-.19-.29-.43-.12-.53a1.25,1.25,0,0,1,.9.1l1,.44Z" transform="translate(0 -2.87)"/><path class="cls-36" d="M70.9,110.4l-.15-.11-.14-.09-.09-.06,0,0-.09-.06,0,0-.09-.06,0,0-.13-.08-.15-.08,0,0a.31.31,0,0,0-.1,0l0,0-.11,0,0,0-.14-.07a21.79,21.79,0,0,0-11.26-2c-1,.08-1.15.7-1,.91l2.57,5.47A5.48,5.48,0,0,1,61,114a2.41,2.41,0,0,0,.28-.86,1.43,1.43,0,0,1,1.26-1.48,3.21,3.21,0,0,1,2.45.64l.45.26.46.26c.86.5,1.47.91,1.11,1.43s-1.7.74-2.55.73a11.25,11.25,0,0,0-1.48.16,1.16,1.16,0,0,1,.18.58l9.51,1.48c.35,0,1.38,0,1.54-.58C74.59,114.43,73.49,112.17,70.9,110.4Zm-8.42.57a.65.65,0,0,1-.4-.09.72.72,0,0,1-.26-.26l-.38-.69c-.12-.22.11-.44.51-.48h.12a.93.93,0,0,1,.57.1.33.33,0,0,1,.19.25l.06.71A.45.45,0,0,1,62.48,111Zm3.39-.79-.5.65a.85.85,0,0,1-.72.32l-.14-.05a.38.38,0,0,1-.17-.45l.18-.71c.06-.23.43-.36.82-.3l.11,0a.89.89,0,0,1,.29.1C65.92,109.87,66,110,65.87,110.18Zm.63,1.74c-.17-.1-.11-.33.13-.52l.75-.56a.94.94,0,0,1,1,0l.09,0c.28.17.26.42-.06.56l-1,.44A1.17,1.17,0,0,1,66.5,111.92ZM67.86,113c-.07-.14.17-.32.54-.42l1.13-.29a.94.94,0,0,1,.71.07.4.4,0,0,1,.17.17l0,.06c.11.23-.12.44-.52.48l-1.22.11a1.44,1.44,0,0,1-.77-.1A.15.15,0,0,1,67.86,113Zm2.93,1.56c-.06.23-.43.36-.82.29l-1.19-.21a1.47,1.47,0,0,1-.45-.16c-.12-.07-.19-.15-.17-.23s.4-.24.81-.23l1.24,0a.81.81,0,0,1,.43.11.28.28,0,0,1,.17.33Z" transform="translate(0 -2.87)"/><path class="cls-37" d="M56.89,116.08a9.29,9.29,0,0,0-1.42.28,4.16,4.16,0,0,1-2.84.11l-.15-.08c-.7-.41-.33-1,0-1.83s.6-1.54,1.72-1.63a2.94,2.94,0,0,1,1.71.4,3.24,3.24,0,0,1,.67.51,3.77,3.77,0,0,0,.84.59l.15.09.14-.1a4.12,4.12,0,0,1,.64-.28l-2.57-5.51a.86.86,0,0,0-.34-.3,1.87,1.87,0,0,0-1.28-.2,17.64,17.64,0,0,0-4.12,1.59l-.24.14-.24.14-.23.15-.22.15-.22.14c-4.22,3-4.3,7.23-.29,10.26l.11.08a2.1,2.1,0,0,0,1.76,0l6.9-4A1.54,1.54,0,0,1,56.89,116.08Zm-4.2-5.18.12,0a1,1,0,0,1,.68.08.41.41,0,0,1,.18.19l.27.7a.35.35,0,0,1-.26.5.85.85,0,0,1-.54-.12.71.71,0,0,1-.21-.17l-.58-.63C52.15,111.21,52.32,111,52.69,110.9ZM48.42,114l0-.07a.78.78,0,0,1,.87-.24l1.15.27a1.21,1.21,0,0,1,.38.14c.14.09.22.19.19.27s-.45.22-.85.19L49,114.43a.86.86,0,0,1-.39-.11C48.42,114.23,48.36,114.1,48.42,114Zm0,2.27a.45.45,0,0,1-.18-.18l0-.07c-.1-.23.15-.44.55-.46l1.23-.08a1.41,1.41,0,0,1,.75.12.22.22,0,0,1,.1.09c0,.14-.21.32-.59.4l-1.16.26A1,1,0,0,1,48.38,116.23Zm3,1.1-.84.53a1,1,0,0,1-.93,0l0,0-.08,0c-.26-.18-.2-.43.15-.55l1-.39a1.26,1.26,0,0,1,.89,0h0C51.79,116.93,51.7,117.16,51.43,117.33Zm.53-4.21a1.21,1.21,0,0,1-.9-.07l-1-.42-.09,0c-.25-.15-.26-.37,0-.52l.09,0a1,1,0,0,1,.92,0l.05,0,.78.56C52.06,112.78,52.13,113,52,113.12Z" transform="translate(0 -2.87)"/><path class="cls-38" d="M72.82,118.15a1.56,1.56,0,0,0-.52-.2l-9.46-1.47a2.21,2.21,0,0,1-.62.53l-.16.07.15.09a5.69,5.69,0,0,0,1,.49,4.58,4.58,0,0,1,.89.38c.45.26.78.6.69,1-.15.65-1.34.78-2.8,1s-2.46.44-3.16,0l-.13-.08c-.7-.52-.27-1.23.17-1.65a2.61,2.61,0,0,0,.49-.82,4.37,4.37,0,0,1-.95-.22l-6.94,4a.57.57,0,0,0,0,1,23,23,0,0,0,17.63-.28l.26-.13.25-.13.24-.13.23-.13.24-.15a9,9,0,0,0,2.77-2.49C73.37,118.6,73.13,118.32,72.82,118.15Zm-14.77,2.93-.66.61a1,1,0,0,1-1,.08l-.09,0-.05,0c-.27-.16-.26-.39,0-.54l.91-.48a1.16,1.16,0,0,1,.88-.13h0C58.28,120.66,58.26,120.89,58.05,121.08Zm2.31,1.15c0,.23-.4.38-.79.32h-.13a1,1,0,0,1-.31-.1c-.17-.1-.23-.25-.14-.4l.44-.67a.81.81,0,0,1,.7-.34l.15,0a.41.41,0,0,1,.2.44Zm2.81.16-.12,0a1,1,0,0,1-.62-.09.38.38,0,0,1-.19-.23l-.16-.71a.38.38,0,0,1,.32-.48.75.75,0,0,1,.47.1.88.88,0,0,1,.25.22l.47.66C63.75,122.1,63.56,122.33,63.17,122.39Zm3.23-.93-.1.05a1,1,0,0,1-.87,0l-.08-.05-.74-.58c-.24-.19-.29-.43-.12-.53a1.25,1.25,0,0,1,.9.1l1,.44,0,0C66.67,121.07,66.68,121.3,66.4,121.46Zm2-1.61,0,.07a.83.83,0,0,1-.9.2l-1.1-.33a1.58,1.58,0,0,1-.29-.12c-.18-.1-.27-.23-.22-.32a1.12,1.12,0,0,1,.88-.14l1.21.15a1,1,0,0,1,.33.11C68.4,119.56,68.47,119.71,68.37,119.85Z" transform="translate(0 -2.87)"/><path class="cls-34" d="M53.49,111a.41.41,0,0,1,.18.19l.27.7a.35.35,0,0,1-.26.5.85.85,0,0,1-.54-.12.71.71,0,0,1-.21-.17l-.58-.63c-.2-.21,0-.45.34-.52l.12,0A1,1,0,0,1,53.49,111Z" transform="translate(0 -2.87)"/><path class="cls-39" d="M113.77,121c0,1.08,0,2.17,0,3.26,0,2.64-1.74,5.27-5.2,7.29-7,4.05-18.33,4.05-25.36,0-3.53-2-5.3-4.72-5.29-7.4h0c0-1.08,0-2.17,0-3.26,0,2.68,1.76,5.36,5.29,7.4,7,4.05,18.38,4.05,25.36,0C112,126.26,113.77,123.63,113.77,121Z" transform="translate(0 -2.87)"/><path class="cls-40" d="M108.48,113.59c7,4.06,7.06,10.63.09,14.69s-18.34,4.05-25.36,0-7.06-10.63-.08-14.69S101.46,109.54,108.48,113.59Z" transform="translate(0 -2.87)"/><path class="cls-34" d="M86.84,117.23l0,0,.78.56c.26.18.33.42.16.52a1.21,1.21,0,0,1-.9-.07l-1-.42-.09,0c-.25-.15-.26-.37,0-.52l.09-.05A1,1,0,0,1,86.84,117.23Z" transform="translate(0 -2.87)"/><g class="cls-2"><path class="cls-34" d="M101.61,115c.18.11.24.27.13.42l-.5.65a.85.85,0,0,1-.72.32l-.14-.05a.38.38,0,0,1-.17-.45l.18-.71c.06-.23.43-.36.82-.3l.11,0A1.21,1.21,0,0,1,101.61,115Z" transform="translate(0 -2.87)"/><path class="cls-34" d="M86.58,120.78a.3.3,0,0,1,.1.09c0,.14-.21.32-.59.4l-1.16.26a1,1,0,0,1-.68-.07.54.54,0,0,1-.18-.19l0-.07c-.1-.23.15-.44.56-.46l1.22-.08A1.41,1.41,0,0,1,86.58,120.78Z" transform="translate(0 -2.87)"/><path class="cls-34" d="M87.49,122h0c.15.11.06.34-.21.51l-.84.53a1,1,0,0,1-.93,0l0,0-.08-.06c-.26-.18-.2-.43.15-.55l1-.39A1.26,1.26,0,0,1,87.49,122Z" transform="translate(0 -2.87)"/><path class="cls-34" d="M94,125.78c.16.1.14.33-.07.52l-.66.61a.93.93,0,0,1-1,.08l-.09,0,0,0c-.27-.16-.26-.39,0-.54l.91-.48a1.16,1.16,0,0,1,.88-.13Z" transform="translate(0 -2.87)"/><path class="cls-34" d="M98.74,126.22a1.07,1.07,0,0,1,.25.22l.47.67c.16.21,0,.44-.42.5l-.12,0a1,1,0,0,1-.62-.09.36.36,0,0,1-.19-.22L98,126.6a.38.38,0,0,1,.32-.48A.73.73,0,0,1,98.74,126.22Z" transform="translate(0 -2.87)"/><path class="cls-34" d="M98.51,114.76a.33.33,0,0,1,.19.25l.06.72a.45.45,0,0,1-.41.46.65.65,0,0,1-.4-.09.72.72,0,0,1-.26-.26l-.37-.69c-.13-.22.1-.44.5-.48h.12A1,1,0,0,1,98.51,114.76Z" transform="translate(0 -2.87)"/><path class="cls-34" d="M104.31,116.07c.28.17.26.42-.06.56l-1,.44a1.17,1.17,0,0,1-.9.07c-.17-.1-.11-.33.13-.51l.75-.57a1,1,0,0,1,1,0Z" transform="translate(0 -2.87)"/><path class="cls-34" d="M106.11,117.58a.4.4,0,0,1,.17.17l0,.07c.11.22-.12.43-.52.47l-1.22.11a1.44,1.44,0,0,1-.77-.1.15.15,0,0,1-.08-.08c-.07-.14.17-.32.54-.42l1.13-.29A1,1,0,0,1,106.11,117.58Z" transform="translate(0 -2.87)"/><path class="cls-34" d="M96.16,126.31a.42.42,0,0,1,.2.43l-.13.71c0,.23-.4.38-.79.32h-.13a.81.81,0,0,1-.31-.1c-.17-.1-.23-.25-.14-.4l.44-.67a.84.84,0,0,1,.7-.34A.44.44,0,0,1,96.16,126.31Z" transform="translate(0 -2.87)"/><path class="cls-35" d="M106.93,114.5c6.16,3.55,6.19,9.32.08,12.87s-16.08,3.56-22.24,0-6.19-9.32-.07-12.88S100.77,111,106.93,114.5Zm-5.64,3.27.46.27c.86.49,1.47.9,1.11,1.42s-1.7.74-2.54.73a11.21,11.21,0,0,0-1.49.16,1.19,1.19,0,0,1,.18.58l9.51,1.48c.35,0,1.38,0,1.54-.58.4-2.18-.7-4.44-3.28-6.21l-.13-.09-.13-.09-.13-.08,0,0-.09-.06,0,0-.09-.06,0,0-.13-.08-.15-.08,0,0-.1,0,0,0-.11,0,0,0-.13-.06a21.87,21.87,0,0,0-11.28-2c-1,.09-1.14.71-1,.92l2.57,5.48a5,5,0,0,1,1.28.08,2.41,2.41,0,0,0,.28-.86,1.43,1.43,0,0,1,1.26-1.48,3.21,3.21,0,0,1,2.45.64l.45.26M86.38,126l6.9-4a1.56,1.56,0,0,1-.52-.69,9.29,9.29,0,0,0-1.42.28,4.16,4.16,0,0,1-2.84.11l-.15-.08c-.7-.4-.33-1,0-1.83s.6-1.54,1.72-1.62a2.86,2.86,0,0,1,1.71.39,2.73,2.73,0,0,1,.67.52,4.17,4.17,0,0,0,.84.58l.15.09.14-.1a4.12,4.12,0,0,1,.64-.28l-2.57-5.51a.86.86,0,0,0-.34-.3,1.81,1.81,0,0,0-1.28-.19A17.37,17.37,0,0,0,86,114.94l-.25.14-.22.13-.23.14-.22.15-.22.15c-4.24,3-4.32,7.24-.33,10.28l.13.07a2.1,2.1,0,0,0,1.76,0m19.37.94.25-.14.24-.14a9.61,9.61,0,0,0,2.8-2.5c.2-.33,0-.61-.35-.78a1.56,1.56,0,0,0-.52-.2l-9.46-1.46a2.37,2.37,0,0,1-.62.52l-.16.08.15.08a5.07,5.07,0,0,0,1,.49,4.58,4.58,0,0,1,.89.38c.45.26.78.6.69,1-.15.65-1.34.78-2.8,1s-2.46.44-3.16,0l-.13-.08c-.7-.52-.27-1.23.17-1.64a2.67,2.67,0,0,0,.49-.83,5,5,0,0,1-.95-.21l-6.94,4a.56.56,0,0,0,0,1,22.94,22.94,0,0,0,17.64-.25l.25-.12.25-.13.25-.14" transform="translate(0 -2.87)"/><path class="cls-34" d="M86.72,119.28c.14.09.22.19.19.27s-.45.22-.85.19l-1.22-.09a.86.86,0,0,1-.39-.11c-.16-.09-.22-.22-.16-.36l0-.07a.78.78,0,0,1,.87-.24l1.15.27A1.51,1.51,0,0,1,86.72,119.28Z" transform="translate(0 -2.87)"/><path class="cls-34" d="M106.51,119.38a.28.28,0,0,1,.17.33l0,.07c-.06.23-.43.36-.82.29l-1.19-.21a1.25,1.25,0,0,1-.45-.16c-.12-.07-.19-.15-.17-.23s.4-.24.81-.23l1.24,0A.81.81,0,0,1,106.51,119.38Z" transform="translate(0 -2.87)"/></g><path class="cls-34" d="M104.11,124.69c.16.09.23.24.13.38l0,.07a.81.81,0,0,1-.9.2l-1.1-.33a1.1,1.1,0,0,1-.29-.12c-.18-.1-.27-.23-.22-.32a1.12,1.12,0,0,1,.88-.14l1.21.15A1,1,0,0,1,104.11,124.69Z" transform="translate(0 -2.87)"/><path class="cls-34" d="M102.28,126.14c.26.15.27.39,0,.54l-.1,0a1,1,0,0,1-.87,0l-.08,0-.74-.58c-.24-.19-.29-.43-.12-.52a1.19,1.19,0,0,1,.9.09l1,.44Z" transform="translate(0 -2.87)"/><path class="cls-41" d="M106.77,115.62l-.15-.11-.14-.09-.09-.06,0,0-.09-.06,0,0-.09-.06,0,0-.13-.08-.15-.08,0,0-.1,0,0,0-.11,0,0,0-.14-.07a21.79,21.79,0,0,0-11.26-2c-1,.08-1.15.7-1,.91l2.57,5.48a5,5,0,0,1,1.28.08,2.41,2.41,0,0,0,.28-.86,1.43,1.43,0,0,1,1.26-1.48,3.21,3.21,0,0,1,2.45.64l.45.26.46.27c.86.49,1.47.9,1.11,1.42s-1.7.74-2.54.73a11.21,11.21,0,0,0-1.49.16,1.19,1.19,0,0,1,.18.58l9.51,1.48c.35,0,1.38,0,1.54-.58C110.46,119.65,109.36,117.39,106.77,115.62Zm-8.42.57a.65.65,0,0,1-.4-.09.72.72,0,0,1-.26-.26l-.38-.69c-.12-.22.11-.44.51-.48h.12a1,1,0,0,1,.57.1.33.33,0,0,1,.19.25l.06.72A.45.45,0,0,1,98.35,116.19Zm3.39-.79-.5.65a.85.85,0,0,1-.72.32l-.14-.05a.38.38,0,0,1-.17-.45l.18-.71c.06-.23.43-.36.82-.3l.11,0a1.21,1.21,0,0,1,.29.1C101.79,115.09,101.85,115.25,101.74,115.4Zm.63,1.74c-.17-.1-.11-.33.13-.51l.75-.57a1,1,0,0,1,1,0l.09,0c.28.17.26.42-.06.56l-1,.44A1.17,1.17,0,0,1,102.37,117.14Zm1.36,1.08c-.07-.14.17-.32.54-.42l1.13-.29a1,1,0,0,1,.71.07.4.4,0,0,1,.17.17l0,.07c.11.22-.12.43-.52.47l-1.22.11a1.44,1.44,0,0,1-.77-.1A.15.15,0,0,1,103.73,118.22Zm2.93,1.56c-.06.23-.43.36-.82.29l-1.19-.21a1.25,1.25,0,0,1-.45-.16c-.12-.07-.19-.15-.17-.23s.4-.24.81-.23l1.24,0a.81.81,0,0,1,.43.11.28.28,0,0,1,.17.33Z" transform="translate(0 -2.87)"/><path class="cls-42" d="M92.76,121.3a9.29,9.29,0,0,0-1.42.28,4.16,4.16,0,0,1-2.84.11l-.15-.08c-.7-.4-.33-1,0-1.83s.6-1.54,1.72-1.62a2.86,2.86,0,0,1,1.71.39,2.73,2.73,0,0,1,.67.52,4.17,4.17,0,0,0,.84.58l.15.09.14-.1a4.12,4.12,0,0,1,.64-.28l-2.57-5.51a.86.86,0,0,0-.34-.3,1.81,1.81,0,0,0-1.28-.19A17.21,17.21,0,0,0,86,115l-.24.13-.24.14-.23.15-.22.15-.22.14c-4.22,3-4.3,7.23-.29,10.26l.11.08a2.1,2.1,0,0,0,1.76,0l6.9-4A1.56,1.56,0,0,1,92.76,121.3Zm-4.2-5.18.12,0a1,1,0,0,1,.68.08.41.41,0,0,1,.18.19l.27.7a.35.35,0,0,1-.26.5.85.85,0,0,1-.54-.12.68.68,0,0,1-.21-.17l-.58-.63C88,116.43,88.19,116.19,88.56,116.12Zm-4.27,3.06,0-.07a.78.78,0,0,1,.87-.24l1.15.27a1.51,1.51,0,0,1,.38.14c.14.09.22.19.19.27s-.45.22-.85.19l-1.22-.09a.86.86,0,0,1-.39-.11C84.29,119.45,84.23,119.32,84.29,119.18Zm0,2.28a.54.54,0,0,1-.18-.19l0-.07c-.1-.23.15-.44.56-.46l1.22-.08a1.41,1.41,0,0,1,.75.12.3.3,0,0,1,.1.09c0,.14-.21.32-.59.4l-1.16.26A1,1,0,0,1,84.25,121.46Zm3,1.09-.84.53a1,1,0,0,1-.93,0l0,0-.08-.06c-.26-.18-.2-.43.15-.55l1-.39a1.26,1.26,0,0,1,.89,0h0C87.66,122.15,87.57,122.38,87.3,122.55Zm.53-4.21a1.21,1.21,0,0,1-.9-.07l-1-.42-.09,0c-.25-.15-.26-.37,0-.52l.09-.05a1,1,0,0,1,.92,0l0,0,.78.56C87.93,118,88,118.24,87.83,118.34Z" transform="translate(0 -2.87)"/><path class="cls-43" d="M108.69,123.37a1.56,1.56,0,0,0-.52-.2l-9.46-1.46a2.37,2.37,0,0,1-.62.52l-.16.08.15.08a5.07,5.07,0,0,0,1,.49,4.58,4.58,0,0,1,.89.38c.45.26.78.6.69,1-.15.65-1.34.78-2.8,1s-2.46.44-3.16,0l-.13-.08c-.7-.52-.27-1.23.17-1.64a2.67,2.67,0,0,0,.49-.83,5,5,0,0,1-.95-.21l-6.94,4a.57.57,0,0,0,0,1,23,23,0,0,0,17.63-.28l.26-.13.25-.13.24-.13.23-.13c.08-.05.16-.09.24-.15a9,9,0,0,0,2.77-2.49C109.24,123.82,109,123.54,108.69,123.37ZM93.92,126.3l-.66.61a.93.93,0,0,1-1,.08l-.09,0,0,0c-.27-.16-.26-.39,0-.54l.91-.48a1.16,1.16,0,0,1,.88-.13h0C94.15,125.88,94.13,126.11,93.92,126.3Zm2.31,1.15c0,.23-.4.38-.79.32h-.13a.81.81,0,0,1-.31-.1c-.17-.1-.23-.25-.14-.4l.44-.67a.84.84,0,0,1,.7-.34.34.34,0,0,1,.15.06.41.41,0,0,1,.21.43Zm2.81.16-.12,0a1,1,0,0,1-.62-.09.36.36,0,0,1-.19-.22L98,126.6a.38.38,0,0,1,.32-.48.75.75,0,0,1,.47.1,1.07,1.07,0,0,1,.25.22l.47.67C99.62,127.32,99.43,127.55,99,127.61Zm3.23-.93-.1,0a1,1,0,0,1-.87,0l-.08,0-.74-.58c-.24-.19-.29-.43-.12-.52a1.19,1.19,0,0,1,.9.09l1,.44,0,0C102.54,126.29,102.55,126.52,102.27,126.68Zm2-1.61,0,.07a.81.81,0,0,1-.9.2l-1.1-.33a1.1,1.1,0,0,1-.29-.12c-.18-.1-.27-.23-.22-.32a1.12,1.12,0,0,1,.88-.14l1.21.15a1,1,0,0,1,.33.11C104.27,124.78,104.34,124.93,104.24,125.07Z" transform="translate(0 -2.87)"/><path class="cls-34" d="M89.36,116.17a.41.41,0,0,1,.18.19l.27.7a.35.35,0,0,1-.26.5.85.85,0,0,1-.54-.12.68.68,0,0,1-.21-.17l-.58-.63c-.2-.21,0-.45.34-.52l.12,0A1,1,0,0,1,89.36,116.17Z" transform="translate(0 -2.87)"/><path class="cls-44" d="M89,137c0,1.08,0,2.17,0,3.26,0,2.64-1.75,5.27-5.21,7.29-7,4.05-18.33,4.05-25.36,0-3.53-2-5.3-4.72-5.29-7.4h0c0-1.08,0-2.17,0-3.26,0,2.68,1.76,5.36,5.29,7.4,7,4.05,18.38,4.05,25.36,0C87.26,142.29,89,139.66,89,137Z" transform="translate(0 -2.87)"/><path class="cls-45" d="M83.71,129.62c7,4.06,7.06,10.63.09,14.69s-18.33,4.05-25.36,0-7.06-10.63-.08-14.69S76.69,125.57,83.71,129.62Z" transform="translate(0 -2.87)"/><path class="cls-34" d="M62.07,133.26l0,0,.78.56c.26.18.33.42.16.52a1.21,1.21,0,0,1-.9-.07l-1-.42-.09,0c-.24-.14-.26-.37,0-.52l.08,0A1,1,0,0,1,62.07,133.26Z" transform="translate(0 -2.87)"/><g class="cls-2"><path class="cls-34" d="M76.85,131c.18.11.23.27.12.42l-.5.65a.85.85,0,0,1-.72.32l-.14-.05a.39.39,0,0,1-.17-.45l.18-.71c.06-.23.43-.36.82-.3l.11,0A1.5,1.5,0,0,1,76.85,131Z" transform="translate(0 -2.87)"/><path class="cls-34" d="M61.81,136.81a.3.3,0,0,1,.1.09c.05.14-.21.32-.59.4l-1.15.26a1,1,0,0,1-.69-.07.39.39,0,0,1-.17-.19l0-.07c-.1-.23.16-.44.56-.46l1.23-.08A1.38,1.38,0,0,1,61.81,136.81Z" transform="translate(0 -2.87)"/><path class="cls-34" d="M62.73,138.06h0c.15.11.06.34-.21.51l-.84.53a.94.94,0,0,1-.92,0l-.05,0-.08-.06c-.26-.18-.19-.43.15-.55l1-.39A1.29,1.29,0,0,1,62.73,138.06Z" transform="translate(0 -2.87)"/><path class="cls-34" d="M69.22,141.81c.17.1.14.33-.07.52l-.66.61a.93.93,0,0,1-1,.08l-.09-.05,0,0c-.26-.16-.26-.39,0-.54l.91-.48a1.17,1.17,0,0,1,.88-.13Z" transform="translate(0 -2.87)"/><path class="cls-34" d="M74,142.25a1.07,1.07,0,0,1,.25.22l.47.67c.17.21,0,.44-.42.5l-.12,0a1,1,0,0,1-.62-.09.36.36,0,0,1-.19-.22l-.16-.72a.38.38,0,0,1,.32-.48A.73.73,0,0,1,74,142.25Z" transform="translate(0 -2.87)"/><path class="cls-34" d="M73.74,130.79a.33.33,0,0,1,.19.25l.06.72a.45.45,0,0,1-.41.46.65.65,0,0,1-.4-.09.72.72,0,0,1-.26-.26l-.37-.69c-.13-.22.1-.44.5-.48h.12A1,1,0,0,1,73.74,130.79Z" transform="translate(0 -2.87)"/><path class="cls-34" d="M79.54,132.1c.29.17.26.42-.06.56l-1,.44a1.15,1.15,0,0,1-.91.07c-.17-.09-.11-.33.13-.51l.75-.57a1,1,0,0,1,1,0Z" transform="translate(0 -2.87)"/><path class="cls-34" d="M81.34,133.61a.35.35,0,0,1,.17.17l0,.07c.11.22-.11.44-.52.47l-1.22.11a1.44,1.44,0,0,1-.77-.1.15.15,0,0,1-.08-.08c-.07-.13.18-.32.54-.42l1.13-.29A1,1,0,0,1,81.34,133.61Z" transform="translate(0 -2.87)"/><path class="cls-34" d="M71.39,142.34a.42.42,0,0,1,.2.43l-.13.71c0,.23-.39.38-.79.32h-.13a.87.87,0,0,1-.31-.1c-.17-.1-.23-.25-.14-.4l.45-.67a.81.81,0,0,1,.69-.34A.44.44,0,0,1,71.39,142.34Z" transform="translate(0 -2.87)"/><path class="cls-35" d="M82.16,130.53c6.16,3.55,6.19,9.32.08,12.87S66.16,147,60,143.4s-6.19-9.32-.07-12.88S76,127,82.16,130.53Zm-5.63,3.27.45.27c.86.49,1.47.9,1.11,1.42s-1.7.74-2.54.73a11.21,11.21,0,0,0-1.49.16,1.19,1.19,0,0,1,.18.58l9.51,1.48c.36.05,1.38,0,1.54-.58.4-2.18-.69-4.44-3.28-6.21l-.13-.09-.13-.09-.13-.08-.05,0-.09-.06,0,0-.1-.06,0,0-.14-.08L81,131l0,0-.11-.05,0,0-.11,0,0,0-.13-.06a21.87,21.87,0,0,0-11.28-2c-1,.09-1.13.71-1,.92l2.57,5.48a5.09,5.09,0,0,1,1.29.08,2.36,2.36,0,0,0,.27-.86,1.43,1.43,0,0,1,1.26-1.48,3.2,3.2,0,0,1,2.45.64l.46.26M61.62,142l6.89-4a1.56,1.56,0,0,1-.52-.69,9.29,9.29,0,0,0-1.42.28,4.16,4.16,0,0,1-2.84.11l-.15-.08c-.7-.4-.33-1,0-1.83s.6-1.54,1.72-1.62a3,3,0,0,1,1.72.39,2.86,2.86,0,0,1,.66.52,4.31,4.31,0,0,0,.85.58l.15.09.13-.1a4.24,4.24,0,0,1,.65-.28l-2.58-5.51a.86.86,0,0,0-.34-.3,1.8,1.8,0,0,0-1.28-.19A17.37,17.37,0,0,0,61.19,131l-.25.14-.22.13-.22.14-.23.15-.22.15c-4.24,3-4.32,7.24-.32,10.28l.12.07a2.13,2.13,0,0,0,1.77,0M81,143l.25-.14.24-.14a9.61,9.61,0,0,0,2.8-2.5c.2-.33,0-.61-.34-.78a1.69,1.69,0,0,0-.53-.2l-9.46-1.46a2.37,2.37,0,0,1-.62.52l-.15.08.14.08a5.34,5.34,0,0,0,1,.49,4.94,4.94,0,0,1,.9.38c.44.26.78.6.68,1-.15.65-1.34.78-2.79,1s-2.47.43-3.17,0l-.12-.08c-.71-.52-.28-1.23.16-1.64a2.89,2.89,0,0,0,.5-.83,5,5,0,0,1-1-.21l-6.94,4a.56.56,0,0,0,0,1,22.87,22.87,0,0,0,17.63-.25l.25-.12.25-.13L81,143" transform="translate(0 -2.87)"/><path class="cls-34" d="M62,135.31c.15.09.22.19.19.27s-.45.22-.84.19l-1.23-.09a.86.86,0,0,1-.39-.11c-.15-.09-.22-.22-.16-.36l0-.07a.78.78,0,0,1,.87-.24l1.15.27A2,2,0,0,1,62,135.31Z" transform="translate(0 -2.87)"/><path class="cls-34" d="M81.74,135.41a.28.28,0,0,1,.17.33v.07c-.07.23-.44.36-.83.29l-1.18-.21a1.24,1.24,0,0,1-.46-.16c-.12-.07-.19-.15-.17-.23s.4-.24.81-.23l1.24,0A.81.81,0,0,1,81.74,135.41Z" transform="translate(0 -2.87)"/></g><path class="cls-34" d="M79.34,140.72c.16.09.23.24.14.38l0,.07a.81.81,0,0,1-.9.2l-1.1-.33a1.1,1.1,0,0,1-.29-.12c-.18-.1-.27-.23-.21-.32a1.09,1.09,0,0,1,.87-.14l1.21.15A1,1,0,0,1,79.34,140.72Z" transform="translate(0 -2.87)"/><path class="cls-34" d="M77.51,142.17c.26.15.27.39,0,.54l-.1,0a1,1,0,0,1-.87,0l-.08,0-.74-.58c-.24-.19-.29-.43-.11-.52a1.16,1.16,0,0,1,.89.09l1,.44Z" transform="translate(0 -2.87)"/><path class="cls-46" d="M82,131.65l-.16-.11-.14-.09-.09-.06-.05,0-.09-.06,0,0-.1-.06,0,0-.14-.08L81,131l0,0-.11-.05,0,0-.11,0,0,0-.14-.07a21.79,21.79,0,0,0-11.26-2c-1,.08-1.14.7-1,.91l2.57,5.48a5.09,5.09,0,0,1,1.29.08,2.36,2.36,0,0,0,.27-.86,1.43,1.43,0,0,1,1.26-1.48,3.2,3.2,0,0,1,2.45.64l.46.26.45.27c.86.49,1.47.9,1.11,1.42s-1.7.74-2.54.73a11.21,11.21,0,0,0-1.49.16,1.19,1.19,0,0,1,.18.58l9.51,1.48c.36.05,1.38,0,1.54-.58C85.69,135.68,84.6,133.42,82,131.65Zm-8.43.57a.65.65,0,0,1-.4-.09.72.72,0,0,1-.26-.26l-.37-.69c-.13-.22.1-.44.5-.48h.12a1,1,0,0,1,.57.1.33.33,0,0,1,.19.25l.06.72A.45.45,0,0,1,73.58,132.22Zm3.39-.79-.5.65a.85.85,0,0,1-.72.32l-.14-.05a.39.39,0,0,1-.17-.45l.18-.71c.06-.23.43-.36.82-.3l.11,0a1.5,1.5,0,0,1,.3.1C77,131.12,77.08,131.28,77,131.43Zm.63,1.74c-.17-.09-.11-.33.13-.51l.75-.57a1,1,0,0,1,1,0l.09,0c.29.17.26.42-.06.56l-1,.44A1.15,1.15,0,0,1,77.6,133.17ZM79,134.25c-.07-.13.18-.32.54-.42l1.13-.29a1,1,0,0,1,.71.07.35.35,0,0,1,.17.17l0,.07c.11.22-.12.44-.52.47l-1.22.11a1.44,1.44,0,0,1-.77-.1A.15.15,0,0,1,79,134.25Zm2.94,1.56c-.07.23-.44.36-.83.29l-1.18-.21a1.24,1.24,0,0,1-.46-.16c-.12-.07-.19-.15-.17-.23s.4-.24.81-.23l1.24,0a.81.81,0,0,1,.43.11.28.28,0,0,1,.17.33Z" transform="translate(0 -2.87)"/><path class="cls-47" d="M68,137.33a9.29,9.29,0,0,0-1.42.28,4.16,4.16,0,0,1-2.84.11l-.15-.08c-.7-.4-.33-1,0-1.83s.6-1.54,1.72-1.62a3,3,0,0,1,1.72.39,2.86,2.86,0,0,1,.66.52,4.31,4.31,0,0,0,.85.58l.15.09.13-.1a4.24,4.24,0,0,1,.65-.28l-2.58-5.51a.86.86,0,0,0-.34-.3,1.8,1.8,0,0,0-1.28-.19A17.21,17.21,0,0,0,61.18,131l-.24.13-.24.14-.23.15-.22.15-.22.14c-4.22,3-4.3,7.23-.29,10.26l.11.08a2.13,2.13,0,0,0,1.77,0l6.89-4A1.56,1.56,0,0,1,68,137.33Zm-4.2-5.18.13,0a.93.93,0,0,1,.67.08.41.41,0,0,1,.18.19l.27.7a.35.35,0,0,1-.26.5.79.79,0,0,1-.54-.12.68.68,0,0,1-.21-.17l-.58-.63C63.25,132.46,63.42,132.22,63.79,132.15Zm-4.27,3.06,0-.07a.78.78,0,0,1,.87-.24l1.15.27a2,2,0,0,1,.38.14c.15.09.22.19.19.27s-.45.22-.85.19l-1.22-.09a.86.86,0,0,1-.39-.11C59.53,135.48,59.46,135.35,59.52,135.21Zm0,2.28a.39.39,0,0,1-.17-.19l0-.07c-.1-.23.16-.44.56-.46l1.23-.08a1.38,1.38,0,0,1,.74.12.3.3,0,0,1,.1.09c.05.14-.21.32-.59.4l-1.15.26A1,1,0,0,1,59.48,137.49Zm3.05,1.09-.84.53a.94.94,0,0,1-.92,0l-.05,0-.08-.06c-.26-.18-.19-.43.15-.55l1-.39a1.29,1.29,0,0,1,.9,0h0C62.89,138.18,62.8,138.41,62.53,138.58Zm.53-4.21a1.21,1.21,0,0,1-.9-.07l-1-.42-.09,0c-.25-.14-.26-.37,0-.52l.09,0a1,1,0,0,1,.92,0l0,0,.78.56C63.16,134,63.23,134.27,63.06,134.37Z" transform="translate(0 -2.87)"/><path class="cls-48" d="M83.93,139.4a1.69,1.69,0,0,0-.53-.2l-9.46-1.46a2.37,2.37,0,0,1-.62.52l-.15.08.14.08a5.34,5.34,0,0,0,1,.49,4.94,4.94,0,0,1,.9.38c.44.26.78.6.68,1-.15.65-1.34.78-2.79,1s-2.47.43-3.17,0l-.12-.08c-.71-.52-.28-1.23.16-1.64a2.89,2.89,0,0,0,.5-.83,5,5,0,0,1-1-.21l-6.94,4a.57.57,0,0,0,0,1,22.92,22.92,0,0,0,17.63-.28l.26-.13.26-.13L81,143l.22-.13.25-.15a9,9,0,0,0,2.76-2.49C84.47,139.85,84.23,139.57,83.93,139.4Zm-14.78,2.93-.66.61a.93.93,0,0,1-1,.08l-.09-.05,0,0c-.26-.16-.26-.39,0-.54l.91-.48a1.17,1.17,0,0,1,.88-.13h0C69.39,141.91,69.36,142.14,69.15,142.33Zm2.31,1.15c0,.23-.39.38-.79.32h-.13a.87.87,0,0,1-.31-.1c-.17-.1-.23-.25-.14-.4l.45-.67a.81.81,0,0,1,.69-.34.44.44,0,0,1,.16.06.42.42,0,0,1,.2.43Zm2.81.16-.12,0a1,1,0,0,1-.62-.09.36.36,0,0,1-.19-.22l-.16-.72a.38.38,0,0,1,.32-.48.73.73,0,0,1,.47.1,1.07,1.07,0,0,1,.25.22l.47.67C74.86,143.35,74.66,143.58,74.27,143.64Zm3.23-.93-.1,0a1,1,0,0,1-.87,0l-.08,0-.74-.58c-.24-.19-.29-.43-.11-.52a1.16,1.16,0,0,1,.89.09l1,.44.05,0C77.77,142.32,77.78,142.55,77.5,142.71Zm2-1.61,0,.07a.81.81,0,0,1-.9.2l-1.1-.33a1.1,1.1,0,0,1-.29-.12c-.18-.1-.27-.23-.21-.32a1.09,1.09,0,0,1,.87-.14l1.21.15a1,1,0,0,1,.33.11C79.5,140.81,79.57,141,79.48,141.1Z" transform="translate(0 -2.87)"/><path class="cls-34" d="M64.59,132.2a.41.41,0,0,1,.18.19l.27.7a.35.35,0,0,1-.26.5.8.8,0,0,1-.54-.12.68.68,0,0,1-.21-.17l-.58-.63c-.19-.21,0-.45.34-.52l.13,0A.93.93,0,0,1,64.59,132.2Z" transform="translate(0 -2.87)"/><path class="cls-49" d="M95.42,98c-18.91-11.38-50.24-11.7-70-.7S5.1,126.47,24,137.85s50.25,11.7,70,.71S114.34,109.42,95.42,98Z" transform="translate(0 -2.87)"/><path class="cls-50" d="M112.65,94a6.07,6.07,0,0,0-.54-1.29A30.08,30.08,0,0,0,107,85.83a34.34,34.34,0,0,0-3-2.67,52.69,52.69,0,0,0-5.62-3.62c-1-.54-2.42-1.21-3.5-1.64a51.65,51.65,0,0,0-5.25-1.81c-1.78-.45-4.15-1-6-1.34-2.11-.34-4.94-.62-7.06-.8A87.55,87.55,0,0,0,48.47,77s-3.41.93-6.76,2.12c-3.13,1.13-4.5,1.73-7,2.82-.63.28-3,1.36-5.41,2.67-1.63.87-3.75,2.12-5.31,3.1a72.86,72.86,0,0,0-9.65,7.32c-1.2,1.13-2.79,2.62-3.86,3.86a55.67,55.67,0,0,0-4.56,5.85,61.65,61.65,0,0,0-3.23,6,23.84,23.84,0,0,0-1.32,3.6,50.17,50.17,0,0,0-1.3,7,41,41,0,0,0,0,4.15,6.43,6.43,0,0,0,.24,1.38c1.27,4.31,7.25,7.26,17.85,7.93C41,136.25,76.71,126.49,97.88,113,109.25,105.8,114.11,99,112.65,94Z" transform="translate(0 -2.87)"/><path class="cls-51" d="M113.89,97.14c0-.08,0-.15-.07-.23s0-.16-.07-.24l-.07-.25a2.17,2.17,0,0,1-.07-.24l-.29-1a6.71,6.71,0,0,0-.67-1.22c1.46,5-3.4,11.82-14.77,19C76.71,126.49,41,136.25,18.14,134.81c-10.6-.67-16.58-3.62-17.85-7.93a7.78,7.78,0,0,0,.1,1.39l.36,1.22c0,.08.05.16.07.25a10.68,10.68,0,0,0,.92,2.45,9.64,9.64,0,0,0,1.17,1.67,12.24,12.24,0,0,0,3.4,2.61A22.9,22.9,0,0,0,12,138.54a48.76,48.76,0,0,0,8.07,1.13c2.13.16,5.86.17,7.33.1,2.3-.11,5.35-.32,7.64-.52,1.22-.1,2.85-.31,4.07-.48a160.81,160.81,0,0,0,16.79-3.22c1.28-.33,3-.84,4.26-1.11h0s6.2-1.67,12.65-4c1.6-.57,6.48-2.31,12.08-4.84,13-5.88,20-11.3,23.53-14.8,3.75-3.69,4.79-6.28,5.23-7.38a10.32,10.32,0,0,0,.69-3.4A9.38,9.38,0,0,0,113.89,97.14Z" transform="translate(0 -2.87)"/><path class="cls-25" d="M37.53,96.81c-.84.72-1.68,1.12-1.88.89s.34-1,1.18-1.71,1.68-1.12,1.87-.89S38.37,96.09,37.53,96.81Z" transform="translate(0 -2.87)"/><path class="cls-25" d="M42.15,112.74c0,1.07-.29,1.94-.58,1.93s-.5-.89-.47-2,.29-1.94.58-1.94S42.18,111.66,42.15,112.74Z" transform="translate(0 -2.87)"/><path class="cls-25" d="M51,94c-1.07-.13-1.91-.47-1.88-.76s.93-.41,2-.28,1.92.46,1.88.75S52.06,94.11,51,94Z" transform="translate(0 -2.87)"/><path class="cls-25" d="M61.65,103.79c-1,.49-1.9.68-2,.42s.57-.89,1.56-1.39,1.91-.68,2-.42S62.65,103.29,61.65,103.79Z" transform="translate(0 -2.87)"/><path class="cls-25" d="M69.86,78.65c-.12,1.1-.46,2-.75,1.93s-.44-1-.31-2,.46-2,.75-1.93S70,77.55,69.86,78.65Z" transform="translate(0 -2.87)"/><path class="cls-25" d="M95.73,90c-1.08-.26-1.9-.7-1.83-1s1-.31,2.08-.06,1.89.71,1.82,1S96.8,90.27,95.73,90Z" transform="translate(0 -2.87)"/><path class="cls-25" d="M56,116.89c-1-.26-1.85-.69-1.79-1s1-.31,2-.06,1.85.69,1.78,1S57,117.14,56,116.89Z" transform="translate(0 -2.87)"/><path class="cls-25" d="M36.16,104.41c-.16,1.11-.54,2-.84,1.94s-.41-1-.25-2.1.54-2,.84-2S36.32,103.29,36.16,104.41Z" transform="translate(0 -2.87)"/><path class="cls-25" d="M24.91,112.29c-.63.87-1.32,1.44-1.55,1.27s.08-1,.7-1.88,1.32-1.44,1.55-1.28S25.53,111.41,24.91,112.29Z" transform="translate(0 -2.87)"/><path class="cls-25" d="M14.46,108.38c-.7.87-1.46,1.42-1.69,1.23s.14-1,.85-1.91,1.46-1.42,1.69-1.24S15.17,107.51,14.46,108.38Z" transform="translate(0 -2.87)"/><path class="cls-25" d="M77.8,89.92c-.88.62-1.73.92-1.9.69s.42-.93,1.3-1.55,1.74-.93,1.9-.69S78.69,89.3,77.8,89.92Z" transform="translate(0 -2.87)"/><path class="cls-25" d="M78.35,104.72c-.7.89-1.46,1.46-1.7,1.28s.13-1.07.83-2,1.47-1.47,1.71-1.28S79.06,103.82,78.35,104.72Z" transform="translate(0 -2.87)"/><path class="cls-25" d="M72.37,114.18c-1.07-.29-1.88-.76-1.8-1.05s1-.29,2.08,0,1.89.75,1.81,1S73.45,114.46,72.37,114.18Z" transform="translate(0 -2.87)"/><path class="cls-25" d="M38.17,124.64c-1.13.2-2.09.13-2.15-.18s.82-.71,1.95-.92,2.08-.12,2.14.18S39.29,124.43,38.17,124.64Z" transform="translate(0 -2.87)"/><path class="cls-25" d="M20,122c-1.05.19-2,.12-2-.16s.75-.67,1.81-.87,1.95-.12,2,.16S21.08,121.76,20,122Z" transform="translate(0 -2.87)"/><path class="cls-25" d="M94.07,102.49c-1.15-.06-2.07-.36-2-.66s1-.51,2.1-.46,2.07.36,2,.66S95.22,102.54,94.07,102.49Z" transform="translate(0 -2.87)"/><path class="cls-25" d="M69.4,97.49c-1.07.13-2,0-2-.27s.8-.63,1.86-.77,2,0,2,.28S70.46,97.35,69.4,97.49Z" transform="translate(0 -2.87)"/><path class="cls-25" d="M41.82,90c-1,.39-2,.48-2.08.2s.66-.82,1.7-1.21,2-.47,2.08-.19S42.86,89.66,41.82,90Z" transform="translate(0 -2.87)"/><path class="cls-25" d="M60.41,89c-.72.88-1.5,1.44-1.74,1.24s.16-1.06.88-1.94,1.5-1.44,1.74-1.25S61.13,88.14,60.41,89Z" transform="translate(0 -2.87)"/><path class="cls-25" d="M82.7,81.53c-1.14.1-2.08-.07-2.11-.37s.87-.64,2-.74,2.08.07,2.11.37S83.84,81.43,82.7,81.53Z" transform="translate(0 -2.87)"/><path class="cls-25" d="M58.7,81c-1.15-.08-2.07-.39-2.05-.7s1-.5,2.12-.42,2.07.39,2,.7S59.85,81,58.7,81Z" transform="translate(0 -2.87)"/><path class="cls-25" d="M46.56,81.85c-1.07.3-2,.31-2.09,0s.73-.76,1.8-1.06,2-.31,2.09,0S47.63,81.55,46.56,81.85Z" transform="translate(0 -2.87)"/><path class="cls-25" d="M46.21,101.55c-.4,1-.94,1.82-1.23,1.71s-.19-1,.21-2.09.94-1.81,1.22-1.7S46.6,100.51,46.21,101.55Z" transform="translate(0 -2.87)"/><path class="cls-25" d="M31.94,88.71c-.08,1.07-.38,1.93-.67,1.9s-.46-.91-.38-2,.38-1.93.67-1.91S32,87.63,31.94,88.71Z" transform="translate(0 -2.87)"/><path class="cls-25" d="M26.37,103.38c-.43,1-1,1.7-1.26,1.58s-.13-1,.29-2,1-1.7,1.26-1.58S26.79,102.38,26.37,103.38Z" transform="translate(0 -2.87)"/><path class="cls-25" d="M20.59,98c-1.11-.09-2-.4-2-.7s.95-.47,2.05-.38,2,.41,2,.71S21.69,98.08,20.59,98Z" transform="translate(0 -2.87)"/><path class="cls-25" d="M6,114.94c-.14,1.06-.49,1.89-.77,1.86s-.4-.94-.26-2,.49-1.89.78-1.85S6.1,113.88,6,114.94Z" transform="translate(0 -2.87)"/><path class="cls-52" d="M143,148.71q-2.53-9.54-5.06-19.1c.64,2.41,2.52,4.73,5.66,6.62,8.11,4.88,21.53,5,30,.31,3.51-2,5.61-4.46,6.28-7l-5,19.13c-.51,2-2.11,3.87-4.79,5.37-6.43,3.58-16.65,3.48-22.82-.24A8.8,8.8,0,0,1,143,148.71Z" transform="translate(0 -2.87)"/><path class="cls-53" d="M145.12,137.07l-3.57-1.76c9.94,4.9,24.73,4.9,34.73-.11L172.72,137C164.77,141,153,141,145.12,137.07Z" transform="translate(0 -2.87)"/><path class="cls-54" d="M179.28,98.3c10.83,6.52,10.46,16.9-.83,23.2s-29.22,6.11-40-.41-10.46-16.9.83-23.2S168.45,91.78,179.28,98.3Z" transform="translate(0 -2.87)"/><path class="cls-55" d="M132.26,124.66q-.84-6.87-1.67-13.75c.45,3.69,3,7.31,7.81,10.18,10.83,6.52,28.76,6.7,40,.41,5.3-3,8.19-6.82,8.65-10.75l-1.59,13.76c-.43,3.71-3.16,7.34-8.15,10.13-10.64,5.93-27.53,5.76-37.74-.39C135.13,131.55,132.68,128.14,132.26,124.66Z" transform="translate(0 -2.87)"/><path class="cls-56" d="M144.61,87a30.38,30.38,0,0,1,14.6-3.4,29.26,29.26,0,0,1,14.45,3.73,1.76,1.76,0,0,0-1-.26c-7.33-4.41-19.46-4.53-27.11-.27s-7.89,11.29-.56,15.7,19.47,4.54,27.11.28,7.9-11.3.56-15.71a1.76,1.76,0,0,1,1,.26c.7.46,1.64,1.07,2.28,1.6a17.09,17.09,0,0,1,2.08,2A17.63,17.63,0,0,1,180.17,94a19.3,19.3,0,0,1,1.25,2.72,24.37,24.37,0,0,1,1.07,3.86,27.72,27.72,0,0,1,.45,4.13,25.32,25.32,0,0,1-.74,7c-.74,2.9-3.08,5.69-7,7.88-9.41,5.25-24.36,5.1-33.38-.33-3.51-2.12-5.61-4.71-6.31-7.41A21,21,0,0,1,135,109c-.09-.76-.18-1.78-.22-2.55,0-.44,0-1,0-1.47a28.63,28.63,0,0,1,.39-4.1,25.14,25.14,0,0,1,1-3.79A18.06,18.06,0,0,1,144.61,87Z" transform="translate(0 -2.87)"/><path class="cls-57" d="M148.41,76.16a20.05,20.05,0,0,1,5.2-2,25.2,25.2,0,0,1,5.45-.56,21.48,21.48,0,0,1,10.58,2.77,2.11,2.11,0,0,0-1.94-.13c-4.74-2.85-12.58-2.93-17.51-.18s-5.1,7.3-.37,10.15,12.58,2.93,17.52.17,5.1-7.29.36-10.14a2.11,2.11,0,0,1,1.94.13,20.27,20.27,0,0,1,1.78,1.25,14,14,0,0,1,1.88,1.83,16.15,16.15,0,0,1,2.41,3.85A28.68,28.68,0,0,1,178,94.7c0,2.93-2,5.85-5.9,8-7.64,4.26-19.78,4.13-27.11-.28-3.56-2.14-5.33-4.9-5.34-7.66a33.27,33.27,0,0,1,.49-5.67,28.75,28.75,0,0,1,.81-3.32c.33-1.08.9-2.37.9-2.38A20,20,0,0,1,143,81.18a14.21,14.21,0,0,1,1.28-1.72,14,14,0,0,1,2.21-2.07A15,15,0,0,1,148.41,76.16Z" transform="translate(0 -2.87)"/><path class="cls-58" d="M146.49,80.31c.53-2.1.55-2.14.86-3.12a27.57,27.57,0,0,1,1-2.7,19.4,19.4,0,0,1,2.42-4.31,15.82,15.82,0,0,1,2.87-3,23.39,23.39,0,0,1,2.63-1.82c1.05-.64,1.74-1.07,2.45-1.56l1.28.82,1.78,1.1a20.6,20.6,0,0,1,2,1.43,16.47,16.47,0,0,1,2.89,3A27,27,0,0,1,171,80.24c.54,2.21-.7,4.53-3.69,6.19-4.94,2.76-12.78,2.68-17.52-.17C147.09,84.61,146,82.41,146.49,80.31Z" transform="translate(0 -2.87)"/></g></g></g></svg>