<svg width="95" height="65" viewBox="0 0 95 65" fill="none" xmlns="http://www.w3.org/2000/svg">
<g clip-path="url(#clip0)">
<g style="mix-blend-mode:multiply">
<g style="mix-blend-mode:multiply">
<path d="M12.792 51.487C8.29318 52.2676 -3.01561 53.2837 4.46178 59.2503C11.3336 64.7212 24.8547 63.5192 33.2714 64.4361C44.0549 65.6133 54.9558 64.7645 65.8321 63.6183C72.6297 62.8996 96.3287 59.6592 84.7913 51.6295C76.01 45.5328 58.7069 47.8872 48.6217 48.4448C36.3303 49.1264 20.5536 48.8475 12.792 51.487Z" fill="#D1CAA3"/>
</g>
</g>
<path d="M74.5946 16.5117C71.5694 18.148 68.3215 19.3316 64.9543 20.0247C58.7067 21.3568 52.1624 21.6852 45.7727 21.7409C36.738 21.7843 25.8865 21.7409 17.3462 17.6269C21.7523 16.2019 25.9606 14.3865 30.5151 13.3332C45.1854 9.93635 60.5358 11.0438 74.5699 16.5117H74.5946Z" fill="#3F1D0D"/>
<path d="M22.5617 19.5848C21.8449 19.9318 16.9197 18.6927 17 17.4659C17.1421 15.7063 24.6875 14.368 25.9914 13.9405C33.6448 11.5465 41.67 10.5744 49.6719 11.0718C44.7714 10.7559 39.6423 11.964 35.125 13.7918C32.9991 14.653 30.2863 15.7311 28.6363 17.3977C27.697 18.3457 25.8864 20.8798 28.8279 20.9293C26.9678 20.8984 21.9623 21.8339 22.5617 19.5848Z" fill="#7F5747"/>
<path d="M91.8053 18.3209C90.8771 17.3403 89.7031 16.628 88.406 16.2585C87.109 15.8889 85.7368 15.8758 84.433 16.2205C84.3855 17.9598 84.107 19.685 83.6049 21.3506C84.3549 21.0941 85.1608 21.0491 85.9346 21.2205C86.367 21.2981 86.7794 21.462 87.1474 21.7024C87.5154 21.9428 87.8316 22.2549 88.0771 22.62C88.3226 22.9852 88.4924 23.3961 88.5766 23.8283C88.6608 24.2605 88.6576 24.7053 88.5672 25.1362C87.8812 28.6183 82.8572 32.4782 79.1556 31.4559C78.4766 32.6536 77.7339 33.8139 76.9309 34.9318C76.7702 35.1734 76.5972 35.415 76.418 35.6505L76.0225 36.1709C77.0791 36.4877 78.1762 36.6484 79.2791 36.648C80.0083 36.6513 80.7363 36.5891 81.4544 36.4621C85.7184 35.7248 89.6795 32.8376 92.0772 29.1201C94.2648 25.7744 94.6912 21.394 91.8053 18.3209Z" fill="#EAFAFD"/>
<g style="mix-blend-mode:multiply">
<path d="M32.7524 46.7161C35.4158 46.8338 37.931 47.3357 40.7242 46.871C45.6126 46.0184 50.3834 44.5897 54.9374 42.6145C62.353 39.5166 70.609 33.5315 75.1573 26.8958C77.1348 24.0086 79.3285 20.1424 77.4005 16.7719C78.828 15.099 80.9847 13.8475 82.6223 12.4658C83.8582 13.1474 84.8099 16.1833 83.6049 16.5674C84.124 18.4819 83.6049 18.7917 85.7616 19.6653C86.4598 19.891 87.0949 20.2793 87.6147 20.7984C88.1346 21.3174 88.5245 21.9525 88.7525 22.6517C91.4839 30.2477 84.4268 36.2205 78.7785 39.529C75.1882 41.648 71.0787 45.2787 66.9445 46.1337C66.7653 49.8512 58.5092 50.3345 55.8211 50.793C51.1894 51.6036 46.4743 51.8264 41.7871 51.4559C38.759 51.1523 27.0115 51.078 27.6295 46.1213C29.7614 46.1709 30.9294 46.6418 32.7524 46.7161Z" fill="#D6E6E8"/>
</g>
<path d="M33.3701 48.0916C30.7128 47.4597 28.1328 46.5372 25.6764 45.3407C25.6516 45.3833 25.6329 45.4292 25.6208 45.477C25.2562 46.6232 26.3685 47.5402 27.314 47.8996C29.2894 48.558 31.3147 49.0553 33.3701 49.3866C39.6243 50.6243 46.0207 50.9768 52.3725 50.4337C56.9331 50.0433 61.8769 49.4485 66.0234 47.3729C66.938 46.9144 68.897 46.0966 68.4953 44.6716C68.4211 44.4175 67.9515 44.2503 67.3644 44.1263C57.4708 50.1363 44.2586 50.6815 33.3701 48.0916Z" fill="#EAFAFD"/>
<g style="mix-blend-mode:multiply">
<path d="M32.7522 46.7161C35.4157 46.8338 37.9308 47.3357 40.724 46.871C45.6124 46.0184 50.3832 44.5897 54.9372 42.6145C62.3528 39.5166 70.6089 33.5315 75.1571 26.8958C77.1346 24.0086 79.3284 20.1424 77.4003 16.7719C78.8278 15.099 80.9845 13.8475 82.6221 12.4658C83.8581 13.1474 84.8097 16.1833 83.6047 16.5674C84.1238 18.4819 83.6047 18.7917 85.7614 19.6653C86.4597 19.891 87.0947 20.2793 87.6146 20.7984C88.1345 21.3174 88.5243 21.9525 88.7524 22.6517C91.4838 30.2477 84.4266 36.2205 78.7784 39.529C75.188 41.648 73.0128 44.7211 68.8909 45.5761C66.5241 48.674 59.5535 49.56 56.8406 50.0185C51.5163 50.749 46.1278 50.8861 40.7734 50.4274C37.7454 50.13 27.5922 47.85 27.6231 46.0904C29.7613 46.1709 30.9292 46.6418 32.7522 46.7161Z" fill="#D6E6E8"/>
</g>
<path d="M81.7386 37.6208C79.6115 38.0264 77.412 37.7847 75.423 36.9269C74.4344 38.1711 73.3584 39.3431 72.2033 40.4337C71.0164 41.5481 69.739 42.5615 68.3843 43.4634C68.7054 43.5576 69.0016 43.7221 69.2517 43.9449C69.5018 44.1678 69.6994 44.4435 69.8303 44.7521C70.4483 46.6914 67.2411 47.9368 65.9681 48.5254C64.0459 49.4018 62.0337 50.0646 59.9676 50.5018C55.8519 51.2944 51.6694 51.6865 47.4785 51.6728C42.1949 51.7844 36.6826 51.6419 31.5288 50.3407C29.6193 49.8575 27.2648 49.2998 25.5839 48.228C24.0267 47.2305 24.107 45.9479 24.9104 44.9566C20.6574 42.7934 16.9088 39.7529 13.9105 36.0347C9.58478 37.5155 5.02419 39.3742 2.16918 42.6394C-0.61785 45.7868 3.41129 49.2751 5.77811 51.1276C7.74386 52.6309 9.89069 53.8799 12.1679 54.8451C15.3061 56.1849 18.5711 57.2041 21.9132 57.8872C31.3372 59.9008 41.3359 60.4956 50.9576 60.2416C60.5794 59.9876 70.4236 58.7174 79.2914 54.8451C81.5686 53.8799 83.7154 52.6309 85.6812 51.1276C88.048 49.2689 92.0957 45.7868 89.321 42.6394C87.3621 40.4275 84.6616 38.8599 81.7386 37.6208Z" fill="#EAFAFD"/>
<g style="mix-blend-mode:multiply">
<path d="M36.6454 49.6096C37.8813 51.5551 42.0649 51.0346 44.1104 51.4188C47.8615 52.1189 51.6002 52.1313 55.4316 52.3048C64.0831 52.6951 72.9942 51.109 81.2317 48.6988C83.9878 47.8934 90.5012 47.1932 90.841 43.3085C91.1871 39.1387 82.9805 36.6604 79.8907 36.363C76.461 36.0346 73.2228 37.3357 70.1144 38.7112C65.8196 40.6071 61.9017 42.565 57.4029 44.0272C50.9822 46.1152 43.7582 48.9033 37.078 49.9999C37.0718 49.8967 37.0718 49.7933 37.078 49.6901C36.7875 49.7645 36.5094 49.8017 36.6454 49.6096Z" fill="#D6E6E8"/>
</g>
<path d="M14.7198 34.8823L15.2822 35.57C18.2645 39.0742 21.9136 41.9472 26.0163 44.021L26.7269 44.3804C30.3295 46.1482 34.1913 47.3259 38.1655 47.8686C47.2063 49.0768 57.2545 48.3023 65.356 43.8847C65.8319 43.6245 66.3015 43.3519 66.7588 43.0731C68.8729 41.7783 70.8091 40.2119 72.5183 38.4139C73.1362 37.7571 73.7357 37.0694 74.3165 36.3507L74.8047 35.7311L75.1693 35.2416C75.3362 35.031 75.4907 34.8203 75.639 34.622C76.4914 33.449 77.2834 32.233 78.012 30.9789C78.1109 30.8054 78.2159 30.632 78.3148 30.4523C79.4012 28.5152 80.3571 26.5074 81.176 24.4424C81.4726 23.6989 81.7445 22.9616 81.9979 22.2181L82.035 22.1066C82.6678 20.3463 83.0586 18.5079 83.1967 16.6419C83.2214 16.1982 83.2214 15.7535 83.1967 15.3098C83.1636 14.5603 83.0497 13.8166 82.8568 13.0917C82.828 12.9636 82.7909 12.8335 82.7456 12.7013C81.5838 9.03344 78.1727 7.24906 74.7986 6.03468C61.9449 1.36306 47.6327 0.148686 34.1116 1.85872C27.691 2.68896 20.5164 3.82898 14.9176 7.24906C12.6064 8.6555 10.6783 10.3098 9.6278 12.8996C8.57726 15.4895 8.39187 19.2007 9.69578 24.5725C10.5815 28.3421 12.2982 31.865 14.7198 34.8823ZM11.012 13.259C12.648 14.8249 14.4977 16.1496 16.5058 17.1933C20.7265 14.6654 26.0657 13.2714 30.8117 12.2367C45.8146 8.85928 61.4864 10.1253 75.7564 15.8674C77.3607 14.907 78.8913 13.828 80.3355 12.6394C80.6383 12.3978 81.1945 12.6952 81.1265 13.0359C81.1106 13.102 81.0763 13.1621 81.0277 13.2094C72.7654 22.1747 57.4708 22.6084 46.2052 22.6952C38.9318 22.7509 31.5162 22.404 24.3539 20.9232C19.2063 19.8265 13.9041 17.8996 10.6722 13.5254C10.6531 13.5069 10.6379 13.4848 10.6276 13.4603C10.6172 13.4358 10.6119 13.4095 10.6119 13.3829C10.6119 13.3563 10.6172 13.33 10.6276 13.3055C10.6379 13.281 10.6531 13.2589 10.6722 13.2404C10.6969 13.218 10.7258 13.2006 10.7572 13.1894C10.7886 13.1782 10.8219 13.1734 10.8552 13.1751C10.8885 13.1768 10.9212 13.1851 10.9512 13.1995C10.9813 13.2139 11.0083 13.2341 11.0306 13.259H11.012Z" fill="#EAFAFD"/>
<g style="mix-blend-mode:multiply">
<path d="M32.7524 46.7161C35.4158 46.8338 37.931 47.3357 40.7242 46.871C45.6126 46.0184 50.3834 44.5897 54.9374 42.6145C62.353 39.5166 70.609 33.5315 75.1573 26.8958C77.1348 24.0086 79.3285 20.1424 77.4005 16.7719C78.828 15.099 80.9847 13.8475 82.6223 12.4658C83.8582 13.1474 84.8099 16.1833 83.6049 16.5674C84.124 18.4819 83.6049 18.7917 85.7616 19.6653C86.4598 19.891 87.0949 20.2793 87.6147 20.7984C88.1346 21.3174 88.5245 21.9525 88.7525 22.6517C91.4839 30.2477 84.4268 36.2205 78.7785 39.529C75.1882 41.648 71.0787 45.2787 66.9445 46.1337C66.7653 49.8512 58.5092 50.3345 55.8211 50.793C51.1894 51.6036 46.4743 51.8264 41.7871 51.4559C38.759 51.1523 27.0115 51.078 27.6295 46.1213C29.7614 46.1709 30.9294 46.6418 32.7524 46.7161Z" fill="#D6E6E8"/>
</g>
<path d="M6.17984 42.85C8.07082 41.2887 10.7157 40.3717 12.3595 38.6493C12.3837 38.619 12.3996 38.5829 12.4057 38.5445C12.4117 38.5062 12.4077 38.4669 12.3939 38.4306C12.3802 38.3944 12.3573 38.3623 12.3274 38.3376C12.2975 38.3129 12.2617 38.2965 12.2236 38.2899C10.2955 38.3209 8.25621 39.6282 6.61242 40.5886C5.22817 41.4002 3.33101 42.3605 3.15798 44.1821C2.849 47.4721 7.40959 50.9045 10.4191 50.1301C10.9814 49.9814 10.9073 49.2255 10.5303 48.9343C9.57866 48.197 8.60227 47.943 7.5579 47.3853C5.82142 46.4684 4.15909 44.5353 6.17984 42.85Z" fill="white"/>
<path d="M25.5035 40.8921C23.9525 38.1845 20.8935 36.1709 18.9037 33.7174C16.5743 30.8543 14.6831 27.6594 13.2925 24.2378C11.7414 20.446 10.3572 16.047 12.5757 12.218C14.9363 8.12876 19.534 7.3419 23.3283 5.21675C23.5446 5.09903 23.4952 4.80782 23.2233 4.82641C18.9955 5.15613 15.0213 6.97827 12.0072 9.96891C9.12125 12.9739 8.85553 16.8462 9.88753 20.7434C11.0597 24.9917 12.981 28.9954 15.5605 32.5649C17.7975 35.7186 21.2581 40.2353 25.1698 41.239C25.3367 41.2638 25.621 41.1027 25.5035 40.8921Z" fill="white"/>
<path d="M94.351 27.3291C97.0392 20.2844 90.9089 13.7293 84.4018 14.9685C84.3469 13.4679 83.9475 12.0002 83.2348 10.6795C82.522 9.35888 81.5151 8.22082 80.2923 7.35384C77.3631 5.25346 73.5997 4.29312 70.1762 3.34516C66.4492 2.31529 62.662 1.51863 58.8365 0.959784C50.7321 -0.223343 42.5065 -0.317107 34.3774 0.680974C26.7208 1.61654 17.3524 2.97961 11.3952 8.38234C7.261 12.0998 6.75427 15.0118 7.98402 23.3018C8.84935 27.6428 10.6761 31.7336 13.3294 35.2721C8.86771 36.6289 4.17735 38.9895 1.34088 42.0193C-2.52759 46.1952 2.86726 50.5756 6.22899 52.93C13.2367 57.8371 21.9377 59.6029 30.2803 60.4579C40.1702 61.4502 50.1325 61.4855 60.0292 60.5633C68.7487 59.7702 77.9007 58.0478 85.2113 52.93C88.573 50.5756 93.9679 46.1952 90.0994 42.0193C88.1288 40.0283 85.81 38.4175 83.2585 37.2671C88.159 35.8421 92.6516 31.79 94.351 27.3291ZM9.68961 24.5967C8.39188 19.225 8.54637 15.5756 9.62163 12.9238C10.6969 10.2721 12.6064 8.67354 14.9176 7.27329C20.5287 3.85322 27.691 2.71319 34.1116 1.85817C47.6328 0.123353 61.9201 1.33773 74.8109 5.97837C78.185 7.21753 81.6086 8.97713 82.758 12.645C82.8033 12.7772 82.8404 12.9073 82.8692 13.0354C83.062 13.7603 83.176 14.504 83.2091 15.2535C83.2338 15.6972 83.2338 16.1419 83.2091 16.5856C83.071 18.4515 82.6801 20.29 82.0473 22.0502L82.0102 22.1618C81.7569 22.9053 81.485 23.6426 81.1883 24.3861C80.3695 26.4511 79.4136 28.4589 78.3271 30.396C78.2283 30.5756 78.1232 30.7491 78.0244 30.9226C77.2963 32.1831 76.5043 33.4052 75.6514 34.5843C75.503 34.795 75.3486 35.0056 75.1817 35.2039L74.8171 35.6934L74.3289 36.3129C73.748 37.0317 73.1486 37.7194 72.5306 38.3761C70.8143 40.1894 68.8675 41.7685 66.7403 43.0725C66.283 43.3514 65.8133 43.624 65.3375 43.8842C57.2298 48.3018 47.1816 49.0763 38.147 47.8681C34.1728 47.3253 30.311 46.1477 26.7084 44.3799L25.9977 44.0205C21.9018 41.9446 18.2591 39.0717 15.2822 35.5695L14.7199 34.8817C12.3015 31.8717 10.585 28.3576 9.69579 24.5967H9.68961ZM85.3225 22.1804C88.7646 22.422 87.2382 26.1023 85.9096 27.6264C84.1237 29.6649 82.0473 30.7677 79.6249 30.619C81.0004 28.1323 82.1682 25.5356 83.1164 22.8557C83.7541 22.3815 84.5357 22.1429 85.3287 22.1804H85.3225ZM68.4768 44.6711C68.897 46.0961 66.938 46.9139 66.0049 47.3724C61.8583 49.448 56.9146 50.0428 52.354 50.4331C46.0083 50.9745 39.6183 50.6221 33.3701 49.3861C31.3252 49.0532 29.3103 48.5559 27.3449 47.8991C26.3994 47.5397 25.2871 46.6227 25.6517 45.4765C25.6638 45.4287 25.6825 45.3828 25.7073 45.3402C28.1539 46.5345 30.7234 47.457 33.3701 48.0911C44.2463 50.681 57.4708 50.1357 67.3582 44.1258C67.933 44.2497 68.4026 44.417 68.4768 44.6711ZM89.3146 42.6388C92.0893 45.7863 88.0416 49.2745 85.6748 51.1271C83.709 52.6304 81.5622 53.8794 79.285 54.8445C70.4481 58.7479 60.5606 60.018 50.9512 60.272C41.3419 60.5261 31.337 59.9313 21.9068 57.9177C18.5646 57.2345 15.2997 56.2153 12.1615 54.8755C9.88428 53.9103 7.73745 52.6613 5.7717 51.158C3.41107 49.2745 -0.618075 45.7863 2.13806 42.6388C5.02396 39.3737 9.55365 37.5149 13.9103 36.0341C16.9085 39.7524 20.6572 42.7929 24.9101 44.9561C24.1068 45.9474 24.0264 47.2299 25.5837 48.2274C27.2646 49.2993 29.619 49.8569 31.5285 50.3402C36.6824 51.6413 42.1946 51.7838 47.4783 51.6723C51.6754 51.6872 55.8641 51.295 59.9859 50.5013C62.052 50.0641 64.0642 49.4013 65.9864 48.5248C67.2594 47.9362 70.4975 46.6661 69.8486 44.7516C69.7158 44.4409 69.5153 44.164 69.2619 43.941C69.0085 43.718 68.7086 43.5547 68.3841 43.4629C69.7387 42.561 71.0162 41.5476 72.2031 40.4331C73.3582 39.3425 74.4341 38.1706 75.4227 36.9263C77.4117 37.7842 79.6112 38.0259 81.7383 37.6203C84.6613 38.8594 87.3618 40.4269 89.3146 42.6388ZM81.4541 36.4431C80.736 36.57 80.008 36.6322 79.2788 36.6289C78.1759 36.6294 77.0788 36.4686 76.0221 36.1519L76.4176 35.6314C76.5968 35.396 76.7699 35.1543 76.9305 34.9127C77.7336 33.7948 78.4762 32.6345 79.1552 31.4369C82.863 32.4592 87.8809 28.5992 88.5669 25.1172C88.6573 24.6862 88.6605 24.2414 88.5763 23.8092C88.4921 23.377 88.3222 22.9661 88.0767 22.601C87.8312 22.2358 87.5151 21.9238 87.1471 21.6834C86.7791 21.443 86.3667 21.2791 85.9343 21.2014C85.1605 21.03 84.3546 21.075 83.6046 21.3315C84.1067 19.666 84.3852 17.9407 84.4327 16.2014C85.7365 15.8568 87.1087 15.8699 88.4057 16.2394C89.7027 16.6089 90.8768 17.3212 91.805 18.3018C94.6909 21.3997 94.2769 25.7367 92.1016 29.0949C89.6792 32.8371 85.718 35.7243 81.4541 36.4616V36.4431Z" fill="#662D02"/>
<path d="M46.2053 22.6951C57.44 22.6084 72.7779 22.1747 81.0339 13.2094C81.0826 13.1621 81.1169 13.1019 81.1328 13.0359C81.2008 12.6951 80.6446 12.4163 80.3418 12.6393C78.9005 13.8168 77.3741 14.8854 75.775 15.8364C61.5051 10.0943 45.8332 8.82826 30.8303 12.2056C26.0843 13.2713 20.7451 14.684 16.5244 17.1933C14.5164 16.1496 12.6666 14.8249 11.0307 13.2589C10.9845 13.2184 10.9252 13.1961 10.8638 13.1961C10.8025 13.1961 10.7432 13.2184 10.697 13.2589C10.6779 13.2774 10.6628 13.2996 10.6524 13.324C10.6421 13.3485 10.6367 13.3748 10.6367 13.4014C10.6367 13.428 10.6421 13.4543 10.6524 13.4788C10.6628 13.5033 10.6779 13.5254 10.697 13.5439C13.9042 17.8996 19.2064 19.8265 24.354 20.9231C31.5163 22.4039 38.9319 22.7509 46.2053 22.6951ZM30.5399 13.3333C45.2102 9.93639 60.5606 11.0439 74.5947 16.5117C71.5695 18.1481 68.3216 19.3316 64.9545 20.0247C58.7068 21.3568 52.1625 21.6852 45.7728 21.741C36.7381 21.7843 25.8866 21.741 17.3463 17.627C21.7771 16.2019 25.9855 14.3866 30.5399 13.3333Z" fill="#662D02"/>
</g>
<defs>
<clipPath id="clip0">
<rect width="95" height="65" fill="white"/>
</clipPath>
</defs>
</svg>
