<svg id="Capa_1" enable-background="new 0 0 512 512" height="512" viewBox="0 0 512 512" width="512" xmlns="http://www.w3.org/2000/svg"><circle cx="229.168" cy="256" fill="#f9efaf" r="221.668"/><path d="m307.676 48.636c62.002 39.299 103.16 108.525 103.16 187.364 0 122.424-99.244 221.668-221.668 221.668-27.643 0-54.104-5.06-78.508-14.304 34.276 21.725 74.923 34.304 118.508 34.304 122.424 0 221.668-99.244 221.668-221.668 0-94.781-59.486-175.668-143.16-207.364z" fill="#f6e781"/><circle cx="229.168" cy="256" fill="#f6e266" r="179.945"/><path d="m288.926 86.215c48.344 32.261 80.187 87.304 80.187 149.785 0 99.381-80.564 179.945-179.945 179.945-20.948 0-41.06-3.58-59.758-10.16 28.551 19.053 62.857 30.16 99.758 30.16 99.381 0 179.945-80.564 179.945-179.945 0-78.433-50.18-145.146-120.187-169.785z" fill="#f1d333"/><path d="m282.832 34.332c122.424 0 221.668 99.244 221.668 221.668s-99.244 221.668-221.668 221.668h-53.664c122.424 0 221.668-99.244 221.668-221.668s-99.244-221.668-221.668-221.668z" fill="#f1d333"/><path d="m264.791 327.413h-9.916v-168.533c0-14.197-11.51-25.707-25.707-25.707-13.232 0-24.129 9.997-25.55 22.851h-8.93c-14.197 0-25.707 11.51-25.707 25.707s11.51 25.707 25.707 25.707h8.774v119.975h-9.916c-14.197 0-25.707 11.51-25.707 25.707s11.51 25.707 25.707 25.707h71.246c14.197 0 25.707-11.51 25.707-25.707s-11.51-25.707-25.708-25.707z" fill="#f9efaf"/><path d="m229.168 485.168h53.664c126.655 0 229.168-102.497 229.168-229.168 0-126.655-102.496-229.168-229.168-229.168h-53.664c-15.711 0-31.411 1.6-46.664 4.756-4.056.839-6.664 4.808-5.825 8.864.839 4.057 4.808 6.665 8.864 5.825 14.254-2.95 28.932-4.445 43.625-4.445 117.164 0 214.168 94.664 214.168 214.168 0 118.218-95.679 214.168-214.168 214.168-118.364 0-214.168-95.788-214.168-214.168 0-90.431 56.319-169.291 138.319-200.351 3.874-1.467 5.824-5.797 4.357-9.67-1.468-3.874-5.796-5.825-9.67-4.357-87.659 33.204-148.006 117.518-148.006 214.378 0 61.213 23.838 118.762 67.122 162.046s100.833 67.122 162.046 67.122zm129.916-40.306h24.952c-20.474 11.006-42.632 18.573-65.749 22.403 14.277-6.024 27.939-13.518 40.797-22.403zm72.193-80.603h36.45c-5.168 8.793-10.989 17.247-17.439 25.301h-34.828c5.843-8.114 11.122-16.564 15.817-25.301zm36.449-216.518h-36.45c-4.694-8.736-9.974-17.186-15.818-25.301h34.828c6.451 8.054 12.272 16.508 17.44 25.301zm8.026 15c3.974 8.203 7.411 16.652 10.295 25.302h-37.901c-2.665-8.624-5.839-17.07-9.508-25.302zm-23.53 40.301h38.216c2.1 8.291 3.706 16.737 4.803 25.301h-38.546c-1.022-8.551-2.517-16.995-4.473-25.301zm44.412 40.302c.243 4.197.366 8.417.366 12.656s-.123 8.459-.366 12.656h-38.639c.227-4.199.341-8.419.341-12.656s-.115-8.457-.341-12.656zm-1.392 40.312c-1.097 8.564-2.704 17.01-4.803 25.301h-38.216c1.955-8.305 3.451-16.75 4.473-25.301zm-47.097 40.302h37.901c-2.883 8.65-6.321 17.098-10.295 25.302h-37.115c3.67-8.233 6.844-16.679 9.509-25.302zm-64.109-256.82h-24.952c-12.858-8.885-26.52-16.378-40.797-22.403 23.117 3.829 45.275 11.397 65.749 22.403zm-5.547 15h29.487c10.442 7.55 20.18 16.025 29.122 25.302h-33.415c-7.719-9.038-16.177-17.534-25.194-25.302zm25.194 322.423h33.415c-8.943 9.277-18.68 17.752-29.122 25.302h-29.487c9.004-7.758 17.464-16.252 25.194-25.302z"/><path d="m193.545 319.913c-18.311 0-33.207 14.896-33.207 33.207s14.896 33.207 33.207 33.207h71.246c18.311 0 33.207-14.896 33.207-33.207 0-18.31-14.896-33.207-33.207-33.207h-2.416v-63.913c0-4.142-3.358-7.5-7.5-7.5s-7.5 3.358-7.5 7.5v71.413c0 4.142 3.358 7.5 7.5 7.5h9.916c10.04 0 18.207 8.167 18.207 18.207s-8.167 18.207-18.207 18.207h-71.246c-10.04 0-18.207-8.167-18.207-18.207 0-10.039 8.167-18.207 18.207-18.207h9.916c4.142 0 7.5-3.358 7.5-7.5v-119.975c0-4.142-3.358-7.5-7.5-7.5h-8.773c-10.04 0-18.207-8.167-18.207-18.207s8.167-18.207 18.207-18.207h8.93c3.823 0 7.034-2.875 7.455-6.676 1.02-9.221 8.799-16.175 18.096-16.175 10.04 0 18.207 8.167 18.207 18.207v62.12c0 4.142 3.358 7.5 7.5 7.5s7.5-3.358 7.5-7.5v-62.12c0-18.311-14.896-33.207-33.207-33.207-14.627 0-27.196 9.448-31.566 22.851h-2.914c-18.311 0-33.207 14.896-33.207 33.207 0 18.31 14.896 33.207 33.207 33.207h1.273v104.976h-2.417z"/><path d="m357.04 382.826c3.059 2.792 7.803 2.577 10.596-.482 31.583-34.596 48.978-79.465 48.978-126.344 0-103.357-84.087-187.445-187.445-187.445s-187.446 84.088-187.446 187.445 84.087 187.445 187.445 187.445c40.425 0 78.924-12.667 111.334-36.631 3.331-2.463 4.034-7.159 1.571-10.49-2.462-3.331-7.158-4.033-10.489-1.572-29.811 22.042-65.226 33.693-102.417 33.693-95.086 0-172.445-77.358-172.445-172.445s77.36-172.445 172.446-172.445c95.087 0 172.445 77.358 172.445 172.445 0 43.127-16.001 84.405-45.056 116.23-2.792 3.06-2.576 7.803.483 10.596z"/></svg>