<svg width="75" height="83" viewBox="0 0 75 83" fill="none" xmlns="http://www.w3.org/2000/svg">
<g clip-path="url(#clip0)">
<g style="mix-blend-mode:multiply">
<g style="mix-blend-mode:multiply">
<path d="M16.1907 74.0164C11.5159 74.7611 3.59979 80.4586 13.417 82.5154C20.5188 84.0048 26.452 81.6919 33.0123 80.6241C38.8325 79.6745 44.6605 82.5469 50.8001 82.5548C54.2828 82.5548 68.8294 80.3325 65.3388 74.8557C62.5456 70.4781 43.9125 71.4198 39.6272 71.6247C32.9889 71.9478 23.4016 71.5459 16.1907 74.0164Z" fill="#D1CAA3"/>
</g>
</g>
<path d="M72.9159 7.27366C72.4668 6.22277 71.7335 5.32139 70.8005 4.67314C68.9033 3.25467 66.5153 2.51392 64.2129 2.09626C56.9085 0.756594 49.1677 -0.0550845 41.9061 1.93865C38.7467 2.80549 35.3224 4.01119 32.9772 6.42258C32.3344 7.09241 30.745 8.66849 30.7956 9.69293C31.2202 18.5386 31.6098 27.3607 32.3539 36.1789L32.8798 36.3443C33.3239 36.4941 33.7602 36.6596 34.1888 36.8408C33.7486 32.1126 33.3746 27.3607 33.1681 22.6246C33.1681 22.3724 33.4797 22.1085 33.6512 21.9508C33.8226 21.7932 34.1109 21.5568 34.3524 21.3913C34.7945 21.065 35.2593 20.7714 35.7432 20.5127C37.5056 19.6356 39.3808 19.0123 41.314 18.6608C44.8992 17.9431 48.5479 17.5999 52.2025 17.6363C55.0165 17.6368 57.827 17.8369 60.6133 18.2353C63.0013 18.5741 65.8764 18.7435 68.0151 19.9808C68.6969 20.3748 69.2773 20.9579 69.3163 21.7972C69.2984 22.3649 69.22 22.929 69.0825 23.4796C68.7709 25.1621 68.5761 26.9234 68.3346 28.6019C68.0177 30.7558 67.7164 32.9164 67.4308 35.0835C66.8464 39.4177 66.2971 43.7519 65.7089 48.0861C65.1206 52.4203 64.5869 56.7545 64.1077 61.0887C63.8545 63.3661 63.4065 65.7696 63.1961 68.051C62.9983 69.9932 62.7018 71.9238 62.3079 73.8352C61.8794 76.0496 58.4707 76.1284 56.7449 76.3648C54.3788 76.7026 51.9885 76.8344 49.6001 76.7588C47.1646 76.6879 44.7557 76.2264 42.4632 75.3916C40.8231 74.7808 38.8558 74.3356 38.4662 72.4877C38.0767 72.8147 37.6209 73.1299 37.2118 73.4294C37.2118 73.5358 37.2118 73.6421 37.2118 73.7485C37.7506 74.4555 38.3794 75.0875 39.0818 75.628C39.9394 76.3259 40.8936 76.8928 41.9139 77.3104C44.0916 78.2364 46.4602 78.5871 48.8015 78.7526C51.5963 78.9455 54.4038 78.792 57.1617 78.2955C59.951 77.7912 63.0052 77.1686 63.8506 74.0362C64.5129 71.542 64.5557 68.7484 64.9102 66.1873C65.2946 63.3977 65.7037 60.6106 66.1374 57.8262C66.9905 52.2627 67.8866 46.7031 68.7085 41.1317C69.55 35.3895 70.3954 29.65 71.2446 23.9131C71.9692 19.0154 73.1925 13.9956 73.2198 9.0231C73.2292 8.42573 73.1261 7.832 72.9159 7.27366ZM72.6393 9.30285C72.3978 11.3123 68.915 12.061 67.4502 12.5929C58.7258 15.6642 49.2945 16.0373 40.3596 13.6646C38.4117 13.1367 33.6005 12.2895 32.9577 9.85054C32.4708 8.042 36.0977 6.00098 37.3092 5.31933C39.2869 4.22802 41.4197 3.45313 43.6319 3.0222C51.7025 1.46157 60.0459 2.26539 67.6801 5.33903C69.1643 5.94582 72.912 7.04907 72.6393 9.30285Z" fill="#E8E8EA"/>
<g style="mix-blend-mode:multiply" opacity="0.69">
<path d="M42.4629 79.1269C46.4287 79.8164 52.2021 72.9447 54.5045 69.9265C60.1533 62.4756 60.7376 57.712 61.9959 48.5471C63.7334 35.8282 64.5359 29.3308 65.3384 13.3652C67.0954 12.9475 73.4843 10.1776 73.4999 8.08533C76.2269 15.8554 74.6686 22.27 73.4259 30.4065C72.1325 38.9803 71.478 47.5778 70.1769 56.1398C69.3977 61.2857 70.3834 68.4923 68.2797 73.2915C65.8799 78.7762 57.1847 80.5099 51.8476 80.9669C49.5258 81.1679 43.7095 81.0142 42.4629 79.1269Z" fill="#9BB3B8"/>
</g>
<path d="M71.3145 7.95528C70.0601 6.85597 68.1785 6.24918 66.6397 5.65815C64.9292 5.00884 63.1757 4.48217 61.3921 4.08208C56.19 2.90017 50.822 2.65872 45.5367 3.3689C41.0566 3.95993 36.8415 5.61481 33.7405 9.06247C33.6278 9.16993 33.5457 9.306 33.5028 9.45649C33.3081 10.5676 35.8403 11.5645 36.6194 11.8206C46.2963 15.2328 57.029 15.4535 66.7604 12.1279C68.0499 11.6866 70.1029 11.2414 71.2366 10.2879C71.334 10.2051 71.4236 10.1184 71.5093 10.0318C71.6928 9.84703 71.822 9.61441 71.8826 9.35979C71.9431 9.10518 71.9325 8.83856 71.8521 8.58965C71.7244 8.33857 71.5403 8.12129 71.3145 7.95528Z" fill="#E8E8EA"/>
<path d="M64.6334 19.7482C66.1099 20.0713 67.8084 20.3786 68.5642 21.8326C63.866 25.1739 57.7108 25.7215 52.1283 25.7373C49.2848 25.7459 46.4447 25.5392 43.6317 25.1187C41.9955 24.8744 40.3671 24.5552 38.7582 24.1652C37.796 23.9327 34.3911 23.5702 34.3405 22.4275C34.3093 21.7814 38.7894 19.9019 41.5904 19.3463C44.5554 18.7834 47.5615 18.4711 50.5778 18.4125C53.7853 18.3321 56.994 18.5126 60.1729 18.9523C61.6649 19.1611 63.157 19.4251 64.6334 19.7482Z" fill="#ED6915"/>
<g style="mix-blend-mode:multiply" opacity="0.66">
<path d="M42.4629 79.1269C46.4287 79.8164 52.2021 72.9447 54.5045 69.9265C60.1533 62.4756 60.7376 57.712 61.9959 48.5471C63.7334 35.8282 64.5359 29.3308 65.3384 13.3652C67.0954 12.9475 71.6105 10.3155 71.6261 8.24292C74.3531 16.013 74.657 22.27 73.4259 30.4262C72.1325 39 71.4781 47.5975 70.1769 56.1595C69.3978 61.3054 70.3834 68.512 68.2797 73.3111C65.8799 78.7959 57.1847 80.5296 51.8476 80.9866C49.5258 81.1679 43.7095 81.0142 42.4629 79.1269Z" fill="#F78721"/>
</g>
<path d="M23.5924 38.141C24.4105 38.4168 25.3065 37.9597 26.1402 38.0031C25.7701 38.0031 24.9325 38.5271 24.5429 39.0078C24.4121 39.1345 24.3247 39.3002 24.2936 39.4807C24.2936 40.048 25.287 40.4066 25.622 40.7336C24.9981 40.5613 24.3515 40.4882 23.7054 40.5169C22.9262 40.6076 22.3925 41.4429 21.89 41.9866C21.3874 42.5304 21.0056 42.8377 20.3044 43.4602C20.133 43.1293 20.2304 40.513 19.5603 40.6548C18.5786 40.8597 17.5891 41.0489 16.5996 41.1946C16.8836 40.9478 17.1843 40.7214 17.4995 40.5169C17.7722 40.3357 18.4851 40.1229 18.5436 39.7289C18.602 39.3349 18.041 39.063 17.7956 38.8857C18.5397 38.7544 19.2922 38.678 20.0473 38.6572C20.5888 38.6572 21.068 38.7281 21.5238 38.3814C21.8004 38.1765 22.4237 37.1993 22.8171 37.3175C23.0353 37.3805 23.2067 38.007 23.5924 38.141Z" fill="#87B64D"/>
<path d="M50.7964 26.419C47.1827 26.3431 43.5852 25.9075 40.0559 25.1187C38.3652 24.7247 36.4641 24.4174 34.8786 23.6963C34.6444 23.5968 34.4253 23.4641 34.228 23.3023C34.121 23.2302 34.0263 23.1411 33.9475 23.0383L33.8501 22.924C34.2786 27.6798 34.6292 32.4435 35.0188 37.2033C40.3832 39.7171 44.6529 44.5714 46.1449 50.4108C48.2876 58.7955 44.8009 66.8374 38.7665 72.1212C38.9963 73.3781 41.1818 74.0913 42.1129 74.4538C43.5848 75.0026 45.108 75.3987 46.6592 75.6358C49.6845 76.0645 52.753 76.0817 55.7829 75.6871C57.0295 75.5413 61.2369 75.3994 61.6264 73.8115C61.8719 72.8186 63.1419 62.8342 63.3717 60.7025C63.8418 56.3657 64.3729 52.0315 64.965 47.6999C66.1026 39.4019 66.7415 30.9463 68.4712 22.7428C63.3561 26.0998 56.7412 26.549 50.7964 26.419Z" fill="#F78721"/>
<g style="mix-blend-mode:multiply" opacity="0.66">
<path d="M42.4629 79.1269C46.4287 79.8164 52.2021 72.9447 54.5045 69.9265C60.1533 62.4756 60.7376 57.712 61.9959 48.5471C63.7334 35.8282 64.5359 29.3308 65.3384 13.3652C67.0954 12.9475 71.6105 10.3155 71.6261 8.24292C74.3531 16.013 74.657 22.27 73.4259 30.4262C72.1325 39 71.4781 47.5975 70.1769 56.1595C69.3978 61.3054 70.3834 68.512 68.2797 73.3111C65.8799 78.7959 57.1847 80.5296 51.8476 80.9866C49.5258 81.1679 43.7095 81.0142 42.4629 79.1269Z" fill="#F78721"/>
</g>
<path opacity="0.72" d="M40.8116 76.9597C41.7491 77.4676 42.7248 77.8997 43.7295 78.2521C43.6983 77.8581 43.6672 77.4641 43.6399 77.0701C43.6399 72.0345 43.1296 66.9477 42.9114 61.9279C42.6517 56.0886 42.4231 50.2492 42.2258 44.4099C41.8674 34.1654 41.6076 23.9065 41.4466 13.6331C39.8738 13.2774 38.3441 12.7489 36.8848 12.057C36.9198 13.838 37.0445 15.6308 37.0834 17.3723C37.1536 20.3616 37.2406 23.3535 37.3445 26.3481C37.5522 32.3293 37.8236 38.3078 38.1587 44.2838C38.7703 55.1745 39.526 66.0888 40.7883 76.9282C40.8077 76.9322 40.8077 76.944 40.8116 76.9597Z" fill="white"/>
<path d="M44.6059 48.0704C42.7137 43.687 39.3377 40.13 35.0848 38.0386C34.8251 37.9073 34.5524 37.776 34.2667 37.6446C33.6638 37.3803 33.0474 37.1489 32.4201 36.9512C32.1708 36.8684 31.9254 36.7975 31.6721 36.7266C31.2826 36.6281 30.932 36.5414 30.5541 36.4626C23.7405 35.0717 15.914 37.1797 10.2964 41.1908C4.55808 45.2571 0.611731 52.0105 0.728602 59.1856C0.888326 69.2252 9.07709 75.9117 18.3527 77.3105C21.2178 77.7473 24.1362 77.678 26.9778 77.1056C28.422 76.8135 29.8368 76.3888 31.2047 75.8368C33.0869 75.0764 34.8712 74.0881 36.5184 72.8935L37.017 72.5231C37.4066 72.2237 37.7962 71.9164 38.1507 71.5972C38.3104 71.4632 38.4701 71.3214 38.626 71.1795C44.9292 65.4623 48.2211 56.6639 44.6059 48.0704ZM25.1624 71.9203C25.0962 72.1606 24.6521 72.3143 24.5547 72.0188C24.5283 71.9499 24.5189 71.8755 24.5274 71.8021C24.5473 71.7347 24.5878 71.6755 24.6431 71.633C24.6985 71.5905 24.7657 71.5669 24.8352 71.5657C24.8826 71.5545 24.932 71.5562 24.9785 71.5705C25.0251 71.5848 25.0671 71.6113 25.1002 71.6472C25.1334 71.6832 25.1567 71.7274 25.1676 71.7753C25.1785 71.8233 25.1767 71.8733 25.1624 71.9203ZM27.0596 38.0347C26.3143 38.4488 25.5983 38.9148 24.917 39.4295C25.5598 39.8236 26.1792 40.4146 26.7558 40.8716C26.97 41.045 26.7558 41.3642 26.5298 41.3484C25.6689 41.3011 24.2898 40.7928 23.4873 41.175C23.0549 41.3839 21.6485 43.0072 21.2317 43.3303C21.1265 43.4091 19.7981 44.3626 19.7864 44.1184C19.7513 43.4722 19.6227 42.8299 19.5604 42.1877C19.5091 41.8805 19.4857 41.5693 19.4903 41.2578C19.4903 41.4075 16.849 41.7385 16.6192 41.7739C16.475 41.7739 14.9596 42.0143 15.5362 41.4075C15.8205 41.1002 17.41 39.3428 17.8229 39.6068C17.3866 39.3271 16.6153 38.9331 17.223 38.4524C17.6437 38.1214 18.5164 38.145 19.0267 38.0978C19.2527 38.0978 21.1771 38.149 21.2161 38.0702C21.5573 37.4944 22.0441 37.0211 22.6263 36.699C23.3353 36.305 23.2847 37.1836 23.5068 37.5461C23.8457 38.1017 25.6689 37.4988 26.2337 37.4831C26.7986 37.4673 27.4102 37.8968 27.0596 38.0505V38.0347ZM27.27 74.5484L27.2934 74.4499C27.3791 74.1229 27.8855 74.2371 27.9556 74.5129L27.979 74.6154C28.1271 75.1473 27.1453 75.104 27.27 74.5484ZM30.3203 70.0211L30.297 70.0881L30.2697 70.1433C30.2519 70.1907 30.2226 70.2329 30.1845 70.266C30.1463 70.299 30.1006 70.3219 30.0515 70.3324C30.0204 70.3441 29.9872 70.3493 29.954 70.3477C29.9208 70.346 29.8883 70.3376 29.8584 70.3228C29.8285 70.3081 29.8019 70.2874 29.7802 70.2619C29.7585 70.2365 29.7421 70.2068 29.7321 70.1748L29.697 70.0881C29.4399 69.434 30.5891 69.3749 30.3359 70.0211H30.3203ZM31.1228 65.5333C31.0645 65.5698 30.9972 65.5891 30.9286 65.5889C30.86 65.5886 30.7928 65.5689 30.7348 65.532C30.6767 65.495 30.6301 65.4423 30.6002 65.3798C30.5703 65.3173 30.5584 65.2476 30.5658 65.1786C30.5682 65.0932 30.598 65.0109 30.6507 64.9441C30.7034 64.8773 30.7761 64.8296 30.8579 64.8083C30.9012 64.8011 30.9455 64.8041 30.9874 64.8171C31.0293 64.8301 31.0676 64.8527 31.0995 64.8831L31.1462 64.9068C31.1934 64.9441 31.2314 64.992 31.2574 65.0467C31.2833 65.1014 31.2964 65.1613 31.2956 65.222C31.2948 65.2826 31.2803 65.3422 31.253 65.3962C31.2258 65.4502 31.1865 65.4971 31.1384 65.5333H31.1228ZM36.3275 62.2156C36.3851 62.2134 36.4413 62.234 36.4842 62.273C36.5271 62.3119 36.5533 62.3663 36.5574 62.4244C36.5663 62.4669 36.5663 62.5108 36.5574 62.5532C36.5484 62.5957 36.5306 62.6357 36.5052 62.6707C36.4798 62.7057 36.4473 62.7348 36.41 62.7562C36.3727 62.7776 36.3313 62.7908 36.2885 62.7948C36.2315 62.7971 36.1759 62.777 36.1331 62.7389C36.0903 62.7007 36.0637 62.6474 36.0587 62.5899C36.0497 62.5461 36.0501 62.5007 36.06 62.457C36.0699 62.4133 36.089 62.3723 36.116 62.3368C36.143 62.3012 36.1772 62.272 36.2164 62.2511C36.2556 62.2302 36.2988 62.2181 36.3431 62.2156H36.3275ZM33.3668 60.0525L33.4564 59.9697C33.4941 59.9362 33.5425 59.9177 33.5927 59.9177C33.6429 59.9177 33.6914 59.9362 33.7291 59.9697L33.8343 60.0446C33.8777 60.0971 33.9015 60.1633 33.9015 60.2317C33.9015 60.3002 33.8777 60.3664 33.8343 60.4189C33.8 60.4677 33.7551 60.508 33.7032 60.5367C33.6512 60.5654 33.5934 60.5817 33.5343 60.5844C33.4749 60.5798 33.4183 60.557 33.3722 60.519C33.326 60.481 33.2924 60.4296 33.2758 60.3717C33.2593 60.3139 33.2606 60.2523 33.2797 60.1952C33.2987 60.1382 33.3345 60.0884 33.3824 60.0525H33.3668ZM33.507 66.9241C33.516 66.7811 33.5757 66.6461 33.6752 66.5441C33.7747 66.442 33.9072 66.3797 34.0485 66.3686C34.3212 66.3686 34.5783 66.5183 34.5705 66.8256C34.5604 66.9653 34.5023 67.0969 34.4062 67.1977C34.3102 67.2984 34.1822 67.362 34.0446 67.3773C33.9803 67.3855 33.915 67.3801 33.8529 67.3613C33.7908 67.3424 33.7333 67.3107 33.6841 67.268C33.6349 67.2253 33.5951 67.1726 33.5673 67.1134C33.5395 67.0542 33.5243 66.9897 33.5226 66.9241H33.507ZM34.1147 71.6524C33.4992 71.6524 33.3862 70.624 34.0758 70.624C34.7069 70.6043 34.816 71.6327 34.1303 71.6327L34.1147 71.6524ZM39.5687 59.8318C39.6254 59.8259 39.6827 59.8326 39.7366 59.8515C39.7905 59.8705 39.8396 59.9011 39.8804 59.9413C39.9213 59.9815 39.9529 60.0303 39.9731 60.0842C39.9933 60.1382 40.0015 60.1959 39.9973 60.2534C39.9807 60.3764 39.9215 60.4895 39.8301 60.5725C39.7388 60.6555 39.6213 60.703 39.4986 60.7065C39.4419 60.7125 39.3846 60.7057 39.3307 60.6868C39.2769 60.6679 39.2278 60.6372 39.1869 60.597C39.146 60.5568 39.1144 60.508 39.0942 60.4541C39.074 60.4002 39.0658 60.3424 39.0701 60.2849C39.0864 60.1565 39.1492 60.0387 39.2463 59.9543C39.3434 59.8699 39.468 59.8249 39.596 59.8279L39.5687 59.8318ZM39.0155 63.2243C39.0086 63.1173 39.034 63.0108 39.0884 62.9188C39.1428 62.8268 39.2236 62.7537 39.32 62.7092C39.4165 62.6648 39.524 62.6511 39.6283 62.67C39.7327 62.6889 39.8288 62.7394 39.9041 62.8149C39.9793 62.8904 40.0301 62.9873 40.0496 63.0926C40.069 63.198 40.0564 63.3069 40.0132 63.4048C39.97 63.5027 39.8984 63.585 39.8079 63.6407C39.7174 63.6964 39.6122 63.723 39.5064 63.7168C39.3813 63.7089 39.2639 63.6532 39.1779 63.561C39.0918 63.4689 39.0435 63.3471 39.0428 63.2204L39.0155 63.2243ZM39.7947 66.2701C40.4764 66.2701 40.6439 67.4285 39.9232 67.3576C39.5233 67.3392 39.4921 66.9754 39.8297 66.2661L39.7947 66.2701Z" fill="#F78721"/>
<g style="mix-blend-mode:multiply" opacity="0.66">
<path d="M12.4666 79.2175C8.50854 74.1425 16.3623 77.3459 16.2727 73.6263C17.905 73.8588 19.1944 73.3742 20.0125 71.7311C21.8318 71.1283 22.9655 70.2614 25.0068 70.155C25.1549 68.2913 26.3742 67.5269 28.3143 67.7909C28.2909 65.8878 29.7011 65.0131 31.201 64.5482C31.0724 64.1029 30.8699 63.5907 30.7452 63.2124C33.0592 63.0233 35.8641 58.961 35.42 57.1012C38.0107 55.3084 36.1992 52.8419 38.4392 50.9506C37.9561 50.2729 37.7341 49.1184 37.2939 48.5628C38.7625 47.0143 39.0274 45.0915 37.2549 43.7164C37.5549 41.8291 37.2978 39.7762 39.53 39.5556C45.9112 38.9448 47.859 51.2934 48.1005 55.2099C48.7511 65.214 41.2558 75.6043 32.1905 79.5169C27.2702 81.6564 17.0362 83.7841 12.4666 79.2175Z" fill="#F78721"/>
</g>
<path d="M72.7681 5.69753C71.7176 4.24985 70.2812 3.13464 68.627 2.48234C66.1688 1.49729 63.4457 1.16632 60.8356 0.784119C58.2328 0.392546 55.6111 0.142641 52.9819 0.0354834C47.6681 -0.161526 42.1791 0.429502 37.2744 2.62418C35.3456 3.43291 33.5979 4.62698 32.136 6.13489C31.0919 7.26966 29.8804 8.80239 30.0557 10.4415C30.1842 18.9444 30.7959 27.4828 31.5867 35.9621C24.8783 34.2205 17.1142 36.033 11.3291 39.5752C5.12711 43.3618 0.674331 49.9143 0.0666018 57.2864C-0.856679 68.5553 8.24757 76.5381 18.5322 78.0866C21.5427 78.5385 24.6088 78.4424 27.5858 77.8029C30.8845 77.0726 34.0044 75.679 36.7602 73.7051C36.7602 73.7445 36.7836 73.7839 36.7952 73.8233C37.6757 76.4751 39.308 77.0031 41.7856 78.0196C44.4581 79.115 47.4032 79.509 50.2666 79.5957C53.6061 79.7167 56.9432 79.2936 60.15 78.3427C61.7706 77.8384 63.2665 76.9479 64.0457 75.3679C65.004 73.4293 65.0663 70.8327 65.4053 68.7287C66.3091 63.1769 67.0765 57.6055 67.8479 52.0341C68.3465 48.417 68.8452 44.7999 69.3789 41.1868C70.21 35.5602 71.0358 29.9336 71.8565 24.307C72.1994 21.9863 72.5733 19.6734 72.9395 17.3565C73.2746 15.2091 73.968 12.6283 73.968 10.1775C73.9875 8.54234 73.6836 6.99385 72.7681 5.69753ZM36.5187 72.8934C34.8718 74.0908 33.0876 75.0817 31.2049 75.8447C29.837 76.3966 28.4222 76.8213 26.9781 77.1134C24.1364 77.6858 21.2181 77.7551 18.353 77.3183C9.07735 75.9156 0.888594 69.2291 0.728871 59.1934C0.612 52.0105 4.55834 45.2649 10.2889 41.1986C15.9143 37.2032 23.7408 35.0952 30.5465 36.4704C30.9361 36.5492 31.2945 36.6359 31.6646 36.7344C31.9178 36.8053 32.1633 36.8762 32.4126 36.959C33.048 37.1584 33.6722 37.3926 34.2825 37.6603C34.5604 37.7838 34.8331 37.9151 35.1006 38.0543C39.345 40.1447 42.7148 43.6955 44.6061 48.0703C48.2213 56.6599 44.9295 65.4583 38.6262 71.1716C38.4704 71.3134 38.3107 71.4553 38.151 71.5892C37.7614 71.9084 37.403 72.2157 37.0173 72.5152L36.5187 72.8934ZM34.8786 23.6963C36.4641 24.4173 38.3847 24.7444 40.0559 25.1187C43.5852 25.9075 47.1827 26.343 50.7964 26.419C56.7412 26.549 63.3561 26.0998 68.4829 22.7585C66.7532 30.962 66.1143 39.4176 64.9767 47.7157C64.3846 52.042 63.8535 56.3762 63.3834 60.7183C63.1535 62.8499 61.8835 72.8343 61.6381 73.8273C61.2486 75.4033 57.0256 75.557 55.7946 75.7028C52.7647 76.0975 49.6962 76.0802 46.6708 75.6516C45.1197 75.4144 43.5965 75.0184 42.1246 74.4695C41.1935 74.1149 39.008 73.3939 38.7782 72.1369C44.8126 66.8531 48.2992 58.8112 46.1566 50.4265C44.6646 44.5872 40.3949 39.7328 35.0305 37.219C34.6409 32.4593 34.2942 27.6956 33.8618 22.9398L33.9592 23.054C34.0379 23.1568 34.1327 23.246 34.2397 23.318C34.4343 23.4734 34.6493 23.6007 34.8786 23.6963ZM34.3371 22.4276C34.3059 21.7814 38.7859 19.9019 41.587 19.3463C44.552 18.7835 47.5581 18.4711 50.5743 18.4125C53.7818 18.3321 56.9905 18.5127 60.1694 18.9523C61.6654 19.1611 63.1574 19.4251 64.6339 19.7403C66.1104 20.0556 67.8089 20.3708 68.5647 21.8247C63.8665 25.166 57.7113 25.7137 52.1287 25.7294C49.2854 25.7407 46.4453 25.5365 43.6322 25.1187C41.996 24.8744 40.3676 24.5553 38.7587 24.1652C37.7887 23.9327 34.3877 23.5702 34.3371 22.4276ZM71.2566 23.9051C70.4125 29.6447 69.5672 35.3842 68.7205 41.1237C67.8985 46.6952 67.0025 52.2548 66.1493 57.8183C65.7208 60.6027 65.3118 63.3897 64.9222 66.1794C64.5677 68.7405 64.5326 71.5341 63.8626 74.0282C63.0328 77.1804 59.9669 77.7832 57.1736 78.2876C54.4145 78.7841 51.6056 78.9376 48.8096 78.7446C46.4722 78.5791 44.0958 78.2285 41.9181 77.3025C40.8965 76.8849 39.941 76.318 39.082 75.6201C38.3746 75.0801 37.7406 74.4481 37.1965 73.7406C37.1965 73.6342 37.2238 73.5278 37.1965 73.4214C37.5861 73.122 38.0613 72.8068 38.4509 72.4797C38.8405 74.3277 40.7883 74.7729 42.4479 75.3836C44.7471 76.2106 47.161 76.6654 49.6004 76.7312C51.9836 76.8068 54.3687 76.675 56.7295 76.3372C58.4553 76.1008 61.8602 76.022 62.2887 73.8076C62.6813 71.8961 62.9765 69.9655 63.173 68.0234C63.3834 65.742 63.8275 63.3385 64.0807 61.0611C64.5586 56.719 65.0923 52.3848 65.6819 48.0585C66.2701 43.7243 66.8194 39.39 67.4038 35.0755C67.692 32.9137 67.9933 30.7532 68.3076 28.5939C68.5491 26.9351 68.7439 25.1739 69.0555 23.4717C69.193 22.921 69.2714 22.3569 69.2893 21.7892C69.2503 20.95 68.6699 20.3668 67.9881 19.9728C65.8572 18.7356 62.9821 18.5662 60.5863 18.2273C57.8088 17.8329 55.0075 17.6354 52.2027 17.6363C48.5507 17.6003 44.9047 17.9436 41.322 18.6607C39.3888 19.0123 37.5137 19.6356 35.7512 20.5126C35.2673 20.7713 34.8025 21.065 34.3604 21.3913C34.1189 21.5725 33.8774 21.7498 33.6592 21.9508C33.4411 22.1517 33.1645 22.3724 33.1761 22.6246C33.3826 27.3528 33.7566 32.1046 34.1968 36.8408C33.7683 36.6595 33.332 36.494 32.8879 36.3443L32.3619 36.1788C31.6179 27.3607 31.2283 18.5386 30.8037 9.69288C30.753 8.68419 32.3619 7.08447 32.9853 6.42252C35.3227 4.01113 38.7548 2.80543 41.9142 1.93859C49.1758 -0.0551407 56.9165 0.756537 64.221 2.0962C66.5155 2.51386 68.8958 3.25461 70.8086 4.67308C71.7416 5.32134 72.4748 6.22271 72.924 7.2736C73.1372 7.82869 73.2443 8.41968 73.2395 9.01516C73.2161 13.9877 71.9812 19.0075 71.2566 23.9051Z" fill="#662D02"/>
<path d="M67.6801 5.33891C60.046 2.26528 51.7025 1.46146 43.632 3.02208C41.4157 3.45184 39.2789 4.22676 37.2976 5.31921C36.086 6.00086 32.4591 8.04188 32.9461 9.85043C33.6005 12.2894 38.4 13.1365 40.3479 13.6645C49.285 16.0447 58.7207 15.677 67.4503 12.6086C68.9151 12.0845 72.3978 11.328 72.6393 9.3185C72.912 7.04895 69.1644 5.9457 67.6801 5.33891ZM71.494 10.0671C71.4083 10.1538 71.3187 10.2405 71.2213 10.3232C70.0877 11.2768 68.0346 11.722 66.7451 12.1633C57.0059 15.4888 46.281 15.2682 36.6041 11.856C35.825 11.5841 33.3006 10.5872 33.4876 9.49187C33.5327 9.34051 33.6175 9.20435 33.733 9.09785C36.8495 5.65019 41.0491 3.99531 45.537 3.38852C50.8223 2.67834 56.1903 2.91979 61.3925 4.1017C63.176 4.50179 64.9295 5.02845 66.64 5.67777C68.171 6.2688 70.0526 6.85983 71.3148 7.9749C71.5387 8.15167 71.7177 8.37996 71.8368 8.64079C71.9134 8.88695 71.9219 9.14962 71.8615 9.40034C71.8011 9.65106 71.674 9.88029 71.494 10.0632V10.0671Z" fill="#662D02"/>
<path d="M39.9582 67.3536C40.6789 67.4245 40.5114 66.2661 39.8297 66.2661C39.4921 66.9753 39.5349 67.3378 39.9582 67.3536Z" fill="#662D02"/>
<path d="M39.5338 63.7128C39.6231 63.7073 39.709 63.6759 39.781 63.6222C39.853 63.5685 39.9081 63.4949 39.9397 63.4102C39.9713 63.3255 39.9779 63.2334 39.9589 63.145C39.9399 63.0566 39.8959 62.9756 39.8324 62.9119C39.7689 62.8482 39.6885 62.8044 39.6009 62.7858C39.5134 62.7673 39.4224 62.7748 39.3389 62.8074C39.2554 62.84 39.1831 62.8963 39.1306 62.9696C39.0781 63.0428 39.0476 63.1299 39.043 63.2203C39.045 63.3509 39.0975 63.4756 39.1892 63.5677C39.2809 63.6597 39.4046 63.7118 39.5338 63.7128Z" fill="#662D02"/>
<path d="M39.5258 60.7025C39.6485 60.699 39.766 60.6515 39.8574 60.5685C39.9487 60.4855 40.0079 60.3724 40.0245 60.2494C40.0288 60.1919 40.0205 60.1341 40.0003 60.0802C39.9801 60.0263 39.9485 59.9775 39.9076 59.9373C39.8668 59.8971 39.8177 59.8664 39.7638 59.8475C39.71 59.8286 39.6527 59.8218 39.5959 59.8278C39.4732 59.8313 39.3557 59.8788 39.2644 59.9618C39.1731 60.0448 39.1139 60.1579 39.0973 60.2809C39.093 60.3384 39.1012 60.3961 39.1214 60.4501C39.1416 60.504 39.1733 60.5528 39.2141 60.593C39.255 60.6332 39.3041 60.6639 39.3579 60.6828C39.4118 60.7017 39.4691 60.7084 39.5258 60.7025Z" fill="#662D02"/>
<path d="M36.3429 62.2155C36.3 62.2201 36.2586 62.2337 36.2212 62.2555C36.1839 62.2773 36.1515 62.3068 36.1261 62.3421C36.1008 62.3774 36.0831 62.4177 36.0741 62.4604C36.0651 62.503 36.0651 62.5471 36.0741 62.5898C36.0791 62.6473 36.1057 62.7006 36.1485 62.7388C36.1913 62.7769 36.247 62.7969 36.304 62.7947C36.3467 62.7906 36.3881 62.7775 36.4254 62.7561C36.4628 62.7347 36.4952 62.7056 36.5206 62.6706C36.546 62.6356 36.5638 62.5955 36.5728 62.5531C36.5818 62.5107 36.5818 62.4668 36.5728 62.4243C36.5688 62.3661 36.5425 62.3118 36.4996 62.2728C36.4567 62.2339 36.4005 62.2133 36.3429 62.2155Z" fill="#662D02"/>
<path d="M34.586 66.8256C34.586 66.5183 34.3367 66.3685 34.064 66.3685C33.9227 66.3796 33.7901 66.442 33.6906 66.544C33.5911 66.6461 33.5314 66.7811 33.5225 66.9241C33.5241 66.9896 33.5393 67.0541 33.5672 67.1133C33.595 67.1725 33.6348 67.2252 33.684 67.2679C33.7332 67.3106 33.7907 67.3424 33.8528 67.3612C33.9149 67.38 33.9802 67.3855 34.0445 67.3772C34.1849 67.3654 34.3165 67.3034 34.4157 67.2023C34.515 67.1012 34.5753 66.9677 34.586 66.8256Z" fill="#662D02"/>
<path d="M34.0912 70.6042C33.4017 70.6042 33.5146 71.6326 34.1302 71.6326C34.8158 71.6326 34.7067 70.6042 34.0912 70.6042Z" fill="#662D02"/>
<path d="M33.8694 60.4109C33.9128 60.3584 33.9366 60.2921 33.9366 60.2237C33.9366 60.1553 33.9128 60.089 33.8694 60.0365L33.7642 59.9617C33.7265 59.9282 33.678 59.9097 33.6278 59.9097C33.5776 59.9097 33.5292 59.9282 33.4915 59.9617L33.4019 60.0444C33.3552 60.0832 33.3215 60.1356 33.3054 60.1945C33.2894 60.2534 33.2918 60.3158 33.3123 60.3733C33.3328 60.4307 33.3704 60.4804 33.4199 60.5153C33.4694 60.5503 33.5285 60.5688 33.5889 60.5685C33.644 60.5639 33.6975 60.5474 33.7459 60.5202C33.7943 60.4931 33.8363 60.4558 33.8694 60.4109Z" fill="#662D02"/>
<path d="M31.1656 64.9066L31.1188 64.883C31.087 64.8525 31.0486 64.8299 31.0067 64.8169C30.9648 64.804 30.9206 64.8009 30.8773 64.8081C30.7955 64.8295 30.7227 64.8771 30.67 64.9439C30.6173 65.0107 30.5875 65.0931 30.5851 65.1785C30.5778 65.2475 30.5897 65.3172 30.6196 65.3797C30.6494 65.4421 30.6961 65.4949 30.7541 65.5318C30.8122 65.5688 30.8794 65.5885 30.948 65.5887C31.0166 65.589 31.0839 65.5697 31.1422 65.5331C31.1913 65.4982 31.2317 65.4523 31.2604 65.399C31.289 65.3457 31.3051 65.2864 31.3073 65.2257C31.3096 65.1651 31.298 65.1047 31.2734 65.0494C31.2488 64.994 31.2119 64.9452 31.1656 64.9066Z" fill="#662D02"/>
<path d="M29.7126 70.088L29.7476 70.1747C29.7577 70.2068 29.7741 70.2364 29.7958 70.2618C29.8175 70.2873 29.8441 70.308 29.874 70.3228C29.9038 70.3375 29.9364 70.3459 29.9695 70.3476C30.0027 70.3492 30.0359 70.344 30.0671 70.3323C30.1162 70.3218 30.1619 70.2989 30.2 70.2659C30.2381 70.2329 30.2674 70.1907 30.2852 70.1432L30.3125 70.088L30.3359 70.0211C30.5891 69.3749 29.4399 69.434 29.7126 70.088Z" fill="#662D02"/>
<path d="M27.9714 74.5129C27.9012 74.2371 27.3948 74.1189 27.3091 74.4499L27.2857 74.5484C27.1455 75.1039 28.1272 75.1473 27.9947 74.6154L27.9714 74.5129Z" fill="#662D02"/>
<path d="M26.2532 37.4988C25.6688 37.4988 23.8456 38.1175 23.5262 37.5619C23.3041 37.1994 23.3548 36.3286 22.6457 36.7147C22.0635 37.0369 21.5767 37.5102 21.2355 38.0859C21.1965 38.1647 19.2877 38.0859 19.0461 38.1135C18.5358 38.1608 17.6631 38.1372 17.2424 38.4681C16.6347 38.9488 17.406 39.3428 17.8423 39.6226C17.4294 39.3586 15.84 41.1159 15.5556 41.4233C14.979 42.0301 16.4944 41.8173 16.6386 41.7897C16.8684 41.7542 19.498 41.4233 19.5097 41.2735C19.5051 41.585 19.5285 41.8963 19.5798 42.2034C19.6422 42.8457 19.7707 43.4879 19.8058 44.1341C19.8058 44.3784 21.1459 43.4249 21.2511 43.3461C21.6679 43.023 23.0743 41.3996 23.5067 41.1908C24.3092 40.7968 25.6883 41.3169 26.5492 41.3642C26.7869 41.3642 26.9894 41.0608 26.7752 40.8874C26.1986 40.4303 25.5792 39.859 24.9364 39.4453C25.6177 38.9306 26.3337 38.4645 27.079 38.0505C27.4102 37.8968 26.8804 37.4791 26.2532 37.4988ZM24.5429 39.0079C24.4121 39.1346 24.3248 39.3003 24.2936 39.4808C24.2936 40.0481 25.287 40.4067 25.6221 40.7337C24.9981 40.5614 24.3515 40.4882 23.7054 40.517C22.9262 40.6077 22.3925 41.443 21.89 41.9867C21.3874 42.5305 21.0057 42.8378 20.3044 43.4603C20.133 43.1294 20.2304 40.5131 19.5604 40.6549C18.5786 40.8598 17.5891 41.049 16.5996 41.1947C16.8836 40.9479 17.1843 40.7215 17.4995 40.517C17.7722 40.3358 18.4851 40.123 18.5436 39.729C18.602 39.335 18.041 39.0631 17.7956 38.8858C18.5397 38.7545 19.2923 38.6781 20.0473 38.6573C20.5888 38.6573 21.068 38.7282 21.5238 38.3814C21.8004 38.1766 22.4237 37.1994 22.8172 37.3176C23.047 37.3846 23.2067 38.0111 23.5963 38.145C24.4144 38.4208 25.3104 37.9638 26.1441 38.0071C25.7701 38.0032 24.9325 38.5272 24.5429 39.0079Z" fill="#662D02"/>
<path d="M24.8352 71.5657C24.7658 71.5669 24.6985 71.5905 24.6432 71.633C24.5878 71.6755 24.5473 71.7347 24.5275 71.8021C24.5189 71.8755 24.5283 71.9499 24.5547 72.0188C24.6521 72.3301 25.0962 72.1606 25.1625 71.9203C25.1768 71.8733 25.1785 71.8233 25.1676 71.7753C25.1567 71.7274 25.1335 71.6832 25.1003 71.6472C25.0671 71.6113 25.0251 71.5848 24.9786 71.5705C24.932 71.5561 24.8826 71.5545 24.8352 71.5657Z" fill="#662D02"/>
</g>
<defs>
<clipPath id="clip0">
<rect width="75" height="83" fill="white"/>
</clipPath>
</defs>
</svg>
