<svg id="Capa_1" enable-background="new 0 0 512 512" height="512" viewBox="0 0 512 512" width="512" xmlns="http://www.w3.org/2000/svg"><g><path d="m256 7.5c-40.585 0-74.352 29.187-81.457 67.717l.745 33.823c7.093 30.728 31.283 54.916 62.012 62.007l37.406-.001c30.725-7.092 54.91-31.276 62.005-62l.734-33.893c-7.13-38.498-40.882-67.653-81.445-67.653zm44.87 104.233c-4.902 10.261-13.221 18.577-23.483 23.476l-42.762.006c-10.21-4.871-18.497-13.124-23.412-23.309l-2.765-36.071c6.205-20.376 25.147-35.201 47.552-35.201 22.449 0 41.422 14.884 47.589 35.323z" fill="#ffd97d"/><path d="m322.267 73.767c-27.095 0-51.152 13.009-66.265 33.123l-.01 99.408c11.515 15.331 28.226 26.537 47.518 31.003h92.49l2.183-47.511c4.448-10.161 6.917-21.387 6.917-33.189 0-45.749-37.086-82.834-82.833-82.834zm37.029 115.983-22.662 14.441c-4.549 1.371-9.372 2.108-14.368 2.108-27.448 0-49.7-22.251-49.7-49.7s22.251-49.7 49.7-49.7 49.7 22.251 49.7 49.7c.001 12.738-4.791 24.356-12.67 33.151z" fill="#faa75d"/><path d="m189.733 73.767c-45.748 0-82.833 37.086-82.833 82.833 0 11.79 2.463 23.005 6.903 33.158v47.543l94.579.025c36.767-8.459 64.184-41.391 64.184-80.726.001-45.748-37.085-82.833-82.833-82.833zm0 132.533c-5.014 0-9.855-.743-14.419-2.124l-22.554-14.363c-7.913-8.802-12.727-20.446-12.727-33.213 0-27.449 22.252-49.7 49.7-49.7 27.449 0 49.7 22.251 49.7 49.7s-22.251 49.7-49.7 49.7z" fill="#ffc269"/><path d="m346.524 189.733c-4.092 0-7.611 2.982-8.184 7.034-3.417 24.118-24.145 42.666-49.206 42.666h-66.267c-25.061 0-45.79-18.549-49.206-42.666-.574-4.051-4.093-7.034-8.184-7.034h-56.741c-9.836 0-17.505 8.519-16.476 18.301l28.084 266.801c1.775 16.863 15.995 29.665 32.951 29.665h205.409c16.956 0 31.176-12.802 32.951-29.665l28.084-266.801c1.03-9.782-6.64-18.301-16.476-18.301z" fill="#e55964"/><g fill="#db404f"><path d="m150.661 196.767c3.417 24.118 24.145 42.666 49.206 42.666h23c-25.061 0-45.79-18.549-49.206-42.666-.574-4.051-4.093-7.034-8.184-7.034h-23c4.091 0 7.61 2.983 8.184 7.034z"/><path d="m403.265 189.733h-23c9.836 0 17.505 8.519 16.476 18.301l-28.084 266.801c-1.775 16.863-15.995 29.665-32.951 29.665h23c16.956 0 31.176-12.802 32.951-29.665l28.084-266.801c1.029-9.781-6.641-18.301-16.476-18.301z"/></g><path d="m395.509 438.233h-279.018l-17.438-165.666h313.894z" fill="#faf8fa"/><path d="m256 305.7c-27.449 0-49.7 22.251-49.7 49.7s22.251 49.7 49.7 49.7 49.7-22.251 49.7-49.7c0-27.448-22.252-49.7-49.7-49.7zm0 66.267c-9.15 0-16.567-7.417-16.567-16.567 0-9.149 7.417-16.567 16.567-16.567s16.567 7.417 16.567 16.567-7.417 16.567-16.567 16.567z" fill="#ffd97d"/><path d="m389.947 272.567-17.438 165.666h23l12.53-119.032 4.908-46.634z" fill="#eceaec"/></g><g><path d="m198.8 355.4c0 31.541 25.66 57.2 57.2 57.2s57.2-25.66 57.2-57.2-25.66-57.2-57.2-57.2-57.2 25.66-57.2 57.2zm99.4 0c0 23.269-18.931 42.2-42.2 42.2s-42.2-18.931-42.2-42.2 18.931-42.2 42.2-42.2 42.2 18.931 42.2 42.2z"/><path d="m231.934 355.4c0 13.271 10.796 24.067 24.066 24.067 13.271 0 24.066-10.796 24.066-24.067 0-13.27-10.796-24.066-24.066-24.066s-24.066 10.796-24.066 24.066zm33.132 0c0 5-4.067 9.067-9.066 9.067s-9.066-4.067-9.066-9.067c0-4.999 4.067-9.066 9.066-9.066s9.066 4.067 9.066 9.066z"/><path d="m427.199 208.819c.713-6.773-1.492-13.561-6.049-18.622-3.318-3.686-7.679-6.22-12.434-7.329 2.575-8.468 3.883-17.264 3.883-26.269 0-42.41-29.379-78.081-68.852-87.746-9.78-40.184-45.895-68.853-87.747-68.853-41.862 0-77.967 28.666-87.747 68.854-39.473 9.665-68.853 45.336-68.853 87.746 0 9.004 1.308 17.801 3.883 26.269-4.754 1.109-9.115 3.643-12.433 7.329-4.557 5.061-6.762 11.849-6.049 18.622l6.79 64.51c0 .003.001.007.001.01l17.438 165.659v.005l3.855 36.617c2.184 20.74 19.557 36.379 40.41 36.379h11.589c4.143 0 7.5-3.358 7.5-7.5s-3.357-7.5-7.5-7.5h-11.589c-13.155 0-24.115-9.866-25.492-22.95l-2.981-28.317h262.356l-2.981 28.317c-1.377 13.084-12.337 22.95-25.492 22.95h-163.822c-4.143 0-7.5 3.358-7.5 7.5s3.357 7.5 7.5 7.5h163.822c20.853 0 38.227-15.64 40.41-36.379l3.854-36.617c0-.002 0-.004.001-.006l7.218-68.574c.434-4.12-2.555-7.811-6.674-8.244-4.119-.431-7.81 2.554-8.244 6.674l-6.514 61.881h-265.513l-15.86-150.667h297.232l-6.268 59.548c-.434 4.119 2.555 7.811 6.674 8.244 4.106.427 7.81-2.554 8.244-6.674l7.141-67.841c.001-.007.001-.013.002-.02zm-29.599-52.219c0 8.847-1.521 17.444-4.49 25.633h-19.711c3.958-7.89 6.068-16.647 6.068-25.633 0-31.541-25.66-57.2-57.2-57.2-8.619 0-16.792 1.927-24.129 5.356-.342.134-.676.289-.996.472-9.234 4.535-17.069 11.488-22.687 20.027-2.365-6.372-5.432-12.405-9.102-18.009 10.343-11.961 23.877-20.187 38.929-23.838.491-.046.983-.123 1.473-.271.171-.051.334-.116.499-.178 5.192-1.112 10.55-1.691 16.012-1.691 41.54-.001 75.334 33.793 75.334 75.332zm-51.077 25.633c-7.811 0-14.522 5.796-15.609 13.481-.107.759-.242 1.509-.389 2.253-2.707.537-5.468.831-8.258.831-16.292 0-30.447-9.286-37.477-22.837 26.631-8.985 47.854-30.209 56.839-56.839 13.552 7.03 22.838 21.185 22.838 37.477 0 9.316-3.069 18.297-8.687 25.633h-9.257zm-90.523 35.729c4.923 5.313 10.441 10.003 16.431 13.972h-32.903c6.005-3.974 11.545-8.661 16.472-13.972zm47.203 11.523c-14.663-3.826-27.868-12.059-37.83-23.531 3.692-5.665 6.727-11.722 9.061-18.041 10.231 15.575 27.846 25.887 47.833 25.887.504 0 1.006-.014 1.508-.027-5.031 7.197-12.235 12.734-20.572 15.712zm19.064-115.085c1.702 0 3.377.113 5.027.31-7.519 21.92-24.999 39.399-46.917 46.918-.197-1.65-.31-3.326-.31-5.028 0-5.643 1.122-11.026 3.14-15.95 9.757-5.288 17.823-13.354 23.112-23.111 4.923-2.018 10.306-3.139 15.948-3.139zm-66.303-19.159c-10.164-10.964-23.006-19.41-37.479-24.282 7.124-13.903 21.395-22.826 37.515-22.826 15.829 0 30.293 9.068 37.458 22.78-14.242 4.754-27.097 13.046-37.494 24.328zm.036-80.241c32.787 0 61.357 21.091 71.461 51.42-1.719-.098-3.45-.153-5.194-.153-4.705 0-9.345.361-13.894 1.055-9.029-20.428-29.67-34.188-52.373-34.188-23.081 0-43.372 13.496-52.393 34.199-4.524-.7-9.157-1.065-13.874-1.065-1.743 0-3.474.055-5.194.153 10.103-30.333 38.665-51.421 71.461-51.421zm-80.818 67.69c.46-.039.911-.121 1.348-.241 4.29-.762 8.697-1.182 13.203-1.182 41.539 0 75.333 33.794 75.333 75.334 0 16.443-5.206 31.77-14.234 44.259-.613.58-1.104 1.246-1.479 1.964-9.908 12.798-23.955 22.351-40.552 26.664-8.339-2.977-15.545-8.515-20.577-15.714.503.013 1.005.027 1.509.027 25.883 0 47.794-17.286 54.825-40.916.013-.052.037-.098.049-.15.004-.018.006-.037.01-.055 1.498-5.104 2.316-10.496 2.316-16.078 0-8.504-1.879-16.572-5.222-23.833-.178-.515-.414-1.01-.701-1.476-9.354-18.879-28.82-31.893-51.277-31.893-31.54 0-57.2 25.66-57.2 57.2 0 8.988 2.109 17.744 6.066 25.633h-19.71c-2.969-8.19-4.489-16.788-4.489-25.633 0-36.561 26.184-67.11 60.782-73.91zm-18.963 99.543c-5.618-7.336-8.686-16.316-8.686-25.633 0-16.292 9.286-30.447 22.838-37.477 8.985 26.631 30.208 47.855 56.839 56.84-7.03 13.551-21.185 22.837-37.477 22.837-2.788 0-5.55-.277-8.254-.812-.149-.751-.285-1.506-.393-2.271-1.087-7.687-7.798-13.483-15.609-13.483h-9.258zm49.458-64.696c5.288 9.757 13.363 17.825 23.117 23.113 2.018 4.924 3.14 10.308 3.14 15.95 0 1.702-.113 3.378-.31 5.028-21.92-7.519-39.399-24.998-46.918-46.918 1.65-.197 3.325-.31 5.027-.31 5.641 0 11.022 1.12 15.944 3.137zm-99.872 147.53-6.086-57.817c-.273-2.589.537-5.081 2.278-7.016 1.742-1.935 4.135-3 6.738-3h4.443c.378.032.761.027 1.144 0h37.353c.718.104 1.448.104 2.168 0h11.633c.379 0 .711.257.758.586.413 2.914 1.059 5.748 1.894 8.497.015.05.031.1.047.15 5.5 17.907 19.578 31.948 37.125 37.67.614.278 1.259.489 1.935.594 4.991 1.433 10.238 2.203 15.631 2.203h66.266c5.634 0 11.106-.848 16.296-2.408.252-.067.502-.136.745-.229 20.54-6.479 36.452-24.316 39.592-46.479.047-.328.379-.584.758-.584h12.343c.299.017.597.019.896 0h37.533c.295.035.59.058.883.058.27 0 .537-.029.804-.058h4.282c2.604 0 4.996 1.065 6.738 3 1.741 1.935 2.551 4.427 2.278 7.016l-6.086 57.818h-300.389z"/></g></svg>