<svg width="25" height="27" viewBox="0 0 25 27" fill="none" xmlns="http://www.w3.org/2000/svg">
<path d="M23.2954 11.0454H1.70455C0.763633 11.0454 0 11.8701 0 12.8863V14.1135C0 15.1297 0.763633 15.9544 1.70455 15.9544H23.2954C24.2363 15.9544 24.9999 15.1297 24.9999 14.1135V12.8863C24.9999 11.8701 24.2363 11.0454 23.2954 11.0454Z" fill="#4CAF50"/>
<path d="M10.2271 1.84091V25.159C10.2271 26.1752 10.9907 26.9999 11.9316 26.9999H13.0679C14.0088 26.9999 14.7724 26.1752 14.7724 25.159V1.84091C14.7724 0.824724 14.0088 0 13.0679 0H11.9316C10.9907 0 10.2271 0.824724 10.2271 1.84091Z" fill="#4CAF50"/>
</svg>
