<svg width="92" height="61" viewBox="0 0 92 61" fill="none" xmlns="http://www.w3.org/2000/svg">
<g clip-path="url(#clip0)">
<g style="mix-blend-mode:multiply">
<g style="mix-blend-mode:multiply">
<path d="M7.29348 42.8959C4.50801 44.0657 7.43519 46.9141 9.26854 47.5213C12.5544 48.5928 13.7944 49.508 16.2787 51.6644C19.6 54.5486 23.6608 57.8747 27.6287 59.7007C30.2149 60.9017 33.917 60.9374 36.7512 60.9866C42.5657 61.0848 47.4812 59.098 52.5827 56.4416C59.4246 52.8699 66.1868 49.7134 73.2412 46.6194C75.8451 45.481 78.1124 44.2934 80.8536 43.4942C82.9881 42.8558 85.499 42.1057 87.1375 40.5565C88.0232 39.735 91.5172 37.1589 91.4862 36.2928C91.3932 33.9355 85.2864 32.4175 83.7764 32.2746C80.0167 31.9309 76.1994 32.9175 72.5504 33.6408C66.1159 34.9221 59.6549 35.9624 53.185 37.0562C40.4578 39.1591 27.983 40.9628 15.1007 40.9494C12.3994 40.9271 9.90623 40.6815 7.29348 42.8959Z" fill="#D1CAA3"/>
</g>
</g>
<path d="M89.2677 28.5734C88.6743 27.9841 87.6957 27.3679 88.0854 26.3991C88.3112 25.8366 89.2367 25.4035 89.6796 24.9972C89.7437 24.9564 89.7992 24.9031 89.8429 24.8405C89.8865 24.7779 89.9175 24.7072 89.9339 24.6326C89.9504 24.5579 89.952 24.4806 89.9388 24.4053C89.9255 24.33 89.8977 24.258 89.8567 24.1936C89.2855 23.1266 88.3511 23.3766 87.2838 23.3007C85.8662 23.1863 84.4398 23.3377 83.0768 23.7471C85.198 24.8454 87.1377 26.7116 87.6469 29.0198C87.6491 29.0317 87.6491 29.0438 87.6469 29.0556C87.6755 29.1044 87.6924 29.1592 87.6964 29.2157C87.7003 29.2722 87.6912 29.3289 87.6697 29.3813C87.6483 29.4337 87.615 29.4803 87.5727 29.5175C87.5303 29.5547 87.4799 29.5815 87.4255 29.5958C82.7536 30.8414 78.7946 34.1854 74.499 36.3284C74.2865 36.4356 74.0739 36.5383 73.8613 36.6365C74.3972 36.7124 74.9286 36.8061 75.4644 36.9044C76.0003 37.0026 76.6379 37.1321 77.2358 37.2347C78.2882 37.4435 79.3564 37.5615 80.4286 37.5874C81.4206 37.5874 82.5986 37.3508 83.1388 36.3463C83.2938 36.0605 83.2141 35.556 83.3027 35.2391C83.4008 34.8201 83.6001 34.4321 83.8828 34.1095C84.2481 33.7472 84.7094 33.4992 85.2113 33.3952C85.5461 33.3225 85.8874 33.2851 86.2299 33.2836C86.3981 33.2836 86.5576 33.2836 86.717 33.2836C87.6027 33.3327 88.7496 33.7657 89.6176 33.5291C93.1027 32.5915 90.2597 29.5645 89.2677 28.5734Z" fill="#87B64D"/>
<g style="mix-blend-mode:multiply">
<path d="M2.34668 37.6144C9.50297 45.6507 22.58 44.4452 30.7903 49.8965C32.814 51.327 34.9582 52.5759 37.1982 53.6289C44.8416 48.316 55.4919 44.3738 64.3886 41.7709C71.6866 39.6324 77.3106 36.0785 83.8115 32.5693C84.6706 32.1229 88.4481 30.8103 88.7802 29.8102C89.1522 28.6807 86.1807 25.2429 85.0116 24.8009C83.8425 24.3589 81.9649 25.1268 80.8179 25.5197C75.8537 27.2163 70.9957 29.5915 66.2042 31.6675C56.0189 36.0651 41.7683 41.7263 30.622 38.4225C22.9077 36.1321 16.4998 36.6009 8.48001 36.9982C6.70865 37.0831 3.60877 36.6277 2.35996 37.4447C2.37768 37.0563 2.38211 38.0206 2.34668 37.6144Z" fill="#87B64D"/>
</g>
<path d="M5.98721 37.9983C4.52141 38.2483 2.90947 38.6724 2.00165 39.4582C-1.09823 42.1102 3.44088 41.6459 4.71626 42.2843C5.65951 42.7531 5.81008 43.6237 6.10235 44.5568C6.77104 46.6641 8.43169 47.2356 10.482 46.8427C10.7035 46.798 10.9249 46.74 11.1463 46.673C11.3677 46.6061 11.7131 46.4855 12.001 46.3873C12.5675 46.1692 13.1662 46.0485 13.7723 46.0301C15.1009 46.0525 15.1009 46.7266 16.0175 47.3695C16.9342 48.0124 18.9137 47.2624 20.0474 47.5883C20.7781 47.8026 21.429 48.2357 22.1597 48.4544C22.7629 48.6448 23.4066 48.6634 24.0197 48.508C24.3697 48.4185 24.6971 48.2557 24.9806 48.0303C25.2901 47.7919 25.5427 47.4868 25.7202 47.1374C23.0321 46.1596 20.2998 45.2578 17.5498 44.2621C13.3915 42.7219 9.33065 40.8422 5.98721 37.9983Z" fill="#87B64D"/>
<g style="mix-blend-mode:multiply">
<path d="M2.34668 37.6144C9.50297 45.6507 22.58 44.4452 30.7903 49.8965C32.814 51.327 34.9582 52.5759 37.1982 53.6289C44.8416 48.316 55.4919 44.3738 64.3886 41.7709C71.6866 39.6324 77.3106 36.0785 83.8115 32.5693C84.6706 32.1229 88.4481 30.8103 88.7802 29.8102C89.1522 28.6807 86.1807 25.2429 85.0116 24.8009C83.8425 24.3589 81.9649 25.1268 80.8179 25.5197C75.8537 27.2163 70.9957 29.5915 66.2042 31.6675C56.0189 36.0651 41.7683 41.7263 30.622 38.4225C22.9077 36.1321 16.4998 36.6009 8.48001 36.9982C6.70865 37.0831 3.60877 36.6277 2.35996 37.4447C2.37768 37.0563 2.38211 38.0206 2.34668 37.6144Z" fill="#87B64D"/>
</g>
<path d="M64.2427 41.9316C64.1275 41.5834 63.9902 41.2307 63.853 40.8914L62.2986 41.4852C58.0562 43.0835 53.7872 44.6104 49.6068 46.365C47.4812 47.2579 45.3777 48.2133 43.3229 49.267C41.3921 50.2581 39.5455 51.6377 37.5394 52.4368C37.516 52.4411 37.492 52.4411 37.4686 52.4368C37.44 52.4589 37.4049 52.4709 37.3689 52.4709C37.3329 52.4709 37.2979 52.4589 37.2693 52.4368C36.4308 51.913 35.585 51.4249 34.7318 50.9725C34.6506 51.2758 34.5914 51.5846 34.5547 51.8966C34.5169 52.1811 34.5169 52.4694 34.5547 52.7538C34.5795 52.9194 34.6241 53.0813 34.6875 53.236C35.2809 55.4683 37.3047 55.2897 38.0531 54.5754C38.4796 54.2712 38.8769 53.9274 39.2399 53.5485C40.2053 52.6244 41.1973 51.535 42.6232 51.477C43.2945 51.5003 43.9536 51.6645 44.5584 51.9591C45.1873 52.2092 45.8205 52.7404 46.5246 52.6869C47.5387 52.6154 48.296 51.5752 48.6148 50.6287C49.0577 49.4232 49.319 48.5169 50.5191 47.8338C51.7192 47.1507 52.7333 47.3427 53.9466 47.6954C54.8766 47.9678 55.9261 48.3473 56.7365 47.5972C57.4185 46.9632 57.2812 45.9096 58.189 45.4453L58.3308 45.3783C59.9604 44.6774 61.6211 46.1105 63.2684 45.664C64.6678 45.289 64.7918 44.0612 64.4597 42.6817C64.4003 42.428 64.3279 42.1777 64.2427 41.9316Z" fill="#87B64D"/>
<g style="mix-blend-mode:multiply">
<path d="M2.34668 37.6144C9.50297 45.6507 22.58 44.4452 30.7903 49.8965C32.814 51.327 34.9582 52.5759 37.1982 53.6289C44.8416 48.316 55.4919 44.3738 64.3886 41.7709C71.6866 39.6324 77.3106 36.0785 83.8115 32.5693C84.6706 32.1229 88.4481 30.8103 88.7802 29.8102C89.1522 28.6807 86.1807 25.2429 85.0116 24.8009C83.8425 24.3589 81.9649 25.1268 80.8179 25.5197C75.8537 27.2163 70.9957 29.5915 66.2042 31.6675C56.0189 36.0651 41.7683 41.7263 30.622 38.4225C22.9077 36.1321 16.4998 36.6009 8.48001 36.9982C6.70865 37.0831 3.60877 36.6277 2.35996 37.4447C2.37768 37.0563 2.38211 38.0206 2.34668 37.6144Z" fill="#87B64D"/>
</g>
<path d="M84.684 25.716C83.899 25.1105 83.0766 24.5558 82.2219 24.0552C82.027 23.9257 81.8322 23.7963 81.6417 23.6489C81.6417 23.8543 81.6417 24.0641 81.6417 24.2784C81.6772 25.7428 81.593 27.2787 80.7561 28.2743C80.0032 29.1672 78.6658 29.7788 77.6562 30.3726C76.3261 31.1881 74.9411 31.9086 73.5112 32.529C69.5832 34.1586 64.1186 34.6229 61.0807 31.0736C59.0613 32.0111 57.0641 33.0068 55.0713 33.9622L48.5527 37.0874C48.4819 39.4403 48.0833 41.8779 46.3385 43.4852C43.9826 45.6416 40.3115 46.6729 37.216 46.9721C34.0099 47.2846 30.2457 46.9408 27.447 45.1862C27.2167 45.0389 27.0041 44.8871 26.765 44.7174C26.0303 44.2289 25.4712 43.5149 25.1706 42.681C24.8699 41.8471 24.8435 40.9378 25.0955 40.0876C23.5456 39.4358 22.0178 38.6947 20.5121 37.9223C17.6469 39.1947 14.1131 38.6813 11.4206 37.1678C9.99466 36.3641 8.26315 35.1542 7.51033 33.6452C7.31535 33.2427 7.191 32.8092 7.14277 32.3638C6.64325 32.5321 6.15758 32.7396 5.69025 32.9844C4.94383 33.4791 4.22668 34.0172 3.54248 34.5962C4.40052 35.6309 5.35069 36.5844 6.38108 37.4446C6.54936 37.5874 6.71764 37.7258 6.89035 37.8598C10.7962 40.9582 15.5656 42.8602 20.2685 44.4183C22.1373 45.0433 24.0725 45.6416 26.0033 46.289L26.7517 46.5435C29.4585 47.4261 32.0686 48.5854 34.5413 50.0035L34.9841 50.2625C35.8315 50.7918 36.6436 51.3764 37.4153 52.0126C38.9165 50.5527 41.0953 49.5571 42.9552 48.6195C45.01 47.5659 47.1135 46.606 49.2391 45.713C53.517 43.9272 57.8922 42.3467 62.2321 40.7037L63.5606 40.1992L64.2337 39.9358C66.4169 39.0876 68.5912 38.1991 70.7302 37.2303C71.2571 36.9981 71.7841 36.757 72.3067 36.507C73.3031 36.0605 74.295 35.5471 75.2737 35.0337C79.1441 33.0023 82.678 30.1226 86.9115 28.9038C86.4811 27.6512 85.7091 26.5463 84.684 25.716Z" fill="#FCB922"/>
<g style="mix-blend-mode:multiply">
<path d="M7.83823 32.0782C7.12526 37.5876 13.0416 38.2617 16.9032 39.4806C18.8074 40.0833 20.8887 40.2931 22.7354 41.1325C24.396 41.8914 25.7998 43.463 27.3276 44.2577C31.0785 46.2043 35.2367 48.758 39.4083 47.8651C44.6737 46.7311 47.8223 43.463 51.5333 39.6949C53.1541 38.043 55.8111 35.5026 57.9633 34.5739C60.3015 33.5649 61.7496 34.8284 64.1099 35.132C69.579 35.8374 77.6564 32.8328 81.549 29.1494C83.028 27.752 83.2982 26.9573 83.3203 24.7697C83.4576 15.394 71.6072 18.7112 65.3853 19.555C49.7176 21.6801 34.2714 22.8231 19.0332 27.5913C15.4639 28.7074 11.0311 29.7745 8.09951 32.0872C8.51578 31.5023 7.6921 32.7881 7.83823 32.0782Z" fill="#FCB922"/>
</g>
<path d="M72.1076 29.02C74.1978 28.4306 75.6946 27.3368 77.2047 26.0688C75.3359 26.7028 73.1438 26.8502 71.275 27.3055C69.3807 27.775 67.5195 28.3716 65.7041 29.0914C67.8107 29.6098 70.0129 29.5853 72.1076 29.02Z" fill="#F02E2E"/>
<path d="M78.8253 25.3233C76.0266 29.52 69.5478 31.0469 64.8537 29.4352C63.7688 29.8816 62.6971 30.3281 61.6343 30.8326C65.022 33.3596 69.0651 33.3908 72.9843 31.8639C74.9447 31.0393 76.8296 30.0429 78.6172 28.886C80.1317 27.9619 80.7251 26.9305 80.7738 25.042C80.7738 24.9259 80.7738 24.8098 80.7738 24.6938C80.7738 24.4348 80.7738 24.1714 80.7738 23.9125L80.8004 23.0195C80.3931 23.9742 79.7033 24.7788 78.8253 25.3233Z" fill="#F02E2E"/>
<g style="mix-blend-mode:multiply">
<path d="M72.1076 29.02C74.1978 28.4306 75.6946 27.3368 77.2047 26.0688C75.3359 26.7028 73.1438 26.8502 71.275 27.3055C69.3807 27.775 67.5195 28.3716 65.7041 29.0914C67.8107 29.6098 70.0129 29.5853 72.1076 29.02Z" fill="#CE1919"/>
</g>
<g style="mix-blend-mode:multiply">
<path d="M78.8253 25.3233C76.0266 29.52 69.5478 31.0469 64.8537 29.4352C63.7688 29.8816 62.6971 30.3281 61.6343 30.8326C65.022 33.3596 69.0651 33.3908 72.9843 31.8639C74.9447 31.0393 76.8296 30.0429 78.6172 28.886C80.1317 27.9619 80.7251 26.9305 80.7738 25.042C80.7738 24.9259 80.7738 24.8098 80.7738 24.6938C80.7738 24.4348 80.7738 24.1714 80.7738 23.9125L80.8004 23.0195C80.3931 23.9742 79.7033 24.7788 78.8253 25.3233Z" fill="#CE1919"/>
</g>
<path d="M45.2715 38.7706C42.6144 40.2439 39.8289 41.9226 36.9461 42.3736C35.0596 42.6371 33.1418 42.56 31.2821 42.1459C32.815 42.8298 34.4774 43.1681 36.1534 43.137C39.8068 43.0656 42.6808 41.3512 45.329 38.9849L45.3645 38.9581C45.4093 38.9337 45.4611 38.9256 45.5112 38.9352C45.5613 38.9448 45.6065 38.9716 45.6393 39.0109C45.6721 39.0503 45.6904 39.0998 45.6912 39.1512C45.6919 39.2026 45.6751 39.2527 45.6434 39.293C41.8616 44.3112 33.5539 45.2666 28.6118 41.4315C27.58 41.1011 26.557 40.7172 25.5429 40.302C25.3991 40.905 25.3991 41.5339 25.5429 42.1369C25.9858 43.5522 27.4383 44.5121 28.7004 45.0702C31.2954 46.2176 34.3909 46.4676 37.1808 46.1819C40.0637 45.8827 43.6019 44.8961 45.7763 42.8691C47.3129 41.436 47.5477 39.4983 47.6406 37.5116L47.4901 37.583C46.7727 37.9491 46.0243 38.3554 45.2715 38.7706Z" fill="#F02E2E"/>
<g style="mix-blend-mode:multiply">
<path d="M25.4058 39.2885C26.442 41.5878 28.9928 42.07 30.9545 42.829C33.8242 43.9317 33.1068 45.3247 35.1172 47.0525C37.358 48.9767 42.1008 46.798 44.3726 45.7979C48.0393 44.1817 51.1879 39.418 49.514 35.1766C46.9898 34.8239 44.7269 36.6098 42.3931 37.2928C39.3237 38.2757 36.1384 38.8432 32.9208 38.9805C30.4763 39.0296 28.2887 39.7305 25.915 39.2707C25.5962 39.735 26.2294 38.9983 25.4058 39.2885Z" fill="#CE1919"/>
</g>
<path d="M7.7229 30.5513C7.68366 30.9145 7.66886 31.2799 7.67861 31.6451C7.67419 31.7016 7.67419 31.7583 7.67861 31.8148C7.67861 31.9308 7.67861 32.0424 7.71847 32.1541C8.01517 33.9935 9.56511 35.2213 11.0841 36.1722C12.299 36.9731 13.6743 37.494 15.1118 37.6977C16.5493 37.9015 18.0137 37.783 19.4006 37.3509C17.9259 36.5696 16.4734 35.7615 15.043 34.9668C12.7757 33.7167 9.94596 32.3862 7.7229 30.5513Z" fill="#F02E2E"/>
<g style="mix-blend-mode:multiply">
<path d="M7.56348 28.2029C7.73176 31.3281 10.5704 32.0469 12.4967 33.806C14.3522 35.5025 14.3744 38.4268 16.624 39.61C17.9126 40.3154 21.11 40.4181 22.1418 39.0653C23.6297 37.0964 20.2198 34.9936 18.599 33.9399C15.0563 31.6987 10.6988 31.2969 7.56348 28.2029Z" fill="#CE1919"/>
</g>
<path d="M85.4678 34.1318C85.1511 34.1895 84.8561 34.333 84.6142 34.5469C84.3723 34.7609 84.1928 35.0372 84.095 35.3462C83.8071 36.1186 84.0374 36.9401 83.4219 37.6142C82.2351 38.909 79.4806 38.3911 78.0059 38.1723C77.2841 38.0652 76.5756 37.9491 75.8759 37.8375C73.5465 38.8108 71.1641 39.7037 68.879 40.7127C67.6435 41.2618 66.4124 41.8244 65.1813 42.3869C65.3519 43.0667 65.3519 43.7787 65.1813 44.4585C65.1181 44.8051 64.9829 45.1343 64.7844 45.4244C64.586 45.7145 64.3288 45.9589 64.0299 46.1416C63.1885 46.6104 62.046 46.4765 60.8813 46.222C59.4199 45.9006 58.7203 45.9541 57.9674 47.298C57.4892 48.1596 57.2058 48.8874 56.0987 49.0035C54.8056 49.1374 53.7383 48.1686 52.4629 48.1641C50.0893 48.1641 49.7705 50.0928 49.2258 51.8653C49.1486 52.1827 49.0047 52.4798 48.8037 52.7363C48.6028 52.9928 48.3495 53.2028 48.0611 53.352C47.2315 53.6641 46.3133 53.6337 45.5059 53.2672C43.7346 52.6287 42.4902 51.8519 40.8118 53.218C39.873 53.986 39.1556 55.0039 38.0485 55.5441C37.4531 55.8861 36.7701 56.0415 36.0867 55.9906C34.7228 55.8075 34.1559 54.3029 34.1426 52.6198C33.5802 52.4189 33.0311 52.1733 32.4864 51.9412C30.6841 51.2134 28.895 50.4678 27.1015 49.7089C26.4372 49.4321 25.773 49.1642 25.0821 48.8963C24.8072 49.0729 24.5091 49.2096 24.1965 49.3026C21.938 49.9589 20.1356 47.9007 17.8506 48.3248C17.2306 48.4409 16.739 48.7713 16.0792 48.499C15.1935 48.1329 15.0784 47.0613 14.0687 46.8069C13.6713 46.7291 13.2612 46.749 12.873 46.8649C14.113 47.5569 15.3441 48.2668 16.5885 48.9186C19.3784 50.383 22.1919 51.7998 25.029 53.1689C28.6426 54.9191 32.2606 56.5933 35.9671 57.0308C38.2808 57.3414 40.6348 57.0747 42.8223 56.254C42.8239 56.2245 42.8339 56.1962 42.8512 56.1724C42.8685 56.1486 42.8923 56.1304 42.9197 56.12C44.6911 55.3789 46.5997 55.0218 48.4065 54.3699C48.5172 54.3342 48.6324 54.294 48.7431 54.2494C50.726 53.4752 52.6682 52.599 54.562 51.6242C57.808 49.9767 60.9522 48.1329 64.1761 46.4363C64.6189 46.2086 65.0617 45.9898 65.4736 45.7621C69.0377 43.867 72.8242 42.4315 76.7439 41.4895C78.8695 41.0163 81.1457 40.6904 83.0278 39.4983C84.8168 38.3554 86.0036 36.1632 85.4678 34.1318Z" fill="#E28740"/>
<g style="mix-blend-mode:multiply">
<path d="M15.2511 50.0661C19.3917 52.3966 25.5604 50.3072 30.011 52.6332C31.9506 53.6467 32.6946 55.0396 34.3508 56.4058C36.7377 58.3836 38.0353 57.455 40.5107 56.4996C44.1553 55.0932 48.6324 56.1558 52.8571 54.7852C55.9127 53.794 58.3306 52.2984 61.0364 51.1153C65.3009 49.2535 70.0792 48.24 74.3836 46.4363C78.0458 44.9005 83.4529 43.1682 85.7823 39.8466C86.65 38.527 87.2214 37.0322 87.4562 35.4668C87.9655 32.6228 87.899 32.4934 85.242 32.8952C82.8019 33.2657 80.6453 35.1275 78.2451 35.5114C76.9166 35.7347 76.6155 35.1944 75.1187 35.065C71.6424 34.8194 67.0988 35.8909 63.9237 37.1142C55.9968 40.1814 48.4243 43.9763 40.245 46.4319C36.6056 47.5063 32.785 47.8103 29.0235 47.3248C26.8093 47.0078 24.5419 45.3738 22.3809 45.3693C20.0028 45.3693 17.1199 47.3203 14.7197 47.9007C15.0961 48.6463 15.4416 49.4098 15.7604 50.2089C16.2032 49.7089 16.3848 49.1106 15.2511 50.0661Z" fill="#E28740"/>
</g>
<path d="M20.6007 36.949L21.5129 37.3955C22.7396 38.025 23.9751 38.6411 25.2328 39.2081L25.6756 39.4045C26.1716 39.6188 26.6676 39.851 27.1724 40.0207C27.5119 40.1605 27.8573 40.29 28.2087 40.4091C28.9261 40.668 29.6567 40.9002 30.3919 41.0966C32.0422 41.5554 33.7512 41.763 35.4624 41.7127C39.6694 41.5431 43.9251 38.6723 47.7025 36.6499C48.0036 36.4847 48.2959 36.3284 48.5882 36.2034L48.7874 36.1007C52.773 34.114 56.8117 32.1451 60.8814 30.2967C61.5634 29.9842 62.2453 29.6806 62.9317 29.377L63.8174 28.9975L64.402 28.7564C67.5798 27.4187 70.9014 26.4583 74.2994 25.8946C77.0362 25.4482 78.9227 24.4927 79.9014 22.6176C80.0478 22.3305 80.1707 22.0319 80.2689 21.7247C80.5442 20.8481 80.6846 19.9341 80.6852 19.0146C80.6749 19.0335 80.6631 19.0514 80.6498 19.0682C78.3691 22.1935 73.8965 22.0506 70.4955 22.7694C64.9954 23.9302 59.7832 26.8768 54.6728 29.1538L47.0958 32.5915C45.2447 33.4175 43.3626 34.1988 41.5382 35.0873C39.5365 36.065 37.6057 37.4356 35.3384 37.7348C32.7921 38.0518 30.2192 37.0561 27.8987 36.1275C22.5013 33.9426 17.25 31.4073 12.1779 28.5377C10.1541 27.4215 8.07273 26.4884 6.32794 24.9169C5.74954 24.4134 5.28708 23.7887 4.97285 23.0864C4.82799 24.6239 5.2025 26.1657 6.03567 27.4617C6.41778 28.0388 6.86346 28.5705 7.36419 29.0466C7.51033 29.1806 7.65646 29.3145 7.80703 29.4484C8.49021 30.0224 9.21232 30.5475 9.96809 31.02C13.0325 32.9844 16.2697 34.7167 19.5069 36.3775L20.6007 36.949Z" fill="#E28740"/>
<g style="mix-blend-mode:multiply">
<path d="M10.3091 32.355C15.1803 36.0695 22.8548 38.0831 28.5364 39.5743C39.3771 42.4227 47.9505 33.7703 56.5859 28.0377C60.226 25.6134 64.1451 23.2159 68.1617 21.4926C71.0224 20.2693 74.0869 19.6442 77.0185 18.4611C79.1663 17.5682 81.8012 15.5234 84.1349 15.51C85.5387 20.0907 81.8765 24.4794 78.4887 27.118C70.0748 33.6854 57.6753 40.1502 47.1932 41.628C40.9935 42.5209 35.4491 42.8111 29.2626 42.0209C25.1398 41.4896 17.7001 42.2307 14.4408 39.0028C13.3425 37.9179 12.4037 35.9535 11.6863 34.5382C10.9689 33.1229 9.94597 33.3461 10.3091 32.355Z" fill="#E28740"/>
</g>
<path d="M64.5391 40.628C64.6852 40.9539 64.8225 41.2843 64.9376 41.6191C66.2661 41.0298 67.5637 40.4539 68.8745 39.8735C70.5661 39.1234 72.271 38.3108 74.0025 37.5519C73.4667 37.476 72.9353 37.4045 72.395 37.351C69.8177 38.5475 67.1872 39.61 64.5391 40.628Z" fill="#F4C069"/>
<path d="M25.7686 48.3562L26.4682 48.6553C28.1378 49.3563 29.8073 50.0483 31.4723 50.7537C32.3182 51.1153 33.2658 51.41 34.1781 51.7627C34.2084 51.4295 34.2587 51.0986 34.3287 50.7715C31.7782 49.4706 29.1483 48.3343 26.455 47.3695C26.2799 47.7332 26.0481 48.0664 25.7686 48.3562Z" fill="#F4C069"/>
<g style="mix-blend-mode:multiply">
<path d="M64.5391 40.628C64.6852 40.9539 64.8225 41.2843 64.9376 41.6191C66.2661 41.0298 67.5637 40.4539 68.8745 39.8735C70.5661 39.1234 72.271 38.3108 74.0025 37.5519C73.4667 37.476 72.9353 37.4045 72.395 37.351C69.8177 38.5475 67.1872 39.61 64.5391 40.628Z" fill="#F4C069"/>
</g>
<g style="mix-blend-mode:multiply">
<path d="M25.7686 48.3562L26.4682 48.6553C28.1378 49.3563 29.8073 50.0483 31.4723 50.7537C32.3182 51.1153 33.2658 51.41 34.1781 51.7627C34.2084 51.4295 34.2587 51.0986 34.3287 50.7715C31.7782 49.4706 29.1483 48.3343 26.455 47.3695C26.2799 47.7332 26.0481 48.0664 25.7686 48.3562Z" fill="#F4C069"/>
</g>
<path d="M80.8759 15.6931C80.7431 12.3491 76.9612 9.92031 74.4769 8.13893C68.7601 4.0519 62.0401 1.62575 55.0495 1.12502C51.6352 0.883935 46.8702 0.749996 43.6242 2.04473C40.9672 3.09838 41.3613 6.00484 38.8991 6.9067C34.0279 8.69254 28.9839 9.91138 24.126 11.7374C18.9174 13.6649 13.8198 15.8843 8.85686 18.3852C7.93132 18.8629 6.90836 19.4255 6.26181 20.3184C6.1821 20.3184 6.10682 20.4702 6.04039 20.5863C5.8805 20.8443 5.77079 21.1307 5.71712 21.4301C5.48684 22.7159 6.36809 23.9079 7.38663 24.7294C10.0082 26.859 13.1435 28.1359 16.1194 29.6851C19.2193 31.3192 22.3192 33.0247 25.5785 34.3908C28.9795 35.8195 33.1643 38.1902 36.8798 36.5606C41.3082 34.623 45.648 32.3862 50.0587 30.3995C54.7926 28.2654 59.531 26.1492 64.3093 24.1222C66.3115 23.2229 68.4012 22.5361 70.5445 22.073C72.3158 21.7247 74.1403 21.5908 75.8984 21.131C77.8292 20.6309 79.7467 19.6532 80.5261 17.7111L80.6191 17.461C80.8179 16.8941 80.9051 16.2936 80.8759 15.6931ZM12.0099 24.1758H11.815C11.7105 24.1849 11.6066 24.1535 11.5243 24.088C11.442 24.0224 11.3876 23.9277 11.3722 23.8231C11.3709 23.7743 11.3796 23.7258 11.3977 23.6805C11.4158 23.6352 11.4429 23.5942 11.4774 23.5598C11.5118 23.5255 11.5529 23.4987 11.598 23.481C11.6431 23.4633 11.6914 23.4552 11.7397 23.457H11.9346C12.0333 23.4545 12.1297 23.4878 12.2061 23.5509C12.2825 23.614 12.3339 23.7027 12.3509 23.8008C12.3558 23.8493 12.3507 23.8983 12.3358 23.9447C12.321 23.991 12.2968 24.0338 12.2648 24.0703C12.2328 24.1068 12.1936 24.1362 12.1497 24.1567C12.1058 24.1772 12.0582 24.1882 12.0099 24.1892V24.1758ZM12.5811 19.8764C12.5229 19.8809 12.4644 19.8738 12.4089 19.8554C12.3534 19.837 12.3021 19.8077 12.2579 19.7692C12.2105 19.7316 12.1772 19.6788 12.1635 19.6196C12.1499 19.5604 12.1566 19.4982 12.1826 19.4433C12.1962 19.4189 12.208 19.3936 12.218 19.3674C12.2402 19.3183 12.3154 19.3139 12.3553 19.3049C12.417 19.2838 12.4834 19.2814 12.5464 19.2981C12.6094 19.3148 12.6661 19.3498 12.7096 19.3987C12.7483 19.4368 12.7768 19.4843 12.7923 19.5367C12.8078 19.589 12.8098 19.6445 12.7981 19.6978C12.7883 19.7496 12.7617 19.7966 12.7224 19.8314C12.6831 19.8662 12.6334 19.8867 12.5811 19.8898V19.8764ZM14.5695 22.0774C14.4898 22.2382 14.3126 22.381 14.1267 22.265C14.0653 22.218 14.0248 22.1485 14.014 22.0715C14.0032 21.9946 14.023 21.9165 14.0691 21.8542C14.2595 21.5908 14.7201 21.7828 14.5695 22.0908V22.0774ZM18.3425 27.0242C18.4222 27.0242 18.3779 27.0242 18.3425 27.0242C18.3028 27.0444 18.2612 27.0609 18.2185 27.0733C17.9085 27.1626 17.7491 26.7072 17.9306 26.4974C17.916 26.4817 17.9079 26.4609 17.9079 26.4394C17.9079 26.4178 17.916 26.3971 17.9306 26.3813L18.0369 26.2831C18.0647 26.2579 18.0983 26.2401 18.1347 26.2316C18.1711 26.223 18.2091 26.2238 18.2451 26.234C18.3347 26.2238 18.4248 26.2495 18.4959 26.3054C18.5671 26.3612 18.6137 26.443 18.6259 26.5331C18.6613 26.7296 18.5462 27.0153 18.3425 27.0376V27.0242ZM19.0422 20.0907C18.5728 20.0907 18.4399 19.2692 18.9625 19.2692C19.485 19.2692 19.5736 20.0907 19.0422 20.0907ZM21.1279 23.7963C21.1131 23.8194 21.0927 23.8383 21.0687 23.8514C21.0448 23.8645 21.0179 23.8713 20.9907 23.8713C20.9634 23.8713 20.9366 23.8645 20.9126 23.8514C20.8886 23.8383 20.8683 23.8194 20.8534 23.7963C20.8274 23.7667 20.8077 23.7319 20.7955 23.6943C20.7833 23.6567 20.7789 23.617 20.7825 23.5776C20.7827 23.5647 20.7864 23.552 20.7931 23.5411C20.7998 23.5301 20.8093 23.5211 20.8207 23.5152C20.832 23.5092 20.8448 23.5065 20.8576 23.5073C20.8703 23.508 20.8827 23.5123 20.8932 23.5195C20.9113 23.5039 20.9327 23.4927 20.9557 23.4865C20.9786 23.4803 21.0027 23.4794 21.0261 23.4838C21.0459 23.4746 21.0682 23.4727 21.0893 23.4784C21.1103 23.4841 21.1287 23.4971 21.1412 23.5151C21.1714 23.5548 21.1877 23.6034 21.1877 23.6535C21.1877 23.7035 21.1714 23.7521 21.1412 23.7919L21.1279 23.7963ZM23.0676 25.85C23.0402 25.8556 23.0119 25.8547 22.9849 25.8475C22.9579 25.8402 22.933 25.8268 22.912 25.8082C22.891 25.7896 22.8745 25.7664 22.8639 25.7404C22.8532 25.7143 22.8487 25.6862 22.8506 25.6581C22.8506 25.5643 22.9834 25.5866 22.9879 25.6581C22.9923 25.7295 23.0897 25.6045 23.0986 25.6C23.108 25.5924 23.1197 25.5883 23.1318 25.5883C23.1439 25.5883 23.1556 25.5924 23.165 25.6C23.2846 25.6982 23.1872 25.8322 23.0809 25.8456L23.0676 25.85ZM24.6441 22.323C24.2013 22.323 24.3297 21.6756 24.746 21.6756C25.1622 21.6756 25.0604 22.323 24.6441 22.323ZM25.6848 18.6754C25.6354 18.6772 25.5862 18.669 25.54 18.6511C25.4939 18.6333 25.4518 18.6063 25.4162 18.5717C25.3807 18.5371 25.3524 18.4957 25.3331 18.4498C25.3138 18.404 25.3039 18.3547 25.3039 18.3048C25.3237 18.2017 25.379 18.1088 25.46 18.0427C25.541 17.9765 25.6425 17.9413 25.7468 17.9432C25.7956 17.9408 25.8443 17.9484 25.8901 17.9654C25.936 17.9824 25.9779 18.0086 26.0135 18.0424C26.049 18.0761 26.0775 18.1168 26.0971 18.1619C26.1167 18.207 26.1271 18.2556 26.1276 18.3048C26.1097 18.4097 26.0552 18.5046 25.974 18.5725C25.8929 18.6405 25.7903 18.677 25.6848 18.6754ZM27.2214 27.1805C27.0867 27.1782 26.9583 27.1226 26.8639 27.0257C26.7695 26.9288 26.7166 26.7984 26.7166 26.6626C26.7364 26.5275 26.8075 26.4053 26.9149 26.3221C27.0223 26.2388 27.1576 26.2008 27.2923 26.2161C27.427 26.2185 27.5554 26.2741 27.6498 26.371C27.7442 26.4678 27.7971 26.5982 27.7971 26.734C27.7774 26.8658 27.7088 26.9851 27.6053 27.068C27.5017 27.1508 27.3709 27.191 27.2391 27.1805H27.2214Z" fill="#F4C069"/>
<g style="mix-blend-mode:multiply">
<path d="M12.0938 28.502C13.8651 29.9843 20.3173 31.0156 22.9566 31.4799C26.9059 32.0836 30.9339 31.9061 34.8159 30.9576C46.6308 27.7654 58.344 26.1983 69.7205 21.4658C65.9829 25.7117 58.9728 28.7744 54.1414 31.9487C49.3986 35.074 44.1199 37.3956 38.4959 38.2617C28.4965 39.8064 20.087 32.9399 12.0938 28.502Z" fill="#F4C069"/>
</g>
<path d="M90.2461 28.3548C89.6084 27.6985 88.6696 26.7921 89.8963 26.0332C89.9981 25.9662 90.1177 25.9215 90.224 25.859C90.4454 25.7205 90.6295 25.529 90.76 25.3017C90.8906 25.0743 90.9635 24.8179 90.9724 24.5554C90.8927 22.6758 88.0895 22.5463 86.8008 22.5195C85.2034 22.4862 83.6144 22.762 82.12 23.3321C81.9517 23.2606 81.7834 23.1981 81.6152 23.1446C81.6152 22.7249 81.5886 22.332 81.6152 21.9748C81.6119 21.8847 81.5749 21.7992 81.5116 21.7354C81.4484 21.6717 81.3636 21.6344 81.2742 21.6311C81.5991 20.2013 81.6799 18.7262 81.5133 17.2691C81.7049 16.3985 81.7002 15.4955 81.4993 14.627C81.2985 13.7584 80.9068 12.9464 80.3531 12.2509C80.3352 12.187 80.3017 12.1287 80.2556 12.0812C75.7543 7.428 70.1637 3.99185 63.999 2.08944C59.7167 0.77238 55.9969 -0.169654 51.1566 0.0267894C48.9424 0.116082 46.6662 -0.0446444 44.514 0.504503C41.7861 1.19205 41.1396 2.38857 40.0192 4.7816C39.2885 6.33975 36.8175 6.56745 35.4137 6.97819C29.5302 8.73939 23.7405 10.8048 18.0676 13.1661C15.198 14.3567 12.3624 15.6276 9.56067 16.9789C7.88231 17.787 5.71239 18.7067 4.94185 20.5506C4.77427 20.9471 4.68984 21.3742 4.69386 21.8052C4.10808 23.1879 4.02959 24.7358 4.47244 26.1716C5.04199 27.6936 5.98876 29.0431 7.22248 30.0915C7.1492 30.6346 7.11074 31.1819 7.10734 31.73C5.53083 32.1229 3.72404 33.2971 2.94907 34.4088C2.91934 34.4348 2.89523 34.4667 2.87822 34.5025C2.84955 34.5489 2.83911 34.6043 2.84894 34.658C2.85878 34.7117 2.88817 34.7598 2.93136 34.7927C2.93136 34.7927 2.93136 34.7927 2.93136 34.8195C3.71298 35.8085 4.5799 36.7259 5.52197 37.5608C2.6568 38.1635 -1.1472 39.5431 0.32746 41.82C0.52811 42.07 0.775752 42.2776 1.05617 42.4308C1.33659 42.584 1.64427 42.6799 1.96154 42.713C2.42652 42.8067 2.97564 42.6817 3.41848 42.8022C4.67172 43.1416 4.93742 43.6952 5.30055 44.8381C5.74339 46.298 6.41651 47.2579 7.95759 47.6285C8.79008 47.803 9.64929 47.803 10.4818 47.6285C10.9824 47.5176 11.4739 47.3684 11.952 47.182C13.7234 48.191 15.539 49.1063 17.2927 50.0438C20.4988 51.7538 23.7404 53.4057 27.0351 54.9549C32.1145 57.339 39.2177 60.058 44.3723 56.3345C45.9548 56.0109 47.5029 55.5355 48.9956 54.9147C51.2882 54.0361 53.527 53.0209 55.7002 51.8743C60.1906 49.5572 64.526 46.9365 69.1492 44.8917C71.5364 43.8169 74.0203 42.9752 76.5668 42.3781C78.781 41.8736 81.1103 41.5477 83.1164 40.4003C85.2243 39.1904 86.9691 36.5116 86.4465 34.1141C87.0975 34.1632 87.7751 34.3106 88.3552 34.3597C89.79 34.4757 91.3798 34.1543 91.858 32.5738C92.3363 30.9933 91.3222 29.4664 90.2461 28.3548ZM78.8253 25.3233C79.7155 24.7826 80.4166 23.9758 80.8313 23.0151L80.8048 23.908C80.8048 24.1669 80.8048 24.4304 80.8048 24.6893C80.8048 24.8054 80.8048 24.9215 80.8048 25.0375C80.7561 26.9261 80.1627 27.9574 78.6481 28.8816C76.8605 30.0384 74.9756 31.0349 73.0152 31.8595C69.0961 33.3864 65.0441 33.3551 61.6652 30.8282C62.728 30.3415 63.7997 29.8683 64.8847 29.4307C69.5256 31.0469 76.0177 29.52 78.8253 25.3233ZM65.7128 29.0914C67.5282 28.3717 69.3893 27.7751 71.2837 27.3056C73.1525 26.8591 75.3446 26.7028 77.2133 26.0689C75.7032 27.3368 74.2065 28.4307 72.1162 29.02C70.0187 29.5868 67.8133 29.6114 65.7039 29.0914H65.7128ZM6.2748 20.3185C6.92135 19.4255 7.94431 18.863 8.86984 18.3853C13.8288 15.8935 18.9221 13.6831 24.1257 11.7643C28.9969 9.93823 34.0364 8.69707 38.8988 6.92015C41.361 6.02723 40.9757 3.10291 43.6239 2.04926C46.8699 0.754521 51.6349 0.88846 55.0492 1.12955C62.0401 1.62533 68.7611 4.05026 74.4766 8.13899C76.9609 9.92484 80.7428 12.3491 80.8756 15.6931C80.9071 16.2996 80.8199 16.9065 80.6188 17.479L80.5258 17.729C79.7464 19.6711 77.8289 20.6488 75.8981 21.1489C74.1267 21.5953 72.3244 21.7427 70.5442 22.0909C68.402 22.5439 66.3124 23.2202 64.309 24.1089C59.5307 26.1448 54.7923 28.261 50.0407 30.3951C45.6123 32.3818 41.2724 34.6186 36.8618 36.5563C33.164 38.1858 28.9792 35.8107 25.5782 34.3775C22.3277 33.0381 19.2367 31.3103 16.1191 29.6763C13.1565 28.1271 10.0079 26.8413 7.38633 24.7116C6.3678 23.8901 5.48655 22.6847 5.71682 21.3989C5.77414 21.1089 5.88695 20.8329 6.04895 20.5863C6.11538 20.4703 6.19066 20.3185 6.27037 20.3185H6.2748ZM6.02238 27.4618C5.18922 26.1658 4.8147 24.624 4.95957 23.0865C5.27379 23.7888 5.73625 24.4135 6.31466 24.917C8.05945 26.4885 10.1408 27.4217 12.1646 28.5378C17.2367 31.4075 22.488 33.9427 27.8854 36.1276C30.2192 37.0518 32.7921 38.0519 35.3472 37.7126C37.6057 37.4135 39.5365 36.0428 41.547 35.0651C43.3715 34.1721 45.2536 33.3953 47.1046 32.5694L54.6816 29.1941C59.792 26.9172 65.0042 23.9705 70.5043 22.8097C73.9053 22.0909 78.378 22.2516 80.6586 19.1085C80.672 19.0918 80.6838 19.0738 80.6941 19.055C80.6935 19.9744 80.5531 20.8884 80.2778 21.765C80.1796 22.0722 80.0566 22.3708 79.9102 22.6579C78.9315 24.533 77.0451 25.5019 74.3083 25.9349C70.9045 26.4944 67.577 27.4518 64.3931 28.7878L63.8086 29.0289L62.9229 29.4084C62.2365 29.712 61.5545 30.0156 60.8725 30.3281C56.8028 32.172 52.7819 34.1409 48.7786 36.1321L48.5793 36.2348C48.287 36.3777 47.9947 36.5339 47.6936 36.6813C43.9162 38.7037 39.6605 41.5923 35.4535 41.7441C33.7434 41.7911 32.0359 41.5804 30.3874 41.1191C29.6523 40.9226 28.9216 40.6726 28.2042 40.4315C27.8529 40.3095 27.5075 40.18 27.168 40.0431C26.6632 39.8511 26.1672 39.6413 25.6712 39.427L25.2284 39.2306C23.9707 38.6635 22.7352 38.0474 21.5085 37.4179L20.5962 36.9715L19.5113 36.3866C16.2741 34.7258 13.037 32.9935 9.97251 31.0291C9.21702 30.5594 8.49492 30.0373 7.81145 29.4664C7.65646 29.3325 7.51032 29.1986 7.36861 29.0646C6.86116 28.5867 6.40949 28.052 6.02238 27.4708V27.4618ZM25.5516 40.3021C26.5657 40.7173 27.5887 41.1012 28.6205 41.4316C33.5626 45.2667 41.8703 44.3113 45.6521 39.2931C45.6838 39.2528 45.7006 39.2027 45.6999 39.1513C45.6991 39.0999 45.6808 39.0503 45.648 39.011C45.6152 38.9716 45.57 38.9449 45.5199 38.9353C45.4698 38.9257 45.418 38.9338 45.3731 38.9582L45.3377 38.985C42.6807 41.3557 39.8155 43.0657 36.1621 43.1371C34.4861 43.1681 32.8237 42.8299 31.2908 42.1459C33.1504 42.5601 35.0683 42.6372 36.9548 42.3736C39.8376 41.9272 42.6142 40.244 45.2801 38.7707C46.033 38.3555 46.7814 37.9537 47.4943 37.601L47.6449 37.5295C47.5386 39.4984 47.3172 41.4361 45.7805 42.8871C43.6062 44.914 40.0679 45.9007 37.185 46.1998C34.3951 46.4855 31.2997 46.2355 28.7046 45.0881C27.4425 44.53 25.9767 43.5702 25.5472 42.1549C25.402 41.5458 25.4035 40.9105 25.5516 40.3021ZM7.72289 30.5513C9.93709 32.3863 12.7757 33.7168 15.0475 34.9758C16.4778 35.7705 17.9303 36.5786 19.405 37.3599C18.0142 37.7922 16.5459 37.9091 15.105 37.7023C13.6642 37.4954 12.2865 36.9699 11.0708 36.1634C9.55182 35.2035 8.00188 33.9757 7.70517 32.1452C7.70517 32.0336 7.67417 31.922 7.66532 31.8059C7.66089 31.7494 7.66089 31.6927 7.66532 31.6362C7.66037 31.2737 7.67961 30.9113 7.72289 30.5513ZM3.54248 34.5963C4.2244 34.0253 4.93857 33.4946 5.68139 33.0069C6.14873 32.762 6.63439 32.5546 7.13391 32.3863C7.19049 32.8333 7.32386 33.2668 7.52804 33.6676C8.28087 35.1767 10.0124 36.3866 11.4383 37.1902C14.1308 38.7037 17.6646 39.2172 20.5298 37.9447C22.0355 38.7171 23.5633 39.4582 25.1132 40.1101C24.8612 40.9602 24.8876 41.8696 25.1883 42.7034C25.489 43.5373 26.048 44.2514 26.7827 44.7399C27.0041 44.9095 27.2256 45.0613 27.4647 45.2087C30.2634 46.9454 34.0276 47.2892 37.2337 46.9945C40.3336 46.6954 44.0003 45.6551 46.3562 43.5077C48.1276 41.9004 48.5084 39.4627 48.5704 37.1099L55.089 33.9846C57.0818 33.0292 59.0746 32.0336 61.0984 31.096C64.1363 34.6677 69.6009 34.1811 73.5289 32.5515C74.9689 31.9207 76.3628 31.1881 77.7005 30.3594C78.7057 29.7656 80.0431 29.1762 80.8003 28.261C81.6152 27.2654 81.686 25.7296 81.686 24.2652C81.686 24.0509 81.686 23.8187 81.686 23.6357C81.8764 23.783 82.0713 23.9125 82.2661 24.0419C83.1209 24.5425 83.9433 25.0972 84.7283 25.7028C85.7485 26.5349 86.5158 27.6395 86.9425 28.8905C82.709 30.1049 79.1751 32.989 75.3047 35.0204C74.326 35.5339 73.3341 36.025 72.3377 36.4937C71.8151 36.7438 71.2881 36.9849 70.7612 37.217C68.6222 38.1858 66.4479 39.0743 64.2647 39.9226L63.5916 40.186L62.2631 40.6905C57.9232 42.3335 53.548 43.8916 49.2701 45.6998C47.1445 46.5927 45.041 47.5526 42.9862 48.6062C41.1307 49.5617 38.952 50.5394 37.4197 51.9949C36.648 51.3587 35.8359 50.7741 34.9885 50.2448L34.5413 50.0037C32.0726 48.5879 29.467 47.4301 26.765 46.5481L26.0166 46.2936C24.0858 45.6462 22.1506 45.0479 20.2818 44.4229C15.5656 42.8603 10.7962 40.9584 6.90806 37.8599C6.73535 37.726 6.56707 37.5876 6.3988 37.4447C5.36224 36.5854 4.40613 35.6319 3.54248 34.5963ZM63.255 45.6864C61.6077 46.1328 59.947 44.6997 58.3174 45.4007L58.1756 45.4676C57.29 45.9141 57.4051 46.9856 56.7231 47.6196C55.9127 48.3696 54.8632 47.9901 53.9332 47.7178C52.7154 47.3651 51.6792 47.191 50.5057 47.8562C49.3321 48.5214 49.031 49.4456 48.6014 50.651C48.2649 51.5975 47.5253 52.6378 46.5112 52.7092C45.8071 52.7628 45.1827 52.2315 44.545 51.9815C43.9402 51.6869 43.2811 51.5227 42.6098 51.4993C41.1839 51.5574 40.1919 52.6467 39.2265 53.5709C38.8635 53.9497 38.4662 54.2935 38.0397 54.5978C37.2913 55.3032 35.2675 55.4907 34.6741 53.2584C34.6107 53.1036 34.5661 52.9417 34.5413 52.7762C34.5035 52.4917 34.5035 52.2035 34.5413 51.919C34.578 51.607 34.6372 51.2981 34.7184 50.9948C35.5716 51.4502 36.4174 51.9383 37.2559 52.4592C37.2845 52.4813 37.3195 52.4933 37.3555 52.4933C37.3915 52.4933 37.4266 52.4813 37.4552 52.4592C37.4786 52.4635 37.5026 52.4635 37.526 52.4592C39.5321 51.66 41.3787 50.2805 43.3095 49.2893C45.3643 48.2357 47.4678 47.2803 49.5934 46.3873C53.7738 44.6283 58.0428 43.1058 62.2852 41.5075L63.8396 40.9137C63.9768 41.253 64.1141 41.6057 64.2293 41.954C64.3167 42.2072 64.3906 42.4651 64.4507 42.7263C64.7961 44.0836 64.6544 45.3114 63.2727 45.6864H63.255ZM26.455 47.3695C29.1484 48.3343 31.7783 49.4706 34.3287 50.7716C34.2588 51.0986 34.2085 51.4296 34.1781 51.7627C33.2659 51.41 32.3182 51.1154 31.4724 50.7537C29.8073 50.0483 28.1378 49.3563 26.4683 48.6554L25.7686 48.3562C26.0482 48.0664 26.2799 47.7333 26.455 47.3695ZM64.5393 40.628C67.1963 39.61 69.8179 38.5475 72.3952 37.351C72.9355 37.4045 73.4669 37.476 74.0027 37.5519C72.2712 38.3108 70.5663 39.1234 68.8747 39.8735C67.5461 40.4539 66.2486 41.0298 64.9378 41.6191C64.8227 41.2843 64.6854 40.9539 64.5393 40.628ZM11.1328 46.6731C10.9113 46.74 10.6899 46.7981 10.4685 46.8427C8.41815 47.2356 6.7575 46.6641 6.08881 44.5568C5.79653 43.6282 5.64597 42.771 4.70272 42.2843C3.42734 41.6459 -1.12506 42.1102 1.98811 39.4582C2.90922 38.6725 4.52115 38.2483 5.97367 37.9983C9.31711 40.8423 13.378 42.7219 17.5362 44.2488C20.2863 45.2444 23.0186 46.1462 25.7066 47.124C25.5292 47.4735 25.2765 47.7786 24.9671 48.0169C24.6836 48.2424 24.3561 48.4051 24.0061 48.4946C23.3931 48.65 22.7494 48.6315 22.1462 48.4411C21.4155 48.2223 20.7645 47.7892 20.0338 47.5749C18.9002 47.249 16.9074 47.9723 16.004 47.3561C15.1006 46.74 15.074 46.0525 13.7588 46.0168C13.1527 46.0351 12.5539 46.1558 11.9874 46.3739C11.6996 46.4855 11.4162 46.5838 11.1328 46.6731ZM83.0278 39.494C81.1458 40.686 78.8696 41.0119 76.7439 41.4852C72.8243 42.4271 69.0378 43.8626 65.4736 45.7578C65.0308 45.981 64.588 46.2043 64.1761 46.432C60.9523 48.1285 57.8081 49.9724 54.5621 51.6199C52.6682 52.5947 50.726 53.4709 48.7431 54.245C48.6324 54.2897 48.5173 54.3299 48.4066 54.3656C46.5998 55.0174 44.6779 55.3746 42.9198 56.1157C42.8924 56.1261 42.8686 56.1443 42.8513 56.1681C42.834 56.1918 42.824 56.2202 42.8224 56.2497C40.6363 57.0764 38.2823 57.3493 35.9672 57.0444C32.2606 56.5979 28.6426 54.9326 25.0291 53.1825C22.189 51.8103 19.3755 50.3936 16.5885 48.9322C15.3442 48.2803 14.1131 47.5928 12.8731 46.8784C13.2613 46.7625 13.6714 46.7426 14.0688 46.8204C15.0785 47.0749 15.198 48.1598 16.0793 48.5125C16.7258 48.7804 17.2174 48.4544 17.8506 48.3384C20.1357 47.8919 21.938 49.9724 24.1965 49.3161C24.5092 49.2232 24.8073 49.0864 25.0822 48.9098C25.7598 49.1777 26.4373 49.4456 27.1016 49.7224C28.8729 50.468 30.6841 51.2136 32.4865 51.9547C33.0312 52.1735 33.5803 52.4324 34.1427 52.6333C34.1427 54.3165 34.7228 55.8211 36.0868 56.0041C36.7702 56.055 37.4531 55.8996 38.0486 55.5576C39.1557 55.0085 39.8731 53.9995 40.8119 53.2316C42.4902 51.8654 43.7568 52.6423 45.506 53.2807C46.3134 53.6472 47.2316 53.6777 48.0612 53.3655C48.3496 53.2163 48.6029 53.0063 48.8038 52.7498C49.0048 52.4933 49.1487 52.1963 49.2258 51.8788C49.7705 50.093 50.0894 48.1687 52.463 48.1776C53.7384 48.1776 54.8056 49.1509 56.0987 49.017C57.2058 48.9009 57.4892 48.1732 57.9675 47.3115C58.7203 45.9721 59.42 45.9141 60.8814 46.2355C62.0461 46.49 63.1886 46.624 64.03 46.1552C64.3289 45.9725 64.586 45.728 64.7845 45.4379C64.9829 45.1478 65.1182 44.8186 65.1814 44.472C65.352 43.7922 65.352 43.0802 65.1814 42.4004C66.4125 41.8379 67.6436 41.2753 68.8791 40.7262C71.1641 39.7172 73.5466 38.8243 75.876 37.851C76.5756 37.9626 77.2842 38.0787 78.006 38.1858C79.4807 38.4046 82.2351 38.9225 83.422 37.6278C84.0375 36.9536 83.8072 36.1321 84.0951 35.3597C84.1929 35.0507 84.3724 34.7744 84.6143 34.5604C84.8561 34.3465 85.1512 34.203 85.4679 34.1454C86.0037 36.1634 84.8169 38.3555 83.0278 39.494ZM89.5818 33.556C88.6962 33.7927 87.5581 33.3596 86.6813 33.3105C86.5218 33.3105 86.3624 33.3105 86.1941 33.3105C85.8517 33.312 85.5104 33.3494 85.1756 33.4221C84.6737 33.5261 84.2123 33.7742 83.8471 34.1364C83.5717 34.4626 83.38 34.852 83.2891 35.2704C83.2005 35.5874 83.2891 36.0919 83.1253 36.3777C82.585 37.3822 81.407 37.6233 80.4151 37.6188C79.3428 37.5929 78.2746 37.4749 77.2222 37.2661C76.6376 37.1634 76.0487 37.0474 75.4508 36.9357C74.853 36.8241 74.3836 36.7438 73.8477 36.6679C74.0603 36.5696 74.2729 36.467 74.4854 36.3598C78.781 34.2168 82.74 30.8728 87.4119 29.6272C87.4663 29.6129 87.5167 29.5861 87.5591 29.5489C87.6014 29.5117 87.6347 29.465 87.6561 29.4127C87.6776 29.3603 87.6867 29.3036 87.6828 29.2471C87.6788 29.1906 87.6619 29.1358 87.6334 29.087C87.6355 29.0751 87.6355 29.063 87.6334 29.0512C87.1241 26.743 85.1845 24.8768 83.0633 23.7785C84.4262 23.369 85.8526 23.2177 87.2702 23.3321C88.3375 23.4169 89.2719 23.1669 89.8431 24.225C89.8841 24.2894 89.912 24.3614 89.9252 24.4367C89.9385 24.512 89.9368 24.5893 89.9203 24.6639C89.9039 24.7386 89.8729 24.8093 89.8293 24.8719C89.7856 24.9345 89.7301 24.9877 89.666 25.0286C89.2232 25.4349 88.2976 25.868 88.0718 26.4305C87.6821 27.3993 88.6608 28.0154 89.2542 28.6048C90.2594 29.5647 93.1024 32.5917 89.5818 33.556Z" fill="#662D02"/>
<path d="M27.2387 27.1805C27.3734 27.1958 27.5087 27.1579 27.6161 27.0746C27.7235 26.9913 27.7946 26.8692 27.8144 26.734C27.8144 26.5982 27.7615 26.4678 27.6671 26.3709C27.5727 26.274 27.4443 26.2185 27.3096 26.2161C27.1749 26.2007 27.0396 26.2387 26.9322 26.322C26.8248 26.4053 26.7537 26.5274 26.7339 26.6626C26.7339 26.7984 26.7868 26.9288 26.8812 27.0257C26.9756 27.1225 27.104 27.1781 27.2387 27.1805Z" fill="#662D02"/>
<path d="M25.6846 18.6755C25.7901 18.677 25.8927 18.6405 25.9739 18.5726C26.055 18.5046 26.1095 18.4097 26.1274 18.3049C26.1275 18.2553 26.1175 18.2062 26.0982 18.1605C26.0788 18.1149 26.0505 18.0737 26.0149 18.0395C25.9793 18.0053 25.9371 17.9787 25.891 17.9614C25.8449 17.944 25.7957 17.9364 25.7466 17.9388C25.6424 17.9369 25.5408 17.9721 25.4598 18.0382C25.3788 18.1044 25.3235 18.1972 25.3037 18.3004C25.3031 18.3506 25.3126 18.4004 25.3316 18.4468C25.3507 18.4932 25.3788 18.5352 25.4144 18.5702C25.4501 18.6053 25.4924 18.6327 25.5388 18.6508C25.5852 18.6689 25.6348 18.6773 25.6846 18.6755Z" fill="#662D02"/>
<path d="M24.6438 22.323C25.06 22.323 25.2062 21.6757 24.7456 21.6757C24.2851 21.6757 24.1788 22.323 24.6438 22.323Z" fill="#662D02"/>
<path d="M23.0808 25.8455C23.187 25.8455 23.2845 25.6982 23.1782 25.6178C23.1688 25.6102 23.157 25.6061 23.145 25.6061C23.1329 25.6061 23.1212 25.6102 23.1118 25.6178C23.1118 25.6178 23.0055 25.7205 23.0011 25.6759C22.9966 25.6312 22.8682 25.5687 22.8638 25.6759C22.8652 25.7021 22.8721 25.7277 22.8842 25.751C22.8963 25.7742 22.9132 25.7946 22.9338 25.8107C22.9544 25.8268 22.9782 25.8382 23.0035 25.8442C23.0289 25.8503 23.0552 25.8507 23.0808 25.8455Z" fill="#662D02"/>
<path d="M21.1412 23.7918C21.1713 23.7521 21.1877 23.7034 21.1877 23.6534C21.1877 23.6034 21.1713 23.5547 21.1412 23.515C21.1287 23.497 21.1103 23.484 21.0892 23.4783C21.0682 23.4726 21.0458 23.4745 21.026 23.4837C21.0026 23.4793 20.9786 23.4802 20.9556 23.4864C20.9326 23.4926 20.9113 23.5039 20.8932 23.5195C20.8826 23.5122 20.8703 23.508 20.8575 23.5072C20.8447 23.5065 20.832 23.5092 20.8206 23.5151C20.8093 23.5211 20.7997 23.53 20.793 23.541C20.7863 23.552 20.7827 23.5646 20.7825 23.5775C20.7789 23.6169 20.7833 23.6567 20.7955 23.6943C20.8077 23.7319 20.8273 23.7666 20.8533 23.7963C20.8678 23.8222 20.8889 23.8436 20.9145 23.8584C20.9401 23.8732 20.9691 23.8808 20.9986 23.8803C21.028 23.8798 21.0568 23.8714 21.0819 23.8558C21.107 23.8402 21.1275 23.8181 21.1412 23.7918Z" fill="#662D02"/>
<path d="M19.0417 20.0907C19.5598 20.0907 19.4314 19.2692 18.962 19.2692C18.4926 19.2692 18.5989 20.0907 19.0417 20.0907Z" fill="#662D02"/>
<path d="M18.2186 27.0956C18.2613 27.0832 18.3028 27.0667 18.3426 27.0465C18.378 27.0465 18.4223 27.0465 18.3426 27.0465C18.5463 27.0242 18.6614 26.7385 18.6215 26.5599C18.6094 26.4698 18.5627 26.388 18.4916 26.3321C18.4204 26.2762 18.3304 26.2506 18.2407 26.2608C18.2047 26.2506 18.1668 26.2497 18.1304 26.2583C18.094 26.2669 18.0603 26.2846 18.0326 26.3099L17.9263 26.4081C17.9117 26.4238 17.9035 26.4446 17.9035 26.4661C17.9035 26.4877 17.9117 26.5084 17.9263 26.5242C17.7491 26.7295 17.9086 27.1849 18.2186 27.0956Z" fill="#662D02"/>
<path d="M14.5695 22.0909C14.7201 21.7828 14.2595 21.5908 14.0779 21.8676C14.0319 21.9299 14.0121 22.008 14.0229 22.085C14.0337 22.1619 14.0742 22.2314 14.1355 22.2784C14.3127 22.3945 14.4898 22.2516 14.5695 22.0909Z" fill="#662D02"/>
<path d="M12.5808 19.8898C12.6312 19.8875 12.6795 19.8689 12.7186 19.8367C12.7577 19.8045 12.7854 19.7605 12.7978 19.7112C12.8094 19.6579 12.8074 19.6024 12.7919 19.5501C12.7764 19.4977 12.748 19.4502 12.7092 19.4121C12.6658 19.3632 12.609 19.3282 12.546 19.3115C12.4831 19.2948 12.4166 19.2972 12.3549 19.3183C12.3151 19.3183 12.2398 19.3183 12.2176 19.3808C12.2077 19.4069 12.1958 19.4323 12.1822 19.4567C12.1562 19.5116 12.1495 19.5738 12.1632 19.633C12.1769 19.6922 12.2101 19.745 12.2575 19.7826C12.3017 19.8211 12.353 19.8504 12.4085 19.8688C12.464 19.8872 12.5225 19.8943 12.5808 19.8898Z" fill="#662D02"/>
<path d="M11.8149 24.1981H12.0097C12.0568 24.1994 12.1036 24.191 12.1474 24.1735C12.1912 24.156 12.231 24.1298 12.2645 24.0965C12.298 24.0632 12.3244 24.0233 12.3423 23.9794C12.3602 23.9355 12.3691 23.8884 12.3684 23.841C12.3515 23.7429 12.3001 23.6542 12.2237 23.5911C12.1473 23.528 12.0509 23.4947 11.9522 23.4972H11.7573C11.7089 23.4954 11.6607 23.5035 11.6156 23.5212C11.5704 23.5389 11.5294 23.5657 11.4949 23.6C11.4605 23.6343 11.4334 23.6754 11.4153 23.7207C11.3972 23.766 11.3885 23.8145 11.3898 23.8633C11.4088 23.9613 11.4623 24.0492 11.5404 24.1107C11.6185 24.1722 11.7159 24.2032 11.8149 24.1981Z" fill="#662D02"/>
</g>
<defs>
<clipPath id="clip0">
<rect width="92" height="61" fill="white"/>
</clipPath>
</defs>
</svg>
