<svg width="75" height="78" viewBox="0 0 75 78" fill="none" xmlns="http://www.w3.org/2000/svg">
<path d="M66.5308 47.8701H8.49481C6.50125 47.8701 4.88477 49.6619 4.88477 51.873V55.3792C4.88477 56.249 5.52106 56.9546 6.30612 56.9546H68.72C69.5045 56.9546 70.1408 56.249 70.1408 55.3792V51.873C70.1408 49.6619 68.5249 47.8701 66.5308 47.8701Z" fill="#912C2C"/>
<path d="M66.5311 47.8701H61.6685V56.9552H68.7203C69.5054 56.9552 70.1411 56.2497 70.1411 55.3792V51.873C70.1411 49.6619 68.5252 47.8701 66.5311 47.8701Z" fill="#7C1E1E"/>
<path d="M68.9588 43.0881C70.8385 43.0881 72.4229 44.819 72.4246 46.9921C72.4264 50.0953 69.2357 51.7374 65.5296 51.1359C62.0677 50.5744 62.0242 48.808 58.5183 48.808C55.013 48.808 55.013 51.1359 51.5071 51.1359C48.0018 51.1359 48.0018 48.808 44.4964 48.808C40.9911 48.808 40.9911 51.1359 37.4858 51.1359C33.9799 51.1359 33.9804 48.808 30.4745 48.808C26.9692 48.808 26.9692 51.1359 23.4639 51.1359C19.9585 51.1359 19.9585 48.808 16.4526 48.808C12.9473 48.808 12.9032 50.5737 9.44196 51.1359C5.73521 51.7374 2.54516 50.0953 2.54688 46.9921C2.54802 44.819 4.13246 43.0881 6.01215 43.0881H68.9588Z" fill="#A0E557"/>
<path d="M72.4249 46.9921C72.4231 44.819 70.8387 43.0881 68.959 43.0881H63.6987V50.634C64.196 50.8377 64.7831 51.0147 65.5298 51.1359C69.236 51.7374 72.4266 50.0953 72.4249 46.9921Z" fill="#93CC4A"/>
<path d="M70.9441 56.1484H4.05554C2.42304 56.1484 1.1001 57.616 1.1001 59.4255C1.1001 68.8348 7.97915 76.4626 16.465 76.4626H58.5347C67.0205 76.4626 73.8995 68.8348 73.8995 59.4255C73.8995 57.616 72.576 56.1484 70.9441 56.1484Z" fill="#EFA335"/>
<path d="M70.9445 56.1484H65.4421V62.7032C65.4421 70.3024 59.886 76.4632 53.0327 76.4632H58.535C67.0209 76.4632 73.8999 68.8348 73.8999 59.4255C73.8999 57.616 72.5764 56.1484 70.9445 56.1484Z" fill="#FD8F31"/>
<path d="M66.5175 38.9166H8.48212C6.48798 38.9166 4.87207 37.1249 4.87207 34.9137V31.4076C4.87207 30.5371 5.50836 29.8315 6.29286 29.8315H68.7068C69.4913 29.8315 70.1276 30.5371 70.1276 31.4076V34.9137C70.1276 37.1249 68.5117 38.9166 66.5175 38.9166Z" fill="#FC4E51"/>
<path d="M68.707 29.8315H61.6809V36.4898C61.6809 37.8298 60.7013 38.9166 59.4922 38.9166H66.5183C68.5119 38.9166 70.1283 37.1249 70.1283 34.9137V31.4076C70.1278 30.5371 69.4915 29.8315 68.707 29.8315Z" fill="#EA3942"/>
<path d="M69.5666 38.1558H5.50184C4.04901 38.1558 2.81533 39.4742 2.84223 41.0845C2.86855 42.6466 4.01868 43.9035 5.43375 43.9035H46.1382C46.7996 43.9035 47.4388 44.1655 47.9412 44.6427L53.7182 50.1316C55.4056 51.7349 57.9245 51.6143 59.482 49.8568L63.9424 44.8229C64.4631 44.2347 65.1755 43.9035 65.9188 43.9035H69.4991C70.9513 43.9035 72.1856 42.5857 72.1581 40.9748C72.1318 39.4127 70.9816 38.1558 69.5666 38.1558Z" fill="#FFDB58"/>
<path d="M37.4998 1.22021C3.60922 1.23417 1.1001 26.0239 1.1001 29.5345C1.1001 31.3446 2.42361 32.8116 4.05554 32.8116H70.9441C72.576 32.8116 73.8995 31.3446 73.8995 29.5345C73.8995 26.0239 71.3904 1.23417 37.4998 1.22021Z" fill="#EFA335"/>
<path d="M73.899 29.4412C73.899 29.4311 73.8984 29.4203 73.8984 29.4095C73.8984 29.386 73.8978 29.3619 73.8972 29.3372C73.8967 29.3257 73.8967 29.3137 73.8961 29.3016C73.8955 29.2762 73.895 29.2496 73.8938 29.2229C73.8938 29.2103 73.8932 29.1982 73.8927 29.1855C73.8915 29.1563 73.8904 29.1265 73.8892 29.096C73.8887 29.0846 73.8881 29.0738 73.8875 29.0631C73.8864 29.0269 73.8841 28.9901 73.8824 28.952C73.8818 28.945 73.8818 28.9387 73.8812 28.9324C73.8686 28.6951 73.848 28.4191 73.8177 28.1101C73.8177 28.1094 73.8177 28.1088 73.8177 28.1088C73.1963 21.7748 68.3497 1.2329 37.4998 1.22021C36.0315 1.22085 34.6233 1.26907 33.2706 1.35853C53.802 2.72266 61.3082 13.9345 63.9947 21.9036C65.1248 25.2568 62.8634 28.8264 59.6356 28.8264H4.05554C2.83846 28.8264 1.79361 28.0098 1.34042 26.8443C1.15217 28.0879 1.1001 29.0307 1.1001 29.5345C1.1001 31.3446 2.42361 32.8116 4.05554 32.8116H70.9441C72.576 32.8116 73.8995 31.3446 73.8995 29.5345C73.8995 29.5053 73.8995 29.4736 73.899 29.4412Z" fill="#FD8F31"/>
<path d="M69.5667 38.1558H63.6987V45.0976L63.9425 44.8229C64.4632 44.2347 65.1756 43.9035 65.9189 43.9035H69.4992C70.9514 43.9035 72.1857 42.5851 72.1582 40.9748C72.1319 39.4127 70.9818 38.1558 69.5667 38.1558Z" fill="#FFDB58"/>
<path d="M71.2413 54.9414V51.8731C71.2413 51.6891 71.2293 51.5057 71.2121 51.3243C71.4851 51.1428 71.7386 50.9423 71.9686 50.7215C72.9877 49.7444 73.5256 48.4545 73.5244 46.9914C73.5239 45.7396 73.1084 44.5461 72.3903 43.6242C72.9539 42.8819 73.2744 41.9365 73.2578 40.9518C73.2286 39.2026 72.1889 37.7115 70.7687 37.1621C71.0634 36.4806 71.2282 35.718 71.2282 34.9135V34.0195C73.3327 33.8571 75.0001 31.9079 75.0001 29.5344C75.0001 29.1911 74.9349 21.0381 69.2626 13.2968C66.3799 9.36237 62.5638 6.24645 57.9192 4.03529C52.3013 1.36096 45.4314 0.00317235 37.4995 0C27.5094 0.00380695 19.2599 2.14581 12.9799 6.36509C12.4598 6.71469 12.2938 7.46465 12.6086 8.04075C12.9238 8.61686 13.6002 8.80149 14.1197 8.45189C20.0518 4.46673 27.9179 2.44401 37.4995 2.44021C45.131 2.44338 51.7085 3.73391 57.0512 6.27753C61.3651 8.33134 64.899 11.2106 67.5546 14.8354C72.7399 21.9117 72.7994 29.2266 72.7994 29.5344C72.7994 30.6688 71.9675 31.5913 70.9444 31.5913H4.05579C3.03269 31.5913 2.2007 30.6688 2.2007 29.5344C2.2007 29.2279 2.23675 26.428 3.49503 22.5798C4.87119 18.3694 7.11023 14.7079 10.1486 11.6973C10.6018 11.248 10.6413 10.4765 10.2362 9.97464C9.83107 9.47214 9.13584 9.42899 8.68265 9.87757C0.0989916 18.3834 0 29.0832 0 29.5344C0 31.9079 1.66741 33.8571 3.77141 34.0195V34.9135C3.77141 35.725 3.93964 36.494 4.2389 37.1798C3.70045 37.393 3.20435 37.7394 2.79809 38.1982C2.09885 38.9881 1.72406 40.0217 1.74237 41.1073C1.75782 42.0482 2.06166 42.9282 2.58008 43.6261C1.86253 44.548 1.44768 45.7415 1.44711 46.9914C1.44596 48.4545 1.98384 49.7444 3.00294 50.7215C3.24727 50.9556 3.51849 51.1669 3.81032 51.3566C3.79487 51.5279 3.78457 51.6999 3.78457 51.8731V54.9389C1.67427 55.095 0 57.0466 0 59.4253C0 69.4926 7.3866 77.6824 16.4652 77.6824H58.5349C67.6135 77.6824 75.0001 69.4926 75.0001 59.4253C75.0001 57.0568 73.3396 55.1108 71.2413 54.9414ZM70.5295 48.8758C69.5178 49.8459 67.6633 50.2495 65.6886 49.9291C64.2907 49.7019 63.5549 49.2705 62.7761 48.813C62.597 48.7083 62.4162 48.6017 62.2274 48.4983L64.7268 45.6774C65.0386 45.3253 65.4729 45.1235 65.9187 45.1235H69.4984C69.8406 45.1235 70.177 45.0721 70.5043 44.97C71.0182 45.4763 71.3237 46.2135 71.3243 46.9933C71.3243 47.7363 71.0571 48.3701 70.5295 48.8758ZM5.97211 34.0322H69.028V34.9135C69.028 35.8608 68.5983 36.6983 67.9443 37.2008C67.926 37.2154 67.9071 37.2287 67.8882 37.242C67.8413 37.2763 67.7932 37.3086 67.7446 37.3391C67.7274 37.3499 67.7108 37.3607 67.6942 37.3708C67.6319 37.4076 67.5683 37.4419 67.5031 37.473C67.4991 37.4749 67.4957 37.4768 67.4922 37.4787C67.4196 37.5123 67.3452 37.5428 67.2691 37.5688C67.2605 37.5719 67.2519 37.5745 67.2433 37.577C67.1798 37.5986 67.1152 37.617 67.0493 37.6322C67.0287 37.6373 67.0087 37.6417 66.9881 37.6462C66.9315 37.6576 66.8743 37.6677 66.8165 37.6754C66.7947 37.6779 66.7735 37.6811 66.7518 37.6836C66.6746 37.6919 66.5967 37.6969 66.5178 37.6969H8.4818C7.09821 37.6969 5.97211 36.4483 5.97211 34.9141V34.0322ZM4.36879 39.9075C4.66805 39.5699 5.08061 39.3758 5.50176 39.3758H6.0362C6.74974 39.858 7.58688 40.1365 8.48238 40.1365H66.5178C66.6156 40.1365 66.7123 40.1321 66.8084 40.1257C66.8393 40.1238 66.8697 40.1206 66.9 40.1181C66.9675 40.1118 67.035 40.1041 67.102 40.0946C67.1346 40.0902 67.1678 40.0864 67.2004 40.0813C67.2862 40.0673 67.3715 40.0515 67.4556 40.0325C67.4911 40.0242 67.526 40.0147 67.5615 40.0058C67.6193 39.9912 67.6771 39.976 67.7343 39.9589C67.7778 39.9462 67.8213 39.9322 67.8642 39.9182C67.9105 39.903 67.9563 39.8859 68.0021 39.8694C68.0461 39.8535 68.0896 39.8377 68.1331 39.8205C68.2081 39.7894 68.2824 39.7571 68.3557 39.7228C68.3997 39.7019 68.4432 39.679 68.4867 39.6568C68.5279 39.6359 68.5686 39.6143 68.6086 39.5921C68.6515 39.568 68.6944 39.5445 68.7368 39.5192C68.7848 39.4906 68.8323 39.4602 68.8798 39.4297C68.9084 39.4113 68.9376 39.3948 68.9662 39.3758H69.5665C70.3739 39.3758 71.0428 40.1035 71.0576 40.9975C71.0685 41.6206 70.7252 42.2125 70.1839 42.5044C70.1839 42.5044 70.1839 42.5044 70.1833 42.5044C69.963 42.623 69.7324 42.6839 69.4984 42.6839H65.9181C64.8864 42.6839 63.8799 43.1516 63.1566 43.9681L58.6963 49.0021C57.6331 50.2025 55.9474 50.3649 54.7166 49.4418C54.6897 49.4215 54.6634 49.4012 54.6371 49.3802C54.5684 49.3257 54.5003 49.2686 54.4345 49.2064C54.4345 49.2057 54.4339 49.2051 54.4334 49.2051L48.6564 43.7162C47.9554 43.0507 47.0611 42.6839 46.1381 42.6839H5.43367C5.20707 42.6839 4.98734 42.6262 4.77963 42.5133H4.77906C4.27323 42.2379 3.9528 41.6815 3.9425 41.0616C3.93506 40.6365 4.08669 40.2266 4.36879 39.9075ZM3.64781 46.9927C3.64781 46.218 3.95051 45.4845 4.45977 44.9782C4.77563 45.0747 5.10121 45.1235 5.43367 45.1235H46.1381C46.5369 45.1235 46.9226 45.2821 47.2253 45.5689L51.7938 49.91C51.7022 49.9138 51.6067 49.9157 51.5077 49.9157C50.0594 49.9157 49.4008 49.4786 48.5677 48.9253C47.6235 48.2984 46.5535 47.5878 44.4964 47.5878C42.4399 47.5878 41.3699 48.2984 40.4258 48.9253C39.5926 49.4786 38.9346 49.9157 37.4858 49.9157C36.0369 49.9157 35.3789 49.4786 34.5458 48.9253C33.6016 48.2984 32.5316 47.5878 30.4751 47.5878C28.418 47.5878 27.348 48.2984 26.4039 48.9253C25.5707 49.4786 24.9127 49.9157 23.4639 49.9157C22.015 49.9157 21.357 49.4786 20.5239 48.9253C19.5797 48.2984 18.5097 47.5878 16.4526 47.5878C14.2794 47.5878 13.2191 48.2109 12.1937 48.813C11.4155 49.2698 10.6802 49.7019 9.28232 49.9284C7.30764 50.2488 5.45312 49.8453 4.44203 48.8758C3.91446 48.3701 3.64724 47.7363 3.64781 46.9927ZM58.5349 75.2429H16.4652C8.59968 75.2429 2.2007 68.1469 2.2007 59.4253C2.2007 58.2909 3.03269 57.3683 4.05579 57.3683H53.3816C53.9893 57.3683 54.482 56.822 54.482 56.1482C54.482 55.4744 53.9893 54.9281 53.3816 54.9281H5.98527V52.2563C6.61069 52.401 7.27674 52.4771 7.96854 52.4771C8.50069 52.4771 9.04772 52.4327 9.60161 52.3432C11.3749 52.0552 12.3574 51.4785 13.2242 50.9696C14.1197 50.4436 14.827 50.028 16.4532 50.028C17.9015 50.028 18.5601 50.4652 19.3932 51.0185C20.3373 51.6453 21.4074 52.3559 23.4644 52.3559C25.5209 52.3559 26.591 51.6453 27.5351 51.0185C28.3682 50.4652 29.0263 50.028 30.4751 50.028C31.9239 50.028 32.582 50.4652 33.4151 51.0185C34.3592 51.6453 35.4293 52.3559 37.4863 52.3559C39.5428 52.3559 40.6129 51.6453 41.557 51.0185C42.3901 50.4652 43.0482 50.028 44.497 50.028C45.9458 50.028 46.6039 50.4652 47.437 51.0185C48.3811 51.6453 49.4512 52.3559 51.5077 52.3559C52.4873 52.3559 53.309 52.1986 54.0986 51.8598C54.8431 52.2684 55.6539 52.4727 56.4647 52.4727C57.85 52.4727 59.2319 51.8801 60.267 50.712L60.5748 50.3649C60.9885 50.5267 61.3496 50.7367 61.7479 50.9702C62.6148 51.4791 63.5972 52.0552 65.3705 52.3432C65.9244 52.4333 66.4714 52.4771 67.0036 52.4771C67.7154 52.4771 68.3997 52.3965 69.0412 52.2436V54.9281H58.5017C57.8941 54.9281 57.4014 55.4744 57.4014 56.1482C57.4014 56.822 57.8941 57.3683 58.5017 57.3683H70.9444C71.9675 57.3683 72.8 58.2909 72.8 59.4253C72.7994 68.1469 66.4005 75.2429 58.5349 75.2429Z" fill="black"/>
<path d="M46.6511 15.6266C46.7983 15.6957 46.9586 15.7315 47.121 15.7315C47.3356 15.7316 47.5458 15.6695 47.7267 15.5528C47.9076 15.4361 48.0515 15.2695 48.1415 15.0729L48.8116 13.6085C48.9365 13.3356 48.9488 13.0238 48.8458 12.7417C48.7428 12.4596 48.533 12.2303 48.2625 12.1044C47.992 11.9784 47.683 11.966 47.4034 12.0699C47.1239 12.1738 46.8966 12.3855 46.7718 12.6584L46.1036 14.1228C45.9787 14.3955 45.9662 14.707 46.0689 14.989C46.1716 15.271 46.381 15.5003 46.6511 15.6266Z" fill="#422002"/>
<path d="M62.4162 24.5694C62.6387 24.5698 62.8564 24.5035 63.0415 24.3789C63.2266 24.2543 63.3709 24.0771 63.456 23.8696C63.5411 23.6621 63.5633 23.4338 63.5196 23.2137C63.476 22.9935 63.3685 22.7914 63.2108 22.6329L61.9374 21.3525C61.834 21.2428 61.7099 21.1551 61.5724 21.0946C61.4349 21.034 61.2868 21.0019 61.1368 21.0001C60.9868 20.9983 60.8379 21.0268 60.699 21.0839C60.5601 21.1411 60.434 21.2258 60.328 21.3329C60.2221 21.4401 60.1385 21.5676 60.0822 21.7079C60.0258 21.8482 59.9979 21.9985 60.0001 22.1498C60.0023 22.3012 60.0345 22.4505 60.0948 22.5891C60.1551 22.7277 60.2424 22.8527 60.3513 22.9568L61.6222 24.2391C61.7265 24.3442 61.8503 24.4276 61.9865 24.4842C62.1228 24.5409 62.2688 24.5699 62.4162 24.5694Z" fill="#422002"/>
<path d="M33.4627 20.2164C33.3434 20.3039 33.2423 20.4142 33.1653 20.5411C33.0882 20.668 33.0368 20.809 33.0137 20.956C32.9907 21.103 32.9967 21.2531 33.0312 21.3978C33.0657 21.5425 33.1281 21.6789 33.2149 21.7992L33.8266 22.6483C33.9119 22.7722 34.0209 22.8777 34.1472 22.9586C34.2734 23.0395 34.4144 23.0941 34.5619 23.1192C34.7094 23.1444 34.8603 23.1396 35.0059 23.1051C35.1515 23.0706 35.2888 23.0071 35.4097 22.9183C35.5307 22.8296 35.6329 22.7174 35.7103 22.5882C35.7877 22.4591 35.8387 22.3157 35.8605 22.1664C35.8822 22.0171 35.8741 21.8649 35.8368 21.7188C35.7995 21.5727 35.7336 21.4355 35.6431 21.3154L35.0314 20.467C34.8562 20.2239 34.5926 20.061 34.2984 20.014C34.0043 19.967 33.7036 20.0398 33.4627 20.2164Z" fill="#422002"/>
<path d="M11.2258 20.4343L10.2309 21.7464C10.1413 21.8647 10.0757 21.9996 10.0378 22.1434C9.99983 22.2873 9.99036 22.4373 10.0099 22.5848C10.0294 22.7324 10.0775 22.8746 10.1515 23.0034C10.2255 23.1322 10.3239 23.245 10.4411 23.3354C10.5583 23.4258 10.692 23.4921 10.8346 23.5303C10.9772 23.5686 11.1258 23.5782 11.2721 23.5585C11.4183 23.5388 11.5593 23.4902 11.6869 23.4155C11.8145 23.3409 11.9263 23.2416 12.0159 23.1233L13.0102 21.8112C13.1869 21.5721 13.2632 21.2724 13.2224 20.977C13.1816 20.6816 13.027 20.4143 12.7922 20.2331C12.5574 20.0519 12.2613 19.9714 11.9681 20.0091C11.6748 20.0467 11.4081 20.1995 11.2258 20.4343Z" fill="#422002"/>
<path d="M21.1233 12C20.8253 12 20.5396 12.1194 20.329 12.332C20.1183 12.5445 20 12.8328 20 13.1334C20 13.434 20.1183 13.7223 20.329 13.9348C20.5396 14.1474 20.8253 14.2668 21.1233 14.2668H22.8826C23.1805 14.2668 23.4662 14.1474 23.6768 13.9348C23.8875 13.7223 24.0058 13.434 24.0058 13.1334C24.0058 12.8328 23.8875 12.5445 23.6768 12.332C23.4662 12.1194 23.1805 12 22.8826 12H21.1233Z" fill="#422002"/>
</svg>
